22700 0 2 4           
30 Autodesk Translation Framework 20 ASM 227.7.0.65535 NT 24 Mon Jan 31 12:57:17 2022 
1 9.999999999999999547e-07 1.000000000000000036e-10 
asmheader $-1 -1 @13 227.7.0.65535 #
body $2 -1 $-1 $3 $-1 $4 #
rgb_color-st-attrib $-1 -1 $5 $-1 $1 0.627450980392156854 0.627450980392156854 0.627450980392156854 1 #
lump $-1 -1 $-1 $-1 $6 $1 #
transform $-1 -1 1 0 0 0 1 0 0 0 1 0 0 0 1 no_rotate no_reflect no_shear #
ATTRIB_CUSTOM-attrib $-1 -1 $-1 $2 $1 @20 Timestamp_attrib_def 1 1624208894221605 #
shell $-1 -1 $-1 $-1 $-1 $7 $-1 $3 #
face $8 -1 $-1 $9 $10 $6 $-1 $11 forward single #
DXID-attrib $-1 -1 $-1 $-1 $7 @10 ASM ENTITY @1 0 #
face $12 -1 $-1 $13 $14 $6 $-1 $15 forward single #
loop $-1 -1 $-1 $-1 $16 $7 #
plane-surface $-1 -1 $-1 7.999999999999999112 14 8.250000000000003553 -0.7071067811865475727 0.7071067811865475727 0 0 0 10 forward_v I I I I #
DXID-attrib $-1 -1 $-1 $-1 $9 @10 ASM ENTITY @1 1 #
face $17 -1 $-1 $18 $19 $6 $-1 $20 forward single #
loop $-1 -1 $-1 $-1 $21 $9 #
plane-surface $-1 -1 $-1 33.37499999999999289 14 6.5 -1.075405793619024405e-17 0.7071067811865475727 -0.7071067811865475727 -10 0 1.520853458390626053e-16 forward_v I I I I #
coedge $-1 -1 $-1 $22 $23 $24 $25 forward $10 0 $-1 #
DXID-attrib $-1 -1 $-1 $-1 $13 @10 ASM ENTITY @1 2 #
face $26 -1 $-1 $27 $28 $6 $-1 $29 forward single #
loop $-1 -1 $-1 $-1 $30 $13 #
plane-surface $-1 -1 $-1 40.49999999999998579 14 16.75000000000001421 0.7071067811865476838 0.7071067811865474617 3.220702479351334864e-16 4.554761126667309268e-15 0 -10 forward_v I I I I #
coedge $-1 -1 $-1 $31 $32 $33 $34 forward $14 0 $-1 #
coedge $-1 -1 $-1 $35 $16 $36 $37 forward $10 0 $-1 #
coedge $-1 -1 $-1 $16 $35 $32 $38 forward $10 0 $-1 #
coedge $-1 -1 $-1 $39 $40 $16 $25 reversed $41 0 $-1 #
edge $-1 -1 $-1 $42 -0.5750000000000003997 $43 1.324999999999999956 $24 $44 forward @7 unknown #
DXID-attrib $-1 -1 $-1 $-1 $18 @10 ASM ENTITY @1 3 #
face $45 -1 $-1 $46 $47 $6 $-1 $48 forward single #
loop $-1 -1 $-1 $-1 $49 $18 #
plane-surface $-1 -1 $-1 24.25000000000000355 18 12.00000000000000711 0 1 0 0 0 10 forward_v I I I I #
coedge $-1 -1 $-1 $50 $51 $49 $52 forward $19 0 $-1 #
coedge $-1 -1 $-1 $53 $21 $51 $54 forward $14 0 $-1 #
coedge $-1 -1 $-1 $21 $53 $23 $38 reversed $14 0 $-1 #
coedge $-1 -1 $-1 $55 $49 $21 $34 reversed $28 0 $-1 #
edge $-1 -1 $-1 $56 -2.137499999999999289 $57 0.3125000000000004441 $33 $58 forward @7 unknown #
coedge $-1 -1 $-1 $23 $22 $55 $59 forward $10 0 $-1 #
coedge $-1 -1 $-1 $60 $61 $22 $37 reversed $47 0 $-1 #
edge $-1 -1 $-1 $43 0.0707106781186550154 $62 1.202081528017131085 $36 $63 forward @7 unknown #
edge $-1 -1 $-1 $56 -0 $42 1.385640646055102065 $23 $64 forward @7 unknown #
coedge $-1 -1 $-1 $65 $24 $66 $67 forward $41 0 $-1 #
coedge $-1 -1 $-1 $24 $65 $60 $68 forward $41 0 $-1 #
loop $-1 -1 $-1 $-1 $24 $69 #
vertex $-1 -1 $-1 $67 0 $70 #
vertex $-1 -1 $-1 $37 0 $71 #
straight-curve $-1 -1 $-1 3.999999999999999112 10 8.250000000000003553 0 0 10 F -3.055001000000000744 F 3.805001000000000744 #
DXID-attrib $-1 -1 $-1 $-1 $27 @10 ASM ENTITY @1 4 #
face $72 -1 $-1 $73 $74 $6 $-1 $75 forward single #
loop $-1 -1 $-1 $-1 $36 $27 #
plane-surface $-1 -1 $-1 4.000000000000000888 0 21.50000000000000355 -4.386066270124077443e-16 0 1 10 0 4.386066270124077345e-15 forward_v I I I I #
coedge $-1 -1 $-1 $33 $76 $30 $52 reversed $28 0 $-1 #
coedge $-1 -1 $-1 $77 $30 $78 $79 forward $19 0 $-1 #
coedge $-1 -1 $-1 $30 $77 $31 $54 reversed $19 0 $-1 #
edge $-1 -1 $-1 $57 -0.6250000000000013323 $80 0.4750000000000003109 $49 $81 forward @7 unknown #
coedge $-1 -1 $-1 $32 $31 $82 $83 forward $14 0 $-1 #
edge $-1 -1 $-1 $57 0 $84 1.385640646055102065 $31 $85 forward @7 unknown #
coedge $-1 -1 $-1 $86 $33 $35 $59 reversed $28 0 $-1 #
vertex $-1 -1 $-1 $59 1 $87 #
vertex $-1 -1 $-1 $34 1 $88 #
straight-curve $-1 -1 $-1 33.37499999999999289 18 10.5 10 0 -1.520853458390626053e-16 F -5.417500999999999678 F 3.592501000000001277 #
edge $-1 -1 $-1 $62 -1.3250000000000004 $56 -0.2249999999999996447 $55 $89 forward @7 unknown #
coedge $-1 -1 $-1 $90 $36 $40 $68 reversed $47 0 $-1 #
coedge $-1 -1 $-1 $36 $91 $86 $92 reversed $47 0 $-1 #
vertex $-1 -1 $-1 $92 0 $93 #
straight-curve $-1 -1 $-1 3.499999999999998668 9.499999999999998224 21.50000000000000355 7.071067811865475505 7.071067811865475505 3.101417202338322885e-15 I I #
straight-curve $-1 -1 $-1 12.00000000000000178 18 10.5 -5.773502691896259975 -5.773502691896256422 -5.773502691896256422 F -0 F 1.385640646055102065 #
coedge $-1 -1 $-1 $40 $39 $94 $95 reversed $41 0 $-1 #
coedge $-1 -1 $-1 $82 $96 $39 $67 reversed $74 0 $-1 #
edge $-1 -1 $-1 $42 -0.6999999999999999556 $97 0 $66 $98 forward @7 unknown #
edge $-1 -1 $-1 $99 0 $43 0.6999999999999999556 $40 $100 forward @7 unknown #
face $101 -1 $-1 $102 $41 $6 $-1 $103 forward single #
point $-1 -1 $-1 3.999999999999996891 10 2.500000000000000444 #
point $-1 -1 $-1 4.000000000000000888 10 21.50000000000000355 #
DXID-attrib $-1 -1 $-1 $-1 $46 @10 ASM ENTITY @1 5 #
face $104 -1 $-1 $105 $106 $6 $-1 $107 forward single #
loop $-1 -1 $-1 $-1 $82 $46 #
plane-surface $-1 -1 $-1 42.49999999999999289 3.000000000000000444 2.5 -1.52085345839062593e-17 0 -1 -10 0 1.520853458390626053e-16 forward_v I I I I #
coedge $-1 -1 $-1 $49 $108 $109 $110 forward $28 0 $-1 #
coedge $-1 -1 $-1 $51 $50 $111 $112 forward $19 0 $-1 #
coedge $-1 -1 $-1 $109 $113 $50 $79 reversed $114 0 $-1 #
edge $-1 -1 $-1 $80 0.2298097038856274366 $115 1.361180553784102853 $78 $116 forward @7 unknown #
vertex $-1 -1 $-1 $52 1 $117 #
straight-curve $-1 -1 $-1 36.49999999999999289 18 16.75000000000001421 -4.554761126667309268e-15 0 10 F -3.905001000000002165 F 2.955001000000001099 #
coedge $-1 -1 $-1 $118 $66 $53 $83 reversed $74 0 $-1 #
edge $-1 -1 $-1 $84 -1.112500000000000711 $42 2.9375 $82 $119 forward @7 unknown #
vertex $-1 -1 $-1 $120 0 $121 #
straight-curve $-1 -1 $-1 36.5 18 10.5 5.773502691896258199 -5.773502691896257311 -5.773502691896257311 F 0 F 1.385640646055102065 #
coedge $-1 -1 $-1 $108 $55 $61 $92 forward $28 0 $-1 #
point $-1 -1 $-1 12.00000000000000178 18 10.5 #
point $-1 -1 $-1 36.5 18 10.5 #
straight-curve $-1 -1 $-1 12 18 8.250000000000003553 0 0 -10 F -3.805001000000000744 F 3.055001000000000744 #
coedge $-1 -1 $-1 $122 $60 $123 $124 reversed $47 0 $-1 #
coedge $-1 -1 $-1 $61 $122 $125 $126 forward $47 0 $-1 #
edge $-1 -1 $-1 $62 -0.2124999999999999112 $127 0.02381400333574079653 $61 $128 forward @7 unknown #
point $-1 -1 $-1 12 18 21.50000000000000711 #
coedge $-1 -1 $-1 $129 $130 $65 $95 forward $106 0 $-1 #
edge $-1 -1 $-1 $99 -1.325000000000000178 $97 0.5750000000000000666 $94 $131 forward @7 unknown #
coedge $-1 -1 $-1 $66 $118 $129 $132 reversed $74 0 $-1 #
vertex $-1 -1 $-1 $132 2 $133 #
straight-curve $-1 -1 $-1 3.999999999999996891 3.000000000000000444 2.500000000000000444 0 -10 0 I I #
vertex $-1 -1 $-1 $124 2 $134 #
straight-curve $-1 -1 $-1 4.000000000000000888 3.000000000000000444 21.50000000000000355 0 10 0 I I #
DXID-attrib $-1 -1 $-1 $-1 $69 @10 ASM ENTITY @2 10 #
face $135 -1 $-1 $136 $137 $6 $-1 $138 forward single #
plane-surface $-1 -1 $-1 3.999999999999999112 3.000000000000000444 4.500000000000000888 -1 0 0 0 0 10 forward_v I I I I #
DXID-attrib $-1 -1 $-1 $-1 $73 @10 ASM ENTITY @1 6 #
face $139 -1 $-1 $140 $141 $6 $-1 $142 forward single #
loop $-1 -1 $-1 $143 $129 $73 #
plane-surface $-1 -1 $-1 24.25 3.000000000000000444 12.00000000000000178 0 1 0 10 0 0 forward_v I I I I #
coedge $-1 -1 $-1 $76 $86 $144 $145 forward $28 0 $-1 #
coedge $-1 -1 $-1 $146 $78 $76 $110 reversed $114 0 $-1 #
edge $-1 -1 $-1 $147 2.001185996664260003 $80 2.237499999999999822 $109 $128 forward @7 unknown #
coedge $-1 -1 $-1 $148 $149 $77 $112 reversed $141 0 $-1 #
edge $-1 -1 $-1 $115 -0.4750000000000003109 $84 1.425000000000001821 $111 $150 forward @7 unknown #
coedge $-1 -1 $-1 $78 $151 $148 $152 forward $114 0 $-1 #
loop $-1 -1 $-1 $-1 $78 $153 #
vertex $-1 -1 $-1 $112 0 $154 #
straight-curve $-1 -1 $-1 34.87499999999999289 19.62499999999999289 21.50000000000001776 7.071067811865474617 -7.071067811865477282 3.101417202338322491e-15 I I #
point $-1 -1 $-1 36.49999999999999289 18 21.50000000000001776 #
coedge $-1 -1 $-1 $96 $82 $149 $120 forward $74 0 $-1 #
straight-curve $-1 -1 $-1 33.37499999999999289 10 2.5 -10 0 1.520853458390626053e-16 F -3.592501000000001277 F 5.417500999999999678 #
edge $-1 -1 $-1 $84 -0.6999999999999999556 $155 0 $149 $156 forward @7 unknown #
point $-1 -1 $-1 44.5 10 2.5 #
coedge $157 -1 $-1 $91 $90 $158 $159 forward $47 0 $-1 #
coedge $-1 -1 $-1 $160 $161 $90 $124 forward $162 0 $-1 #
edge $-1 -1 $-1 $163 0 $99 0.3000000000000000444 $123 $164 forward @7 unknown #
coedge $-1 -1 $-1 $165 $144 $91 $126 reversed $166 0 $-1 #
edge $-1 -1 $-1 $167 0.3175604292915183979 $127 1.721364599571581833 $91 $168 forward @7 unknown #
vertex $-1 -1 $-1 $126 2 $169 #
straight-curve $-1 -1 $-1 14.12499999999999822 18 21.50000000000000711 10 0 4.386066270124077345e-15 I I #
coedge $-1 -1 $-1 $170 $94 $96 $132 forward $106 0 $-1 #
coedge $-1 -1 $-1 $94 $171 $160 $172 forward $106 0 $-1 #
straight-curve $-1 -1 $-1 3.999999999999999112 3.000000000000000444 8.250000000000001776 0 0 -10 I I #
edge $-1 -1 $-1 $97 -2.937499999999999556 $155 1.112500000000000711 $129 $173 forward @7 unknown #
point $-1 -1 $-1 3.999999999999999112 3.000000000000000444 2.500000000000000888 #
point $-1 -1 $-1 4.000000000000000888 3.000000000000000444 21.50000000000000355 #
DXID-attrib $-1 -1 $-1 $-1 $102 @10 ASM ENTITY @2 11 #
face $174 -1 $-1 $175 $176 $6 $-1 $177 forward single #
loop $-1 -1 $-1 $178 $179 $102 #
cone-surface $-1 -1 $-1 47.5 0 23 0 1 0 1.500000000000003553 0 0 1 I I 0 -1 1.500000000000003553 forward I I I I #
DXID-attrib $-1 -1 $-1 $-1 $105 @10 ASM ENTITY @1 7 #
face $180 -1 $-1 $153 $166 $6 $-1 $181 reversed single #
loop $-1 -1 $-1 $-1 $111 $105 #
plane-surface $-1 -1 $-1 44.49999999999999289 3.000000000000000444 21.50000000000002132 1 0 4.554761126667309465e-16 4.554761126667309268e-15 0 -10 forward_v I I I I #
loop $-1 -1 $-1 $182 $183 $73 #
coedge $-1 -1 $-1 $125 $184 $108 $145 reversed $166 0 $-1 #
edge $-1 -1 $-1 $127 0.1505682727766859685 $147 2.991024380813108063 $108 $185 forward @7 unknown #
coedge $-1 -1 $-1 $186 $109 $184 $187 forward $114 0 $-1 #
vertex $-1 -1 $-1 $110 2 $188 #
coedge $-1 -1 $-1 $189 $111 $113 $152 reversed $141 0 $-1 #
coedge $-1 -1 $-1 $111 $189 $118 $120 reversed $141 0 $-1 #
straight-curve $-1 -1 $-1 44.49999999999999289 10 16.75000000000001776 4.554761126667309268e-15 0 -10 F -2.955001000000001099 F 3.905001000000002165 #
coedge $-1 -1 $-1 $113 $186 $190 $191 forward $114 0 $-1 #
edge $-1 -1 $-1 $192 0 $115 0.6999999999999999556 $113 $193 forward @7 unknown #
face $194 -1 $-1 $69 $114 $6 $-1 $48 forward single #
point $-1 -1 $-1 44.49999999999998579 10 21.50000000000002132 #
vertex $-1 -1 $-1 $195 2 $196 #
straight-curve $-1 -1 $-1 44.5 3.000000000000000444 2.5 0 -10 0 I I #
ATTRIB_CUSTOM-attrib $-1 -1 $-1 $-1 $122 @17 sketch_attrib_def 1 1 3 @13 164 0 0 0 1 1 #
coedge $197 -1 $-1 $198 $199 $122 $159 reversed $200 0 $-1 #
edge $-1 -1 $-1 $163 0 $167 1.712750100080082882 $122 $201 forward @7 unknown #
coedge $-1 -1 $-1 $202 $123 $130 $172 reversed $162 0 $-1 #
coedge $203 -1 $-1 $123 $202 $198 $204 forward $162 0 $-1 #
loop $-1 -1 $-1 $-1 $161 $205 #
vertex $-1 -1 $-1 $204 1 $206 #
straight-curve $-1 -1 $-1 4.000000000000000888 0 21.50000000000000355 0 10 0 I I #
coedge $-1 -1 $-1 $184 $125 $199 $207 reversed $166 0 $-1 #
loop $-1 -1 $-1 $-1 $184 $140 #
vertex $-1 -1 $-1 $126 0 $208 #
ellipse-curve $-1 -1 $-1 24.25000000000000355 15.54545454545456096 21.50000000000001421 4.386066270124077443e-16 0 -1 -2.453662237223871575e-15 -16.36363636363635976 0 0.6111111111111111605 I I #
point $-1 -1 $-1 14.36314003335740708 18 21.50000000000000711 #
coedge $-1 -1 $-1 $209 $129 $189 $195 forward $106 0 $-1 #
coedge $-1 -1 $-1 $130 $210 $211 $212 forward $106 0 $-1 #
edge $-1 -1 $-1 $213 0 $99 0.2499999999999991118 $160 $214 forward @7 unknown #
straight-curve $-1 -1 $-1 33.37499999999999289 3.000000000000000444 2.5 10 0 -1.520853458390626053e-16 I I #
DXID-attrib $-1 -1 $-1 $-1 $136 @10 ASM ENTITY @2 12 #
face $215 -1 $-1 $216 $217 $6 $-1 $218 forward single #
loop $-1 -1 $-1 $219 $220 $136 #
cone-surface $-1 -1 $-1 47.5 0 1.000000000000000444 0 1 0 1.500000000000003553 0 0 1 I I 0 -1 1.500000000000003553 forward I I I I #
loop $-1 -1 $-1 $-1 $221 $102 #
coedge $-1 -1 $-1 $179 $179 $183 $222 reversed $137 0 $-1 #
DXID-attrib $-1 -1 $-1 $-1 $140 @10 ASM ENTITY @1 8 #
cone-surface $-1 -1 $-1 24.25 0 12.00000000000000178 2.105184751588394562e-16 0.8532818336519589764 0.5214500094539750163 -10 1.499460256081255224e-15 1.583512397776696641e-15 0.8532818336519589764 I I -0 1 10 forward I I I I #
loop $-1 -1 $-1 $223 $224 $73 #
coedge $-1 -1 $-1 $183 $183 $179 $222 forward $143 0 $-1 #
coedge $-1 -1 $-1 $144 $165 $146 $187 reversed $166 0 $-1 #
ellipse-curve $-1 -1 $-1 24.25000000000000355 18.00000000000000355 23.00000000000000711 -0 -1 -0 -10 0 6.671755746159291984e-16 1 I I #
coedge $225 -1 $-1 $151 $146 $226 $227 forward $114 0 $-1 #
edge $-1 -1 $-1 $147 -1.721364599571581833 $228 -0.3175604292915168991 $146 $168 forward @7 unknown #
point $-1 -1 $-1 34.13685996664259648 18 21.50000000000001776 #
coedge $-1 -1 $-1 $149 $148 $170 $195 reversed $141 0 $-1 #
coedge $-1 -1 $-1 $229 $230 $151 $191 reversed $231 0 $-1 #
edge $-1 -1 $-1 $232 0 $192 0.3000000000000000444 $151 $233 forward @7 unknown #
vertex $-1 -1 $-1 $191 2 $234 #
straight-curve $-1 -1 $-1 44.49999999999998579 3.000000000000000444 21.50000000000002132 0 10 0 I I #
DXID-attrib $-1 -1 $-1 $-1 $153 @10 ASM ENTITY @1 9 #
edge $-1 -1 $-1 $155 -1.425000000000001599 $192 0.4750000000000005329 $170 $235 forward @7 unknown #
point $-1 -1 $-1 44.5 3.000000000000000444 2.499999999999999556 #
ATTRIB_CUSTOM-attrib $-1 -1 $-1 $-1 $158 @17 sketch_attrib_def 1 1 3 @13 164 0 0 0 1 1 #
coedge $236 -1 $-1 $237 $158 $161 $204 reversed $200 0 $-1 #
coedge $-1 -1 $-1 $158 $226 $165 $207 forward $200 0 $-1 #
loop $-1 -1 $-1 $238 $199 $239 #
straight-curve $-1 -1 $-1 4.000000000000000888 0 21.50000000000000355 10 0 4.386066270124077345e-15 F 0 F 4.049999999999998046 #
coedge $-1 -1 $-1 $161 $160 $240 $241 reversed $162 0 $-1 #
ATTRIB_CUSTOM-attrib $-1 -1 $-1 $-1 $161 @17 sketch_attrib_def 1 1 3 @13 137 0 0 0 1 2 #
edge $-1 -1 $-1 $242 0 $163 0.2499999999999991118 $161 $243 forward @7 unknown #
face $244 -1 $-1 $245 $162 $6 $-1 $246 forward single #
point $-1 -1 $-1 4.000000000000000888 0 21.50000000000000355 #
edge $-1 -1 $-1 $228 -4.394828551093172386 $167 1.253235897503378382 $199 $247 forward @7 unknown #
point $-1 -1 $-1 21.12750100080083016 0 21.50000000000001421 #
coedge $-1 -1 $-1 $248 $170 $230 $249 forward $106 0 $-1 #
coedge $-1 -1 $-1 $171 $250 $251 $252 forward $106 0 $-1 #
coedge $-1 -1 $-1 $253 $240 $171 $212 reversed $254 0 $-1 #
edge $-1 -1 $-1 $255 0 $213 1.570796326794896336 $211 $256 forward @7 unknown #
vertex $-1 -1 $-1 $241 2 $257 #
straight-curve $-1 -1 $-1 4.000000000000000888 3.000000000000000444 23.99999999999999289 0 0 -10 I I #
DXID-attrib $-1 -1 $-1 $-1 $175 @10 ASM ENTITY @2 13 #
face $258 -1 $-1 $259 $260 $6 $-1 $261 forward single #
loop $-1 -1 $-1 $262 $263 $175 #
cone-surface $-1 -1 $-1 1.000000000000000444 0 1.000000000000000444 0 1 0 1.500000000000000222 0 0 1 I I 0 -1 1.500000000000000222 forward I I I I #
loop $-1 -1 $-1 $-1 $264 $136 #
coedge $-1 -1 $-1 $220 $220 $224 $265 reversed $176 0 $-1 #
coedge $266 -1 $-1 $221 $221 $267 $268 forward $178 0 $-1 #
edge $-1 -1 $-1 $269 -3.141592653589793116 $269 3.141592653589793116 $179 $270 forward @7 unknown #
loop $-1 -1 $-1 $271 $272 $73 #
coedge $-1 -1 $-1 $224 $224 $220 $265 forward $182 0 $-1 #
ATTRIB_CUSTOM-attrib $-1 -1 $-1 $-1 $186 @17 sketch_attrib_def 1 1 3 @13 164 0 0 0 1 1 #
coedge $273 -1 $-1 $199 $274 $186 $227 reversed $200 0 $-1 #
edge $-1 -1 $-1 $228 2.33724989991991583 $232 4.049999999999998046 $186 $201 forward @7 unknown #
vertex $-1 -1 $-1 $227 0 $275 #
coedge $276 -1 $-1 $277 $190 $274 $278 forward $231 0 $-1 #
coedge $-1 -1 $-1 $190 $277 $209 $249 reversed $231 0 $-1 #
loop $-1 -1 $-1 $-1 $229 $279 #
vertex $-1 -1 $-1 $227 1 $280 #
straight-curve $-1 -1 $-1 44.49999999999998579 0 21.50000000000002132 0 10 0 I I #
point $-1 -1 $-1 44.49999999999998579 3.000000000000000444 21.50000000000002132 #
straight-curve $-1 -1 $-1 44.49999999999999289 3.000000000000000444 16.75000000000001421 -4.554761126667309268e-15 0 10 I I #
ATTRIB_CUSTOM-attrib $-1 -1 $-1 $-1 $198 @17 sketch_attrib_def 1 1 3 @13 137 0 0 0 1 2 #
coedge $281 -1 $-1 $282 $198 $283 $284 reversed $200 0 $-1 #
loop $-1 -1 $-1 $285 $286 $239 #
face $287 -1 $-1 $-1 $200 $6 $-1 $288 reversed single #
coedge $-1 -1 $-1 $211 $283 $202 $241 forward $254 0 $-1 #
edge $-1 -1 $-1 $242 0 $213 0.3000000000000000444 $240 $289 forward @7 tangent #
vertex $-1 -1 $-1 $284 1 $290 #
straight-curve $-1 -1 $-1 4.000000000000000888 0 23.99999999999999289 0 0 -10 F 0 F 0.2499999999999991118 #
DXID-attrib $-1 -1 $-1 $-1 $205 @10 ASM ENTITY @2 26 #
face $291 -1 $-1 $239 $254 $6 $-1 $292 forward single #
plane-surface $-1 -1 $-1 4.000000000000000888 0 23.99999999999999289 1 0 0 0 0 -10 forward_v I I I I #
ellipse-curve $-1 -1 $-1 24.25 0 12.00000000000000178 0 1 0 -10 0 6.671755746159291984e-16 1 I I #
coedge $-1 -1 $-1 $293 $209 $294 $295 forward $106 0 $-1 #
edge $-1 -1 $-1 $192 1.700000000000002176 $296 1.949999999999999956 $230 $297 forward @7 unknown #
coedge $-1 -1 $-1 $210 $298 $299 $300 forward $106 0 $-1 #
coedge $-1 -1 $-1 $301 $302 $210 $252 reversed $303 0 $-1 #
edge $-1 -1 $-1 $304 -0.2000000000000003997 $255 -0 $251 $305 forward @7 unknown #
coedge $-1 -1 $-1 $283 $211 $302 $306 reversed $254 0 $-1 #
loop $-1 -1 $-1 $-1 $283 $245 #
vertex $-1 -1 $-1 $306 2 $307 #
ellipse-curve $-1 -1 $-1 2.000000000000000888 3.000000000000000444 23.99999999999999289 0 1 0 5.551115123125782702e-16 0 2.000000000000010658 1 I I #
point $-1 -1 $-1 4.000000000000011546 3.000000000000000444 23.99999999999999289 #
DXID-attrib $-1 -1 $-1 $-1 $216 @10 ASM ENTITY @2 14 #
face $308 -1 $-1 $309 $303 $6 $-1 $310 forward single #
loop $-1 -1 $-1 $311 $312 $216 #
cone-surface $-1 -1 $-1 1.000000000000000444 0 23 0 1 0 1.499999999999999556 0 0 1 I I 0 -1 1.499999999999999556 forward I I I I #
loop $-1 -1 $-1 $-1 $313 $175 #
coedge $-1 -1 $-1 $263 $263 $272 $314 reversed $217 0 $-1 #
coedge $315 -1 $-1 $264 $264 $316 $317 forward $219 0 $-1 #
edge $-1 -1 $-1 $318 -3.141592653589793116 $318 3.141592653589793116 $220 $319 forward @7 unknown #
ATTRIB_CUSTOM-attrib $-1 -1 $-1 $-1 $221 @17 sketch_attrib_def 1 1 3 @22 116 0 4294967295 0 1 1 #
coedge $320 -1 $-1 $267 $267 $221 $268 reversed $321 0 $-1 #
edge $-1 -1 $-1 $322 -3.141592653589793116 $322 3.141592653589793116 $221 $323 forward @7 unknown #
vertex $-1 -1 $-1 $222 0 $324 #
ellipse-curve $-1 -1 $-1 47.5 3.000000000000000444 23 0 -1 0 1.500000000000003553 0 0 1 I I #
loop $-1 -1 $-1 $-1 $325 $73 #
coedge $-1 -1 $-1 $272 $272 $263 $314 forward $223 0 $-1 #
ATTRIB_CUSTOM-attrib $-1 -1 $-1 $-1 $226 @17 sketch_attrib_def 1 1 3 @13 164 0 0 0 1 1 #
coedge $326 -1 $-1 $226 $327 $229 $278 reversed $200 0 $-1 #
point $-1 -1 $-1 27.37249899919915919 0 21.50000000000001421 #
ATTRIB_CUSTOM-attrib $-1 -1 $-1 $-1 $229 @17 sketch_attrib_def 1 1 3 @13 141 0 0 0 2 2 #
coedge $-1 -1 $-1 $230 $229 $328 $329 forward $231 0 $-1 #
edge $-1 -1 $-1 $232 1.700000000000002176 $330 1.949999999999999956 $229 $331 forward @7 unknown #
face $332 -1 $-1 $205 $231 $6 $-1 $333 forward single #
point $-1 -1 $-1 44.49999999999998579 0 21.50000000000002132 #
ATTRIB_CUSTOM-attrib $-1 -1 $-1 $-1 $237 @17 sketch_attrib_def 1 1 3 @13 149 0 0 0 1 1 #
coedge $334 -1 $-1 $335 $237 $336 $337 forward $200 0 $-1 #
coedge $338 -1 $-1 $240 $253 $237 $284 forward $254 0 $-1 #
edge $-1 -1 $-1 $339 0 $242 1.570796326794896336 $283 $340 forward @7 unknown #
loop $-1 -1 $-1 $341 $342 $239 #
coedge $343 -1 $-1 $286 $286 $344 $345 reversed $238 0 $-1 #
DXID-attrib $-1 -1 $-1 $-1 $239 @10 ASM ENTITY @2 28 #
plane-surface $-1 -1 $-1 24.25 0 12.00000000000000178 0 1 0 10 0 0 forward_v I I I I #
straight-curve $-1 -1 $-1 4.000000000000011546 0 23.99999999999999289 0 10 0 I I #
point $-1 -1 $-1 4.000000000000011546 0 23.99999999999999289 #
DXID-attrib $-1 -1 $-1 $-1 $245 @10 ASM ENTITY @2 27 #
cone-surface $-1 -1 $-1 2.000000000000000888 0 23.99999999999999289 0 1 0 5.551115123125782702e-16 0 2.000000000000010658 1 I I 0 1 2.000000000000010658 forward I I I I #
coedge $-1 -1 $-1 $346 $248 $347 $348 forward $106 0 $-1 #
coedge $-1 -1 $-1 $328 $349 $248 $295 reversed $350 0 $-1 #
edge $-1 -1 $-1 $296 0 $351 1.570796326794885456 $294 $352 forward @7 unknown #
vertex $-1 -1 $-1 $329 2 $353 #
straight-curve $-1 -1 $-1 44.5 3.000000000000000444 4.5 -4.554761126667309268e-15 0 10 I I #
coedge $-1 -1 $-1 $250 $354 $355 $356 forward $106 0 $-1 #
coedge $-1 -1 $-1 $357 $358 $250 $300 reversed $359 0 $-1 #
edge $-1 -1 $-1 $360 0 $304 1.570796326794896558 $299 $361 forward @7 unknown #
coedge $-1 -1 $-1 $336 $251 $358 $362 reversed $303 0 $-1 #
coedge $-1 -1 $-1 $251 $336 $253 $306 forward $303 0 $-1 #
loop $-1 -1 $-1 $-1 $336 $259 #
vertex $-1 -1 $-1 $362 2 $363 #
straight-curve $-1 -1 $-1 2.000000000000001332 3.000000000000000444 26.00000000000000711 10 0 2.220446049250308663e-14 I I #
edge $-1 -1 $-1 $339 0 $255 0.3000000000000000444 $253 $364 forward @7 tangent #
point $-1 -1 $-1 2.000000000000001332 3.000000000000000444 26.00000000000000711 #
DXID-attrib $-1 -1 $-1 $-1 $259 @10 ASM ENTITY @2 15 #
face $365 -1 $-1 $366 $359 $6 $-1 $367 forward single #
plane-surface $-1 -1 $-1 -2.775557561562891351e-15 0 26 -2.220446049250308742e-15 0 1 10 0 2.220446049250308663e-14 forward_v I I I I #
loop $-1 -1 $-1 $-1 $344 $216 #
coedge $-1 -1 $-1 $312 $312 $325 $368 reversed $260 0 $-1 #
coedge $369 -1 $-1 $313 $313 $342 $370 forward $262 0 $-1 #
edge $-1 -1 $-1 $371 -3.141592653589793116 $371 3.141592653589793116 $263 $372 forward @7 unknown #
ATTRIB_CUSTOM-attrib $-1 -1 $-1 $-1 $264 @17 sketch_attrib_def 1 1 3 @22 114 0 4294967295 0 1 1 #
coedge $373 -1 $-1 $316 $316 $264 $317 reversed $341 0 $-1 #
edge $-1 -1 $-1 $374 -3.141592653589793116 $374 3.141592653589793116 $264 $375 forward @7 unknown #
vertex $-1 -1 $-1 $265 0 $376 #
ellipse-curve $-1 -1 $-1 47.5 3.000000000000000444 1.000000000000000444 0 -1 0 1.500000000000003553 0 0 1 I I #
ATTRIB_CUSTOM-attrib $-1 -1 $-1 $-1 $267 @17 sketch_attrib_def 1 1 3 @22 116 0 4294967295 0 1 1 #
loop $-1 -1 $-1 $-1 $267 $239 #
vertex $-1 -1 $-1 $268 0 $377 #
ellipse-curve $-1 -1 $-1 47.5 0 23 0 -1 0 1.500000000000003553 0 0 1 I I #
point $-1 -1 $-1 46 3.000000000000000444 23 #
coedge $-1 -1 $-1 $325 $325 $312 $368 forward $271 0 $-1 #
ATTRIB_CUSTOM-attrib $-1 -1 $-1 $-1 $274 @17 sketch_attrib_def 1 1 3 @13 141 0 0 0 2 2 #
coedge $378 -1 $-1 $274 $379 $380 $381 reversed $200 0 $-1 #
coedge $-1 -1 $-1 $380 $294 $277 $329 reversed $350 0 $-1 #
edge $-1 -1 $-1 $330 0 $296 0.3000000000000000444 $277 $382 forward @7 tangent #
vertex $-1 -1 $-1 $278 1 $383 #
straight-curve $-1 -1 $-1 44.5 0 4.5 -4.554761126667309268e-15 0 10 F 1.700000000000002176 F 1.949999999999999956 #
DXID-attrib $-1 -1 $-1 $-1 $279 @10 ASM ENTITY @2 25 #
plane-surface $-1 -1 $-1 44.49999999999999289 0 21.50000000000002132 -1 0 -4.554761126667309465e-16 -4.554761126667309268e-15 0 10 forward_v I I I I #
ATTRIB_CUSTOM-attrib $-1 -1 $-1 $-1 $282 @17 sketch_attrib_def 1 1 3 @15 107 145 1 0 1 1 #
coedge $384 -1 $-1 $385 $282 $386 $387 reversed $200 0 $-1 #
coedge $388 -1 $-1 $302 $301 $282 $337 reversed $303 0 $-1 #
edge $-1 -1 $-1 $339 0 $389 0.2000000000000003997 $336 $390 forward @7 unknown #
ATTRIB_CUSTOM-attrib $-1 -1 $-1 $-1 $283 @17 sketch_attrib_def 1 1 3 @13 149 0 0 0 1 1 #
vertex $-1 -1 $-1 $284 0 $391 #
ellipse-curve $-1 -1 $-1 2.000000000000000888 0 23.99999999999999289 0 1 0 5.551115123125782702e-16 0 2.000000000000010658 1 F 0 F 1.570796326794896336 #
loop $-1 -1 $-1 $321 $316 $239 #
coedge $392 -1 $-1 $342 $342 $313 $370 reversed $285 0 $-1 #
ATTRIB_CUSTOM-attrib $-1 -1 $-1 $-1 $286 @17 sketch_attrib_def 1 1 3 @22 118 0 4294967295 0 1 1 #
coedge $393 -1 $-1 $344 $344 $286 $345 forward $311 0 $-1 #
edge $-1 -1 $-1 $394 -3.141592653589793116 $394 3.141592653589793116 $344 $395 forward @7 unknown #
coedge $-1 -1 $-1 $396 $293 $397 $398 forward $106 0 $-1 #
coedge $-1 -1 $-1 $399 $400 $293 $348 reversed $401 0 $-1 #
edge $-1 -1 $-1 $351 -0.1999999999999992895 $402 -0 $347 $403 forward @7 unknown #
coedge $-1 -1 $-1 $294 $380 $399 $404 forward $350 0 $-1 #
loop $-1 -1 $-1 $-1 $380 $405 #
vertex $-1 -1 $-1 $404 2 $406 #
ellipse-curve $-1 -1 $-1 46.5 3.000000000000000444 23.99999999999999289 0 1 0 -2.000000000000010658 0 4.440892098500626162e-15 1 I I #
point $-1 -1 $-1 44.49999999999999289 3.000000000000000444 24 #
coedge $-1 -1 $-1 $298 $407 $408 $409 forward $106 0 $-1 #
coedge $-1 -1 $-1 $410 $411 $298 $356 reversed $412 0 $-1 #
edge $-1 -1 $-1 $413 -2.400000000000000355 $360 -0 $355 $414 forward @7 unknown #
coedge $-1 -1 $-1 $386 $299 $411 $415 reversed $359 0 $-1 #
coedge $-1 -1 $-1 $299 $386 $301 $362 forward $359 0 $-1 #
loop $-1 -1 $-1 $-1 $386 $309 #
vertex $-1 -1 $-1 $415 2 $416 #
ellipse-curve $-1 -1 $-1 -2.775557561562891351e-15 3.000000000000000444 24.00000000000000355 0 1 0 -1.999999999999997335 0 0 1 I I #
edge $-1 -1 $-1 $389 0 $304 0.3000000000000000444 $358 $417 forward @7 tangent #
point $-1 -1 $-1 -2.775557561562891351e-15 3.000000000000000444 26 #
straight-curve $-1 -1 $-1 2.000000000000001332 0 26.00000000000000711 0 10 0 I I #
DXID-attrib $-1 -1 $-1 $-1 $309 @10 ASM ENTITY @2 16 #
face $418 -1 $-1 $419 $412 $6 $-1 $420 forward single #
cone-surface $-1 -1 $-1 -2.775557561562891351e-15 0 24.00000000000000355 0 1 0 -1.999999999999997335 0 0 1 I I 0 1 1.999999999999997335 forward I I I I #
edge $-1 -1 $-1 $421 -3.141592653589793116 $421 3.141592653589793116 $312 $422 forward @7 unknown #
ATTRIB_CUSTOM-attrib $-1 -1 $-1 $-1 $313 @17 sketch_attrib_def 1 1 3 @22 112 0 4294967295 0 1 1 #
edge $-1 -1 $-1 $423 -3.141592653589793116 $423 3.141592653589793116 $313 $424 forward @7 unknown #
vertex $-1 -1 $-1 $314 0 $425 #
ellipse-curve $-1 -1 $-1 1.000000000000000444 3.000000000000000444 1.000000000000000444 0 -1 0 1.500000000000000222 0 0 1 I I #
ATTRIB_CUSTOM-attrib $-1 -1 $-1 $-1 $316 @17 sketch_attrib_def 1 1 3 @22 114 0 4294967295 0 1 1 #
vertex $-1 -1 $-1 $317 0 $426 #
ellipse-curve $-1 -1 $-1 47.5 0 1.000000000000000444 0 -1 0 1.500000000000003553 0 0 1 I I #
point $-1 -1 $-1 46 3.000000000000000444 1.000000000000000888 #
point $-1 -1 $-1 46 0 23 #
ATTRIB_CUSTOM-attrib $-1 -1 $-1 $-1 $327 @17 sketch_attrib_def 1 1 3 @13 161 0 0 0 1 1 #
coedge $427 -1 $-1 $327 $428 $429 $430 forward $200 0 $-1 #
coedge $431 -1 $-1 $349 $328 $327 $381 forward $350 0 $-1 #
edge $-1 -1 $-1 $330 0 $432 1.570796326794885456 $380 $433 forward @7 unknown #
straight-curve $-1 -1 $-1 44.49999999999999289 0 24 0 10 0 I I #
point $-1 -1 $-1 44.49999999999999289 0 24 #
ATTRIB_CUSTOM-attrib $-1 -1 $-1 $-1 $335 @17 sketch_attrib_def 1 1 3 @13 134 0 0 0 1 1 #
coedge $434 -1 $-1 $435 $335 $436 $437 forward $200 0 $-1 #
coedge $438 -1 $-1 $358 $357 $335 $387 forward $359 0 $-1 #
edge $-1 -1 $-1 $439 0 $389 1.570796326794896558 $386 $440 forward @7 unknown #
ATTRIB_CUSTOM-attrib $-1 -1 $-1 $-1 $336 @17 sketch_attrib_def 1 1 3 @15 107 145 1 0 1 1 #
vertex $-1 -1 $-1 $387 1 $441 #
straight-curve $-1 -1 $-1 2.000000000000001332 0 26.00000000000000711 -10 0 -2.220446049250308663e-14 F 0 F 0.2000000000000003997 #
point $-1 -1 $-1 2.000000000000001332 0 26.00000000000000711 #
ATTRIB_CUSTOM-attrib $-1 -1 $-1 $-1 $342 @17 sketch_attrib_def 1 1 3 @22 112 0 4294967295 0 1 1 #
ATTRIB_CUSTOM-attrib $-1 -1 $-1 $-1 $344 @17 sketch_attrib_def 1 1 3 @22 118 0 4294967295 0 1 1 #
vertex $-1 -1 $-1 $345 0 $442 #
ellipse-curve $-1 -1 $-1 1.000000000000000444 0 23 0 -1 0 1.499999999999999556 0 0 1 I I #
coedge $-1 -1 $-1 $443 $346 $444 $445 forward $106 0 $-1 #
coedge $-1 -1 $-1 $446 $447 $346 $398 reversed $448 0 $-1 #
edge $-1 -1 $-1 $402 0 $449 1.570796326794900999 $397 $450 forward @7 unknown #
coedge $-1 -1 $-1 $429 $347 $349 $404 reversed $401 0 $-1 #
coedge $-1 -1 $-1 $347 $429 $446 $451 forward $401 0 $-1 #
loop $-1 -1 $-1 $-1 $429 $452 #
vertex $-1 -1 $-1 $451 2 $453 #
straight-curve $-1 -1 $-1 48.49999999999997868 3.000000000000000444 26 10 0 -2.220446049250320969e-14 I I #
edge $-1 -1 $-1 $432 0 $351 0.3000000000000000444 $349 $454 forward @7 tangent #
face $455 -1 $-1 $279 $350 $6 $-1 $456 forward single #
point $-1 -1 $-1 46.49999999999998579 3.000000000000000444 26.00000000000000711 #
coedge $-1 -1 $-1 $354 $443 $457 $458 forward $106 0 $-1 #
coedge $-1 -1 $-1 $459 $460 $354 $409 reversed $461 0 $-1 #
edge $-1 -1 $-1 $462 0 $413 1.570796326794896558 $408 $463 forward @7 unknown #
coedge $-1 -1 $-1 $436 $355 $460 $464 reversed $412 0 $-1 #
coedge $-1 -1 $-1 $355 $436 $357 $415 forward $412 0 $-1 #
loop $-1 -1 $-1 $-1 $436 $366 #
vertex $-1 -1 $-1 $464 2 $465 #
straight-curve $-1 -1 $-1 -2 3.000000000000000444 24.00000000000000355 0 0 10 I I #
edge $-1 -1 $-1 $439 0 $360 0.3000000000000000444 $411 $466 forward @7 tangent #
point $-1 -1 $-1 -2 3.000000000000000444 24.00000000000000355 #
straight-curve $-1 -1 $-1 -2.775557561562891351e-15 0 26 0 10 0 I I #
DXID-attrib $-1 -1 $-1 $-1 $366 @10 ASM ENTITY @2 17 #
face $467 -1 $-1 $468 $461 $6 $-1 $469 forward single #
plane-surface $-1 -1 $-1 -2 0 0 -1 0 0 0 0 10 forward_v I I I I #
vertex $-1 -1 $-1 $368 0 $470 #
ellipse-curve $-1 -1 $-1 1.000000000000000444 3.000000000000000444 23 0 -1 0 1.499999999999999556 0 0 1 I I #
vertex $-1 -1 $-1 $370 0 $471 #
ellipse-curve $-1 -1 $-1 1.000000000000000444 0 1.000000000000000444 0 -1 0 1.500000000000000222 0 0 1 I I #
point $-1 -1 $-1 -0.499999999999999889 3.000000000000000444 1.000000000000000888 #
point $-1 -1 $-1 46 0 1.000000000000000444 #
ATTRIB_CUSTOM-attrib $-1 -1 $-1 $-1 $379 @17 sketch_attrib_def 1 1 3 @15 107 144 1 0 1 1 #
coedge $472 -1 $-1 $379 $473 $474 $475 reversed $200 0 $-1 #
coedge $476 -1 $-1 $400 $399 $379 $430 reversed $401 0 $-1 #
edge $-1 -1 $-1 $477 0 $432 0.1999999999999992895 $429 $478 forward @7 unknown #
ATTRIB_CUSTOM-attrib $-1 -1 $-1 $-1 $380 @17 sketch_attrib_def 1 1 3 @13 161 0 0 0 1 1 #
vertex $-1 -1 $-1 $381 1 $479 #
ellipse-curve $-1 -1 $-1 46.5 0 23.99999999999999289 0 1 0 -2.000000000000010658 0 4.440892098500626162e-15 1 F 0 F 1.570796326794885456 #
ATTRIB_CUSTOM-attrib $-1 -1 $-1 $-1 $385 @17 sketch_attrib_def 1 1 3 @13 108 0 1 0 1 1 #
coedge $480 -1 $-1 $481 $385 $482 $483 reversed $200 0 $-1 #
coedge $484 -1 $-1 $411 $410 $385 $437 reversed $412 0 $-1 #
edge $-1 -1 $-1 $439 0 $485 2.400000000000000355 $436 $486 forward @7 unknown #
ATTRIB_CUSTOM-attrib $-1 -1 $-1 $-1 $386 @17 sketch_attrib_def 1 1 3 @13 134 0 0 0 1 1 #
vertex $-1 -1 $-1 $437 0 $487 #
ellipse-curve $-1 -1 $-1 -2.775557561562891351e-15 0 24.00000000000000355 0 1 0 -1.999999999999997335 0 0 1 F 0 F 1.570796326794896558 #
point $-1 -1 $-1 -2.775557561562891351e-15 0 26 #
point $-1 -1 $-1 -0.4999999999999993339 0 23 #
coedge $-1 -1 $-1 $407 $396 $488 $489 forward $106 0 $-1 #
coedge $-1 -1 $-1 $490 $491 $396 $445 reversed $492 0 $-1 #
edge $-1 -1 $-1 $449 -2.399999999999999023 $493 -0 $444 $494 forward @7 unknown #
coedge $-1 -1 $-1 $474 $397 $400 $451 reversed $448 0 $-1 #
coedge $-1 -1 $-1 $397 $474 $490 $495 forward $448 0 $-1 #
loop $-1 -1 $-1 $-1 $474 $496 #
vertex $-1 -1 $-1 $495 2 $497 #
ellipse-curve $-1 -1 $-1 48.49999999999998579 3.000000000000000444 23.99999999999998934 0 1 0 -8.881784197001252323e-15 0 2.000000000000010658 1 I I #
edge $-1 -1 $-1 $477 0 $402 0.3000000000000000444 $400 $498 forward @7 tangent #
face $499 -1 $-1 $405 $401 $6 $-1 $500 forward single #
point $-1 -1 $-1 48.49999999999997868 3.000000000000000444 26 #
straight-curve $-1 -1 $-1 46.49999999999998579 0 26.00000000000000711 0 10 0 I I #
DXID-attrib $-1 -1 $-1 $-1 $405 @10 ASM ENTITY @2 24 #
cone-surface $-1 -1 $-1 46.5 0 23.99999999999999289 0 1 0 -2.000000000000010658 0 4.440892098500626162e-15 1 I I 0 1 2.000000000000010658 forward I I I I #
coedge $-1 -1 $-1 $501 $502 $407 $458 reversed $503 0 $-1 #
edge $-1 -1 $-1 $504 -4.849999999999999645 $462 -0 $457 $505 forward @7 unknown #
coedge $-1 -1 $-1 $482 $408 $502 $506 reversed $461 0 $-1 #
coedge $-1 -1 $-1 $408 $482 $410 $464 forward $461 0 $-1 #
loop $-1 -1 $-1 $-1 $482 $419 #
vertex $-1 -1 $-1 $506 2 $507 #
ellipse-curve $-1 -1 $-1 0 3.000000000000000444 0 0 1 0 0 0 -2 1 I I #
edge $-1 -1 $-1 $485 0 $413 0.3000000000000000444 $460 $508 forward @7 tangent #
point $-1 -1 $-1 -2 3.000000000000000444 0 #
straight-curve $-1 -1 $-1 -2 0 24.00000000000000355 0 10 0 I I #
DXID-attrib $-1 -1 $-1 $-1 $419 @10 ASM ENTITY @2 18 #
face $509 -1 $-1 $510 $503 $6 $-1 $511 forward single #
cone-surface $-1 -1 $-1 0 0 0 0 1 0 0 0 -2 1 I I 0 1 2 forward I I I I #
point $-1 -1 $-1 -0.4999999999999993339 3.000000000000000444 23 #
point $-1 -1 $-1 -0.499999999999999889 0 1.000000000000000444 #
ATTRIB_CUSTOM-attrib $-1 -1 $-1 $-1 $428 @17 sketch_attrib_def 1 1 3 @13 130 0 0 0 1 1 #
coedge $512 -1 $-1 $428 $513 $514 $515 forward $200 0 $-1 #
coedge $516 -1 $-1 $447 $446 $428 $475 forward $448 0 $-1 #
edge $-1 -1 $-1 $477 0 $517 1.570796326794900999 $474 $518 forward @7 unknown #
ATTRIB_CUSTOM-attrib $-1 -1 $-1 $-1 $429 @17 sketch_attrib_def 1 1 3 @15 107 144 1 0 1 1 #
vertex $-1 -1 $-1 $430 0 $519 #
straight-curve $-1 -1 $-1 48.49999999999997868 0 26 -10 0 2.220446049250320969e-14 F 0 F 0.1999999999999992895 #
point $-1 -1 $-1 46.49999999999998579 0 26.00000000000000711 #
ATTRIB_CUSTOM-attrib $-1 -1 $-1 $-1 $435 @17 sketch_attrib_def 1 1 3 @13 122 0 0 0 1 1 #
coedge $520 -1 $-1 $513 $435 $521 $522 forward $200 0 $-1 #
coedge $523 -1 $-1 $460 $459 $435 $483 forward $461 0 $-1 #
edge $-1 -1 $-1 $524 0 $485 1.570796326794896558 $482 $525 forward @7 unknown #
ATTRIB_CUSTOM-attrib $-1 -1 $-1 $-1 $436 @17 sketch_attrib_def 1 1 3 @13 108 0 1 0 1 1 #
vertex $-1 -1 $-1 $483 1 $526 #
straight-curve $-1 -1 $-1 -2 0 24.00000000000000355 0 0 -10 F 0 F 2.400000000000000355 #
point $-1 -1 $-1 -2 0 24.00000000000000355 #
coedge $-1 -1 $-1 $527 $528 $443 $489 reversed $529 0 $-1 #
edge $-1 -1 $-1 $493 0 $504 1.570796326794896558 $488 $530 forward @7 unknown #
coedge $-1 -1 $-1 $514 $444 $447 $495 reversed $492 0 $-1 #
coedge $-1 -1 $-1 $444 $514 $527 $531 forward $492 0 $-1 #
loop $-1 -1 $-1 $-1 $514 $532 #
vertex $-1 -1 $-1 $531 2 $533 #
straight-curve $-1 -1 $-1 50.5 3.000000000000000444 1.665334536937734811e-15 -0 -0 -10 I I #
edge $-1 -1 $-1 $517 0 $449 0.3000000000000000444 $447 $534 forward @7 tangent #
face $535 -1 $-1 $452 $448 $6 $-1 $536 forward single #
point $-1 -1 $-1 50.5 3.000000000000000444 23.99999999999998934 #
straight-curve $-1 -1 $-1 48.49999999999997868 0 26 0 10 0 I I #
DXID-attrib $-1 -1 $-1 $-1 $452 @10 ASM ENTITY @2 23 #
plane-surface $-1 -1 $-1 46.49999999999998579 0 26.00000000000000711 2.220446049250320969e-15 0 1 10 0 -2.220446049250320969e-14 forward_v I I I I #
coedge $-1 -1 $-1 $521 $457 $528 $537 reversed $503 0 $-1 #
coedge $-1 -1 $-1 $457 $521 $459 $506 forward $503 0 $-1 #
loop $-1 -1 $-1 $-1 $521 $468 #
vertex $-1 -1 $-1 $537 2 $538 #
straight-curve $-1 -1 $-1 0 3.000000000000000444 -2 -10 -0 -0 I I #
edge $-1 -1 $-1 $524 0 $462 0.3000000000000000444 $502 $539 forward @7 tangent #
point $-1 -1 $-1 0 3.000000000000000444 -2.000000000000001776 #
straight-curve $-1 -1 $-1 -2 0 -1.224646799147353207e-16 0 10 0 I I #
DXID-attrib $-1 -1 $-1 $-1 $468 @10 ASM ENTITY @2 19 #
face $540 -1 $-1 $532 $529 $6 $-1 $541 forward single #
plane-surface $-1 -1 $-1 48.5 0 -2 0 0 -1 -10 -0 -0 forward_v I I I I #
ATTRIB_CUSTOM-attrib $-1 -1 $-1 $-1 $473 @17 sketch_attrib_def 1 1 3 @13 106 0 1 0 1 1 #
coedge $542 -1 $-1 $473 $481 $543 $544 reversed $200 0 $-1 #
coedge $545 -1 $-1 $491 $490 $473 $515 reversed $492 0 $-1 #
edge $-1 -1 $-1 $546 0 $517 2.399999999999999023 $514 $547 forward @7 unknown #
ATTRIB_CUSTOM-attrib $-1 -1 $-1 $-1 $474 @17 sketch_attrib_def 1 1 3 @13 130 0 0 0 1 1 #
vertex $-1 -1 $-1 $475 1 $548 #
ellipse-curve $-1 -1 $-1 48.49999999999998579 0 23.99999999999998934 0 1 0 -8.881784197001252323e-15 0 2.000000000000010658 1 F 0 F 1.570796326794900999 #
point $-1 -1 $-1 48.49999999999997868 0 26 #
ATTRIB_CUSTOM-attrib $-1 -1 $-1 $-1 $481 @17 sketch_attrib_def 1 1 3 @13 105 0 1 0 1 1 #
coedge $549 -1 $-1 $502 $501 $481 $522 reversed $503 0 $-1 #
edge $-1 -1 $-1 $524 0 $550 4.849999999999999645 $521 $551 forward @7 unknown #
ATTRIB_CUSTOM-attrib $-1 -1 $-1 $-1 $482 @17 sketch_attrib_def 1 1 3 @13 122 0 0 0 1 1 #
vertex $-1 -1 $-1 $522 0 $552 #
ellipse-curve $-1 -1 $-1 0 0 0 0 1 0 0 0 -2 1 F 0 F 1.570796326794896558 #
point $-1 -1 $-1 -2 0 -1.224646799147353207e-16 #
coedge $-1 -1 $-1 $543 $488 $491 $531 reversed $529 0 $-1 #
coedge $-1 -1 $-1 $488 $543 $501 $537 forward $529 0 $-1 #
loop $-1 -1 $-1 $-1 $543 $510 #
ellipse-curve $-1 -1 $-1 48.5 3.000000000000000444 1.665334536937734811e-15 0 1 0 2.000000000000001776 0 0 1 I I #
edge $-1 -1 $-1 $546 0 $493 0.3000000000000000444 $491 $553 forward @7 tangent #
face $554 -1 $-1 $496 $492 $6 $-1 $555 forward single #
point $-1 -1 $-1 50.5 3.000000000000000444 0 #
straight-curve $-1 -1 $-1 50.5 0 23.99999999999998934 0 10 0 I I #
DXID-attrib $-1 -1 $-1 $-1 $496 @10 ASM ENTITY @2 22 #
cone-surface $-1 -1 $-1 48.49999999999998579 0 23.99999999999998934 0 1 0 -8.881784197001252323e-15 0 2.000000000000010658 1 I I 0 1 2.000000000000010658 forward I I I I #
edge $-1 -1 $-1 $550 0 $504 0.3000000000000000444 $528 $556 forward @7 tangent #
point $-1 -1 $-1 48.5 3.000000000000000444 -2.000000000000001776 #
straight-curve $-1 -1 $-1 0 0 -2 0 10 0 I I #
DXID-attrib $-1 -1 $-1 $-1 $510 @10 ASM ENTITY @2 20 #
cone-surface $-1 -1 $-1 48.5 0 1.665334536937734811e-15 0 1 0 2.000000000000001776 0 0 1 I I 0 1 2.000000000000001776 forward I I I I #
ATTRIB_CUSTOM-attrib $-1 -1 $-1 $-1 $513 @17 sketch_attrib_def 1 1 3 @13 126 0 0 0 1 1 #
coedge $557 -1 $-1 $528 $527 $513 $544 forward $529 0 $-1 #
edge $-1 -1 $-1 $546 0 $550 1.570796326794896558 $543 $558 forward @7 unknown #
ATTRIB_CUSTOM-attrib $-1 -1 $-1 $-1 $514 @17 sketch_attrib_def 1 1 3 @13 106 0 1 0 1 1 #
vertex $-1 -1 $-1 $515 0 $559 #
straight-curve $-1 -1 $-1 50.5 0 1.665334536937734811e-15 0 0 10 F 0 F 2.399999999999999023 #
point $-1 -1 $-1 50.5 0 23.99999999999998934 #
ATTRIB_CUSTOM-attrib $-1 -1 $-1 $-1 $521 @17 sketch_attrib_def 1 1 3 @13 105 0 1 0 1 1 #
vertex $-1 -1 $-1 $544 1 $560 #
straight-curve $-1 -1 $-1 0 0 -2 10 0 0 F 0 F 4.849999999999999645 #
point $-1 -1 $-1 0 0 -2 #
straight-curve $-1 -1 $-1 50.5 0 1.665334536937734811e-15 0 10 0 I I #
DXID-attrib $-1 -1 $-1 $-1 $532 @10 ASM ENTITY @2 21 #
plane-surface $-1 -1 $-1 50.5 0 23.99999999999998934 1 0 0 -0 -0 -10 forward_v I I I I #
straight-curve $-1 -1 $-1 48.5 0 -2 0 10 0 I I #
ATTRIB_CUSTOM-attrib $-1 -1 $-1 $-1 $543 @17 sketch_attrib_def 1 1 3 @13 126 0 0 0 1 1 #
ellipse-curve $-1 -1 $-1 48.5 0 1.665334536937734811e-15 0 1 0 2.000000000000001776 0 0 1 F 0 F 1.570796326794896558 #
point $-1 -1 $-1 50.5 0 1.665334536937734811e-15 #
point $-1 -1 $-1 48.5 0 -2 #
End-of-ASM-data 