M48
; DRILL file {KiCad (5.1.8)-1} date 06/27/21 16:22:06
; FORMAT={-:-/ absolute / metric / decimal}
; #@! TF.CreationDate,2021-06-27T16:22:06+02:00
; #@! TF.GenerationSoftware,Kicad,Pcbnew,(5.1.8)-1
; #@! TF.FileFunction,Plated,1,2,PTH
FMAT,2
METRIC
T1C0.300
T2C1.000
T3C1.016
T4C1.200
%
G90
G05
T1
X79.727Y-63.079
T2
X63.5Y-101.25
X66.04Y-101.25
X68.58Y-101.25
X71.12Y-101.25
X73.66Y-101.25
X76.2Y-101.25
X78.74Y-101.25
X81.28Y-101.25
X83.82Y-101.25
X86.36Y-101.25
X67.25Y-86.88
X67.25Y-94.5
X69.79Y-86.88
X69.79Y-94.5
X72.33Y-86.88
X72.33Y-94.5
X74.87Y-86.88
X74.87Y-94.5
X77.41Y-86.88
X77.41Y-94.5
X79.95Y-86.88
X79.95Y-94.5
X82.49Y-86.88
X82.49Y-94.5
X85.03Y-86.88
X85.03Y-94.5
T3
X49.37Y-77.43
X51.91Y-77.43
X54.45Y-77.43
X56.99Y-77.43
X59.53Y-54.57
X59.53Y-77.43
X62.07Y-54.57
X62.07Y-77.43
X64.61Y-54.57
X64.61Y-77.43
X67.15Y-54.57
X67.15Y-77.43
X69.69Y-54.57
X69.69Y-77.43
X72.23Y-54.57
X72.23Y-77.43
X74.77Y-54.57
X74.77Y-77.43
X77.31Y-54.57
X77.31Y-77.43
X79.85Y-54.57
X79.85Y-77.43
X82.39Y-54.57
X82.39Y-77.43
X84.93Y-54.57
X84.93Y-77.43
X87.47Y-54.57
X87.47Y-77.43
X90.01Y-54.57
X90.01Y-77.43
X92.55Y-54.57
X92.55Y-77.43
X95.09Y-54.57
X95.09Y-77.43
X97.63Y-54.57
X97.63Y-77.43
T4
X47.0Y-107.21
X47.0Y-109.75
X80.26Y-42.5
X82.8Y-42.5
X85.34Y-42.5
X87.88Y-42.5
X90.42Y-42.5
X92.96Y-42.5
X95.5Y-42.5
X59.0Y-42.0
X61.54Y-42.0
X95.25Y-83.75
X95.25Y-86.29
X95.25Y-88.83
X95.25Y-91.37
X95.25Y-93.91
X95.25Y-96.45
X95.25Y-98.99
X51.0Y-42.0
X53.54Y-42.0
X48.75Y-91.0
X51.29Y-91.0
X57.0Y-91.0
X59.54Y-91.0
X67.0Y-42.0
X69.54Y-42.0
X87.67Y-109.25
X90.21Y-109.25
X92.75Y-109.25
X95.29Y-109.25
X97.83Y-109.25
X63.34Y-109.25
X65.88Y-109.25
X68.42Y-109.25
X70.96Y-109.25
X73.5Y-109.25
T0
M30
