G04 #@! TF.GenerationSoftware,KiCad,Pcbnew,(5.1.8)-1*
G04 #@! TF.CreationDate,2021-06-27T16:21:36+02:00*
G04 #@! TF.ProjectId,sdr-controller,7364722d-636f-46e7-9472-6f6c6c65722e,rev?*
G04 #@! TF.SameCoordinates,Original*
G04 #@! TF.FileFunction,Copper,L2,Bot*
G04 #@! TF.FilePolarity,Positive*
%FSLAX46Y46*%
G04 Gerber Fmt 4.6, Leading zero omitted, Abs format (unit mm)*
G04 Created by KiCad (PCBNEW (5.1.8)-1) date 2021-06-27 16:21:36*
%MOMM*%
%LPD*%
G01*
G04 APERTURE LIST*
G04 #@! TA.AperFunction,ComponentPad*
%ADD10R,2.000000X2.600000*%
G04 #@! TD*
G04 #@! TA.AperFunction,ComponentPad*
%ADD11O,2.000000X2.600000*%
G04 #@! TD*
G04 #@! TA.AperFunction,ComponentPad*
%ADD12R,2.600000X2.000000*%
G04 #@! TD*
G04 #@! TA.AperFunction,ComponentPad*
%ADD13O,2.600000X2.000000*%
G04 #@! TD*
G04 #@! TA.AperFunction,ComponentPad*
%ADD14C,1.800000*%
G04 #@! TD*
G04 #@! TA.AperFunction,ComponentPad*
%ADD15C,1.600000*%
G04 #@! TD*
G04 #@! TA.AperFunction,ComponentPad*
%ADD16R,1.600000X1.600000*%
G04 #@! TD*
G04 #@! TA.AperFunction,ComponentPad*
%ADD17R,1.700000X1.700000*%
G04 #@! TD*
G04 #@! TA.AperFunction,ComponentPad*
%ADD18O,1.700000X1.700000*%
G04 #@! TD*
G04 #@! TA.AperFunction,ViaPad*
%ADD19C,0.600000*%
G04 #@! TD*
G04 #@! TA.AperFunction,Conductor*
%ADD20C,0.200000*%
G04 #@! TD*
G04 #@! TA.AperFunction,Conductor*
%ADD21C,0.254000*%
G04 #@! TD*
G04 #@! TA.AperFunction,Conductor*
%ADD22C,0.100000*%
G04 #@! TD*
G04 APERTURE END LIST*
D10*
X97830000Y-109250000D03*
D11*
X95290000Y-109250000D03*
X92750000Y-109250000D03*
X90210000Y-109250000D03*
X87670000Y-109250000D03*
D10*
X73500000Y-109250000D03*
D11*
X70960000Y-109250000D03*
X68420000Y-109250000D03*
X65880000Y-109250000D03*
X63340000Y-109250000D03*
D12*
X47000000Y-109750000D03*
D13*
X47000000Y-107210000D03*
D10*
X95500000Y-42500000D03*
D11*
X92960000Y-42500000D03*
X90420000Y-42500000D03*
X87880000Y-42500000D03*
X85340000Y-42500000D03*
X82800000Y-42500000D03*
X80260000Y-42500000D03*
D12*
X95250000Y-83750000D03*
D13*
X95250000Y-86290000D03*
X95250000Y-88830000D03*
X95250000Y-91370000D03*
X95250000Y-93910000D03*
X95250000Y-96450000D03*
X95250000Y-98990000D03*
D10*
X51000000Y-42000000D03*
D11*
X53540000Y-42000000D03*
D10*
X59000000Y-42000000D03*
D11*
X61540000Y-42000000D03*
D10*
X57000000Y-91000000D03*
D11*
X59540000Y-91000000D03*
D10*
X48750000Y-91000000D03*
D11*
X51290000Y-91000000D03*
D10*
X67000000Y-42000000D03*
D11*
X69540000Y-42000000D03*
D14*
X49370000Y-77430000D03*
X51910000Y-77430000D03*
X54450000Y-77430000D03*
X56990000Y-77430000D03*
X59530000Y-77430000D03*
X62070000Y-77430000D03*
X64610000Y-77430000D03*
X67150000Y-77430000D03*
X69690000Y-77430000D03*
X72230000Y-77430000D03*
X74770000Y-77430000D03*
X77310000Y-77430000D03*
X59530000Y-54570000D03*
X62070000Y-54570000D03*
X64610000Y-54570000D03*
X67150000Y-54570000D03*
X69690000Y-54570000D03*
X72230000Y-54570000D03*
X74770000Y-54570000D03*
X77310000Y-54570000D03*
X79850000Y-54570000D03*
X82390000Y-54570000D03*
X84930000Y-54570000D03*
X87470000Y-54570000D03*
X90010000Y-54570000D03*
X92550000Y-54570000D03*
X95090000Y-54570000D03*
X97630000Y-54570000D03*
X79850000Y-77430000D03*
X82390000Y-77430000D03*
X84930000Y-77430000D03*
X87470000Y-77430000D03*
X90010000Y-77430000D03*
X92550000Y-77430000D03*
X95090000Y-77430000D03*
X97630000Y-77430000D03*
D15*
X85030000Y-86880000D03*
X85030000Y-94500000D03*
X67250000Y-86880000D03*
X69790000Y-86880000D03*
X72330000Y-86880000D03*
X74870000Y-86880000D03*
X77410000Y-86880000D03*
X79950000Y-86880000D03*
X82490000Y-86880000D03*
X82490000Y-94500000D03*
X79950000Y-94500000D03*
X77410000Y-94500000D03*
X74870000Y-94500000D03*
X72330000Y-94500000D03*
X69790000Y-94500000D03*
D16*
X67250000Y-94500000D03*
D17*
X63500000Y-101250000D03*
D18*
X66040000Y-101250000D03*
X68580000Y-101250000D03*
X71120000Y-101250000D03*
X73660000Y-101250000D03*
X76200000Y-101250000D03*
X78740000Y-101250000D03*
X81280000Y-101250000D03*
X83820000Y-101250000D03*
X86360000Y-101250000D03*
D19*
X79727400Y-63079100D03*
D20*
X95250000Y-83750000D02*
X88710000Y-83750000D01*
X88710000Y-83750000D02*
X82390000Y-77430000D01*
X79850000Y-77430000D02*
X82390000Y-77430000D01*
X51000000Y-42000000D02*
X52227300Y-42000000D01*
X59000000Y-42000000D02*
X57772700Y-42000000D01*
X57772700Y-42000000D02*
X56224200Y-40451500D01*
X56224200Y-40451500D02*
X53008700Y-40451500D01*
X53008700Y-40451500D02*
X52227300Y-41232900D01*
X52227300Y-41232900D02*
X52227300Y-42000000D01*
X59265000Y-42000000D02*
X59000000Y-42000000D01*
X59265000Y-42000000D02*
X59530000Y-42000000D01*
X59530000Y-42000000D02*
X60227300Y-42000000D01*
X59530000Y-54570000D02*
X59530000Y-42000000D01*
X54630100Y-89767500D02*
X54450000Y-89587400D01*
X54450000Y-89587400D02*
X54450000Y-77430000D01*
X55899600Y-91000000D02*
X55862600Y-91000000D01*
X55862600Y-91000000D02*
X54630100Y-89767500D01*
X54630100Y-89767500D02*
X51840400Y-92557200D01*
X51840400Y-92557200D02*
X50767400Y-92557200D01*
X50767400Y-92557200D02*
X49977300Y-91767100D01*
X49977300Y-91767100D02*
X49977300Y-91000000D01*
X48750000Y-91000000D02*
X49977300Y-91000000D01*
X60227300Y-42000000D02*
X60227300Y-41232900D01*
X60227300Y-41232900D02*
X61014800Y-40445400D01*
X61014800Y-40445400D02*
X64218100Y-40445400D01*
X64218100Y-40445400D02*
X65772700Y-42000000D01*
X67000000Y-42000000D02*
X65772700Y-42000000D01*
X63500000Y-102783300D02*
X63500000Y-101250000D01*
X68429700Y-107713000D02*
X63500000Y-102783300D01*
X63500000Y-102783300D02*
X57760600Y-108522700D01*
X57760600Y-108522700D02*
X47000000Y-108522700D01*
X47000000Y-109750000D02*
X47000000Y-108522700D01*
X68429700Y-107713000D02*
X71502800Y-107713000D01*
X71502800Y-107713000D02*
X72272700Y-108482900D01*
X72272700Y-108482900D02*
X72272700Y-109250000D01*
X68420000Y-107722700D02*
X68429700Y-107713000D01*
X73500000Y-109250000D02*
X74727300Y-109250000D01*
X74727300Y-109250000D02*
X81650000Y-102327300D01*
X81650000Y-102327300D02*
X86360000Y-102327300D01*
X72886400Y-109250000D02*
X73500000Y-109250000D01*
X72886400Y-109250000D02*
X72272700Y-109250000D01*
X86360000Y-101250000D02*
X86360000Y-102327300D01*
X86360000Y-102327300D02*
X87354600Y-102327300D01*
X87354600Y-102327300D02*
X92750000Y-107722700D01*
X63625000Y-99152300D02*
X67250000Y-95527300D01*
X63500000Y-101250000D02*
X63500000Y-99277300D01*
X63500000Y-99277300D02*
X63625000Y-99152300D01*
X63625000Y-99152300D02*
X57000000Y-92527300D01*
X57000000Y-91000000D02*
X57000000Y-92527300D01*
X67250000Y-94500000D02*
X67250000Y-95527300D01*
X57000000Y-91000000D02*
X55899600Y-91000000D01*
X97830000Y-109250000D02*
X96602700Y-109250000D01*
X92750000Y-107722700D02*
X95842500Y-107722700D01*
X95842500Y-107722700D02*
X96602700Y-108482900D01*
X96602700Y-108482900D02*
X96602700Y-109250000D01*
X92750000Y-109250000D02*
X92750000Y-107722700D01*
X68420000Y-109250000D02*
X68420000Y-107722700D01*
X69790000Y-94500000D02*
X67250000Y-94500000D01*
X69790000Y-94500000D02*
X72330000Y-94500000D01*
X66040000Y-101250000D02*
X67117300Y-101250000D01*
X67117300Y-101250000D02*
X67117300Y-101115200D01*
X67117300Y-101115200D02*
X68059800Y-100172700D01*
X68059800Y-100172700D02*
X69197300Y-100172700D01*
X69197300Y-100172700D02*
X74870000Y-94500000D01*
X68580000Y-101250000D02*
X69657300Y-101250000D01*
X69657300Y-101250000D02*
X69657300Y-101165600D01*
X69657300Y-101165600D02*
X76322900Y-94500000D01*
X76322900Y-94500000D02*
X77410000Y-94500000D01*
X71120000Y-101250000D02*
X72197300Y-101250000D01*
X72197300Y-101250000D02*
X72197300Y-101115200D01*
X72197300Y-101115200D02*
X73139800Y-100172700D01*
X73139800Y-100172700D02*
X74277300Y-100172700D01*
X74277300Y-100172700D02*
X79950000Y-94500000D01*
X73660000Y-101250000D02*
X74737300Y-101250000D01*
X74737300Y-101250000D02*
X74737300Y-101165600D01*
X74737300Y-101165600D02*
X81402900Y-94500000D01*
X81402900Y-94500000D02*
X82490000Y-94500000D01*
X76200000Y-101250000D02*
X77277300Y-101250000D01*
X77277300Y-101250000D02*
X77277300Y-101181000D01*
X77277300Y-101181000D02*
X83760000Y-94698300D01*
X83760000Y-94698300D02*
X83760000Y-88150000D01*
X83760000Y-88150000D02*
X85030000Y-86880000D01*
X74770000Y-55698800D02*
X74770000Y-58121700D01*
X74770000Y-58121700D02*
X79727400Y-63079100D01*
X74770000Y-54570000D02*
X74770000Y-55698800D01*
X74770000Y-55698800D02*
X65738800Y-55698800D01*
X65738800Y-55698800D02*
X64610000Y-54570000D01*
X82800000Y-42500000D02*
X84027300Y-42500000D01*
X84930000Y-77430000D02*
X93711400Y-68648600D01*
X93711400Y-68648600D02*
X93711400Y-53411400D01*
X93711400Y-53411400D02*
X84027300Y-43727300D01*
X84027300Y-43727300D02*
X84027300Y-42500000D01*
X89107300Y-42500000D02*
X89107300Y-43727300D01*
X89107300Y-43727300D02*
X95025200Y-49645200D01*
X95025200Y-49645200D02*
X95025200Y-50107900D01*
X95025200Y-50107900D02*
X96449800Y-51532500D01*
X96449800Y-51532500D02*
X96449800Y-78229800D01*
X96449800Y-78229800D02*
X96777400Y-78557400D01*
X96777400Y-78557400D02*
X96777400Y-84884800D01*
X96777400Y-84884800D02*
X96359900Y-85302300D01*
X96359900Y-85302300D02*
X96792400Y-85734900D01*
X96792400Y-85734900D02*
X96792400Y-89408900D01*
X96792400Y-89408900D02*
X96058600Y-90142700D01*
X96058600Y-90142700D02*
X95250000Y-90142700D01*
X74770000Y-77430000D02*
X82317400Y-84977400D01*
X82317400Y-84977400D02*
X96034900Y-84977400D01*
X96034900Y-84977400D02*
X96359900Y-85302300D01*
X87880000Y-42500000D02*
X89107300Y-42500000D01*
X95250000Y-91370000D02*
X95250000Y-90142700D01*
X95250000Y-88830000D02*
X95250000Y-87602700D01*
X72230000Y-77430000D02*
X80624900Y-85824900D01*
X80624900Y-85824900D02*
X92244900Y-85824900D01*
X92244900Y-85824900D02*
X94022700Y-87602700D01*
X94022700Y-87602700D02*
X95250000Y-87602700D01*
X92960000Y-42500000D02*
X92960000Y-44027300D01*
X92960000Y-44027300D02*
X97630000Y-48697300D01*
X97630000Y-48697300D02*
X97630000Y-54570000D01*
X62070000Y-54570000D02*
X47000000Y-69640000D01*
X47000000Y-69640000D02*
X47000000Y-107210000D01*
X59530000Y-77430000D02*
X60985800Y-78885800D01*
X60985800Y-78885800D02*
X67290500Y-78885800D01*
X67290500Y-78885800D02*
X68420100Y-77756200D01*
X68420100Y-77756200D02*
X68420100Y-77047900D01*
X68420100Y-77047900D02*
X69176900Y-76291100D01*
X69176900Y-76291100D02*
X76171100Y-76291100D01*
X76171100Y-76291100D02*
X77310000Y-77430000D01*
X64567300Y-109250000D02*
X64567300Y-110058600D01*
X64567300Y-110058600D02*
X65948700Y-111440000D01*
X65948700Y-111440000D02*
X84252700Y-111440000D01*
X84252700Y-111440000D02*
X86442700Y-109250000D01*
X63340000Y-109250000D02*
X64567300Y-109250000D01*
X87670000Y-109250000D02*
X86442700Y-109250000D01*
X67107300Y-109250000D02*
X67107300Y-110058600D01*
X67107300Y-110058600D02*
X68161400Y-111112700D01*
X68161400Y-111112700D02*
X77187700Y-111112700D01*
X77187700Y-111112700D02*
X80596200Y-107704200D01*
X80596200Y-107704200D02*
X88204000Y-107704200D01*
X88204000Y-107704200D02*
X88982700Y-108482900D01*
X88982700Y-108482900D02*
X88982700Y-109250000D01*
X64610000Y-77430000D02*
X62815800Y-75635800D01*
X62815800Y-75635800D02*
X51164200Y-75635800D01*
X51164200Y-75635800D02*
X49370000Y-77430000D01*
X65880000Y-109250000D02*
X67107300Y-109250000D01*
X90210000Y-109250000D02*
X88982700Y-109250000D01*
X95290000Y-109250000D02*
X94062700Y-109250000D01*
X70960000Y-109250000D02*
X70960000Y-110777300D01*
X70960000Y-110777300D02*
X74727500Y-110777300D01*
X74727500Y-110777300D02*
X78130000Y-107374800D01*
X78130000Y-107374800D02*
X90417600Y-107374800D01*
X90417600Y-107374800D02*
X91480000Y-108437200D01*
X91480000Y-108437200D02*
X91480000Y-110084900D01*
X91480000Y-110084900D02*
X92180500Y-110785400D01*
X92180500Y-110785400D02*
X93335900Y-110785400D01*
X93335900Y-110785400D02*
X94062700Y-110058600D01*
X94062700Y-110058600D02*
X94062700Y-109250000D01*
X62070000Y-77430000D02*
X60603100Y-75963100D01*
X60603100Y-75963100D02*
X53376900Y-75963100D01*
X53376900Y-75963100D02*
X51910000Y-77430000D01*
X69540000Y-42000000D02*
X70767300Y-42000000D01*
X92550000Y-54570000D02*
X85639100Y-47659100D01*
X85639100Y-47659100D02*
X76426400Y-47659100D01*
X76426400Y-47659100D02*
X70767300Y-42000000D01*
X51290000Y-91000000D02*
X52517300Y-91000000D01*
X90010000Y-54570000D02*
X72921900Y-71658100D01*
X72921900Y-71658100D02*
X71325600Y-71658100D01*
X71325600Y-71658100D02*
X65880000Y-77103700D01*
X65880000Y-77103700D02*
X65880000Y-77829300D01*
X65880000Y-77829300D02*
X65152000Y-78557300D01*
X65152000Y-78557300D02*
X61577200Y-78557300D01*
X61577200Y-78557300D02*
X60800000Y-77780100D01*
X60800000Y-77780100D02*
X60800000Y-77105400D01*
X60800000Y-77105400D02*
X59985100Y-76290500D01*
X59985100Y-76290500D02*
X53965400Y-76290500D01*
X53965400Y-76290500D02*
X53180000Y-77075900D01*
X53180000Y-77075900D02*
X53180000Y-90337300D01*
X53180000Y-90337300D02*
X52517300Y-91000000D01*
X61540000Y-42000000D02*
X62767300Y-42000000D01*
X77310000Y-54570000D02*
X67617100Y-44877100D01*
X67617100Y-44877100D02*
X65644400Y-44877100D01*
X65644400Y-44877100D02*
X62767300Y-42000000D01*
D21*
X105162540Y-35679102D02*
X105318894Y-35726308D01*
X105463096Y-35802982D01*
X105589663Y-35906207D01*
X105693769Y-36032051D01*
X105771447Y-36175711D01*
X105819742Y-36331729D01*
X105840000Y-36524473D01*
X105840001Y-112967712D01*
X105820898Y-113162540D01*
X105773692Y-113318895D01*
X105697018Y-113463096D01*
X105593792Y-113589664D01*
X105467951Y-113693768D01*
X105324289Y-113771447D01*
X105168271Y-113819742D01*
X104975527Y-113840000D01*
X41532277Y-113840000D01*
X41337460Y-113820898D01*
X41181105Y-113773692D01*
X41036904Y-113697018D01*
X40910336Y-113593792D01*
X40806232Y-113467951D01*
X40728553Y-113324289D01*
X40680258Y-113168271D01*
X40660000Y-112975527D01*
X40660000Y-110750000D01*
X45061928Y-110750000D01*
X45074188Y-110874482D01*
X45110498Y-110994180D01*
X45169463Y-111104494D01*
X45248815Y-111201185D01*
X45345506Y-111280537D01*
X45455820Y-111339502D01*
X45575518Y-111375812D01*
X45700000Y-111388072D01*
X46714250Y-111385000D01*
X46873000Y-111226250D01*
X46873000Y-109877000D01*
X47127000Y-109877000D01*
X47127000Y-111226250D01*
X47285750Y-111385000D01*
X48300000Y-111388072D01*
X48424482Y-111375812D01*
X48544180Y-111339502D01*
X48654494Y-111280537D01*
X48751185Y-111201185D01*
X48830537Y-111104494D01*
X48889502Y-110994180D01*
X48925812Y-110874482D01*
X48938072Y-110750000D01*
X48935000Y-110035750D01*
X48776250Y-109877000D01*
X47127000Y-109877000D01*
X46873000Y-109877000D01*
X45223750Y-109877000D01*
X45065000Y-110035750D01*
X45061928Y-110750000D01*
X40660000Y-110750000D01*
X40660000Y-107210000D01*
X45057089Y-107210000D01*
X45088657Y-107530516D01*
X45182148Y-107838715D01*
X45333969Y-108122752D01*
X45392655Y-108194261D01*
X45345506Y-108219463D01*
X45248815Y-108298815D01*
X45169463Y-108395506D01*
X45110498Y-108505820D01*
X45074188Y-108625518D01*
X45061928Y-108750000D01*
X45065000Y-109464250D01*
X45223750Y-109623000D01*
X46873000Y-109623000D01*
X46873000Y-109603000D01*
X47127000Y-109603000D01*
X47127000Y-109623000D01*
X48776250Y-109623000D01*
X48935000Y-109464250D01*
X48937557Y-108869678D01*
X61705000Y-108869678D01*
X61705000Y-109630321D01*
X61728657Y-109870515D01*
X61822148Y-110178714D01*
X61973969Y-110462751D01*
X62178286Y-110711714D01*
X62427248Y-110916031D01*
X62711285Y-111067852D01*
X63019484Y-111161343D01*
X63340000Y-111192911D01*
X63660515Y-111161343D01*
X63968714Y-111067852D01*
X64252751Y-110916031D01*
X64325545Y-110856291D01*
X65403446Y-111934193D01*
X65426462Y-111962238D01*
X65454506Y-111985253D01*
X65538380Y-112054087D01*
X65666066Y-112122337D01*
X65804615Y-112164365D01*
X65948700Y-112178556D01*
X65984805Y-112175000D01*
X84216595Y-112175000D01*
X84252700Y-112178556D01*
X84288805Y-112175000D01*
X84396785Y-112164365D01*
X84535333Y-112122337D01*
X84663020Y-112054087D01*
X84774938Y-111962238D01*
X84797958Y-111934188D01*
X86291926Y-110440220D01*
X86303969Y-110462751D01*
X86508286Y-110711714D01*
X86757248Y-110916031D01*
X87041285Y-111067852D01*
X87349484Y-111161343D01*
X87670000Y-111192911D01*
X87990515Y-111161343D01*
X88298714Y-111067852D01*
X88582751Y-110916031D01*
X88831714Y-110711714D01*
X88940000Y-110579766D01*
X89048286Y-110711714D01*
X89297248Y-110916031D01*
X89581285Y-111067852D01*
X89889484Y-111161343D01*
X90210000Y-111192911D01*
X90530515Y-111161343D01*
X90838714Y-111067852D01*
X91122751Y-110916031D01*
X91204552Y-110848899D01*
X91635246Y-111279593D01*
X91658262Y-111307638D01*
X91686306Y-111330653D01*
X91770180Y-111399487D01*
X91897866Y-111467737D01*
X92036415Y-111509765D01*
X92180500Y-111523956D01*
X92216605Y-111520400D01*
X93299795Y-111520400D01*
X93335900Y-111523956D01*
X93372005Y-111520400D01*
X93479985Y-111509765D01*
X93618533Y-111467737D01*
X93746220Y-111399487D01*
X93858138Y-111307638D01*
X93881158Y-111279588D01*
X94304455Y-110856292D01*
X94377248Y-110916031D01*
X94661285Y-111067852D01*
X94969484Y-111161343D01*
X95290000Y-111192911D01*
X95610515Y-111161343D01*
X95918714Y-111067852D01*
X96202751Y-110916031D01*
X96274261Y-110857345D01*
X96299463Y-110904494D01*
X96378815Y-111001185D01*
X96475506Y-111080537D01*
X96585820Y-111139502D01*
X96705518Y-111175812D01*
X96830000Y-111188072D01*
X97544250Y-111185000D01*
X97703000Y-111026250D01*
X97703000Y-109377000D01*
X97957000Y-109377000D01*
X97957000Y-111026250D01*
X98115750Y-111185000D01*
X98830000Y-111188072D01*
X98954482Y-111175812D01*
X99074180Y-111139502D01*
X99184494Y-111080537D01*
X99281185Y-111001185D01*
X99360537Y-110904494D01*
X99419502Y-110794180D01*
X99455812Y-110674482D01*
X99468072Y-110550000D01*
X99465000Y-109535750D01*
X99306250Y-109377000D01*
X97957000Y-109377000D01*
X97703000Y-109377000D01*
X97683000Y-109377000D01*
X97683000Y-109123000D01*
X97703000Y-109123000D01*
X97703000Y-107473750D01*
X97957000Y-107473750D01*
X97957000Y-109123000D01*
X99306250Y-109123000D01*
X99465000Y-108964250D01*
X99468072Y-107950000D01*
X99455812Y-107825518D01*
X99419502Y-107705820D01*
X99360537Y-107595506D01*
X99281185Y-107498815D01*
X99184494Y-107419463D01*
X99074180Y-107360498D01*
X98954482Y-107324188D01*
X98830000Y-107311928D01*
X98115750Y-107315000D01*
X97957000Y-107473750D01*
X97703000Y-107473750D01*
X97544250Y-107315000D01*
X96830000Y-107311928D01*
X96705518Y-107324188D01*
X96585820Y-107360498D01*
X96475506Y-107419463D01*
X96378815Y-107498815D01*
X96299463Y-107595506D01*
X96274261Y-107642655D01*
X96202752Y-107583969D01*
X95918715Y-107432148D01*
X95610516Y-107338657D01*
X95290000Y-107307089D01*
X94969485Y-107338657D01*
X94661286Y-107432148D01*
X94377249Y-107583969D01*
X94128286Y-107788286D01*
X94021716Y-107918142D01*
X93816317Y-107704078D01*
X93552761Y-107519990D01*
X93258355Y-107390856D01*
X93130434Y-107359876D01*
X92877000Y-107479223D01*
X92877000Y-109123000D01*
X92897000Y-109123000D01*
X92897000Y-109377000D01*
X92877000Y-109377000D01*
X92877000Y-109397000D01*
X92623000Y-109397000D01*
X92623000Y-109377000D01*
X92603000Y-109377000D01*
X92603000Y-109123000D01*
X92623000Y-109123000D01*
X92623000Y-107479223D01*
X92369566Y-107359876D01*
X92241645Y-107390856D01*
X91947239Y-107519990D01*
X91744115Y-107661868D01*
X90962858Y-106880612D01*
X90939838Y-106852562D01*
X90827920Y-106760713D01*
X90700233Y-106692463D01*
X90561685Y-106650435D01*
X90453705Y-106639800D01*
X90417600Y-106636244D01*
X90381495Y-106639800D01*
X78166105Y-106639800D01*
X78130000Y-106636244D01*
X77985915Y-106650435D01*
X77847366Y-106692463D01*
X77719680Y-106760713D01*
X77607762Y-106852562D01*
X77584746Y-106880607D01*
X75032302Y-109433052D01*
X74976250Y-109377000D01*
X73627000Y-109377000D01*
X73627000Y-109397000D01*
X73373000Y-109397000D01*
X73373000Y-109377000D01*
X73353000Y-109377000D01*
X73353000Y-109123000D01*
X73373000Y-109123000D01*
X73373000Y-107473750D01*
X73627000Y-107473750D01*
X73627000Y-109123000D01*
X74976250Y-109123000D01*
X75135000Y-108964250D01*
X75138072Y-107950000D01*
X75125812Y-107825518D01*
X75089502Y-107705820D01*
X75030537Y-107595506D01*
X74951185Y-107498815D01*
X74854494Y-107419463D01*
X74744180Y-107360498D01*
X74624482Y-107324188D01*
X74500000Y-107311928D01*
X73785750Y-107315000D01*
X73627000Y-107473750D01*
X73373000Y-107473750D01*
X73214250Y-107315000D01*
X72500000Y-107311928D01*
X72375518Y-107324188D01*
X72255820Y-107360498D01*
X72145506Y-107419463D01*
X72048815Y-107498815D01*
X71969463Y-107595506D01*
X71944261Y-107642655D01*
X71872752Y-107583969D01*
X71588715Y-107432148D01*
X71280516Y-107338657D01*
X70960000Y-107307089D01*
X70639485Y-107338657D01*
X70331286Y-107432148D01*
X70047249Y-107583969D01*
X69798286Y-107788286D01*
X69691716Y-107918142D01*
X69486317Y-107704078D01*
X69222761Y-107519990D01*
X68928355Y-107390856D01*
X68800434Y-107359876D01*
X68547000Y-107479223D01*
X68547000Y-109123000D01*
X68567000Y-109123000D01*
X68567000Y-109377000D01*
X68547000Y-109377000D01*
X68547000Y-109397000D01*
X68293000Y-109397000D01*
X68293000Y-109377000D01*
X68273000Y-109377000D01*
X68273000Y-109123000D01*
X68293000Y-109123000D01*
X68293000Y-107479223D01*
X68039566Y-107359876D01*
X67911645Y-107390856D01*
X67617239Y-107519990D01*
X67353683Y-107704078D01*
X67148284Y-107918142D01*
X67041714Y-107788286D01*
X66792752Y-107583969D01*
X66508715Y-107432148D01*
X66200516Y-107338657D01*
X65880000Y-107307089D01*
X65559485Y-107338657D01*
X65251286Y-107432148D01*
X64967249Y-107583969D01*
X64718286Y-107788286D01*
X64610000Y-107920233D01*
X64501714Y-107788286D01*
X64252752Y-107583969D01*
X63968715Y-107432148D01*
X63660516Y-107338657D01*
X63340000Y-107307089D01*
X63019485Y-107338657D01*
X62711286Y-107432148D01*
X62427249Y-107583969D01*
X62178286Y-107788286D01*
X61973969Y-108037248D01*
X61822148Y-108321285D01*
X61728657Y-108629484D01*
X61705000Y-108869678D01*
X48937557Y-108869678D01*
X48938072Y-108750000D01*
X48925812Y-108625518D01*
X48889502Y-108505820D01*
X48830537Y-108395506D01*
X48751185Y-108298815D01*
X48654494Y-108219463D01*
X48607345Y-108194261D01*
X48666031Y-108122752D01*
X48817852Y-107838715D01*
X48911343Y-107530516D01*
X48942911Y-107210000D01*
X48911343Y-106889484D01*
X48817852Y-106581285D01*
X48666031Y-106297248D01*
X48461714Y-106048286D01*
X48212752Y-105843969D01*
X47928715Y-105692148D01*
X47735000Y-105633385D01*
X47735000Y-102100000D01*
X62011928Y-102100000D01*
X62024188Y-102224482D01*
X62060498Y-102344180D01*
X62119463Y-102454494D01*
X62198815Y-102551185D01*
X62295506Y-102630537D01*
X62405820Y-102689502D01*
X62525518Y-102725812D01*
X62650000Y-102738072D01*
X63214250Y-102735000D01*
X63373000Y-102576250D01*
X63373000Y-101377000D01*
X62173750Y-101377000D01*
X62015000Y-101535750D01*
X62011928Y-102100000D01*
X47735000Y-102100000D01*
X47735000Y-100400000D01*
X62011928Y-100400000D01*
X62015000Y-100964250D01*
X62173750Y-101123000D01*
X63373000Y-101123000D01*
X63373000Y-99923750D01*
X63214250Y-99765000D01*
X62650000Y-99761928D01*
X62525518Y-99774188D01*
X62405820Y-99810498D01*
X62295506Y-99869463D01*
X62198815Y-99948815D01*
X62119463Y-100045506D01*
X62060498Y-100155820D01*
X62024188Y-100275518D01*
X62011928Y-100400000D01*
X47735000Y-100400000D01*
X47735000Y-95300000D01*
X65811928Y-95300000D01*
X65824188Y-95424482D01*
X65860498Y-95544180D01*
X65919463Y-95654494D01*
X65998815Y-95751185D01*
X66095506Y-95830537D01*
X66205820Y-95889502D01*
X66325518Y-95925812D01*
X66450000Y-95938072D01*
X66964250Y-95935000D01*
X67123000Y-95776250D01*
X67123000Y-94627000D01*
X65973750Y-94627000D01*
X65815000Y-94785750D01*
X65811928Y-95300000D01*
X47735000Y-95300000D01*
X47735000Y-93700000D01*
X65811928Y-93700000D01*
X65815000Y-94214250D01*
X65973750Y-94373000D01*
X67123000Y-94373000D01*
X67123000Y-93223750D01*
X67377000Y-93223750D01*
X67377000Y-94373000D01*
X67397000Y-94373000D01*
X67397000Y-94627000D01*
X67377000Y-94627000D01*
X67377000Y-95776250D01*
X67535750Y-95935000D01*
X68050000Y-95938072D01*
X68174482Y-95925812D01*
X68294180Y-95889502D01*
X68404494Y-95830537D01*
X68501185Y-95751185D01*
X68580537Y-95654494D01*
X68639502Y-95544180D01*
X68655117Y-95492702D01*
X68976903Y-95492702D01*
X69048486Y-95736671D01*
X69303996Y-95857571D01*
X69578184Y-95926300D01*
X69860512Y-95940217D01*
X70140130Y-95898787D01*
X70406292Y-95803603D01*
X70531514Y-95736671D01*
X70603097Y-95492702D01*
X69790000Y-94679605D01*
X68976903Y-95492702D01*
X68655117Y-95492702D01*
X68675812Y-95424482D01*
X68688072Y-95300000D01*
X68687959Y-95281016D01*
X68797298Y-95313097D01*
X69610395Y-94500000D01*
X69969605Y-94500000D01*
X70782702Y-95313097D01*
X71026671Y-95241514D01*
X71057971Y-95175364D01*
X71093329Y-95241514D01*
X71337298Y-95313097D01*
X72150395Y-94500000D01*
X71337298Y-93686903D01*
X71093329Y-93758486D01*
X71062029Y-93824636D01*
X71026671Y-93758486D01*
X70782702Y-93686903D01*
X69969605Y-94500000D01*
X69610395Y-94500000D01*
X68797298Y-93686903D01*
X68687959Y-93718984D01*
X68688072Y-93700000D01*
X68675812Y-93575518D01*
X68655118Y-93507298D01*
X68976903Y-93507298D01*
X69790000Y-94320395D01*
X70603097Y-93507298D01*
X71516903Y-93507298D01*
X72330000Y-94320395D01*
X73143097Y-93507298D01*
X73071514Y-93263329D01*
X72816004Y-93142429D01*
X72541816Y-93073700D01*
X72259488Y-93059783D01*
X71979870Y-93101213D01*
X71713708Y-93196397D01*
X71588486Y-93263329D01*
X71516903Y-93507298D01*
X70603097Y-93507298D01*
X70531514Y-93263329D01*
X70276004Y-93142429D01*
X70001816Y-93073700D01*
X69719488Y-93059783D01*
X69439870Y-93101213D01*
X69173708Y-93196397D01*
X69048486Y-93263329D01*
X68976903Y-93507298D01*
X68655118Y-93507298D01*
X68639502Y-93455820D01*
X68580537Y-93345506D01*
X68501185Y-93248815D01*
X68404494Y-93169463D01*
X68294180Y-93110498D01*
X68174482Y-93074188D01*
X68050000Y-93061928D01*
X67535750Y-93065000D01*
X67377000Y-93223750D01*
X67123000Y-93223750D01*
X66964250Y-93065000D01*
X66450000Y-93061928D01*
X66325518Y-93074188D01*
X66205820Y-93110498D01*
X66095506Y-93169463D01*
X65998815Y-93248815D01*
X65919463Y-93345506D01*
X65860498Y-93455820D01*
X65824188Y-93575518D01*
X65811928Y-93700000D01*
X47735000Y-93700000D01*
X47735000Y-92936595D01*
X47750000Y-92938072D01*
X48464250Y-92935000D01*
X48623000Y-92776250D01*
X48623000Y-91127000D01*
X48603000Y-91127000D01*
X48603000Y-90873000D01*
X48623000Y-90873000D01*
X48623000Y-89223750D01*
X48464250Y-89065000D01*
X47750000Y-89061928D01*
X47735000Y-89063405D01*
X47735000Y-69944446D01*
X61631581Y-56047866D01*
X61918816Y-56105000D01*
X62221184Y-56105000D01*
X62517743Y-56046011D01*
X62797095Y-55930299D01*
X63048505Y-55762312D01*
X63262312Y-55548505D01*
X63340000Y-55432237D01*
X63417688Y-55548505D01*
X63631495Y-55762312D01*
X63882905Y-55930299D01*
X64162257Y-56046011D01*
X64458816Y-56105000D01*
X64761184Y-56105000D01*
X65048419Y-56047866D01*
X65193546Y-56192993D01*
X65216562Y-56221038D01*
X65328480Y-56312887D01*
X65456167Y-56381137D01*
X65594715Y-56423165D01*
X65702695Y-56433800D01*
X65702704Y-56433800D01*
X65738799Y-56437355D01*
X65774894Y-56433800D01*
X74035000Y-56433800D01*
X74035001Y-58085585D01*
X74031444Y-58121700D01*
X74045635Y-58265785D01*
X74087664Y-58404333D01*
X74155914Y-58532020D01*
X74247763Y-58643938D01*
X74275808Y-58666954D01*
X78795469Y-63186615D01*
X78828332Y-63351829D01*
X78898814Y-63521989D01*
X79001138Y-63675128D01*
X79131372Y-63805362D01*
X79284511Y-63907686D01*
X79454671Y-63978168D01*
X79544514Y-63996039D01*
X72617454Y-70923100D01*
X71361694Y-70923100D01*
X71325599Y-70919545D01*
X71289504Y-70923100D01*
X71289495Y-70923100D01*
X71181515Y-70933735D01*
X71042967Y-70975763D01*
X70915280Y-71044013D01*
X70803362Y-71135862D01*
X70780346Y-71163907D01*
X65647535Y-76296718D01*
X65588505Y-76237688D01*
X65337095Y-76069701D01*
X65057743Y-75953989D01*
X64761184Y-75895000D01*
X64458816Y-75895000D01*
X64171581Y-75952134D01*
X63361058Y-75141612D01*
X63338038Y-75113562D01*
X63226120Y-75021713D01*
X63098433Y-74953463D01*
X62959885Y-74911435D01*
X62851905Y-74900800D01*
X62815800Y-74897244D01*
X62779695Y-74900800D01*
X51200305Y-74900800D01*
X51164200Y-74897244D01*
X51020114Y-74911435D01*
X50978086Y-74924184D01*
X50881567Y-74953463D01*
X50753880Y-75021713D01*
X50641962Y-75113562D01*
X50618946Y-75141607D01*
X49808419Y-75952134D01*
X49521184Y-75895000D01*
X49218816Y-75895000D01*
X48922257Y-75953989D01*
X48642905Y-76069701D01*
X48391495Y-76237688D01*
X48177688Y-76451495D01*
X48009701Y-76702905D01*
X47893989Y-76982257D01*
X47835000Y-77278816D01*
X47835000Y-77581184D01*
X47893989Y-77877743D01*
X48009701Y-78157095D01*
X48177688Y-78408505D01*
X48391495Y-78622312D01*
X48642905Y-78790299D01*
X48922257Y-78906011D01*
X49218816Y-78965000D01*
X49521184Y-78965000D01*
X49817743Y-78906011D01*
X50097095Y-78790299D01*
X50348505Y-78622312D01*
X50562312Y-78408505D01*
X50640000Y-78292237D01*
X50717688Y-78408505D01*
X50931495Y-78622312D01*
X51182905Y-78790299D01*
X51462257Y-78906011D01*
X51758816Y-78965000D01*
X52061184Y-78965000D01*
X52357743Y-78906011D01*
X52445000Y-78869868D01*
X52445001Y-89532777D01*
X52202751Y-89333969D01*
X51918714Y-89182148D01*
X51610515Y-89088657D01*
X51290000Y-89057089D01*
X50969484Y-89088657D01*
X50661285Y-89182148D01*
X50377248Y-89333969D01*
X50305739Y-89392655D01*
X50280537Y-89345506D01*
X50201185Y-89248815D01*
X50104494Y-89169463D01*
X49994180Y-89110498D01*
X49874482Y-89074188D01*
X49750000Y-89061928D01*
X49035750Y-89065000D01*
X48877000Y-89223750D01*
X48877000Y-90873000D01*
X48897000Y-90873000D01*
X48897000Y-91127000D01*
X48877000Y-91127000D01*
X48877000Y-92776250D01*
X49035750Y-92935000D01*
X49750000Y-92938072D01*
X49874482Y-92925812D01*
X49994180Y-92889502D01*
X50104494Y-92830537D01*
X50201185Y-92751185D01*
X50280537Y-92654494D01*
X50305739Y-92607345D01*
X50377249Y-92666031D01*
X50661286Y-92817852D01*
X50969485Y-92911343D01*
X51290000Y-92942911D01*
X51610516Y-92911343D01*
X51918715Y-92817852D01*
X52202752Y-92666031D01*
X52451714Y-92461714D01*
X52584428Y-92300000D01*
X55361928Y-92300000D01*
X55374188Y-92424482D01*
X55410498Y-92544180D01*
X55469463Y-92654494D01*
X55548815Y-92751185D01*
X55645506Y-92830537D01*
X55755820Y-92889502D01*
X55875518Y-92925812D01*
X56000000Y-92938072D01*
X56714250Y-92935000D01*
X56873000Y-92776250D01*
X56873000Y-91127000D01*
X55523750Y-91127000D01*
X55365000Y-91285750D01*
X55361928Y-92300000D01*
X52584428Y-92300000D01*
X52656031Y-92212752D01*
X52807852Y-91928715D01*
X52898585Y-91629606D01*
X52927620Y-91614087D01*
X53039538Y-91522238D01*
X53062558Y-91494188D01*
X53674193Y-90882554D01*
X53702238Y-90859538D01*
X53794087Y-90747620D01*
X53862337Y-90619933D01*
X53904365Y-90481385D01*
X53915000Y-90373405D01*
X53915000Y-90373396D01*
X53918555Y-90337301D01*
X53915000Y-90301206D01*
X53915000Y-89700000D01*
X55361928Y-89700000D01*
X55365000Y-90714250D01*
X55523750Y-90873000D01*
X56873000Y-90873000D01*
X56873000Y-89223750D01*
X57127000Y-89223750D01*
X57127000Y-90873000D01*
X57147000Y-90873000D01*
X57147000Y-91127000D01*
X57127000Y-91127000D01*
X57127000Y-92776250D01*
X57285750Y-92935000D01*
X58000000Y-92938072D01*
X58124482Y-92925812D01*
X58244180Y-92889502D01*
X58354494Y-92830537D01*
X58451185Y-92751185D01*
X58530537Y-92654494D01*
X58555739Y-92607345D01*
X58627249Y-92666031D01*
X58911286Y-92817852D01*
X59219485Y-92911343D01*
X59540000Y-92942911D01*
X59860516Y-92911343D01*
X60168715Y-92817852D01*
X60452752Y-92666031D01*
X60701714Y-92461714D01*
X60906031Y-92212752D01*
X61057852Y-91928715D01*
X61151343Y-91620515D01*
X61175000Y-91380321D01*
X61175000Y-90619678D01*
X61151343Y-90379484D01*
X61057852Y-90071285D01*
X60906031Y-89787248D01*
X60701714Y-89538286D01*
X60452751Y-89333969D01*
X60168714Y-89182148D01*
X59860515Y-89088657D01*
X59540000Y-89057089D01*
X59219484Y-89088657D01*
X58911285Y-89182148D01*
X58627248Y-89333969D01*
X58555739Y-89392655D01*
X58530537Y-89345506D01*
X58451185Y-89248815D01*
X58354494Y-89169463D01*
X58244180Y-89110498D01*
X58124482Y-89074188D01*
X58000000Y-89061928D01*
X57285750Y-89065000D01*
X57127000Y-89223750D01*
X56873000Y-89223750D01*
X56714250Y-89065000D01*
X56000000Y-89061928D01*
X55875518Y-89074188D01*
X55755820Y-89110498D01*
X55645506Y-89169463D01*
X55548815Y-89248815D01*
X55469463Y-89345506D01*
X55410498Y-89455820D01*
X55374188Y-89575518D01*
X55361928Y-89700000D01*
X53915000Y-89700000D01*
X53915000Y-78875904D01*
X53921775Y-78879158D01*
X54214642Y-78954365D01*
X54516553Y-78970991D01*
X54815907Y-78928397D01*
X55101199Y-78828222D01*
X55250792Y-78748261D01*
X55334475Y-78494080D01*
X54450000Y-77609605D01*
X54435858Y-77623748D01*
X54256253Y-77444143D01*
X54270395Y-77430000D01*
X54256253Y-77415858D01*
X54435858Y-77236253D01*
X54450000Y-77250395D01*
X54464143Y-77236253D01*
X54643748Y-77415858D01*
X54629605Y-77430000D01*
X55514080Y-78314475D01*
X55695049Y-78254895D01*
X55797688Y-78408505D01*
X56011495Y-78622312D01*
X56262905Y-78790299D01*
X56542257Y-78906011D01*
X56838816Y-78965000D01*
X57141184Y-78965000D01*
X57437743Y-78906011D01*
X57717095Y-78790299D01*
X57968505Y-78622312D01*
X58182312Y-78408505D01*
X58260000Y-78292237D01*
X58337688Y-78408505D01*
X58551495Y-78622312D01*
X58802905Y-78790299D01*
X59082257Y-78906011D01*
X59378816Y-78965000D01*
X59681184Y-78965000D01*
X59968419Y-78907866D01*
X60440546Y-79379993D01*
X60463562Y-79408038D01*
X60575480Y-79499887D01*
X60703167Y-79568137D01*
X60799686Y-79597416D01*
X60841714Y-79610165D01*
X60855932Y-79611565D01*
X60949695Y-79620800D01*
X60949702Y-79620800D01*
X60985799Y-79624355D01*
X61021896Y-79620800D01*
X67254395Y-79620800D01*
X67290500Y-79624356D01*
X67326605Y-79620800D01*
X67434585Y-79610165D01*
X67573133Y-79568137D01*
X67700820Y-79499887D01*
X67812738Y-79408038D01*
X67835758Y-79379988D01*
X68652465Y-78563282D01*
X68711495Y-78622312D01*
X68962905Y-78790299D01*
X69242257Y-78906011D01*
X69538816Y-78965000D01*
X69841184Y-78965000D01*
X70137743Y-78906011D01*
X70417095Y-78790299D01*
X70668505Y-78622312D01*
X70882312Y-78408505D01*
X70960000Y-78292237D01*
X71037688Y-78408505D01*
X71251495Y-78622312D01*
X71502905Y-78790299D01*
X71782257Y-78906011D01*
X72078816Y-78965000D01*
X72381184Y-78965000D01*
X72668419Y-78907866D01*
X79339994Y-85579441D01*
X79270273Y-85608320D01*
X79035241Y-85765363D01*
X78835363Y-85965241D01*
X78680000Y-86197759D01*
X78524637Y-85965241D01*
X78324759Y-85765363D01*
X78089727Y-85608320D01*
X77828574Y-85500147D01*
X77551335Y-85445000D01*
X77268665Y-85445000D01*
X76991426Y-85500147D01*
X76730273Y-85608320D01*
X76495241Y-85765363D01*
X76295363Y-85965241D01*
X76140000Y-86197759D01*
X75984637Y-85965241D01*
X75784759Y-85765363D01*
X75549727Y-85608320D01*
X75288574Y-85500147D01*
X75011335Y-85445000D01*
X74728665Y-85445000D01*
X74451426Y-85500147D01*
X74190273Y-85608320D01*
X73955241Y-85765363D01*
X73755363Y-85965241D01*
X73600000Y-86197759D01*
X73444637Y-85965241D01*
X73244759Y-85765363D01*
X73009727Y-85608320D01*
X72748574Y-85500147D01*
X72471335Y-85445000D01*
X72188665Y-85445000D01*
X71911426Y-85500147D01*
X71650273Y-85608320D01*
X71415241Y-85765363D01*
X71215363Y-85965241D01*
X71060000Y-86197759D01*
X70904637Y-85965241D01*
X70704759Y-85765363D01*
X70469727Y-85608320D01*
X70208574Y-85500147D01*
X69931335Y-85445000D01*
X69648665Y-85445000D01*
X69371426Y-85500147D01*
X69110273Y-85608320D01*
X68875241Y-85765363D01*
X68675363Y-85965241D01*
X68520000Y-86197759D01*
X68364637Y-85965241D01*
X68164759Y-85765363D01*
X67929727Y-85608320D01*
X67668574Y-85500147D01*
X67391335Y-85445000D01*
X67108665Y-85445000D01*
X66831426Y-85500147D01*
X66570273Y-85608320D01*
X66335241Y-85765363D01*
X66135363Y-85965241D01*
X65978320Y-86200273D01*
X65870147Y-86461426D01*
X65815000Y-86738665D01*
X65815000Y-87021335D01*
X65870147Y-87298574D01*
X65978320Y-87559727D01*
X66135363Y-87794759D01*
X66335241Y-87994637D01*
X66570273Y-88151680D01*
X66831426Y-88259853D01*
X67108665Y-88315000D01*
X67391335Y-88315000D01*
X67668574Y-88259853D01*
X67929727Y-88151680D01*
X68164759Y-87994637D01*
X68364637Y-87794759D01*
X68520000Y-87562241D01*
X68675363Y-87794759D01*
X68875241Y-87994637D01*
X69110273Y-88151680D01*
X69371426Y-88259853D01*
X69648665Y-88315000D01*
X69931335Y-88315000D01*
X70208574Y-88259853D01*
X70469727Y-88151680D01*
X70704759Y-87994637D01*
X70904637Y-87794759D01*
X71060000Y-87562241D01*
X71215363Y-87794759D01*
X71415241Y-87994637D01*
X71650273Y-88151680D01*
X71911426Y-88259853D01*
X72188665Y-88315000D01*
X72471335Y-88315000D01*
X72748574Y-88259853D01*
X73009727Y-88151680D01*
X73244759Y-87994637D01*
X73444637Y-87794759D01*
X73600000Y-87562241D01*
X73755363Y-87794759D01*
X73955241Y-87994637D01*
X74190273Y-88151680D01*
X74451426Y-88259853D01*
X74728665Y-88315000D01*
X75011335Y-88315000D01*
X75288574Y-88259853D01*
X75549727Y-88151680D01*
X75784759Y-87994637D01*
X75984637Y-87794759D01*
X76140000Y-87562241D01*
X76295363Y-87794759D01*
X76495241Y-87994637D01*
X76730273Y-88151680D01*
X76991426Y-88259853D01*
X77268665Y-88315000D01*
X77551335Y-88315000D01*
X77828574Y-88259853D01*
X78089727Y-88151680D01*
X78324759Y-87994637D01*
X78524637Y-87794759D01*
X78680000Y-87562241D01*
X78835363Y-87794759D01*
X79035241Y-87994637D01*
X79270273Y-88151680D01*
X79531426Y-88259853D01*
X79808665Y-88315000D01*
X80091335Y-88315000D01*
X80368574Y-88259853D01*
X80629727Y-88151680D01*
X80864759Y-87994637D01*
X81064637Y-87794759D01*
X81220000Y-87562241D01*
X81375363Y-87794759D01*
X81575241Y-87994637D01*
X81810273Y-88151680D01*
X82071426Y-88259853D01*
X82348665Y-88315000D01*
X82631335Y-88315000D01*
X82908574Y-88259853D01*
X83025001Y-88211627D01*
X83025000Y-93168372D01*
X82908574Y-93120147D01*
X82631335Y-93065000D01*
X82348665Y-93065000D01*
X82071426Y-93120147D01*
X81810273Y-93228320D01*
X81575241Y-93385363D01*
X81375363Y-93585241D01*
X81245434Y-93779694D01*
X81203139Y-93792524D01*
X81064637Y-93585241D01*
X80864759Y-93385363D01*
X80629727Y-93228320D01*
X80368574Y-93120147D01*
X80091335Y-93065000D01*
X79808665Y-93065000D01*
X79531426Y-93120147D01*
X79270273Y-93228320D01*
X79035241Y-93385363D01*
X78835363Y-93585241D01*
X78680000Y-93817759D01*
X78524637Y-93585241D01*
X78324759Y-93385363D01*
X78089727Y-93228320D01*
X77828574Y-93120147D01*
X77551335Y-93065000D01*
X77268665Y-93065000D01*
X76991426Y-93120147D01*
X76730273Y-93228320D01*
X76495241Y-93385363D01*
X76295363Y-93585241D01*
X76165434Y-93779694D01*
X76123139Y-93792524D01*
X75984637Y-93585241D01*
X75784759Y-93385363D01*
X75549727Y-93228320D01*
X75288574Y-93120147D01*
X75011335Y-93065000D01*
X74728665Y-93065000D01*
X74451426Y-93120147D01*
X74190273Y-93228320D01*
X73955241Y-93385363D01*
X73755363Y-93585241D01*
X73599085Y-93819128D01*
X73566671Y-93758486D01*
X73322702Y-93686903D01*
X72509605Y-94500000D01*
X72523748Y-94514143D01*
X72344143Y-94693748D01*
X72330000Y-94679605D01*
X71516903Y-95492702D01*
X71588486Y-95736671D01*
X71843996Y-95857571D01*
X72118184Y-95926300D01*
X72390814Y-95939739D01*
X68892854Y-99437700D01*
X68095894Y-99437700D01*
X68059799Y-99434145D01*
X68023704Y-99437700D01*
X68023695Y-99437700D01*
X67915715Y-99448335D01*
X67777167Y-99490363D01*
X67649480Y-99558613D01*
X67537562Y-99650462D01*
X67514546Y-99678507D01*
X67041580Y-100151473D01*
X66986632Y-100096525D01*
X66743411Y-99934010D01*
X66473158Y-99822068D01*
X66186260Y-99765000D01*
X65893740Y-99765000D01*
X65606842Y-99822068D01*
X65336589Y-99934010D01*
X65093368Y-100096525D01*
X64961513Y-100228380D01*
X64939502Y-100155820D01*
X64880537Y-100045506D01*
X64801185Y-99948815D01*
X64704494Y-99869463D01*
X64594180Y-99810498D01*
X64474482Y-99774188D01*
X64350000Y-99761928D01*
X63785750Y-99765000D01*
X63627000Y-99923750D01*
X63627000Y-101123000D01*
X63647000Y-101123000D01*
X63647000Y-101377000D01*
X63627000Y-101377000D01*
X63627000Y-102576250D01*
X63785750Y-102735000D01*
X64350000Y-102738072D01*
X64474482Y-102725812D01*
X64594180Y-102689502D01*
X64704494Y-102630537D01*
X64801185Y-102551185D01*
X64880537Y-102454494D01*
X64939502Y-102344180D01*
X64961513Y-102271620D01*
X65093368Y-102403475D01*
X65336589Y-102565990D01*
X65606842Y-102677932D01*
X65893740Y-102735000D01*
X66186260Y-102735000D01*
X66473158Y-102677932D01*
X66743411Y-102565990D01*
X66986632Y-102403475D01*
X67193475Y-102196632D01*
X67310000Y-102022240D01*
X67426525Y-102196632D01*
X67633368Y-102403475D01*
X67876589Y-102565990D01*
X68146842Y-102677932D01*
X68433740Y-102735000D01*
X68726260Y-102735000D01*
X69013158Y-102677932D01*
X69283411Y-102565990D01*
X69526632Y-102403475D01*
X69733475Y-102196632D01*
X69850000Y-102022240D01*
X69966525Y-102196632D01*
X70173368Y-102403475D01*
X70416589Y-102565990D01*
X70686842Y-102677932D01*
X70973740Y-102735000D01*
X71266260Y-102735000D01*
X71553158Y-102677932D01*
X71823411Y-102565990D01*
X72066632Y-102403475D01*
X72273475Y-102196632D01*
X72390000Y-102022240D01*
X72506525Y-102196632D01*
X72713368Y-102403475D01*
X72956589Y-102565990D01*
X73226842Y-102677932D01*
X73513740Y-102735000D01*
X73806260Y-102735000D01*
X74093158Y-102677932D01*
X74363411Y-102565990D01*
X74606632Y-102403475D01*
X74813475Y-102196632D01*
X74930000Y-102022240D01*
X75046525Y-102196632D01*
X75253368Y-102403475D01*
X75496589Y-102565990D01*
X75766842Y-102677932D01*
X76053740Y-102735000D01*
X76346260Y-102735000D01*
X76633158Y-102677932D01*
X76903411Y-102565990D01*
X77146632Y-102403475D01*
X77353475Y-102196632D01*
X77470000Y-102022240D01*
X77586525Y-102196632D01*
X77793368Y-102403475D01*
X78036589Y-102565990D01*
X78306842Y-102677932D01*
X78593740Y-102735000D01*
X78886260Y-102735000D01*
X79173158Y-102677932D01*
X79443411Y-102565990D01*
X79686632Y-102403475D01*
X79893475Y-102196632D01*
X80010000Y-102022240D01*
X80126525Y-102196632D01*
X80333368Y-102403475D01*
X80576589Y-102565990D01*
X80846842Y-102677932D01*
X81133740Y-102735000D01*
X81426260Y-102735000D01*
X81713158Y-102677932D01*
X81983411Y-102565990D01*
X82226632Y-102403475D01*
X82433475Y-102196632D01*
X82550000Y-102022240D01*
X82666525Y-102196632D01*
X82873368Y-102403475D01*
X83116589Y-102565990D01*
X83386842Y-102677932D01*
X83673740Y-102735000D01*
X83966260Y-102735000D01*
X84253158Y-102677932D01*
X84523411Y-102565990D01*
X84766632Y-102403475D01*
X84973475Y-102196632D01*
X85095195Y-102014466D01*
X85164822Y-102131355D01*
X85359731Y-102347588D01*
X85593080Y-102521641D01*
X85855901Y-102646825D01*
X86003110Y-102691476D01*
X86233000Y-102570155D01*
X86233000Y-101377000D01*
X86487000Y-101377000D01*
X86487000Y-102570155D01*
X86716890Y-102691476D01*
X86864099Y-102646825D01*
X87126920Y-102521641D01*
X87360269Y-102347588D01*
X87555178Y-102131355D01*
X87704157Y-101881252D01*
X87801481Y-101606891D01*
X87680814Y-101377000D01*
X86487000Y-101377000D01*
X86233000Y-101377000D01*
X86213000Y-101377000D01*
X86213000Y-101123000D01*
X86233000Y-101123000D01*
X86233000Y-99929845D01*
X86487000Y-99929845D01*
X86487000Y-101123000D01*
X87680814Y-101123000D01*
X87801481Y-100893109D01*
X87704157Y-100618748D01*
X87555178Y-100368645D01*
X87360269Y-100152412D01*
X87126920Y-99978359D01*
X86864099Y-99853175D01*
X86716890Y-99808524D01*
X86487000Y-99929845D01*
X86233000Y-99929845D01*
X86003110Y-99808524D01*
X85855901Y-99853175D01*
X85593080Y-99978359D01*
X85359731Y-100152412D01*
X85164822Y-100368645D01*
X85095195Y-100485534D01*
X84973475Y-100303368D01*
X84766632Y-100096525D01*
X84523411Y-99934010D01*
X84253158Y-99822068D01*
X83966260Y-99765000D01*
X83673740Y-99765000D01*
X83386842Y-99822068D01*
X83116589Y-99934010D01*
X82873368Y-100096525D01*
X82666525Y-100303368D01*
X82550000Y-100477760D01*
X82433475Y-100303368D01*
X82226632Y-100096525D01*
X81983411Y-99934010D01*
X81713158Y-99822068D01*
X81426260Y-99765000D01*
X81133740Y-99765000D01*
X80846842Y-99822068D01*
X80576589Y-99934010D01*
X80333368Y-100096525D01*
X80126525Y-100303368D01*
X80010000Y-100477760D01*
X79893475Y-100303368D01*
X79686632Y-100096525D01*
X79515541Y-99982206D01*
X84005045Y-95492702D01*
X84216903Y-95492702D01*
X84288486Y-95736671D01*
X84543996Y-95857571D01*
X84818184Y-95926300D01*
X85100512Y-95940217D01*
X85380130Y-95898787D01*
X85646292Y-95803603D01*
X85771514Y-95736671D01*
X85843097Y-95492702D01*
X85030000Y-94679605D01*
X84216903Y-95492702D01*
X84005045Y-95492702D01*
X84254198Y-95243549D01*
X84282237Y-95220538D01*
X84305250Y-95192497D01*
X84305253Y-95192494D01*
X84374086Y-95108621D01*
X84374087Y-95108620D01*
X84442337Y-94980933D01*
X84474069Y-94876326D01*
X84850395Y-94500000D01*
X85209605Y-94500000D01*
X86022702Y-95313097D01*
X86266671Y-95241514D01*
X86387571Y-94986004D01*
X86456300Y-94711816D01*
X86470217Y-94429488D01*
X86428787Y-94149870D01*
X86333603Y-93883708D01*
X86266671Y-93758486D01*
X86022702Y-93686903D01*
X85209605Y-94500000D01*
X84850395Y-94500000D01*
X84836253Y-94485858D01*
X85015858Y-94306253D01*
X85030000Y-94320395D01*
X85843097Y-93507298D01*
X85771514Y-93263329D01*
X85516004Y-93142429D01*
X85241816Y-93073700D01*
X84959488Y-93059783D01*
X84679870Y-93101213D01*
X84495000Y-93167326D01*
X84495000Y-88454446D01*
X84676624Y-88272822D01*
X84888665Y-88315000D01*
X85171335Y-88315000D01*
X85448574Y-88259853D01*
X85709727Y-88151680D01*
X85944759Y-87994637D01*
X86144637Y-87794759D01*
X86301680Y-87559727D01*
X86409853Y-87298574D01*
X86465000Y-87021335D01*
X86465000Y-86738665D01*
X86429441Y-86559900D01*
X91940454Y-86559900D01*
X93477446Y-88096893D01*
X93483805Y-88104642D01*
X93432148Y-88201285D01*
X93338657Y-88509484D01*
X93307089Y-88830000D01*
X93338657Y-89150516D01*
X93432148Y-89458715D01*
X93583969Y-89742752D01*
X93788286Y-89991714D01*
X93920233Y-90100000D01*
X93788286Y-90208286D01*
X93583969Y-90457248D01*
X93432148Y-90741285D01*
X93338657Y-91049484D01*
X93307089Y-91370000D01*
X93338657Y-91690516D01*
X93432148Y-91998715D01*
X93583969Y-92282752D01*
X93788286Y-92531714D01*
X93920233Y-92640000D01*
X93788286Y-92748286D01*
X93583969Y-92997248D01*
X93432148Y-93281285D01*
X93338657Y-93589484D01*
X93307089Y-93910000D01*
X93338657Y-94230516D01*
X93432148Y-94538715D01*
X93583969Y-94822752D01*
X93788286Y-95071714D01*
X93920233Y-95180000D01*
X93788286Y-95288286D01*
X93583969Y-95537248D01*
X93432148Y-95821285D01*
X93338657Y-96129484D01*
X93307089Y-96450000D01*
X93338657Y-96770516D01*
X93432148Y-97078715D01*
X93583969Y-97362752D01*
X93788286Y-97611714D01*
X93920233Y-97720000D01*
X93788286Y-97828286D01*
X93583969Y-98077248D01*
X93432148Y-98361285D01*
X93338657Y-98669484D01*
X93307089Y-98990000D01*
X93338657Y-99310516D01*
X93432148Y-99618715D01*
X93583969Y-99902752D01*
X93788286Y-100151714D01*
X94037248Y-100356031D01*
X94321285Y-100507852D01*
X94629484Y-100601343D01*
X94869678Y-100625000D01*
X95630322Y-100625000D01*
X95870516Y-100601343D01*
X96178715Y-100507852D01*
X96462752Y-100356031D01*
X96711714Y-100151714D01*
X96916031Y-99902752D01*
X97067852Y-99618715D01*
X97161343Y-99310516D01*
X97192911Y-98990000D01*
X97161343Y-98669484D01*
X97067852Y-98361285D01*
X96916031Y-98077248D01*
X96711714Y-97828286D01*
X96579767Y-97720000D01*
X96711714Y-97611714D01*
X96916031Y-97362752D01*
X97061365Y-97090850D01*
X100555859Y-97090850D01*
X100555859Y-97532908D01*
X100642101Y-97966471D01*
X100811269Y-98374879D01*
X101056862Y-98742436D01*
X101369444Y-99055018D01*
X101737001Y-99300611D01*
X102145409Y-99469779D01*
X102578972Y-99556021D01*
X103021030Y-99556021D01*
X103454593Y-99469779D01*
X103863001Y-99300611D01*
X104230558Y-99055018D01*
X104543140Y-98742436D01*
X104788733Y-98374879D01*
X104957901Y-97966471D01*
X105044143Y-97532908D01*
X105044143Y-97090850D01*
X104957901Y-96657287D01*
X104788733Y-96248879D01*
X104543140Y-95881322D01*
X104230558Y-95568740D01*
X103863001Y-95323147D01*
X103454593Y-95153979D01*
X103021030Y-95067737D01*
X102578972Y-95067737D01*
X102145409Y-95153979D01*
X101737001Y-95323147D01*
X101369444Y-95568740D01*
X101056862Y-95881322D01*
X100811269Y-96248879D01*
X100642101Y-96657287D01*
X100555859Y-97090850D01*
X97061365Y-97090850D01*
X97067852Y-97078715D01*
X97161343Y-96770516D01*
X97192911Y-96450000D01*
X97161343Y-96129484D01*
X97067852Y-95821285D01*
X96916031Y-95537248D01*
X96711714Y-95288286D01*
X96579767Y-95180000D01*
X96711714Y-95071714D01*
X96916031Y-94822752D01*
X97067852Y-94538715D01*
X97161343Y-94230516D01*
X97192911Y-93910000D01*
X97161343Y-93589484D01*
X97067852Y-93281285D01*
X96916031Y-92997248D01*
X96711714Y-92748286D01*
X96579767Y-92640000D01*
X96711714Y-92531714D01*
X96916031Y-92282752D01*
X97067852Y-91998715D01*
X97161343Y-91690516D01*
X97192911Y-91370000D01*
X97161343Y-91049484D01*
X97067852Y-90741285D01*
X96916031Y-90457248D01*
X96856291Y-90384455D01*
X97286593Y-89954154D01*
X97314638Y-89931138D01*
X97406487Y-89819220D01*
X97474737Y-89691533D01*
X97516765Y-89552985D01*
X97527400Y-89445005D01*
X97530956Y-89408900D01*
X97527400Y-89372795D01*
X97527400Y-85771046D01*
X97530956Y-85734985D01*
X97527400Y-85698839D01*
X97527400Y-85698795D01*
X97523553Y-85659736D01*
X97516781Y-85590898D01*
X97516769Y-85590860D01*
X97516765Y-85590815D01*
X97494769Y-85518304D01*
X97474769Y-85452345D01*
X97474750Y-85452309D01*
X97474737Y-85452267D01*
X97438782Y-85385000D01*
X97406534Y-85324651D01*
X97406508Y-85324619D01*
X97406487Y-85324580D01*
X97386898Y-85300711D01*
X97391487Y-85295120D01*
X97459737Y-85167433D01*
X97489016Y-85070914D01*
X97501765Y-85028886D01*
X97505183Y-84994180D01*
X97512400Y-84920905D01*
X97512400Y-84920898D01*
X97515955Y-84884801D01*
X97512400Y-84848704D01*
X97512400Y-78960850D01*
X97696553Y-78970991D01*
X97995907Y-78928397D01*
X98281199Y-78828222D01*
X98430792Y-78748261D01*
X98514475Y-78494080D01*
X97630000Y-77609605D01*
X97615858Y-77623748D01*
X97436253Y-77444143D01*
X97450395Y-77430000D01*
X97809605Y-77430000D01*
X98694080Y-78314475D01*
X98948261Y-78230792D01*
X99079158Y-77958225D01*
X99154365Y-77665358D01*
X99170991Y-77363447D01*
X99128397Y-77064093D01*
X99028222Y-76778801D01*
X98948261Y-76629208D01*
X98694080Y-76545525D01*
X97809605Y-77430000D01*
X97450395Y-77430000D01*
X97436253Y-77415858D01*
X97615858Y-77236253D01*
X97630000Y-77250395D01*
X98514475Y-76365920D01*
X98430792Y-76111739D01*
X98158225Y-75980842D01*
X97865358Y-75905635D01*
X97563447Y-75889009D01*
X97264093Y-75931603D01*
X97184800Y-75959445D01*
X97184800Y-56046517D01*
X97478816Y-56105000D01*
X97781184Y-56105000D01*
X98077743Y-56046011D01*
X98357095Y-55930299D01*
X98608505Y-55762312D01*
X98822312Y-55548505D01*
X98990299Y-55297095D01*
X99106011Y-55017743D01*
X99165000Y-54721184D01*
X99165000Y-54418816D01*
X99106011Y-54122257D01*
X98990299Y-53842905D01*
X98822312Y-53591495D01*
X98608505Y-53377688D01*
X98365000Y-53214983D01*
X98365000Y-48733394D01*
X98368555Y-48697299D01*
X98365000Y-48661204D01*
X98365000Y-48661195D01*
X98354365Y-48553215D01*
X98312337Y-48414667D01*
X98244087Y-48286980D01*
X98176276Y-48204353D01*
X98175253Y-48203106D01*
X98175250Y-48203103D01*
X98152237Y-48175062D01*
X98124197Y-48152051D01*
X94400410Y-44428264D01*
X94500000Y-44438072D01*
X95214250Y-44435000D01*
X95373000Y-44276250D01*
X95373000Y-42627000D01*
X95627000Y-42627000D01*
X95627000Y-44276250D01*
X95785750Y-44435000D01*
X96500000Y-44438072D01*
X96624482Y-44425812D01*
X96744180Y-44389502D01*
X96854494Y-44330537D01*
X96951185Y-44251185D01*
X97030537Y-44154494D01*
X97089502Y-44044180D01*
X97125812Y-43924482D01*
X97138072Y-43800000D01*
X97135000Y-42785750D01*
X96976250Y-42627000D01*
X95627000Y-42627000D01*
X95373000Y-42627000D01*
X95353000Y-42627000D01*
X95353000Y-42373000D01*
X95373000Y-42373000D01*
X95373000Y-40723750D01*
X95627000Y-40723750D01*
X95627000Y-42373000D01*
X96976250Y-42373000D01*
X97135000Y-42214250D01*
X97138072Y-41200000D01*
X97125812Y-41075518D01*
X97089502Y-40955820D01*
X97030537Y-40845506D01*
X96951185Y-40748815D01*
X96854494Y-40669463D01*
X96744180Y-40610498D01*
X96624482Y-40574188D01*
X96500000Y-40561928D01*
X95785750Y-40565000D01*
X95627000Y-40723750D01*
X95373000Y-40723750D01*
X95214250Y-40565000D01*
X94500000Y-40561928D01*
X94375518Y-40574188D01*
X94255820Y-40610498D01*
X94145506Y-40669463D01*
X94048815Y-40748815D01*
X93969463Y-40845506D01*
X93944261Y-40892655D01*
X93872752Y-40833969D01*
X93588715Y-40682148D01*
X93280516Y-40588657D01*
X92960000Y-40557089D01*
X92639485Y-40588657D01*
X92331286Y-40682148D01*
X92047249Y-40833969D01*
X91798286Y-41038286D01*
X91690000Y-41170233D01*
X91581714Y-41038286D01*
X91332752Y-40833969D01*
X91048715Y-40682148D01*
X90740516Y-40588657D01*
X90420000Y-40557089D01*
X90099485Y-40588657D01*
X89791286Y-40682148D01*
X89507249Y-40833969D01*
X89258286Y-41038286D01*
X89150000Y-41170233D01*
X89041714Y-41038286D01*
X88792752Y-40833969D01*
X88508715Y-40682148D01*
X88200516Y-40588657D01*
X87880000Y-40557089D01*
X87559485Y-40588657D01*
X87251286Y-40682148D01*
X86967249Y-40833969D01*
X86718286Y-41038286D01*
X86610000Y-41170233D01*
X86501714Y-41038286D01*
X86252752Y-40833969D01*
X85968715Y-40682148D01*
X85660516Y-40588657D01*
X85340000Y-40557089D01*
X85019485Y-40588657D01*
X84711286Y-40682148D01*
X84427249Y-40833969D01*
X84178286Y-41038286D01*
X84070000Y-41170233D01*
X83961714Y-41038286D01*
X83712752Y-40833969D01*
X83428715Y-40682148D01*
X83120516Y-40588657D01*
X82800000Y-40557089D01*
X82479485Y-40588657D01*
X82171286Y-40682148D01*
X81887249Y-40833969D01*
X81638286Y-41038286D01*
X81530000Y-41170233D01*
X81421714Y-41038286D01*
X81172752Y-40833969D01*
X80888715Y-40682148D01*
X80580516Y-40588657D01*
X80260000Y-40557089D01*
X79939485Y-40588657D01*
X79631286Y-40682148D01*
X79347249Y-40833969D01*
X79098286Y-41038286D01*
X78893969Y-41287248D01*
X78742148Y-41571285D01*
X78648657Y-41879484D01*
X78625000Y-42119678D01*
X78625000Y-42880321D01*
X78648657Y-43120515D01*
X78742148Y-43428714D01*
X78893969Y-43712751D01*
X79098286Y-43961714D01*
X79347248Y-44166031D01*
X79631285Y-44317852D01*
X79939484Y-44411343D01*
X80260000Y-44442911D01*
X80580515Y-44411343D01*
X80888714Y-44317852D01*
X81172751Y-44166031D01*
X81421714Y-43961714D01*
X81530000Y-43829766D01*
X81638286Y-43961714D01*
X81887248Y-44166031D01*
X82171285Y-44317852D01*
X82479484Y-44411343D01*
X82800000Y-44442911D01*
X83120515Y-44411343D01*
X83428714Y-44317852D01*
X83525359Y-44266194D01*
X83533108Y-44272554D01*
X92312685Y-53052132D01*
X92111581Y-53092134D01*
X86184359Y-47164913D01*
X86161338Y-47136862D01*
X86049420Y-47045013D01*
X85921733Y-46976763D01*
X85783185Y-46934735D01*
X85675205Y-46924100D01*
X85639100Y-46920544D01*
X85602995Y-46924100D01*
X76730847Y-46924100D01*
X71312559Y-41505813D01*
X71289538Y-41477762D01*
X71177620Y-41385913D01*
X71148586Y-41370394D01*
X71057852Y-41071285D01*
X70906031Y-40787248D01*
X70701714Y-40538286D01*
X70452751Y-40333969D01*
X70168714Y-40182148D01*
X69860515Y-40088657D01*
X69540000Y-40057089D01*
X69219484Y-40088657D01*
X68911285Y-40182148D01*
X68627248Y-40333969D01*
X68555739Y-40392655D01*
X68530537Y-40345506D01*
X68451185Y-40248815D01*
X68354494Y-40169463D01*
X68244180Y-40110498D01*
X68124482Y-40074188D01*
X68000000Y-40061928D01*
X67285750Y-40065000D01*
X67127000Y-40223750D01*
X67127000Y-41873000D01*
X67147000Y-41873000D01*
X67147000Y-42127000D01*
X67127000Y-42127000D01*
X67127000Y-43776250D01*
X67285750Y-43935000D01*
X68000000Y-43938072D01*
X68124482Y-43925812D01*
X68244180Y-43889502D01*
X68354494Y-43830537D01*
X68451185Y-43751185D01*
X68530537Y-43654494D01*
X68555739Y-43607345D01*
X68627249Y-43666031D01*
X68911286Y-43817852D01*
X69219485Y-43911343D01*
X69540000Y-43942911D01*
X69860516Y-43911343D01*
X70168715Y-43817852D01*
X70452752Y-43666031D01*
X70701714Y-43461714D01*
X70906031Y-43212752D01*
X70918074Y-43190220D01*
X75881146Y-48153293D01*
X75904162Y-48181338D01*
X76016080Y-48273187D01*
X76143767Y-48341437D01*
X76240286Y-48370716D01*
X76282314Y-48383465D01*
X76426400Y-48397656D01*
X76462505Y-48394100D01*
X85334654Y-48394100D01*
X89975553Y-53035000D01*
X89858816Y-53035000D01*
X89562257Y-53093989D01*
X89282905Y-53209701D01*
X89031495Y-53377688D01*
X88817688Y-53591495D01*
X88740000Y-53707763D01*
X88662312Y-53591495D01*
X88448505Y-53377688D01*
X88197095Y-53209701D01*
X87917743Y-53093989D01*
X87621184Y-53035000D01*
X87318816Y-53035000D01*
X87022257Y-53093989D01*
X86742905Y-53209701D01*
X86491495Y-53377688D01*
X86277688Y-53591495D01*
X86200000Y-53707763D01*
X86122312Y-53591495D01*
X85908505Y-53377688D01*
X85657095Y-53209701D01*
X85377743Y-53093989D01*
X85081184Y-53035000D01*
X84778816Y-53035000D01*
X84482257Y-53093989D01*
X84202905Y-53209701D01*
X83951495Y-53377688D01*
X83737688Y-53591495D01*
X83660000Y-53707763D01*
X83582312Y-53591495D01*
X83368505Y-53377688D01*
X83117095Y-53209701D01*
X82837743Y-53093989D01*
X82541184Y-53035000D01*
X82238816Y-53035000D01*
X81942257Y-53093989D01*
X81662905Y-53209701D01*
X81411495Y-53377688D01*
X81197688Y-53591495D01*
X81120000Y-53707763D01*
X81042312Y-53591495D01*
X80828505Y-53377688D01*
X80577095Y-53209701D01*
X80297743Y-53093989D01*
X80001184Y-53035000D01*
X79698816Y-53035000D01*
X79402257Y-53093989D01*
X79122905Y-53209701D01*
X78871495Y-53377688D01*
X78657688Y-53591495D01*
X78580000Y-53707763D01*
X78502312Y-53591495D01*
X78288505Y-53377688D01*
X78037095Y-53209701D01*
X77757743Y-53093989D01*
X77461184Y-53035000D01*
X77158816Y-53035000D01*
X76871581Y-53092134D01*
X68162359Y-44382913D01*
X68139338Y-44354862D01*
X68027420Y-44263013D01*
X67899733Y-44194763D01*
X67761185Y-44152735D01*
X67653205Y-44142100D01*
X67617100Y-44138544D01*
X67580995Y-44142100D01*
X65948847Y-44142100D01*
X65599655Y-43792908D01*
X65645506Y-43830537D01*
X65755820Y-43889502D01*
X65875518Y-43925812D01*
X66000000Y-43938072D01*
X66714250Y-43935000D01*
X66873000Y-43776250D01*
X66873000Y-42127000D01*
X65523750Y-42127000D01*
X65365000Y-42285750D01*
X65361928Y-43300000D01*
X65374188Y-43424482D01*
X65410498Y-43544180D01*
X65469463Y-43654494D01*
X65507092Y-43700345D01*
X63312559Y-41505813D01*
X63289538Y-41477762D01*
X63177620Y-41385913D01*
X63148586Y-41370394D01*
X63057852Y-41071285D01*
X62906031Y-40787248D01*
X62834429Y-40700000D01*
X65361928Y-40700000D01*
X65365000Y-41714250D01*
X65523750Y-41873000D01*
X66873000Y-41873000D01*
X66873000Y-40223750D01*
X66714250Y-40065000D01*
X66000000Y-40061928D01*
X65875518Y-40074188D01*
X65755820Y-40110498D01*
X65645506Y-40169463D01*
X65548815Y-40248815D01*
X65469463Y-40345506D01*
X65410498Y-40455820D01*
X65374188Y-40575518D01*
X65361928Y-40700000D01*
X62834429Y-40700000D01*
X62701714Y-40538286D01*
X62452751Y-40333969D01*
X62168714Y-40182148D01*
X61860515Y-40088657D01*
X61540000Y-40057089D01*
X61219484Y-40088657D01*
X60911285Y-40182148D01*
X60627248Y-40333969D01*
X60555739Y-40392655D01*
X60530537Y-40345506D01*
X60451185Y-40248815D01*
X60354494Y-40169463D01*
X60244180Y-40110498D01*
X60124482Y-40074188D01*
X60000000Y-40061928D01*
X59285750Y-40065000D01*
X59127000Y-40223750D01*
X59127000Y-41873000D01*
X59147000Y-41873000D01*
X59147000Y-42127000D01*
X59127000Y-42127000D01*
X59127000Y-43776250D01*
X59285750Y-43935000D01*
X60000000Y-43938072D01*
X60124482Y-43925812D01*
X60244180Y-43889502D01*
X60354494Y-43830537D01*
X60451185Y-43751185D01*
X60530537Y-43654494D01*
X60555739Y-43607345D01*
X60627249Y-43666031D01*
X60911286Y-43817852D01*
X61219485Y-43911343D01*
X61540000Y-43942911D01*
X61860516Y-43911343D01*
X62168715Y-43817852D01*
X62452752Y-43666031D01*
X62701714Y-43461714D01*
X62906031Y-43212752D01*
X62918074Y-43190221D01*
X65099146Y-45371293D01*
X65122162Y-45399338D01*
X65234080Y-45491187D01*
X65361767Y-45559437D01*
X65500315Y-45601465D01*
X65644400Y-45615656D01*
X65680505Y-45612100D01*
X67312654Y-45612100D01*
X74735553Y-53035000D01*
X74618816Y-53035000D01*
X74322257Y-53093989D01*
X74042905Y-53209701D01*
X73791495Y-53377688D01*
X73577688Y-53591495D01*
X73500000Y-53707763D01*
X73422312Y-53591495D01*
X73208505Y-53377688D01*
X72957095Y-53209701D01*
X72677743Y-53093989D01*
X72381184Y-53035000D01*
X72078816Y-53035000D01*
X71782257Y-53093989D01*
X71502905Y-53209701D01*
X71251495Y-53377688D01*
X71037688Y-53591495D01*
X70960000Y-53707763D01*
X70882312Y-53591495D01*
X70668505Y-53377688D01*
X70417095Y-53209701D01*
X70137743Y-53093989D01*
X69841184Y-53035000D01*
X69538816Y-53035000D01*
X69242257Y-53093989D01*
X68962905Y-53209701D01*
X68711495Y-53377688D01*
X68497688Y-53591495D01*
X68420000Y-53707763D01*
X68342312Y-53591495D01*
X68128505Y-53377688D01*
X67877095Y-53209701D01*
X67597743Y-53093989D01*
X67301184Y-53035000D01*
X66998816Y-53035000D01*
X66702257Y-53093989D01*
X66422905Y-53209701D01*
X66171495Y-53377688D01*
X65957688Y-53591495D01*
X65880000Y-53707763D01*
X65802312Y-53591495D01*
X65588505Y-53377688D01*
X65337095Y-53209701D01*
X65057743Y-53093989D01*
X64761184Y-53035000D01*
X64458816Y-53035000D01*
X64162257Y-53093989D01*
X63882905Y-53209701D01*
X63631495Y-53377688D01*
X63417688Y-53591495D01*
X63340000Y-53707763D01*
X63262312Y-53591495D01*
X63048505Y-53377688D01*
X62797095Y-53209701D01*
X62517743Y-53093989D01*
X62221184Y-53035000D01*
X61918816Y-53035000D01*
X61622257Y-53093989D01*
X61342905Y-53209701D01*
X61091495Y-53377688D01*
X60877688Y-53591495D01*
X60775049Y-53745105D01*
X60594080Y-53685525D01*
X59709605Y-54570000D01*
X59723748Y-54584143D01*
X59544143Y-54763748D01*
X59530000Y-54749605D01*
X58645525Y-55634080D01*
X58729208Y-55888261D01*
X59001775Y-56019158D01*
X59294642Y-56094365D01*
X59495147Y-56105407D01*
X46505808Y-69094746D01*
X46477762Y-69117763D01*
X46385913Y-69229681D01*
X46317663Y-69357368D01*
X46312932Y-69372965D01*
X46275635Y-69495915D01*
X46261444Y-69640000D01*
X46265000Y-69676105D01*
X46265001Y-105633385D01*
X46071285Y-105692148D01*
X45787248Y-105843969D01*
X45538286Y-106048286D01*
X45333969Y-106297248D01*
X45182148Y-106581285D01*
X45088657Y-106889484D01*
X45057089Y-107210000D01*
X40660000Y-107210000D01*
X40660000Y-98009683D01*
X40811269Y-98374879D01*
X41056862Y-98742436D01*
X41369444Y-99055018D01*
X41737001Y-99300611D01*
X42145409Y-99469779D01*
X42578972Y-99556021D01*
X43021030Y-99556021D01*
X43454593Y-99469779D01*
X43863001Y-99300611D01*
X44230558Y-99055018D01*
X44543140Y-98742436D01*
X44788733Y-98374879D01*
X44957901Y-97966471D01*
X45044143Y-97532908D01*
X45044143Y-97090850D01*
X44957901Y-96657287D01*
X44788733Y-96248879D01*
X44543140Y-95881322D01*
X44230558Y-95568740D01*
X43863001Y-95323147D01*
X43454593Y-95153979D01*
X43021030Y-95067737D01*
X42578972Y-95067737D01*
X42145409Y-95153979D01*
X41737001Y-95323147D01*
X41369444Y-95568740D01*
X41056862Y-95881322D01*
X40811269Y-96248879D01*
X40660000Y-96614075D01*
X40660000Y-54636553D01*
X57989009Y-54636553D01*
X58031603Y-54935907D01*
X58131778Y-55221199D01*
X58211739Y-55370792D01*
X58465920Y-55454475D01*
X59350395Y-54570000D01*
X58465920Y-53685525D01*
X58211739Y-53769208D01*
X58080842Y-54041775D01*
X58005635Y-54334642D01*
X57989009Y-54636553D01*
X40660000Y-54636553D01*
X40660000Y-53505920D01*
X58645525Y-53505920D01*
X59530000Y-54390395D01*
X60414475Y-53505920D01*
X60330792Y-53251739D01*
X60058225Y-53120842D01*
X59765358Y-53045635D01*
X59463447Y-53029009D01*
X59164093Y-53071603D01*
X58878801Y-53171778D01*
X58729208Y-53251739D01*
X58645525Y-53505920D01*
X40660000Y-53505920D01*
X40660000Y-43300000D01*
X49361928Y-43300000D01*
X49374188Y-43424482D01*
X49410498Y-43544180D01*
X49469463Y-43654494D01*
X49548815Y-43751185D01*
X49645506Y-43830537D01*
X49755820Y-43889502D01*
X49875518Y-43925812D01*
X50000000Y-43938072D01*
X50714250Y-43935000D01*
X50873000Y-43776250D01*
X50873000Y-42127000D01*
X49523750Y-42127000D01*
X49365000Y-42285750D01*
X49361928Y-43300000D01*
X40660000Y-43300000D01*
X40660000Y-40700000D01*
X49361928Y-40700000D01*
X49365000Y-41714250D01*
X49523750Y-41873000D01*
X50873000Y-41873000D01*
X50873000Y-40223750D01*
X51127000Y-40223750D01*
X51127000Y-41873000D01*
X51147000Y-41873000D01*
X51147000Y-42127000D01*
X51127000Y-42127000D01*
X51127000Y-43776250D01*
X51285750Y-43935000D01*
X52000000Y-43938072D01*
X52124482Y-43925812D01*
X52244180Y-43889502D01*
X52354494Y-43830537D01*
X52451185Y-43751185D01*
X52530537Y-43654494D01*
X52555739Y-43607345D01*
X52627249Y-43666031D01*
X52911286Y-43817852D01*
X53219485Y-43911343D01*
X53540000Y-43942911D01*
X53860516Y-43911343D01*
X54168715Y-43817852D01*
X54452752Y-43666031D01*
X54701714Y-43461714D01*
X54834428Y-43300000D01*
X57361928Y-43300000D01*
X57374188Y-43424482D01*
X57410498Y-43544180D01*
X57469463Y-43654494D01*
X57548815Y-43751185D01*
X57645506Y-43830537D01*
X57755820Y-43889502D01*
X57875518Y-43925812D01*
X58000000Y-43938072D01*
X58714250Y-43935000D01*
X58873000Y-43776250D01*
X58873000Y-42127000D01*
X57523750Y-42127000D01*
X57365000Y-42285750D01*
X57361928Y-43300000D01*
X54834428Y-43300000D01*
X54906031Y-43212752D01*
X55057852Y-42928715D01*
X55151343Y-42620515D01*
X55175000Y-42380321D01*
X55175000Y-41619678D01*
X55151343Y-41379484D01*
X55057852Y-41071285D01*
X54906031Y-40787248D01*
X54834429Y-40700000D01*
X57361928Y-40700000D01*
X57365000Y-41714250D01*
X57523750Y-41873000D01*
X58873000Y-41873000D01*
X58873000Y-40223750D01*
X58714250Y-40065000D01*
X58000000Y-40061928D01*
X57875518Y-40074188D01*
X57755820Y-40110498D01*
X57645506Y-40169463D01*
X57548815Y-40248815D01*
X57469463Y-40345506D01*
X57410498Y-40455820D01*
X57374188Y-40575518D01*
X57361928Y-40700000D01*
X54834429Y-40700000D01*
X54701714Y-40538286D01*
X54452751Y-40333969D01*
X54168714Y-40182148D01*
X53860515Y-40088657D01*
X53540000Y-40057089D01*
X53219484Y-40088657D01*
X52911285Y-40182148D01*
X52627248Y-40333969D01*
X52555739Y-40392655D01*
X52530537Y-40345506D01*
X52451185Y-40248815D01*
X52354494Y-40169463D01*
X52244180Y-40110498D01*
X52124482Y-40074188D01*
X52000000Y-40061928D01*
X51285750Y-40065000D01*
X51127000Y-40223750D01*
X50873000Y-40223750D01*
X50714250Y-40065000D01*
X50000000Y-40061928D01*
X49875518Y-40074188D01*
X49755820Y-40110498D01*
X49645506Y-40169463D01*
X49548815Y-40248815D01*
X49469463Y-40345506D01*
X49410498Y-40455820D01*
X49374188Y-40575518D01*
X49361928Y-40700000D01*
X40660000Y-40700000D01*
X40660000Y-39009683D01*
X40811269Y-39374879D01*
X41056862Y-39742436D01*
X41369444Y-40055018D01*
X41737001Y-40300611D01*
X42145409Y-40469779D01*
X42578972Y-40556021D01*
X43021030Y-40556021D01*
X43454593Y-40469779D01*
X43863001Y-40300611D01*
X44230558Y-40055018D01*
X44543140Y-39742436D01*
X44788733Y-39374879D01*
X44957901Y-38966471D01*
X45044143Y-38532908D01*
X45044143Y-38090850D01*
X100555859Y-38090850D01*
X100555859Y-38532908D01*
X100642101Y-38966471D01*
X100811269Y-39374879D01*
X101056862Y-39742436D01*
X101369444Y-40055018D01*
X101737001Y-40300611D01*
X102145409Y-40469779D01*
X102578972Y-40556021D01*
X103021030Y-40556021D01*
X103454593Y-40469779D01*
X103863001Y-40300611D01*
X104230558Y-40055018D01*
X104543140Y-39742436D01*
X104788733Y-39374879D01*
X104957901Y-38966471D01*
X105044143Y-38532908D01*
X105044143Y-38090850D01*
X104957901Y-37657287D01*
X104788733Y-37248879D01*
X104543140Y-36881322D01*
X104230558Y-36568740D01*
X103863001Y-36323147D01*
X103454593Y-36153979D01*
X103021030Y-36067737D01*
X102578972Y-36067737D01*
X102145409Y-36153979D01*
X101737001Y-36323147D01*
X101369444Y-36568740D01*
X101056862Y-36881322D01*
X100811269Y-37248879D01*
X100642101Y-37657287D01*
X100555859Y-38090850D01*
X45044143Y-38090850D01*
X44957901Y-37657287D01*
X44788733Y-37248879D01*
X44543140Y-36881322D01*
X44230558Y-36568740D01*
X43863001Y-36323147D01*
X43454593Y-36153979D01*
X43021030Y-36067737D01*
X42578972Y-36067737D01*
X42145409Y-36153979D01*
X41737001Y-36323147D01*
X41369444Y-36568740D01*
X41056862Y-36881322D01*
X40811269Y-37248879D01*
X40660000Y-37614075D01*
X40660000Y-36532277D01*
X40679102Y-36337460D01*
X40726308Y-36181106D01*
X40802982Y-36036904D01*
X40906207Y-35910337D01*
X41032051Y-35806231D01*
X41175711Y-35728553D01*
X41331729Y-35680258D01*
X41524473Y-35660000D01*
X104967723Y-35660000D01*
X105162540Y-35679102D01*
G04 #@! TA.AperFunction,Conductor*
D22*
G36*
X105162540Y-35679102D02*
G01*
X105318894Y-35726308D01*
X105463096Y-35802982D01*
X105589663Y-35906207D01*
X105693769Y-36032051D01*
X105771447Y-36175711D01*
X105819742Y-36331729D01*
X105840000Y-36524473D01*
X105840001Y-112967712D01*
X105820898Y-113162540D01*
X105773692Y-113318895D01*
X105697018Y-113463096D01*
X105593792Y-113589664D01*
X105467951Y-113693768D01*
X105324289Y-113771447D01*
X105168271Y-113819742D01*
X104975527Y-113840000D01*
X41532277Y-113840000D01*
X41337460Y-113820898D01*
X41181105Y-113773692D01*
X41036904Y-113697018D01*
X40910336Y-113593792D01*
X40806232Y-113467951D01*
X40728553Y-113324289D01*
X40680258Y-113168271D01*
X40660000Y-112975527D01*
X40660000Y-110750000D01*
X45061928Y-110750000D01*
X45074188Y-110874482D01*
X45110498Y-110994180D01*
X45169463Y-111104494D01*
X45248815Y-111201185D01*
X45345506Y-111280537D01*
X45455820Y-111339502D01*
X45575518Y-111375812D01*
X45700000Y-111388072D01*
X46714250Y-111385000D01*
X46873000Y-111226250D01*
X46873000Y-109877000D01*
X47127000Y-109877000D01*
X47127000Y-111226250D01*
X47285750Y-111385000D01*
X48300000Y-111388072D01*
X48424482Y-111375812D01*
X48544180Y-111339502D01*
X48654494Y-111280537D01*
X48751185Y-111201185D01*
X48830537Y-111104494D01*
X48889502Y-110994180D01*
X48925812Y-110874482D01*
X48938072Y-110750000D01*
X48935000Y-110035750D01*
X48776250Y-109877000D01*
X47127000Y-109877000D01*
X46873000Y-109877000D01*
X45223750Y-109877000D01*
X45065000Y-110035750D01*
X45061928Y-110750000D01*
X40660000Y-110750000D01*
X40660000Y-107210000D01*
X45057089Y-107210000D01*
X45088657Y-107530516D01*
X45182148Y-107838715D01*
X45333969Y-108122752D01*
X45392655Y-108194261D01*
X45345506Y-108219463D01*
X45248815Y-108298815D01*
X45169463Y-108395506D01*
X45110498Y-108505820D01*
X45074188Y-108625518D01*
X45061928Y-108750000D01*
X45065000Y-109464250D01*
X45223750Y-109623000D01*
X46873000Y-109623000D01*
X46873000Y-109603000D01*
X47127000Y-109603000D01*
X47127000Y-109623000D01*
X48776250Y-109623000D01*
X48935000Y-109464250D01*
X48937557Y-108869678D01*
X61705000Y-108869678D01*
X61705000Y-109630321D01*
X61728657Y-109870515D01*
X61822148Y-110178714D01*
X61973969Y-110462751D01*
X62178286Y-110711714D01*
X62427248Y-110916031D01*
X62711285Y-111067852D01*
X63019484Y-111161343D01*
X63340000Y-111192911D01*
X63660515Y-111161343D01*
X63968714Y-111067852D01*
X64252751Y-110916031D01*
X64325545Y-110856291D01*
X65403446Y-111934193D01*
X65426462Y-111962238D01*
X65454506Y-111985253D01*
X65538380Y-112054087D01*
X65666066Y-112122337D01*
X65804615Y-112164365D01*
X65948700Y-112178556D01*
X65984805Y-112175000D01*
X84216595Y-112175000D01*
X84252700Y-112178556D01*
X84288805Y-112175000D01*
X84396785Y-112164365D01*
X84535333Y-112122337D01*
X84663020Y-112054087D01*
X84774938Y-111962238D01*
X84797958Y-111934188D01*
X86291926Y-110440220D01*
X86303969Y-110462751D01*
X86508286Y-110711714D01*
X86757248Y-110916031D01*
X87041285Y-111067852D01*
X87349484Y-111161343D01*
X87670000Y-111192911D01*
X87990515Y-111161343D01*
X88298714Y-111067852D01*
X88582751Y-110916031D01*
X88831714Y-110711714D01*
X88940000Y-110579766D01*
X89048286Y-110711714D01*
X89297248Y-110916031D01*
X89581285Y-111067852D01*
X89889484Y-111161343D01*
X90210000Y-111192911D01*
X90530515Y-111161343D01*
X90838714Y-111067852D01*
X91122751Y-110916031D01*
X91204552Y-110848899D01*
X91635246Y-111279593D01*
X91658262Y-111307638D01*
X91686306Y-111330653D01*
X91770180Y-111399487D01*
X91897866Y-111467737D01*
X92036415Y-111509765D01*
X92180500Y-111523956D01*
X92216605Y-111520400D01*
X93299795Y-111520400D01*
X93335900Y-111523956D01*
X93372005Y-111520400D01*
X93479985Y-111509765D01*
X93618533Y-111467737D01*
X93746220Y-111399487D01*
X93858138Y-111307638D01*
X93881158Y-111279588D01*
X94304455Y-110856292D01*
X94377248Y-110916031D01*
X94661285Y-111067852D01*
X94969484Y-111161343D01*
X95290000Y-111192911D01*
X95610515Y-111161343D01*
X95918714Y-111067852D01*
X96202751Y-110916031D01*
X96274261Y-110857345D01*
X96299463Y-110904494D01*
X96378815Y-111001185D01*
X96475506Y-111080537D01*
X96585820Y-111139502D01*
X96705518Y-111175812D01*
X96830000Y-111188072D01*
X97544250Y-111185000D01*
X97703000Y-111026250D01*
X97703000Y-109377000D01*
X97957000Y-109377000D01*
X97957000Y-111026250D01*
X98115750Y-111185000D01*
X98830000Y-111188072D01*
X98954482Y-111175812D01*
X99074180Y-111139502D01*
X99184494Y-111080537D01*
X99281185Y-111001185D01*
X99360537Y-110904494D01*
X99419502Y-110794180D01*
X99455812Y-110674482D01*
X99468072Y-110550000D01*
X99465000Y-109535750D01*
X99306250Y-109377000D01*
X97957000Y-109377000D01*
X97703000Y-109377000D01*
X97683000Y-109377000D01*
X97683000Y-109123000D01*
X97703000Y-109123000D01*
X97703000Y-107473750D01*
X97957000Y-107473750D01*
X97957000Y-109123000D01*
X99306250Y-109123000D01*
X99465000Y-108964250D01*
X99468072Y-107950000D01*
X99455812Y-107825518D01*
X99419502Y-107705820D01*
X99360537Y-107595506D01*
X99281185Y-107498815D01*
X99184494Y-107419463D01*
X99074180Y-107360498D01*
X98954482Y-107324188D01*
X98830000Y-107311928D01*
X98115750Y-107315000D01*
X97957000Y-107473750D01*
X97703000Y-107473750D01*
X97544250Y-107315000D01*
X96830000Y-107311928D01*
X96705518Y-107324188D01*
X96585820Y-107360498D01*
X96475506Y-107419463D01*
X96378815Y-107498815D01*
X96299463Y-107595506D01*
X96274261Y-107642655D01*
X96202752Y-107583969D01*
X95918715Y-107432148D01*
X95610516Y-107338657D01*
X95290000Y-107307089D01*
X94969485Y-107338657D01*
X94661286Y-107432148D01*
X94377249Y-107583969D01*
X94128286Y-107788286D01*
X94021716Y-107918142D01*
X93816317Y-107704078D01*
X93552761Y-107519990D01*
X93258355Y-107390856D01*
X93130434Y-107359876D01*
X92877000Y-107479223D01*
X92877000Y-109123000D01*
X92897000Y-109123000D01*
X92897000Y-109377000D01*
X92877000Y-109377000D01*
X92877000Y-109397000D01*
X92623000Y-109397000D01*
X92623000Y-109377000D01*
X92603000Y-109377000D01*
X92603000Y-109123000D01*
X92623000Y-109123000D01*
X92623000Y-107479223D01*
X92369566Y-107359876D01*
X92241645Y-107390856D01*
X91947239Y-107519990D01*
X91744115Y-107661868D01*
X90962858Y-106880612D01*
X90939838Y-106852562D01*
X90827920Y-106760713D01*
X90700233Y-106692463D01*
X90561685Y-106650435D01*
X90453705Y-106639800D01*
X90417600Y-106636244D01*
X90381495Y-106639800D01*
X78166105Y-106639800D01*
X78130000Y-106636244D01*
X77985915Y-106650435D01*
X77847366Y-106692463D01*
X77719680Y-106760713D01*
X77607762Y-106852562D01*
X77584746Y-106880607D01*
X75032302Y-109433052D01*
X74976250Y-109377000D01*
X73627000Y-109377000D01*
X73627000Y-109397000D01*
X73373000Y-109397000D01*
X73373000Y-109377000D01*
X73353000Y-109377000D01*
X73353000Y-109123000D01*
X73373000Y-109123000D01*
X73373000Y-107473750D01*
X73627000Y-107473750D01*
X73627000Y-109123000D01*
X74976250Y-109123000D01*
X75135000Y-108964250D01*
X75138072Y-107950000D01*
X75125812Y-107825518D01*
X75089502Y-107705820D01*
X75030537Y-107595506D01*
X74951185Y-107498815D01*
X74854494Y-107419463D01*
X74744180Y-107360498D01*
X74624482Y-107324188D01*
X74500000Y-107311928D01*
X73785750Y-107315000D01*
X73627000Y-107473750D01*
X73373000Y-107473750D01*
X73214250Y-107315000D01*
X72500000Y-107311928D01*
X72375518Y-107324188D01*
X72255820Y-107360498D01*
X72145506Y-107419463D01*
X72048815Y-107498815D01*
X71969463Y-107595506D01*
X71944261Y-107642655D01*
X71872752Y-107583969D01*
X71588715Y-107432148D01*
X71280516Y-107338657D01*
X70960000Y-107307089D01*
X70639485Y-107338657D01*
X70331286Y-107432148D01*
X70047249Y-107583969D01*
X69798286Y-107788286D01*
X69691716Y-107918142D01*
X69486317Y-107704078D01*
X69222761Y-107519990D01*
X68928355Y-107390856D01*
X68800434Y-107359876D01*
X68547000Y-107479223D01*
X68547000Y-109123000D01*
X68567000Y-109123000D01*
X68567000Y-109377000D01*
X68547000Y-109377000D01*
X68547000Y-109397000D01*
X68293000Y-109397000D01*
X68293000Y-109377000D01*
X68273000Y-109377000D01*
X68273000Y-109123000D01*
X68293000Y-109123000D01*
X68293000Y-107479223D01*
X68039566Y-107359876D01*
X67911645Y-107390856D01*
X67617239Y-107519990D01*
X67353683Y-107704078D01*
X67148284Y-107918142D01*
X67041714Y-107788286D01*
X66792752Y-107583969D01*
X66508715Y-107432148D01*
X66200516Y-107338657D01*
X65880000Y-107307089D01*
X65559485Y-107338657D01*
X65251286Y-107432148D01*
X64967249Y-107583969D01*
X64718286Y-107788286D01*
X64610000Y-107920233D01*
X64501714Y-107788286D01*
X64252752Y-107583969D01*
X63968715Y-107432148D01*
X63660516Y-107338657D01*
X63340000Y-107307089D01*
X63019485Y-107338657D01*
X62711286Y-107432148D01*
X62427249Y-107583969D01*
X62178286Y-107788286D01*
X61973969Y-108037248D01*
X61822148Y-108321285D01*
X61728657Y-108629484D01*
X61705000Y-108869678D01*
X48937557Y-108869678D01*
X48938072Y-108750000D01*
X48925812Y-108625518D01*
X48889502Y-108505820D01*
X48830537Y-108395506D01*
X48751185Y-108298815D01*
X48654494Y-108219463D01*
X48607345Y-108194261D01*
X48666031Y-108122752D01*
X48817852Y-107838715D01*
X48911343Y-107530516D01*
X48942911Y-107210000D01*
X48911343Y-106889484D01*
X48817852Y-106581285D01*
X48666031Y-106297248D01*
X48461714Y-106048286D01*
X48212752Y-105843969D01*
X47928715Y-105692148D01*
X47735000Y-105633385D01*
X47735000Y-102100000D01*
X62011928Y-102100000D01*
X62024188Y-102224482D01*
X62060498Y-102344180D01*
X62119463Y-102454494D01*
X62198815Y-102551185D01*
X62295506Y-102630537D01*
X62405820Y-102689502D01*
X62525518Y-102725812D01*
X62650000Y-102738072D01*
X63214250Y-102735000D01*
X63373000Y-102576250D01*
X63373000Y-101377000D01*
X62173750Y-101377000D01*
X62015000Y-101535750D01*
X62011928Y-102100000D01*
X47735000Y-102100000D01*
X47735000Y-100400000D01*
X62011928Y-100400000D01*
X62015000Y-100964250D01*
X62173750Y-101123000D01*
X63373000Y-101123000D01*
X63373000Y-99923750D01*
X63214250Y-99765000D01*
X62650000Y-99761928D01*
X62525518Y-99774188D01*
X62405820Y-99810498D01*
X62295506Y-99869463D01*
X62198815Y-99948815D01*
X62119463Y-100045506D01*
X62060498Y-100155820D01*
X62024188Y-100275518D01*
X62011928Y-100400000D01*
X47735000Y-100400000D01*
X47735000Y-95300000D01*
X65811928Y-95300000D01*
X65824188Y-95424482D01*
X65860498Y-95544180D01*
X65919463Y-95654494D01*
X65998815Y-95751185D01*
X66095506Y-95830537D01*
X66205820Y-95889502D01*
X66325518Y-95925812D01*
X66450000Y-95938072D01*
X66964250Y-95935000D01*
X67123000Y-95776250D01*
X67123000Y-94627000D01*
X65973750Y-94627000D01*
X65815000Y-94785750D01*
X65811928Y-95300000D01*
X47735000Y-95300000D01*
X47735000Y-93700000D01*
X65811928Y-93700000D01*
X65815000Y-94214250D01*
X65973750Y-94373000D01*
X67123000Y-94373000D01*
X67123000Y-93223750D01*
X67377000Y-93223750D01*
X67377000Y-94373000D01*
X67397000Y-94373000D01*
X67397000Y-94627000D01*
X67377000Y-94627000D01*
X67377000Y-95776250D01*
X67535750Y-95935000D01*
X68050000Y-95938072D01*
X68174482Y-95925812D01*
X68294180Y-95889502D01*
X68404494Y-95830537D01*
X68501185Y-95751185D01*
X68580537Y-95654494D01*
X68639502Y-95544180D01*
X68655117Y-95492702D01*
X68976903Y-95492702D01*
X69048486Y-95736671D01*
X69303996Y-95857571D01*
X69578184Y-95926300D01*
X69860512Y-95940217D01*
X70140130Y-95898787D01*
X70406292Y-95803603D01*
X70531514Y-95736671D01*
X70603097Y-95492702D01*
X69790000Y-94679605D01*
X68976903Y-95492702D01*
X68655117Y-95492702D01*
X68675812Y-95424482D01*
X68688072Y-95300000D01*
X68687959Y-95281016D01*
X68797298Y-95313097D01*
X69610395Y-94500000D01*
X69969605Y-94500000D01*
X70782702Y-95313097D01*
X71026671Y-95241514D01*
X71057971Y-95175364D01*
X71093329Y-95241514D01*
X71337298Y-95313097D01*
X72150395Y-94500000D01*
X71337298Y-93686903D01*
X71093329Y-93758486D01*
X71062029Y-93824636D01*
X71026671Y-93758486D01*
X70782702Y-93686903D01*
X69969605Y-94500000D01*
X69610395Y-94500000D01*
X68797298Y-93686903D01*
X68687959Y-93718984D01*
X68688072Y-93700000D01*
X68675812Y-93575518D01*
X68655118Y-93507298D01*
X68976903Y-93507298D01*
X69790000Y-94320395D01*
X70603097Y-93507298D01*
X71516903Y-93507298D01*
X72330000Y-94320395D01*
X73143097Y-93507298D01*
X73071514Y-93263329D01*
X72816004Y-93142429D01*
X72541816Y-93073700D01*
X72259488Y-93059783D01*
X71979870Y-93101213D01*
X71713708Y-93196397D01*
X71588486Y-93263329D01*
X71516903Y-93507298D01*
X70603097Y-93507298D01*
X70531514Y-93263329D01*
X70276004Y-93142429D01*
X70001816Y-93073700D01*
X69719488Y-93059783D01*
X69439870Y-93101213D01*
X69173708Y-93196397D01*
X69048486Y-93263329D01*
X68976903Y-93507298D01*
X68655118Y-93507298D01*
X68639502Y-93455820D01*
X68580537Y-93345506D01*
X68501185Y-93248815D01*
X68404494Y-93169463D01*
X68294180Y-93110498D01*
X68174482Y-93074188D01*
X68050000Y-93061928D01*
X67535750Y-93065000D01*
X67377000Y-93223750D01*
X67123000Y-93223750D01*
X66964250Y-93065000D01*
X66450000Y-93061928D01*
X66325518Y-93074188D01*
X66205820Y-93110498D01*
X66095506Y-93169463D01*
X65998815Y-93248815D01*
X65919463Y-93345506D01*
X65860498Y-93455820D01*
X65824188Y-93575518D01*
X65811928Y-93700000D01*
X47735000Y-93700000D01*
X47735000Y-92936595D01*
X47750000Y-92938072D01*
X48464250Y-92935000D01*
X48623000Y-92776250D01*
X48623000Y-91127000D01*
X48603000Y-91127000D01*
X48603000Y-90873000D01*
X48623000Y-90873000D01*
X48623000Y-89223750D01*
X48464250Y-89065000D01*
X47750000Y-89061928D01*
X47735000Y-89063405D01*
X47735000Y-69944446D01*
X61631581Y-56047866D01*
X61918816Y-56105000D01*
X62221184Y-56105000D01*
X62517743Y-56046011D01*
X62797095Y-55930299D01*
X63048505Y-55762312D01*
X63262312Y-55548505D01*
X63340000Y-55432237D01*
X63417688Y-55548505D01*
X63631495Y-55762312D01*
X63882905Y-55930299D01*
X64162257Y-56046011D01*
X64458816Y-56105000D01*
X64761184Y-56105000D01*
X65048419Y-56047866D01*
X65193546Y-56192993D01*
X65216562Y-56221038D01*
X65328480Y-56312887D01*
X65456167Y-56381137D01*
X65594715Y-56423165D01*
X65702695Y-56433800D01*
X65702704Y-56433800D01*
X65738799Y-56437355D01*
X65774894Y-56433800D01*
X74035000Y-56433800D01*
X74035001Y-58085585D01*
X74031444Y-58121700D01*
X74045635Y-58265785D01*
X74087664Y-58404333D01*
X74155914Y-58532020D01*
X74247763Y-58643938D01*
X74275808Y-58666954D01*
X78795469Y-63186615D01*
X78828332Y-63351829D01*
X78898814Y-63521989D01*
X79001138Y-63675128D01*
X79131372Y-63805362D01*
X79284511Y-63907686D01*
X79454671Y-63978168D01*
X79544514Y-63996039D01*
X72617454Y-70923100D01*
X71361694Y-70923100D01*
X71325599Y-70919545D01*
X71289504Y-70923100D01*
X71289495Y-70923100D01*
X71181515Y-70933735D01*
X71042967Y-70975763D01*
X70915280Y-71044013D01*
X70803362Y-71135862D01*
X70780346Y-71163907D01*
X65647535Y-76296718D01*
X65588505Y-76237688D01*
X65337095Y-76069701D01*
X65057743Y-75953989D01*
X64761184Y-75895000D01*
X64458816Y-75895000D01*
X64171581Y-75952134D01*
X63361058Y-75141612D01*
X63338038Y-75113562D01*
X63226120Y-75021713D01*
X63098433Y-74953463D01*
X62959885Y-74911435D01*
X62851905Y-74900800D01*
X62815800Y-74897244D01*
X62779695Y-74900800D01*
X51200305Y-74900800D01*
X51164200Y-74897244D01*
X51020114Y-74911435D01*
X50978086Y-74924184D01*
X50881567Y-74953463D01*
X50753880Y-75021713D01*
X50641962Y-75113562D01*
X50618946Y-75141607D01*
X49808419Y-75952134D01*
X49521184Y-75895000D01*
X49218816Y-75895000D01*
X48922257Y-75953989D01*
X48642905Y-76069701D01*
X48391495Y-76237688D01*
X48177688Y-76451495D01*
X48009701Y-76702905D01*
X47893989Y-76982257D01*
X47835000Y-77278816D01*
X47835000Y-77581184D01*
X47893989Y-77877743D01*
X48009701Y-78157095D01*
X48177688Y-78408505D01*
X48391495Y-78622312D01*
X48642905Y-78790299D01*
X48922257Y-78906011D01*
X49218816Y-78965000D01*
X49521184Y-78965000D01*
X49817743Y-78906011D01*
X50097095Y-78790299D01*
X50348505Y-78622312D01*
X50562312Y-78408505D01*
X50640000Y-78292237D01*
X50717688Y-78408505D01*
X50931495Y-78622312D01*
X51182905Y-78790299D01*
X51462257Y-78906011D01*
X51758816Y-78965000D01*
X52061184Y-78965000D01*
X52357743Y-78906011D01*
X52445000Y-78869868D01*
X52445001Y-89532777D01*
X52202751Y-89333969D01*
X51918714Y-89182148D01*
X51610515Y-89088657D01*
X51290000Y-89057089D01*
X50969484Y-89088657D01*
X50661285Y-89182148D01*
X50377248Y-89333969D01*
X50305739Y-89392655D01*
X50280537Y-89345506D01*
X50201185Y-89248815D01*
X50104494Y-89169463D01*
X49994180Y-89110498D01*
X49874482Y-89074188D01*
X49750000Y-89061928D01*
X49035750Y-89065000D01*
X48877000Y-89223750D01*
X48877000Y-90873000D01*
X48897000Y-90873000D01*
X48897000Y-91127000D01*
X48877000Y-91127000D01*
X48877000Y-92776250D01*
X49035750Y-92935000D01*
X49750000Y-92938072D01*
X49874482Y-92925812D01*
X49994180Y-92889502D01*
X50104494Y-92830537D01*
X50201185Y-92751185D01*
X50280537Y-92654494D01*
X50305739Y-92607345D01*
X50377249Y-92666031D01*
X50661286Y-92817852D01*
X50969485Y-92911343D01*
X51290000Y-92942911D01*
X51610516Y-92911343D01*
X51918715Y-92817852D01*
X52202752Y-92666031D01*
X52451714Y-92461714D01*
X52584428Y-92300000D01*
X55361928Y-92300000D01*
X55374188Y-92424482D01*
X55410498Y-92544180D01*
X55469463Y-92654494D01*
X55548815Y-92751185D01*
X55645506Y-92830537D01*
X55755820Y-92889502D01*
X55875518Y-92925812D01*
X56000000Y-92938072D01*
X56714250Y-92935000D01*
X56873000Y-92776250D01*
X56873000Y-91127000D01*
X55523750Y-91127000D01*
X55365000Y-91285750D01*
X55361928Y-92300000D01*
X52584428Y-92300000D01*
X52656031Y-92212752D01*
X52807852Y-91928715D01*
X52898585Y-91629606D01*
X52927620Y-91614087D01*
X53039538Y-91522238D01*
X53062558Y-91494188D01*
X53674193Y-90882554D01*
X53702238Y-90859538D01*
X53794087Y-90747620D01*
X53862337Y-90619933D01*
X53904365Y-90481385D01*
X53915000Y-90373405D01*
X53915000Y-90373396D01*
X53918555Y-90337301D01*
X53915000Y-90301206D01*
X53915000Y-89700000D01*
X55361928Y-89700000D01*
X55365000Y-90714250D01*
X55523750Y-90873000D01*
X56873000Y-90873000D01*
X56873000Y-89223750D01*
X57127000Y-89223750D01*
X57127000Y-90873000D01*
X57147000Y-90873000D01*
X57147000Y-91127000D01*
X57127000Y-91127000D01*
X57127000Y-92776250D01*
X57285750Y-92935000D01*
X58000000Y-92938072D01*
X58124482Y-92925812D01*
X58244180Y-92889502D01*
X58354494Y-92830537D01*
X58451185Y-92751185D01*
X58530537Y-92654494D01*
X58555739Y-92607345D01*
X58627249Y-92666031D01*
X58911286Y-92817852D01*
X59219485Y-92911343D01*
X59540000Y-92942911D01*
X59860516Y-92911343D01*
X60168715Y-92817852D01*
X60452752Y-92666031D01*
X60701714Y-92461714D01*
X60906031Y-92212752D01*
X61057852Y-91928715D01*
X61151343Y-91620515D01*
X61175000Y-91380321D01*
X61175000Y-90619678D01*
X61151343Y-90379484D01*
X61057852Y-90071285D01*
X60906031Y-89787248D01*
X60701714Y-89538286D01*
X60452751Y-89333969D01*
X60168714Y-89182148D01*
X59860515Y-89088657D01*
X59540000Y-89057089D01*
X59219484Y-89088657D01*
X58911285Y-89182148D01*
X58627248Y-89333969D01*
X58555739Y-89392655D01*
X58530537Y-89345506D01*
X58451185Y-89248815D01*
X58354494Y-89169463D01*
X58244180Y-89110498D01*
X58124482Y-89074188D01*
X58000000Y-89061928D01*
X57285750Y-89065000D01*
X57127000Y-89223750D01*
X56873000Y-89223750D01*
X56714250Y-89065000D01*
X56000000Y-89061928D01*
X55875518Y-89074188D01*
X55755820Y-89110498D01*
X55645506Y-89169463D01*
X55548815Y-89248815D01*
X55469463Y-89345506D01*
X55410498Y-89455820D01*
X55374188Y-89575518D01*
X55361928Y-89700000D01*
X53915000Y-89700000D01*
X53915000Y-78875904D01*
X53921775Y-78879158D01*
X54214642Y-78954365D01*
X54516553Y-78970991D01*
X54815907Y-78928397D01*
X55101199Y-78828222D01*
X55250792Y-78748261D01*
X55334475Y-78494080D01*
X54450000Y-77609605D01*
X54435858Y-77623748D01*
X54256253Y-77444143D01*
X54270395Y-77430000D01*
X54256253Y-77415858D01*
X54435858Y-77236253D01*
X54450000Y-77250395D01*
X54464143Y-77236253D01*
X54643748Y-77415858D01*
X54629605Y-77430000D01*
X55514080Y-78314475D01*
X55695049Y-78254895D01*
X55797688Y-78408505D01*
X56011495Y-78622312D01*
X56262905Y-78790299D01*
X56542257Y-78906011D01*
X56838816Y-78965000D01*
X57141184Y-78965000D01*
X57437743Y-78906011D01*
X57717095Y-78790299D01*
X57968505Y-78622312D01*
X58182312Y-78408505D01*
X58260000Y-78292237D01*
X58337688Y-78408505D01*
X58551495Y-78622312D01*
X58802905Y-78790299D01*
X59082257Y-78906011D01*
X59378816Y-78965000D01*
X59681184Y-78965000D01*
X59968419Y-78907866D01*
X60440546Y-79379993D01*
X60463562Y-79408038D01*
X60575480Y-79499887D01*
X60703167Y-79568137D01*
X60799686Y-79597416D01*
X60841714Y-79610165D01*
X60855932Y-79611565D01*
X60949695Y-79620800D01*
X60949702Y-79620800D01*
X60985799Y-79624355D01*
X61021896Y-79620800D01*
X67254395Y-79620800D01*
X67290500Y-79624356D01*
X67326605Y-79620800D01*
X67434585Y-79610165D01*
X67573133Y-79568137D01*
X67700820Y-79499887D01*
X67812738Y-79408038D01*
X67835758Y-79379988D01*
X68652465Y-78563282D01*
X68711495Y-78622312D01*
X68962905Y-78790299D01*
X69242257Y-78906011D01*
X69538816Y-78965000D01*
X69841184Y-78965000D01*
X70137743Y-78906011D01*
X70417095Y-78790299D01*
X70668505Y-78622312D01*
X70882312Y-78408505D01*
X70960000Y-78292237D01*
X71037688Y-78408505D01*
X71251495Y-78622312D01*
X71502905Y-78790299D01*
X71782257Y-78906011D01*
X72078816Y-78965000D01*
X72381184Y-78965000D01*
X72668419Y-78907866D01*
X79339994Y-85579441D01*
X79270273Y-85608320D01*
X79035241Y-85765363D01*
X78835363Y-85965241D01*
X78680000Y-86197759D01*
X78524637Y-85965241D01*
X78324759Y-85765363D01*
X78089727Y-85608320D01*
X77828574Y-85500147D01*
X77551335Y-85445000D01*
X77268665Y-85445000D01*
X76991426Y-85500147D01*
X76730273Y-85608320D01*
X76495241Y-85765363D01*
X76295363Y-85965241D01*
X76140000Y-86197759D01*
X75984637Y-85965241D01*
X75784759Y-85765363D01*
X75549727Y-85608320D01*
X75288574Y-85500147D01*
X75011335Y-85445000D01*
X74728665Y-85445000D01*
X74451426Y-85500147D01*
X74190273Y-85608320D01*
X73955241Y-85765363D01*
X73755363Y-85965241D01*
X73600000Y-86197759D01*
X73444637Y-85965241D01*
X73244759Y-85765363D01*
X73009727Y-85608320D01*
X72748574Y-85500147D01*
X72471335Y-85445000D01*
X72188665Y-85445000D01*
X71911426Y-85500147D01*
X71650273Y-85608320D01*
X71415241Y-85765363D01*
X71215363Y-85965241D01*
X71060000Y-86197759D01*
X70904637Y-85965241D01*
X70704759Y-85765363D01*
X70469727Y-85608320D01*
X70208574Y-85500147D01*
X69931335Y-85445000D01*
X69648665Y-85445000D01*
X69371426Y-85500147D01*
X69110273Y-85608320D01*
X68875241Y-85765363D01*
X68675363Y-85965241D01*
X68520000Y-86197759D01*
X68364637Y-85965241D01*
X68164759Y-85765363D01*
X67929727Y-85608320D01*
X67668574Y-85500147D01*
X67391335Y-85445000D01*
X67108665Y-85445000D01*
X66831426Y-85500147D01*
X66570273Y-85608320D01*
X66335241Y-85765363D01*
X66135363Y-85965241D01*
X65978320Y-86200273D01*
X65870147Y-86461426D01*
X65815000Y-86738665D01*
X65815000Y-87021335D01*
X65870147Y-87298574D01*
X65978320Y-87559727D01*
X66135363Y-87794759D01*
X66335241Y-87994637D01*
X66570273Y-88151680D01*
X66831426Y-88259853D01*
X67108665Y-88315000D01*
X67391335Y-88315000D01*
X67668574Y-88259853D01*
X67929727Y-88151680D01*
X68164759Y-87994637D01*
X68364637Y-87794759D01*
X68520000Y-87562241D01*
X68675363Y-87794759D01*
X68875241Y-87994637D01*
X69110273Y-88151680D01*
X69371426Y-88259853D01*
X69648665Y-88315000D01*
X69931335Y-88315000D01*
X70208574Y-88259853D01*
X70469727Y-88151680D01*
X70704759Y-87994637D01*
X70904637Y-87794759D01*
X71060000Y-87562241D01*
X71215363Y-87794759D01*
X71415241Y-87994637D01*
X71650273Y-88151680D01*
X71911426Y-88259853D01*
X72188665Y-88315000D01*
X72471335Y-88315000D01*
X72748574Y-88259853D01*
X73009727Y-88151680D01*
X73244759Y-87994637D01*
X73444637Y-87794759D01*
X73600000Y-87562241D01*
X73755363Y-87794759D01*
X73955241Y-87994637D01*
X74190273Y-88151680D01*
X74451426Y-88259853D01*
X74728665Y-88315000D01*
X75011335Y-88315000D01*
X75288574Y-88259853D01*
X75549727Y-88151680D01*
X75784759Y-87994637D01*
X75984637Y-87794759D01*
X76140000Y-87562241D01*
X76295363Y-87794759D01*
X76495241Y-87994637D01*
X76730273Y-88151680D01*
X76991426Y-88259853D01*
X77268665Y-88315000D01*
X77551335Y-88315000D01*
X77828574Y-88259853D01*
X78089727Y-88151680D01*
X78324759Y-87994637D01*
X78524637Y-87794759D01*
X78680000Y-87562241D01*
X78835363Y-87794759D01*
X79035241Y-87994637D01*
X79270273Y-88151680D01*
X79531426Y-88259853D01*
X79808665Y-88315000D01*
X80091335Y-88315000D01*
X80368574Y-88259853D01*
X80629727Y-88151680D01*
X80864759Y-87994637D01*
X81064637Y-87794759D01*
X81220000Y-87562241D01*
X81375363Y-87794759D01*
X81575241Y-87994637D01*
X81810273Y-88151680D01*
X82071426Y-88259853D01*
X82348665Y-88315000D01*
X82631335Y-88315000D01*
X82908574Y-88259853D01*
X83025001Y-88211627D01*
X83025000Y-93168372D01*
X82908574Y-93120147D01*
X82631335Y-93065000D01*
X82348665Y-93065000D01*
X82071426Y-93120147D01*
X81810273Y-93228320D01*
X81575241Y-93385363D01*
X81375363Y-93585241D01*
X81245434Y-93779694D01*
X81203139Y-93792524D01*
X81064637Y-93585241D01*
X80864759Y-93385363D01*
X80629727Y-93228320D01*
X80368574Y-93120147D01*
X80091335Y-93065000D01*
X79808665Y-93065000D01*
X79531426Y-93120147D01*
X79270273Y-93228320D01*
X79035241Y-93385363D01*
X78835363Y-93585241D01*
X78680000Y-93817759D01*
X78524637Y-93585241D01*
X78324759Y-93385363D01*
X78089727Y-93228320D01*
X77828574Y-93120147D01*
X77551335Y-93065000D01*
X77268665Y-93065000D01*
X76991426Y-93120147D01*
X76730273Y-93228320D01*
X76495241Y-93385363D01*
X76295363Y-93585241D01*
X76165434Y-93779694D01*
X76123139Y-93792524D01*
X75984637Y-93585241D01*
X75784759Y-93385363D01*
X75549727Y-93228320D01*
X75288574Y-93120147D01*
X75011335Y-93065000D01*
X74728665Y-93065000D01*
X74451426Y-93120147D01*
X74190273Y-93228320D01*
X73955241Y-93385363D01*
X73755363Y-93585241D01*
X73599085Y-93819128D01*
X73566671Y-93758486D01*
X73322702Y-93686903D01*
X72509605Y-94500000D01*
X72523748Y-94514143D01*
X72344143Y-94693748D01*
X72330000Y-94679605D01*
X71516903Y-95492702D01*
X71588486Y-95736671D01*
X71843996Y-95857571D01*
X72118184Y-95926300D01*
X72390814Y-95939739D01*
X68892854Y-99437700D01*
X68095894Y-99437700D01*
X68059799Y-99434145D01*
X68023704Y-99437700D01*
X68023695Y-99437700D01*
X67915715Y-99448335D01*
X67777167Y-99490363D01*
X67649480Y-99558613D01*
X67537562Y-99650462D01*
X67514546Y-99678507D01*
X67041580Y-100151473D01*
X66986632Y-100096525D01*
X66743411Y-99934010D01*
X66473158Y-99822068D01*
X66186260Y-99765000D01*
X65893740Y-99765000D01*
X65606842Y-99822068D01*
X65336589Y-99934010D01*
X65093368Y-100096525D01*
X64961513Y-100228380D01*
X64939502Y-100155820D01*
X64880537Y-100045506D01*
X64801185Y-99948815D01*
X64704494Y-99869463D01*
X64594180Y-99810498D01*
X64474482Y-99774188D01*
X64350000Y-99761928D01*
X63785750Y-99765000D01*
X63627000Y-99923750D01*
X63627000Y-101123000D01*
X63647000Y-101123000D01*
X63647000Y-101377000D01*
X63627000Y-101377000D01*
X63627000Y-102576250D01*
X63785750Y-102735000D01*
X64350000Y-102738072D01*
X64474482Y-102725812D01*
X64594180Y-102689502D01*
X64704494Y-102630537D01*
X64801185Y-102551185D01*
X64880537Y-102454494D01*
X64939502Y-102344180D01*
X64961513Y-102271620D01*
X65093368Y-102403475D01*
X65336589Y-102565990D01*
X65606842Y-102677932D01*
X65893740Y-102735000D01*
X66186260Y-102735000D01*
X66473158Y-102677932D01*
X66743411Y-102565990D01*
X66986632Y-102403475D01*
X67193475Y-102196632D01*
X67310000Y-102022240D01*
X67426525Y-102196632D01*
X67633368Y-102403475D01*
X67876589Y-102565990D01*
X68146842Y-102677932D01*
X68433740Y-102735000D01*
X68726260Y-102735000D01*
X69013158Y-102677932D01*
X69283411Y-102565990D01*
X69526632Y-102403475D01*
X69733475Y-102196632D01*
X69850000Y-102022240D01*
X69966525Y-102196632D01*
X70173368Y-102403475D01*
X70416589Y-102565990D01*
X70686842Y-102677932D01*
X70973740Y-102735000D01*
X71266260Y-102735000D01*
X71553158Y-102677932D01*
X71823411Y-102565990D01*
X72066632Y-102403475D01*
X72273475Y-102196632D01*
X72390000Y-102022240D01*
X72506525Y-102196632D01*
X72713368Y-102403475D01*
X72956589Y-102565990D01*
X73226842Y-102677932D01*
X73513740Y-102735000D01*
X73806260Y-102735000D01*
X74093158Y-102677932D01*
X74363411Y-102565990D01*
X74606632Y-102403475D01*
X74813475Y-102196632D01*
X74930000Y-102022240D01*
X75046525Y-102196632D01*
X75253368Y-102403475D01*
X75496589Y-102565990D01*
X75766842Y-102677932D01*
X76053740Y-102735000D01*
X76346260Y-102735000D01*
X76633158Y-102677932D01*
X76903411Y-102565990D01*
X77146632Y-102403475D01*
X77353475Y-102196632D01*
X77470000Y-102022240D01*
X77586525Y-102196632D01*
X77793368Y-102403475D01*
X78036589Y-102565990D01*
X78306842Y-102677932D01*
X78593740Y-102735000D01*
X78886260Y-102735000D01*
X79173158Y-102677932D01*
X79443411Y-102565990D01*
X79686632Y-102403475D01*
X79893475Y-102196632D01*
X80010000Y-102022240D01*
X80126525Y-102196632D01*
X80333368Y-102403475D01*
X80576589Y-102565990D01*
X80846842Y-102677932D01*
X81133740Y-102735000D01*
X81426260Y-102735000D01*
X81713158Y-102677932D01*
X81983411Y-102565990D01*
X82226632Y-102403475D01*
X82433475Y-102196632D01*
X82550000Y-102022240D01*
X82666525Y-102196632D01*
X82873368Y-102403475D01*
X83116589Y-102565990D01*
X83386842Y-102677932D01*
X83673740Y-102735000D01*
X83966260Y-102735000D01*
X84253158Y-102677932D01*
X84523411Y-102565990D01*
X84766632Y-102403475D01*
X84973475Y-102196632D01*
X85095195Y-102014466D01*
X85164822Y-102131355D01*
X85359731Y-102347588D01*
X85593080Y-102521641D01*
X85855901Y-102646825D01*
X86003110Y-102691476D01*
X86233000Y-102570155D01*
X86233000Y-101377000D01*
X86487000Y-101377000D01*
X86487000Y-102570155D01*
X86716890Y-102691476D01*
X86864099Y-102646825D01*
X87126920Y-102521641D01*
X87360269Y-102347588D01*
X87555178Y-102131355D01*
X87704157Y-101881252D01*
X87801481Y-101606891D01*
X87680814Y-101377000D01*
X86487000Y-101377000D01*
X86233000Y-101377000D01*
X86213000Y-101377000D01*
X86213000Y-101123000D01*
X86233000Y-101123000D01*
X86233000Y-99929845D01*
X86487000Y-99929845D01*
X86487000Y-101123000D01*
X87680814Y-101123000D01*
X87801481Y-100893109D01*
X87704157Y-100618748D01*
X87555178Y-100368645D01*
X87360269Y-100152412D01*
X87126920Y-99978359D01*
X86864099Y-99853175D01*
X86716890Y-99808524D01*
X86487000Y-99929845D01*
X86233000Y-99929845D01*
X86003110Y-99808524D01*
X85855901Y-99853175D01*
X85593080Y-99978359D01*
X85359731Y-100152412D01*
X85164822Y-100368645D01*
X85095195Y-100485534D01*
X84973475Y-100303368D01*
X84766632Y-100096525D01*
X84523411Y-99934010D01*
X84253158Y-99822068D01*
X83966260Y-99765000D01*
X83673740Y-99765000D01*
X83386842Y-99822068D01*
X83116589Y-99934010D01*
X82873368Y-100096525D01*
X82666525Y-100303368D01*
X82550000Y-100477760D01*
X82433475Y-100303368D01*
X82226632Y-100096525D01*
X81983411Y-99934010D01*
X81713158Y-99822068D01*
X81426260Y-99765000D01*
X81133740Y-99765000D01*
X80846842Y-99822068D01*
X80576589Y-99934010D01*
X80333368Y-100096525D01*
X80126525Y-100303368D01*
X80010000Y-100477760D01*
X79893475Y-100303368D01*
X79686632Y-100096525D01*
X79515541Y-99982206D01*
X84005045Y-95492702D01*
X84216903Y-95492702D01*
X84288486Y-95736671D01*
X84543996Y-95857571D01*
X84818184Y-95926300D01*
X85100512Y-95940217D01*
X85380130Y-95898787D01*
X85646292Y-95803603D01*
X85771514Y-95736671D01*
X85843097Y-95492702D01*
X85030000Y-94679605D01*
X84216903Y-95492702D01*
X84005045Y-95492702D01*
X84254198Y-95243549D01*
X84282237Y-95220538D01*
X84305250Y-95192497D01*
X84305253Y-95192494D01*
X84374086Y-95108621D01*
X84374087Y-95108620D01*
X84442337Y-94980933D01*
X84474069Y-94876326D01*
X84850395Y-94500000D01*
X85209605Y-94500000D01*
X86022702Y-95313097D01*
X86266671Y-95241514D01*
X86387571Y-94986004D01*
X86456300Y-94711816D01*
X86470217Y-94429488D01*
X86428787Y-94149870D01*
X86333603Y-93883708D01*
X86266671Y-93758486D01*
X86022702Y-93686903D01*
X85209605Y-94500000D01*
X84850395Y-94500000D01*
X84836253Y-94485858D01*
X85015858Y-94306253D01*
X85030000Y-94320395D01*
X85843097Y-93507298D01*
X85771514Y-93263329D01*
X85516004Y-93142429D01*
X85241816Y-93073700D01*
X84959488Y-93059783D01*
X84679870Y-93101213D01*
X84495000Y-93167326D01*
X84495000Y-88454446D01*
X84676624Y-88272822D01*
X84888665Y-88315000D01*
X85171335Y-88315000D01*
X85448574Y-88259853D01*
X85709727Y-88151680D01*
X85944759Y-87994637D01*
X86144637Y-87794759D01*
X86301680Y-87559727D01*
X86409853Y-87298574D01*
X86465000Y-87021335D01*
X86465000Y-86738665D01*
X86429441Y-86559900D01*
X91940454Y-86559900D01*
X93477446Y-88096893D01*
X93483805Y-88104642D01*
X93432148Y-88201285D01*
X93338657Y-88509484D01*
X93307089Y-88830000D01*
X93338657Y-89150516D01*
X93432148Y-89458715D01*
X93583969Y-89742752D01*
X93788286Y-89991714D01*
X93920233Y-90100000D01*
X93788286Y-90208286D01*
X93583969Y-90457248D01*
X93432148Y-90741285D01*
X93338657Y-91049484D01*
X93307089Y-91370000D01*
X93338657Y-91690516D01*
X93432148Y-91998715D01*
X93583969Y-92282752D01*
X93788286Y-92531714D01*
X93920233Y-92640000D01*
X93788286Y-92748286D01*
X93583969Y-92997248D01*
X93432148Y-93281285D01*
X93338657Y-93589484D01*
X93307089Y-93910000D01*
X93338657Y-94230516D01*
X93432148Y-94538715D01*
X93583969Y-94822752D01*
X93788286Y-95071714D01*
X93920233Y-95180000D01*
X93788286Y-95288286D01*
X93583969Y-95537248D01*
X93432148Y-95821285D01*
X93338657Y-96129484D01*
X93307089Y-96450000D01*
X93338657Y-96770516D01*
X93432148Y-97078715D01*
X93583969Y-97362752D01*
X93788286Y-97611714D01*
X93920233Y-97720000D01*
X93788286Y-97828286D01*
X93583969Y-98077248D01*
X93432148Y-98361285D01*
X93338657Y-98669484D01*
X93307089Y-98990000D01*
X93338657Y-99310516D01*
X93432148Y-99618715D01*
X93583969Y-99902752D01*
X93788286Y-100151714D01*
X94037248Y-100356031D01*
X94321285Y-100507852D01*
X94629484Y-100601343D01*
X94869678Y-100625000D01*
X95630322Y-100625000D01*
X95870516Y-100601343D01*
X96178715Y-100507852D01*
X96462752Y-100356031D01*
X96711714Y-100151714D01*
X96916031Y-99902752D01*
X97067852Y-99618715D01*
X97161343Y-99310516D01*
X97192911Y-98990000D01*
X97161343Y-98669484D01*
X97067852Y-98361285D01*
X96916031Y-98077248D01*
X96711714Y-97828286D01*
X96579767Y-97720000D01*
X96711714Y-97611714D01*
X96916031Y-97362752D01*
X97061365Y-97090850D01*
X100555859Y-97090850D01*
X100555859Y-97532908D01*
X100642101Y-97966471D01*
X100811269Y-98374879D01*
X101056862Y-98742436D01*
X101369444Y-99055018D01*
X101737001Y-99300611D01*
X102145409Y-99469779D01*
X102578972Y-99556021D01*
X103021030Y-99556021D01*
X103454593Y-99469779D01*
X103863001Y-99300611D01*
X104230558Y-99055018D01*
X104543140Y-98742436D01*
X104788733Y-98374879D01*
X104957901Y-97966471D01*
X105044143Y-97532908D01*
X105044143Y-97090850D01*
X104957901Y-96657287D01*
X104788733Y-96248879D01*
X104543140Y-95881322D01*
X104230558Y-95568740D01*
X103863001Y-95323147D01*
X103454593Y-95153979D01*
X103021030Y-95067737D01*
X102578972Y-95067737D01*
X102145409Y-95153979D01*
X101737001Y-95323147D01*
X101369444Y-95568740D01*
X101056862Y-95881322D01*
X100811269Y-96248879D01*
X100642101Y-96657287D01*
X100555859Y-97090850D01*
X97061365Y-97090850D01*
X97067852Y-97078715D01*
X97161343Y-96770516D01*
X97192911Y-96450000D01*
X97161343Y-96129484D01*
X97067852Y-95821285D01*
X96916031Y-95537248D01*
X96711714Y-95288286D01*
X96579767Y-95180000D01*
X96711714Y-95071714D01*
X96916031Y-94822752D01*
X97067852Y-94538715D01*
X97161343Y-94230516D01*
X97192911Y-93910000D01*
X97161343Y-93589484D01*
X97067852Y-93281285D01*
X96916031Y-92997248D01*
X96711714Y-92748286D01*
X96579767Y-92640000D01*
X96711714Y-92531714D01*
X96916031Y-92282752D01*
X97067852Y-91998715D01*
X97161343Y-91690516D01*
X97192911Y-91370000D01*
X97161343Y-91049484D01*
X97067852Y-90741285D01*
X96916031Y-90457248D01*
X96856291Y-90384455D01*
X97286593Y-89954154D01*
X97314638Y-89931138D01*
X97406487Y-89819220D01*
X97474737Y-89691533D01*
X97516765Y-89552985D01*
X97527400Y-89445005D01*
X97530956Y-89408900D01*
X97527400Y-89372795D01*
X97527400Y-85771046D01*
X97530956Y-85734985D01*
X97527400Y-85698839D01*
X97527400Y-85698795D01*
X97523553Y-85659736D01*
X97516781Y-85590898D01*
X97516769Y-85590860D01*
X97516765Y-85590815D01*
X97494769Y-85518304D01*
X97474769Y-85452345D01*
X97474750Y-85452309D01*
X97474737Y-85452267D01*
X97438782Y-85385000D01*
X97406534Y-85324651D01*
X97406508Y-85324619D01*
X97406487Y-85324580D01*
X97386898Y-85300711D01*
X97391487Y-85295120D01*
X97459737Y-85167433D01*
X97489016Y-85070914D01*
X97501765Y-85028886D01*
X97505183Y-84994180D01*
X97512400Y-84920905D01*
X97512400Y-84920898D01*
X97515955Y-84884801D01*
X97512400Y-84848704D01*
X97512400Y-78960850D01*
X97696553Y-78970991D01*
X97995907Y-78928397D01*
X98281199Y-78828222D01*
X98430792Y-78748261D01*
X98514475Y-78494080D01*
X97630000Y-77609605D01*
X97615858Y-77623748D01*
X97436253Y-77444143D01*
X97450395Y-77430000D01*
X97809605Y-77430000D01*
X98694080Y-78314475D01*
X98948261Y-78230792D01*
X99079158Y-77958225D01*
X99154365Y-77665358D01*
X99170991Y-77363447D01*
X99128397Y-77064093D01*
X99028222Y-76778801D01*
X98948261Y-76629208D01*
X98694080Y-76545525D01*
X97809605Y-77430000D01*
X97450395Y-77430000D01*
X97436253Y-77415858D01*
X97615858Y-77236253D01*
X97630000Y-77250395D01*
X98514475Y-76365920D01*
X98430792Y-76111739D01*
X98158225Y-75980842D01*
X97865358Y-75905635D01*
X97563447Y-75889009D01*
X97264093Y-75931603D01*
X97184800Y-75959445D01*
X97184800Y-56046517D01*
X97478816Y-56105000D01*
X97781184Y-56105000D01*
X98077743Y-56046011D01*
X98357095Y-55930299D01*
X98608505Y-55762312D01*
X98822312Y-55548505D01*
X98990299Y-55297095D01*
X99106011Y-55017743D01*
X99165000Y-54721184D01*
X99165000Y-54418816D01*
X99106011Y-54122257D01*
X98990299Y-53842905D01*
X98822312Y-53591495D01*
X98608505Y-53377688D01*
X98365000Y-53214983D01*
X98365000Y-48733394D01*
X98368555Y-48697299D01*
X98365000Y-48661204D01*
X98365000Y-48661195D01*
X98354365Y-48553215D01*
X98312337Y-48414667D01*
X98244087Y-48286980D01*
X98176276Y-48204353D01*
X98175253Y-48203106D01*
X98175250Y-48203103D01*
X98152237Y-48175062D01*
X98124197Y-48152051D01*
X94400410Y-44428264D01*
X94500000Y-44438072D01*
X95214250Y-44435000D01*
X95373000Y-44276250D01*
X95373000Y-42627000D01*
X95627000Y-42627000D01*
X95627000Y-44276250D01*
X95785750Y-44435000D01*
X96500000Y-44438072D01*
X96624482Y-44425812D01*
X96744180Y-44389502D01*
X96854494Y-44330537D01*
X96951185Y-44251185D01*
X97030537Y-44154494D01*
X97089502Y-44044180D01*
X97125812Y-43924482D01*
X97138072Y-43800000D01*
X97135000Y-42785750D01*
X96976250Y-42627000D01*
X95627000Y-42627000D01*
X95373000Y-42627000D01*
X95353000Y-42627000D01*
X95353000Y-42373000D01*
X95373000Y-42373000D01*
X95373000Y-40723750D01*
X95627000Y-40723750D01*
X95627000Y-42373000D01*
X96976250Y-42373000D01*
X97135000Y-42214250D01*
X97138072Y-41200000D01*
X97125812Y-41075518D01*
X97089502Y-40955820D01*
X97030537Y-40845506D01*
X96951185Y-40748815D01*
X96854494Y-40669463D01*
X96744180Y-40610498D01*
X96624482Y-40574188D01*
X96500000Y-40561928D01*
X95785750Y-40565000D01*
X95627000Y-40723750D01*
X95373000Y-40723750D01*
X95214250Y-40565000D01*
X94500000Y-40561928D01*
X94375518Y-40574188D01*
X94255820Y-40610498D01*
X94145506Y-40669463D01*
X94048815Y-40748815D01*
X93969463Y-40845506D01*
X93944261Y-40892655D01*
X93872752Y-40833969D01*
X93588715Y-40682148D01*
X93280516Y-40588657D01*
X92960000Y-40557089D01*
X92639485Y-40588657D01*
X92331286Y-40682148D01*
X92047249Y-40833969D01*
X91798286Y-41038286D01*
X91690000Y-41170233D01*
X91581714Y-41038286D01*
X91332752Y-40833969D01*
X91048715Y-40682148D01*
X90740516Y-40588657D01*
X90420000Y-40557089D01*
X90099485Y-40588657D01*
X89791286Y-40682148D01*
X89507249Y-40833969D01*
X89258286Y-41038286D01*
X89150000Y-41170233D01*
X89041714Y-41038286D01*
X88792752Y-40833969D01*
X88508715Y-40682148D01*
X88200516Y-40588657D01*
X87880000Y-40557089D01*
X87559485Y-40588657D01*
X87251286Y-40682148D01*
X86967249Y-40833969D01*
X86718286Y-41038286D01*
X86610000Y-41170233D01*
X86501714Y-41038286D01*
X86252752Y-40833969D01*
X85968715Y-40682148D01*
X85660516Y-40588657D01*
X85340000Y-40557089D01*
X85019485Y-40588657D01*
X84711286Y-40682148D01*
X84427249Y-40833969D01*
X84178286Y-41038286D01*
X84070000Y-41170233D01*
X83961714Y-41038286D01*
X83712752Y-40833969D01*
X83428715Y-40682148D01*
X83120516Y-40588657D01*
X82800000Y-40557089D01*
X82479485Y-40588657D01*
X82171286Y-40682148D01*
X81887249Y-40833969D01*
X81638286Y-41038286D01*
X81530000Y-41170233D01*
X81421714Y-41038286D01*
X81172752Y-40833969D01*
X80888715Y-40682148D01*
X80580516Y-40588657D01*
X80260000Y-40557089D01*
X79939485Y-40588657D01*
X79631286Y-40682148D01*
X79347249Y-40833969D01*
X79098286Y-41038286D01*
X78893969Y-41287248D01*
X78742148Y-41571285D01*
X78648657Y-41879484D01*
X78625000Y-42119678D01*
X78625000Y-42880321D01*
X78648657Y-43120515D01*
X78742148Y-43428714D01*
X78893969Y-43712751D01*
X79098286Y-43961714D01*
X79347248Y-44166031D01*
X79631285Y-44317852D01*
X79939484Y-44411343D01*
X80260000Y-44442911D01*
X80580515Y-44411343D01*
X80888714Y-44317852D01*
X81172751Y-44166031D01*
X81421714Y-43961714D01*
X81530000Y-43829766D01*
X81638286Y-43961714D01*
X81887248Y-44166031D01*
X82171285Y-44317852D01*
X82479484Y-44411343D01*
X82800000Y-44442911D01*
X83120515Y-44411343D01*
X83428714Y-44317852D01*
X83525359Y-44266194D01*
X83533108Y-44272554D01*
X92312685Y-53052132D01*
X92111581Y-53092134D01*
X86184359Y-47164913D01*
X86161338Y-47136862D01*
X86049420Y-47045013D01*
X85921733Y-46976763D01*
X85783185Y-46934735D01*
X85675205Y-46924100D01*
X85639100Y-46920544D01*
X85602995Y-46924100D01*
X76730847Y-46924100D01*
X71312559Y-41505813D01*
X71289538Y-41477762D01*
X71177620Y-41385913D01*
X71148586Y-41370394D01*
X71057852Y-41071285D01*
X70906031Y-40787248D01*
X70701714Y-40538286D01*
X70452751Y-40333969D01*
X70168714Y-40182148D01*
X69860515Y-40088657D01*
X69540000Y-40057089D01*
X69219484Y-40088657D01*
X68911285Y-40182148D01*
X68627248Y-40333969D01*
X68555739Y-40392655D01*
X68530537Y-40345506D01*
X68451185Y-40248815D01*
X68354494Y-40169463D01*
X68244180Y-40110498D01*
X68124482Y-40074188D01*
X68000000Y-40061928D01*
X67285750Y-40065000D01*
X67127000Y-40223750D01*
X67127000Y-41873000D01*
X67147000Y-41873000D01*
X67147000Y-42127000D01*
X67127000Y-42127000D01*
X67127000Y-43776250D01*
X67285750Y-43935000D01*
X68000000Y-43938072D01*
X68124482Y-43925812D01*
X68244180Y-43889502D01*
X68354494Y-43830537D01*
X68451185Y-43751185D01*
X68530537Y-43654494D01*
X68555739Y-43607345D01*
X68627249Y-43666031D01*
X68911286Y-43817852D01*
X69219485Y-43911343D01*
X69540000Y-43942911D01*
X69860516Y-43911343D01*
X70168715Y-43817852D01*
X70452752Y-43666031D01*
X70701714Y-43461714D01*
X70906031Y-43212752D01*
X70918074Y-43190220D01*
X75881146Y-48153293D01*
X75904162Y-48181338D01*
X76016080Y-48273187D01*
X76143767Y-48341437D01*
X76240286Y-48370716D01*
X76282314Y-48383465D01*
X76426400Y-48397656D01*
X76462505Y-48394100D01*
X85334654Y-48394100D01*
X89975553Y-53035000D01*
X89858816Y-53035000D01*
X89562257Y-53093989D01*
X89282905Y-53209701D01*
X89031495Y-53377688D01*
X88817688Y-53591495D01*
X88740000Y-53707763D01*
X88662312Y-53591495D01*
X88448505Y-53377688D01*
X88197095Y-53209701D01*
X87917743Y-53093989D01*
X87621184Y-53035000D01*
X87318816Y-53035000D01*
X87022257Y-53093989D01*
X86742905Y-53209701D01*
X86491495Y-53377688D01*
X86277688Y-53591495D01*
X86200000Y-53707763D01*
X86122312Y-53591495D01*
X85908505Y-53377688D01*
X85657095Y-53209701D01*
X85377743Y-53093989D01*
X85081184Y-53035000D01*
X84778816Y-53035000D01*
X84482257Y-53093989D01*
X84202905Y-53209701D01*
X83951495Y-53377688D01*
X83737688Y-53591495D01*
X83660000Y-53707763D01*
X83582312Y-53591495D01*
X83368505Y-53377688D01*
X83117095Y-53209701D01*
X82837743Y-53093989D01*
X82541184Y-53035000D01*
X82238816Y-53035000D01*
X81942257Y-53093989D01*
X81662905Y-53209701D01*
X81411495Y-53377688D01*
X81197688Y-53591495D01*
X81120000Y-53707763D01*
X81042312Y-53591495D01*
X80828505Y-53377688D01*
X80577095Y-53209701D01*
X80297743Y-53093989D01*
X80001184Y-53035000D01*
X79698816Y-53035000D01*
X79402257Y-53093989D01*
X79122905Y-53209701D01*
X78871495Y-53377688D01*
X78657688Y-53591495D01*
X78580000Y-53707763D01*
X78502312Y-53591495D01*
X78288505Y-53377688D01*
X78037095Y-53209701D01*
X77757743Y-53093989D01*
X77461184Y-53035000D01*
X77158816Y-53035000D01*
X76871581Y-53092134D01*
X68162359Y-44382913D01*
X68139338Y-44354862D01*
X68027420Y-44263013D01*
X67899733Y-44194763D01*
X67761185Y-44152735D01*
X67653205Y-44142100D01*
X67617100Y-44138544D01*
X67580995Y-44142100D01*
X65948847Y-44142100D01*
X65599655Y-43792908D01*
X65645506Y-43830537D01*
X65755820Y-43889502D01*
X65875518Y-43925812D01*
X66000000Y-43938072D01*
X66714250Y-43935000D01*
X66873000Y-43776250D01*
X66873000Y-42127000D01*
X65523750Y-42127000D01*
X65365000Y-42285750D01*
X65361928Y-43300000D01*
X65374188Y-43424482D01*
X65410498Y-43544180D01*
X65469463Y-43654494D01*
X65507092Y-43700345D01*
X63312559Y-41505813D01*
X63289538Y-41477762D01*
X63177620Y-41385913D01*
X63148586Y-41370394D01*
X63057852Y-41071285D01*
X62906031Y-40787248D01*
X62834429Y-40700000D01*
X65361928Y-40700000D01*
X65365000Y-41714250D01*
X65523750Y-41873000D01*
X66873000Y-41873000D01*
X66873000Y-40223750D01*
X66714250Y-40065000D01*
X66000000Y-40061928D01*
X65875518Y-40074188D01*
X65755820Y-40110498D01*
X65645506Y-40169463D01*
X65548815Y-40248815D01*
X65469463Y-40345506D01*
X65410498Y-40455820D01*
X65374188Y-40575518D01*
X65361928Y-40700000D01*
X62834429Y-40700000D01*
X62701714Y-40538286D01*
X62452751Y-40333969D01*
X62168714Y-40182148D01*
X61860515Y-40088657D01*
X61540000Y-40057089D01*
X61219484Y-40088657D01*
X60911285Y-40182148D01*
X60627248Y-40333969D01*
X60555739Y-40392655D01*
X60530537Y-40345506D01*
X60451185Y-40248815D01*
X60354494Y-40169463D01*
X60244180Y-40110498D01*
X60124482Y-40074188D01*
X60000000Y-40061928D01*
X59285750Y-40065000D01*
X59127000Y-40223750D01*
X59127000Y-41873000D01*
X59147000Y-41873000D01*
X59147000Y-42127000D01*
X59127000Y-42127000D01*
X59127000Y-43776250D01*
X59285750Y-43935000D01*
X60000000Y-43938072D01*
X60124482Y-43925812D01*
X60244180Y-43889502D01*
X60354494Y-43830537D01*
X60451185Y-43751185D01*
X60530537Y-43654494D01*
X60555739Y-43607345D01*
X60627249Y-43666031D01*
X60911286Y-43817852D01*
X61219485Y-43911343D01*
X61540000Y-43942911D01*
X61860516Y-43911343D01*
X62168715Y-43817852D01*
X62452752Y-43666031D01*
X62701714Y-43461714D01*
X62906031Y-43212752D01*
X62918074Y-43190221D01*
X65099146Y-45371293D01*
X65122162Y-45399338D01*
X65234080Y-45491187D01*
X65361767Y-45559437D01*
X65500315Y-45601465D01*
X65644400Y-45615656D01*
X65680505Y-45612100D01*
X67312654Y-45612100D01*
X74735553Y-53035000D01*
X74618816Y-53035000D01*
X74322257Y-53093989D01*
X74042905Y-53209701D01*
X73791495Y-53377688D01*
X73577688Y-53591495D01*
X73500000Y-53707763D01*
X73422312Y-53591495D01*
X73208505Y-53377688D01*
X72957095Y-53209701D01*
X72677743Y-53093989D01*
X72381184Y-53035000D01*
X72078816Y-53035000D01*
X71782257Y-53093989D01*
X71502905Y-53209701D01*
X71251495Y-53377688D01*
X71037688Y-53591495D01*
X70960000Y-53707763D01*
X70882312Y-53591495D01*
X70668505Y-53377688D01*
X70417095Y-53209701D01*
X70137743Y-53093989D01*
X69841184Y-53035000D01*
X69538816Y-53035000D01*
X69242257Y-53093989D01*
X68962905Y-53209701D01*
X68711495Y-53377688D01*
X68497688Y-53591495D01*
X68420000Y-53707763D01*
X68342312Y-53591495D01*
X68128505Y-53377688D01*
X67877095Y-53209701D01*
X67597743Y-53093989D01*
X67301184Y-53035000D01*
X66998816Y-53035000D01*
X66702257Y-53093989D01*
X66422905Y-53209701D01*
X66171495Y-53377688D01*
X65957688Y-53591495D01*
X65880000Y-53707763D01*
X65802312Y-53591495D01*
X65588505Y-53377688D01*
X65337095Y-53209701D01*
X65057743Y-53093989D01*
X64761184Y-53035000D01*
X64458816Y-53035000D01*
X64162257Y-53093989D01*
X63882905Y-53209701D01*
X63631495Y-53377688D01*
X63417688Y-53591495D01*
X63340000Y-53707763D01*
X63262312Y-53591495D01*
X63048505Y-53377688D01*
X62797095Y-53209701D01*
X62517743Y-53093989D01*
X62221184Y-53035000D01*
X61918816Y-53035000D01*
X61622257Y-53093989D01*
X61342905Y-53209701D01*
X61091495Y-53377688D01*
X60877688Y-53591495D01*
X60775049Y-53745105D01*
X60594080Y-53685525D01*
X59709605Y-54570000D01*
X59723748Y-54584143D01*
X59544143Y-54763748D01*
X59530000Y-54749605D01*
X58645525Y-55634080D01*
X58729208Y-55888261D01*
X59001775Y-56019158D01*
X59294642Y-56094365D01*
X59495147Y-56105407D01*
X46505808Y-69094746D01*
X46477762Y-69117763D01*
X46385913Y-69229681D01*
X46317663Y-69357368D01*
X46312932Y-69372965D01*
X46275635Y-69495915D01*
X46261444Y-69640000D01*
X46265000Y-69676105D01*
X46265001Y-105633385D01*
X46071285Y-105692148D01*
X45787248Y-105843969D01*
X45538286Y-106048286D01*
X45333969Y-106297248D01*
X45182148Y-106581285D01*
X45088657Y-106889484D01*
X45057089Y-107210000D01*
X40660000Y-107210000D01*
X40660000Y-98009683D01*
X40811269Y-98374879D01*
X41056862Y-98742436D01*
X41369444Y-99055018D01*
X41737001Y-99300611D01*
X42145409Y-99469779D01*
X42578972Y-99556021D01*
X43021030Y-99556021D01*
X43454593Y-99469779D01*
X43863001Y-99300611D01*
X44230558Y-99055018D01*
X44543140Y-98742436D01*
X44788733Y-98374879D01*
X44957901Y-97966471D01*
X45044143Y-97532908D01*
X45044143Y-97090850D01*
X44957901Y-96657287D01*
X44788733Y-96248879D01*
X44543140Y-95881322D01*
X44230558Y-95568740D01*
X43863001Y-95323147D01*
X43454593Y-95153979D01*
X43021030Y-95067737D01*
X42578972Y-95067737D01*
X42145409Y-95153979D01*
X41737001Y-95323147D01*
X41369444Y-95568740D01*
X41056862Y-95881322D01*
X40811269Y-96248879D01*
X40660000Y-96614075D01*
X40660000Y-54636553D01*
X57989009Y-54636553D01*
X58031603Y-54935907D01*
X58131778Y-55221199D01*
X58211739Y-55370792D01*
X58465920Y-55454475D01*
X59350395Y-54570000D01*
X58465920Y-53685525D01*
X58211739Y-53769208D01*
X58080842Y-54041775D01*
X58005635Y-54334642D01*
X57989009Y-54636553D01*
X40660000Y-54636553D01*
X40660000Y-53505920D01*
X58645525Y-53505920D01*
X59530000Y-54390395D01*
X60414475Y-53505920D01*
X60330792Y-53251739D01*
X60058225Y-53120842D01*
X59765358Y-53045635D01*
X59463447Y-53029009D01*
X59164093Y-53071603D01*
X58878801Y-53171778D01*
X58729208Y-53251739D01*
X58645525Y-53505920D01*
X40660000Y-53505920D01*
X40660000Y-43300000D01*
X49361928Y-43300000D01*
X49374188Y-43424482D01*
X49410498Y-43544180D01*
X49469463Y-43654494D01*
X49548815Y-43751185D01*
X49645506Y-43830537D01*
X49755820Y-43889502D01*
X49875518Y-43925812D01*
X50000000Y-43938072D01*
X50714250Y-43935000D01*
X50873000Y-43776250D01*
X50873000Y-42127000D01*
X49523750Y-42127000D01*
X49365000Y-42285750D01*
X49361928Y-43300000D01*
X40660000Y-43300000D01*
X40660000Y-40700000D01*
X49361928Y-40700000D01*
X49365000Y-41714250D01*
X49523750Y-41873000D01*
X50873000Y-41873000D01*
X50873000Y-40223750D01*
X51127000Y-40223750D01*
X51127000Y-41873000D01*
X51147000Y-41873000D01*
X51147000Y-42127000D01*
X51127000Y-42127000D01*
X51127000Y-43776250D01*
X51285750Y-43935000D01*
X52000000Y-43938072D01*
X52124482Y-43925812D01*
X52244180Y-43889502D01*
X52354494Y-43830537D01*
X52451185Y-43751185D01*
X52530537Y-43654494D01*
X52555739Y-43607345D01*
X52627249Y-43666031D01*
X52911286Y-43817852D01*
X53219485Y-43911343D01*
X53540000Y-43942911D01*
X53860516Y-43911343D01*
X54168715Y-43817852D01*
X54452752Y-43666031D01*
X54701714Y-43461714D01*
X54834428Y-43300000D01*
X57361928Y-43300000D01*
X57374188Y-43424482D01*
X57410498Y-43544180D01*
X57469463Y-43654494D01*
X57548815Y-43751185D01*
X57645506Y-43830537D01*
X57755820Y-43889502D01*
X57875518Y-43925812D01*
X58000000Y-43938072D01*
X58714250Y-43935000D01*
X58873000Y-43776250D01*
X58873000Y-42127000D01*
X57523750Y-42127000D01*
X57365000Y-42285750D01*
X57361928Y-43300000D01*
X54834428Y-43300000D01*
X54906031Y-43212752D01*
X55057852Y-42928715D01*
X55151343Y-42620515D01*
X55175000Y-42380321D01*
X55175000Y-41619678D01*
X55151343Y-41379484D01*
X55057852Y-41071285D01*
X54906031Y-40787248D01*
X54834429Y-40700000D01*
X57361928Y-40700000D01*
X57365000Y-41714250D01*
X57523750Y-41873000D01*
X58873000Y-41873000D01*
X58873000Y-40223750D01*
X58714250Y-40065000D01*
X58000000Y-40061928D01*
X57875518Y-40074188D01*
X57755820Y-40110498D01*
X57645506Y-40169463D01*
X57548815Y-40248815D01*
X57469463Y-40345506D01*
X57410498Y-40455820D01*
X57374188Y-40575518D01*
X57361928Y-40700000D01*
X54834429Y-40700000D01*
X54701714Y-40538286D01*
X54452751Y-40333969D01*
X54168714Y-40182148D01*
X53860515Y-40088657D01*
X53540000Y-40057089D01*
X53219484Y-40088657D01*
X52911285Y-40182148D01*
X52627248Y-40333969D01*
X52555739Y-40392655D01*
X52530537Y-40345506D01*
X52451185Y-40248815D01*
X52354494Y-40169463D01*
X52244180Y-40110498D01*
X52124482Y-40074188D01*
X52000000Y-40061928D01*
X51285750Y-40065000D01*
X51127000Y-40223750D01*
X50873000Y-40223750D01*
X50714250Y-40065000D01*
X50000000Y-40061928D01*
X49875518Y-40074188D01*
X49755820Y-40110498D01*
X49645506Y-40169463D01*
X49548815Y-40248815D01*
X49469463Y-40345506D01*
X49410498Y-40455820D01*
X49374188Y-40575518D01*
X49361928Y-40700000D01*
X40660000Y-40700000D01*
X40660000Y-39009683D01*
X40811269Y-39374879D01*
X41056862Y-39742436D01*
X41369444Y-40055018D01*
X41737001Y-40300611D01*
X42145409Y-40469779D01*
X42578972Y-40556021D01*
X43021030Y-40556021D01*
X43454593Y-40469779D01*
X43863001Y-40300611D01*
X44230558Y-40055018D01*
X44543140Y-39742436D01*
X44788733Y-39374879D01*
X44957901Y-38966471D01*
X45044143Y-38532908D01*
X45044143Y-38090850D01*
X100555859Y-38090850D01*
X100555859Y-38532908D01*
X100642101Y-38966471D01*
X100811269Y-39374879D01*
X101056862Y-39742436D01*
X101369444Y-40055018D01*
X101737001Y-40300611D01*
X102145409Y-40469779D01*
X102578972Y-40556021D01*
X103021030Y-40556021D01*
X103454593Y-40469779D01*
X103863001Y-40300611D01*
X104230558Y-40055018D01*
X104543140Y-39742436D01*
X104788733Y-39374879D01*
X104957901Y-38966471D01*
X105044143Y-38532908D01*
X105044143Y-38090850D01*
X104957901Y-37657287D01*
X104788733Y-37248879D01*
X104543140Y-36881322D01*
X104230558Y-36568740D01*
X103863001Y-36323147D01*
X103454593Y-36153979D01*
X103021030Y-36067737D01*
X102578972Y-36067737D01*
X102145409Y-36153979D01*
X101737001Y-36323147D01*
X101369444Y-36568740D01*
X101056862Y-36881322D01*
X100811269Y-37248879D01*
X100642101Y-37657287D01*
X100555859Y-38090850D01*
X45044143Y-38090850D01*
X44957901Y-37657287D01*
X44788733Y-37248879D01*
X44543140Y-36881322D01*
X44230558Y-36568740D01*
X43863001Y-36323147D01*
X43454593Y-36153979D01*
X43021030Y-36067737D01*
X42578972Y-36067737D01*
X42145409Y-36153979D01*
X41737001Y-36323147D01*
X41369444Y-36568740D01*
X41056862Y-36881322D01*
X40811269Y-37248879D01*
X40660000Y-37614075D01*
X40660000Y-36532277D01*
X40679102Y-36337460D01*
X40726308Y-36181106D01*
X40802982Y-36036904D01*
X40906207Y-35910337D01*
X41032051Y-35806231D01*
X41175711Y-35728553D01*
X41331729Y-35680258D01*
X41524473Y-35660000D01*
X104967723Y-35660000D01*
X105162540Y-35679102D01*
G37*
G04 #@! TD.AperFunction*
D21*
X91357688Y-55548505D02*
X91571495Y-55762312D01*
X91822905Y-55930299D01*
X92102257Y-56046011D01*
X92398816Y-56105000D01*
X92701184Y-56105000D01*
X92976401Y-56050256D01*
X92976400Y-68344153D01*
X85368419Y-75952134D01*
X85081184Y-75895000D01*
X84778816Y-75895000D01*
X84482257Y-75953989D01*
X84202905Y-76069701D01*
X83951495Y-76237688D01*
X83737688Y-76451495D01*
X83635049Y-76605105D01*
X83454080Y-76545525D01*
X82569605Y-77430000D01*
X83454080Y-78314475D01*
X83635049Y-78254895D01*
X83737688Y-78408505D01*
X83951495Y-78622312D01*
X84202905Y-78790299D01*
X84482257Y-78906011D01*
X84778816Y-78965000D01*
X85081184Y-78965000D01*
X85377743Y-78906011D01*
X85657095Y-78790299D01*
X85908505Y-78622312D01*
X86122312Y-78408505D01*
X86200000Y-78292237D01*
X86277688Y-78408505D01*
X86491495Y-78622312D01*
X86742905Y-78790299D01*
X87022257Y-78906011D01*
X87318816Y-78965000D01*
X87621184Y-78965000D01*
X87917743Y-78906011D01*
X88197095Y-78790299D01*
X88448505Y-78622312D01*
X88662312Y-78408505D01*
X88740000Y-78292237D01*
X88817688Y-78408505D01*
X89031495Y-78622312D01*
X89282905Y-78790299D01*
X89562257Y-78906011D01*
X89858816Y-78965000D01*
X90161184Y-78965000D01*
X90457743Y-78906011D01*
X90737095Y-78790299D01*
X90988505Y-78622312D01*
X91202312Y-78408505D01*
X91280000Y-78292237D01*
X91357688Y-78408505D01*
X91571495Y-78622312D01*
X91822905Y-78790299D01*
X92102257Y-78906011D01*
X92398816Y-78965000D01*
X92701184Y-78965000D01*
X92997743Y-78906011D01*
X93277095Y-78790299D01*
X93528505Y-78622312D01*
X93742312Y-78408505D01*
X93820000Y-78292237D01*
X93897688Y-78408505D01*
X94111495Y-78622312D01*
X94362905Y-78790299D01*
X94642257Y-78906011D01*
X94938816Y-78965000D01*
X95241184Y-78965000D01*
X95537743Y-78906011D01*
X95817095Y-78790299D01*
X95908720Y-78729077D01*
X95927563Y-78752038D01*
X95955608Y-78775054D01*
X96042400Y-78861846D01*
X96042401Y-82113465D01*
X95535750Y-82115000D01*
X95377000Y-82273750D01*
X95377000Y-83623000D01*
X95397000Y-83623000D01*
X95397000Y-83877000D01*
X95377000Y-83877000D01*
X95377000Y-83897000D01*
X95123000Y-83897000D01*
X95123000Y-83877000D01*
X93473750Y-83877000D01*
X93315000Y-84035750D01*
X93314111Y-84242400D01*
X82621847Y-84242400D01*
X81129447Y-82750000D01*
X93311928Y-82750000D01*
X93315000Y-83464250D01*
X93473750Y-83623000D01*
X95123000Y-83623000D01*
X95123000Y-82273750D01*
X94964250Y-82115000D01*
X93950000Y-82111928D01*
X93825518Y-82124188D01*
X93705820Y-82160498D01*
X93595506Y-82219463D01*
X93498815Y-82298815D01*
X93419463Y-82395506D01*
X93360498Y-82505820D01*
X93324188Y-82625518D01*
X93311928Y-82750000D01*
X81129447Y-82750000D01*
X77344446Y-78965000D01*
X77461184Y-78965000D01*
X77757743Y-78906011D01*
X78037095Y-78790299D01*
X78288505Y-78622312D01*
X78416737Y-78494080D01*
X78965525Y-78494080D01*
X79049208Y-78748261D01*
X79321775Y-78879158D01*
X79614642Y-78954365D01*
X79916553Y-78970991D01*
X80215907Y-78928397D01*
X80501199Y-78828222D01*
X80650792Y-78748261D01*
X80734475Y-78494080D01*
X81505525Y-78494080D01*
X81589208Y-78748261D01*
X81861775Y-78879158D01*
X82154642Y-78954365D01*
X82456553Y-78970991D01*
X82755907Y-78928397D01*
X83041199Y-78828222D01*
X83190792Y-78748261D01*
X83274475Y-78494080D01*
X82390000Y-77609605D01*
X81505525Y-78494080D01*
X80734475Y-78494080D01*
X79850000Y-77609605D01*
X78965525Y-78494080D01*
X78416737Y-78494080D01*
X78502312Y-78408505D01*
X78604951Y-78254895D01*
X78785920Y-78314475D01*
X79670395Y-77430000D01*
X80029605Y-77430000D01*
X80914080Y-78314475D01*
X81120000Y-78246681D01*
X81325920Y-78314475D01*
X82210395Y-77430000D01*
X81325920Y-76545525D01*
X81120000Y-76613319D01*
X80914080Y-76545525D01*
X80029605Y-77430000D01*
X79670395Y-77430000D01*
X78785920Y-76545525D01*
X78604951Y-76605105D01*
X78502312Y-76451495D01*
X78416737Y-76365920D01*
X78965525Y-76365920D01*
X79850000Y-77250395D01*
X80734475Y-76365920D01*
X81505525Y-76365920D01*
X82390000Y-77250395D01*
X83274475Y-76365920D01*
X83190792Y-76111739D01*
X82918225Y-75980842D01*
X82625358Y-75905635D01*
X82323447Y-75889009D01*
X82024093Y-75931603D01*
X81738801Y-76031778D01*
X81589208Y-76111739D01*
X81505525Y-76365920D01*
X80734475Y-76365920D01*
X80650792Y-76111739D01*
X80378225Y-75980842D01*
X80085358Y-75905635D01*
X79783447Y-75889009D01*
X79484093Y-75931603D01*
X79198801Y-76031778D01*
X79049208Y-76111739D01*
X78965525Y-76365920D01*
X78416737Y-76365920D01*
X78288505Y-76237688D01*
X78037095Y-76069701D01*
X77757743Y-75953989D01*
X77461184Y-75895000D01*
X77158816Y-75895000D01*
X76871581Y-75952134D01*
X76716358Y-75796912D01*
X76693338Y-75768862D01*
X76581420Y-75677013D01*
X76453733Y-75608763D01*
X76315185Y-75566735D01*
X76207205Y-75556100D01*
X76171100Y-75552544D01*
X76134995Y-75556100D01*
X69213005Y-75556100D01*
X69176900Y-75552544D01*
X69140795Y-75556100D01*
X69032815Y-75566735D01*
X68894267Y-75608763D01*
X68766580Y-75677013D01*
X68654662Y-75768862D01*
X68631646Y-75796907D01*
X68159685Y-76268868D01*
X68128505Y-76237688D01*
X67922864Y-76100283D01*
X71630047Y-72393100D01*
X72885795Y-72393100D01*
X72921900Y-72396656D01*
X72958005Y-72393100D01*
X73065985Y-72382465D01*
X73204533Y-72340437D01*
X73332220Y-72272187D01*
X73444138Y-72180338D01*
X73467159Y-72152287D01*
X89571581Y-56047866D01*
X89858816Y-56105000D01*
X90161184Y-56105000D01*
X90457743Y-56046011D01*
X90737095Y-55930299D01*
X90988505Y-55762312D01*
X91202312Y-55548505D01*
X91280000Y-55432237D01*
X91357688Y-55548505D01*
G04 #@! TA.AperFunction,Conductor*
D22*
G36*
X91357688Y-55548505D02*
G01*
X91571495Y-55762312D01*
X91822905Y-55930299D01*
X92102257Y-56046011D01*
X92398816Y-56105000D01*
X92701184Y-56105000D01*
X92976401Y-56050256D01*
X92976400Y-68344153D01*
X85368419Y-75952134D01*
X85081184Y-75895000D01*
X84778816Y-75895000D01*
X84482257Y-75953989D01*
X84202905Y-76069701D01*
X83951495Y-76237688D01*
X83737688Y-76451495D01*
X83635049Y-76605105D01*
X83454080Y-76545525D01*
X82569605Y-77430000D01*
X83454080Y-78314475D01*
X83635049Y-78254895D01*
X83737688Y-78408505D01*
X83951495Y-78622312D01*
X84202905Y-78790299D01*
X84482257Y-78906011D01*
X84778816Y-78965000D01*
X85081184Y-78965000D01*
X85377743Y-78906011D01*
X85657095Y-78790299D01*
X85908505Y-78622312D01*
X86122312Y-78408505D01*
X86200000Y-78292237D01*
X86277688Y-78408505D01*
X86491495Y-78622312D01*
X86742905Y-78790299D01*
X87022257Y-78906011D01*
X87318816Y-78965000D01*
X87621184Y-78965000D01*
X87917743Y-78906011D01*
X88197095Y-78790299D01*
X88448505Y-78622312D01*
X88662312Y-78408505D01*
X88740000Y-78292237D01*
X88817688Y-78408505D01*
X89031495Y-78622312D01*
X89282905Y-78790299D01*
X89562257Y-78906011D01*
X89858816Y-78965000D01*
X90161184Y-78965000D01*
X90457743Y-78906011D01*
X90737095Y-78790299D01*
X90988505Y-78622312D01*
X91202312Y-78408505D01*
X91280000Y-78292237D01*
X91357688Y-78408505D01*
X91571495Y-78622312D01*
X91822905Y-78790299D01*
X92102257Y-78906011D01*
X92398816Y-78965000D01*
X92701184Y-78965000D01*
X92997743Y-78906011D01*
X93277095Y-78790299D01*
X93528505Y-78622312D01*
X93742312Y-78408505D01*
X93820000Y-78292237D01*
X93897688Y-78408505D01*
X94111495Y-78622312D01*
X94362905Y-78790299D01*
X94642257Y-78906011D01*
X94938816Y-78965000D01*
X95241184Y-78965000D01*
X95537743Y-78906011D01*
X95817095Y-78790299D01*
X95908720Y-78729077D01*
X95927563Y-78752038D01*
X95955608Y-78775054D01*
X96042400Y-78861846D01*
X96042401Y-82113465D01*
X95535750Y-82115000D01*
X95377000Y-82273750D01*
X95377000Y-83623000D01*
X95397000Y-83623000D01*
X95397000Y-83877000D01*
X95377000Y-83877000D01*
X95377000Y-83897000D01*
X95123000Y-83897000D01*
X95123000Y-83877000D01*
X93473750Y-83877000D01*
X93315000Y-84035750D01*
X93314111Y-84242400D01*
X82621847Y-84242400D01*
X81129447Y-82750000D01*
X93311928Y-82750000D01*
X93315000Y-83464250D01*
X93473750Y-83623000D01*
X95123000Y-83623000D01*
X95123000Y-82273750D01*
X94964250Y-82115000D01*
X93950000Y-82111928D01*
X93825518Y-82124188D01*
X93705820Y-82160498D01*
X93595506Y-82219463D01*
X93498815Y-82298815D01*
X93419463Y-82395506D01*
X93360498Y-82505820D01*
X93324188Y-82625518D01*
X93311928Y-82750000D01*
X81129447Y-82750000D01*
X77344446Y-78965000D01*
X77461184Y-78965000D01*
X77757743Y-78906011D01*
X78037095Y-78790299D01*
X78288505Y-78622312D01*
X78416737Y-78494080D01*
X78965525Y-78494080D01*
X79049208Y-78748261D01*
X79321775Y-78879158D01*
X79614642Y-78954365D01*
X79916553Y-78970991D01*
X80215907Y-78928397D01*
X80501199Y-78828222D01*
X80650792Y-78748261D01*
X80734475Y-78494080D01*
X81505525Y-78494080D01*
X81589208Y-78748261D01*
X81861775Y-78879158D01*
X82154642Y-78954365D01*
X82456553Y-78970991D01*
X82755907Y-78928397D01*
X83041199Y-78828222D01*
X83190792Y-78748261D01*
X83274475Y-78494080D01*
X82390000Y-77609605D01*
X81505525Y-78494080D01*
X80734475Y-78494080D01*
X79850000Y-77609605D01*
X78965525Y-78494080D01*
X78416737Y-78494080D01*
X78502312Y-78408505D01*
X78604951Y-78254895D01*
X78785920Y-78314475D01*
X79670395Y-77430000D01*
X80029605Y-77430000D01*
X80914080Y-78314475D01*
X81120000Y-78246681D01*
X81325920Y-78314475D01*
X82210395Y-77430000D01*
X81325920Y-76545525D01*
X81120000Y-76613319D01*
X80914080Y-76545525D01*
X80029605Y-77430000D01*
X79670395Y-77430000D01*
X78785920Y-76545525D01*
X78604951Y-76605105D01*
X78502312Y-76451495D01*
X78416737Y-76365920D01*
X78965525Y-76365920D01*
X79850000Y-77250395D01*
X80734475Y-76365920D01*
X81505525Y-76365920D01*
X82390000Y-77250395D01*
X83274475Y-76365920D01*
X83190792Y-76111739D01*
X82918225Y-75980842D01*
X82625358Y-75905635D01*
X82323447Y-75889009D01*
X82024093Y-75931603D01*
X81738801Y-76031778D01*
X81589208Y-76111739D01*
X81505525Y-76365920D01*
X80734475Y-76365920D01*
X80650792Y-76111739D01*
X80378225Y-75980842D01*
X80085358Y-75905635D01*
X79783447Y-75889009D01*
X79484093Y-75931603D01*
X79198801Y-76031778D01*
X79049208Y-76111739D01*
X78965525Y-76365920D01*
X78416737Y-76365920D01*
X78288505Y-76237688D01*
X78037095Y-76069701D01*
X77757743Y-75953989D01*
X77461184Y-75895000D01*
X77158816Y-75895000D01*
X76871581Y-75952134D01*
X76716358Y-75796912D01*
X76693338Y-75768862D01*
X76581420Y-75677013D01*
X76453733Y-75608763D01*
X76315185Y-75566735D01*
X76207205Y-75556100D01*
X76171100Y-75552544D01*
X76134995Y-75556100D01*
X69213005Y-75556100D01*
X69176900Y-75552544D01*
X69140795Y-75556100D01*
X69032815Y-75566735D01*
X68894267Y-75608763D01*
X68766580Y-75677013D01*
X68654662Y-75768862D01*
X68631646Y-75796907D01*
X68159685Y-76268868D01*
X68128505Y-76237688D01*
X67922864Y-76100283D01*
X71630047Y-72393100D01*
X72885795Y-72393100D01*
X72921900Y-72396656D01*
X72958005Y-72393100D01*
X73065985Y-72382465D01*
X73204533Y-72340437D01*
X73332220Y-72272187D01*
X73444138Y-72180338D01*
X73467159Y-72152287D01*
X89571581Y-56047866D01*
X89858816Y-56105000D01*
X90161184Y-56105000D01*
X90457743Y-56046011D01*
X90737095Y-55930299D01*
X90988505Y-55762312D01*
X91202312Y-55548505D01*
X91280000Y-55432237D01*
X91357688Y-55548505D01*
G37*
G04 #@! TD.AperFunction*
M02*
