G04 #@! TF.GenerationSoftware,KiCad,Pcbnew,(5.1.8)-1*
G04 #@! TF.CreationDate,2021-06-27T16:21:37+02:00*
G04 #@! TF.ProjectId,sdr-controller,7364722d-636f-46e7-9472-6f6c6c65722e,rev?*
G04 #@! TF.SameCoordinates,Original*
G04 #@! TF.FileFunction,Soldermask,Bot*
G04 #@! TF.FilePolarity,Negative*
%FSLAX46Y46*%
G04 Gerber Fmt 4.6, Leading zero omitted, Abs format (unit mm)*
G04 Created by KiCad (PCBNEW (5.1.8)-1) date 2021-06-27 16:21:37*
%MOMM*%
%LPD*%
G01*
G04 APERTURE LIST*
%ADD10R,2.000000X2.600000*%
%ADD11O,2.000000X2.600000*%
%ADD12R,2.600000X2.000000*%
%ADD13O,2.600000X2.000000*%
%ADD14C,1.800000*%
%ADD15C,1.600000*%
%ADD16R,1.600000X1.600000*%
%ADD17R,1.700000X1.700000*%
%ADD18O,1.700000X1.700000*%
G04 APERTURE END LIST*
D10*
X97830000Y-109250000D03*
D11*
X95290000Y-109250000D03*
X92750000Y-109250000D03*
X90210000Y-109250000D03*
X87670000Y-109250000D03*
D10*
X73500000Y-109250000D03*
D11*
X70960000Y-109250000D03*
X68420000Y-109250000D03*
X65880000Y-109250000D03*
X63340000Y-109250000D03*
D12*
X47000000Y-109750000D03*
D13*
X47000000Y-107210000D03*
D10*
X95500000Y-42500000D03*
D11*
X92960000Y-42500000D03*
X90420000Y-42500000D03*
X87880000Y-42500000D03*
X85340000Y-42500000D03*
X82800000Y-42500000D03*
X80260000Y-42500000D03*
D12*
X95250000Y-83750000D03*
D13*
X95250000Y-86290000D03*
X95250000Y-88830000D03*
X95250000Y-91370000D03*
X95250000Y-93910000D03*
X95250000Y-96450000D03*
X95250000Y-98990000D03*
D10*
X51000000Y-42000000D03*
D11*
X53540000Y-42000000D03*
D10*
X59000000Y-42000000D03*
D11*
X61540000Y-42000000D03*
D10*
X57000000Y-91000000D03*
D11*
X59540000Y-91000000D03*
D10*
X48750000Y-91000000D03*
D11*
X51290000Y-91000000D03*
D10*
X67000000Y-42000000D03*
D11*
X69540000Y-42000000D03*
D14*
X49370000Y-77430000D03*
X51910000Y-77430000D03*
X54450000Y-77430000D03*
X56990000Y-77430000D03*
X59530000Y-77430000D03*
X62070000Y-77430000D03*
X64610000Y-77430000D03*
X67150000Y-77430000D03*
X69690000Y-77430000D03*
X72230000Y-77430000D03*
X74770000Y-77430000D03*
X77310000Y-77430000D03*
X59530000Y-54570000D03*
X62070000Y-54570000D03*
X64610000Y-54570000D03*
X67150000Y-54570000D03*
X69690000Y-54570000D03*
X72230000Y-54570000D03*
X74770000Y-54570000D03*
X77310000Y-54570000D03*
X79850000Y-54570000D03*
X82390000Y-54570000D03*
X84930000Y-54570000D03*
X87470000Y-54570000D03*
X90010000Y-54570000D03*
X92550000Y-54570000D03*
X95090000Y-54570000D03*
X97630000Y-54570000D03*
X79850000Y-77430000D03*
X82390000Y-77430000D03*
X84930000Y-77430000D03*
X87470000Y-77430000D03*
X90010000Y-77430000D03*
X92550000Y-77430000D03*
X95090000Y-77430000D03*
X97630000Y-77430000D03*
D15*
X85030000Y-86880000D03*
X85030000Y-94500000D03*
X67250000Y-86880000D03*
X69790000Y-86880000D03*
X72330000Y-86880000D03*
X74870000Y-86880000D03*
X77410000Y-86880000D03*
X79950000Y-86880000D03*
X82490000Y-86880000D03*
X82490000Y-94500000D03*
X79950000Y-94500000D03*
X77410000Y-94500000D03*
X74870000Y-94500000D03*
X72330000Y-94500000D03*
X69790000Y-94500000D03*
D16*
X67250000Y-94500000D03*
D17*
X63500000Y-101250000D03*
D18*
X66040000Y-101250000D03*
X68580000Y-101250000D03*
X71120000Y-101250000D03*
X73660000Y-101250000D03*
X76200000Y-101250000D03*
X78740000Y-101250000D03*
X81280000Y-101250000D03*
X83820000Y-101250000D03*
X86360000Y-101250000D03*
M02*
