G04 #@! TF.GenerationSoftware,KiCad,Pcbnew,(5.1.8)-1*
G04 #@! TF.CreationDate,2021-06-27T16:21:36+02:00*
G04 #@! TF.ProjectId,sdr-controller,7364722d-636f-46e7-9472-6f6c6c65722e,rev?*
G04 #@! TF.SameCoordinates,Original*
G04 #@! TF.FileFunction,Legend,Top*
G04 #@! TF.FilePolarity,Positive*
%FSLAX46Y46*%
G04 Gerber Fmt 4.6, Leading zero omitted, Abs format (unit mm)*
G04 Created by KiCad (PCBNEW (5.1.8)-1) date 2021-06-27 16:21:37*
%MOMM*%
%LPD*%
G01*
G04 APERTURE LIST*
%ADD10C,0.200000*%
%ADD11C,0.150000*%
%ADD12C,0.120000*%
%ADD13C,0.100000*%
%ADD14R,2.000000X2.600000*%
%ADD15O,2.000000X2.600000*%
%ADD16R,2.600000X2.000000*%
%ADD17O,2.600000X2.000000*%
%ADD18R,1.500000X1.800000*%
%ADD19C,1.800000*%
%ADD20C,1.600000*%
%ADD21R,1.600000X1.600000*%
%ADD22R,1.700000X1.700000*%
%ADD23O,1.700000X1.700000*%
G04 APERTURE END LIST*
D10*
X43357142Y-80523809D02*
X43404761Y-80571428D01*
X43452380Y-80714285D01*
X43452380Y-80809523D01*
X43404761Y-80952380D01*
X43309523Y-81047619D01*
X43214285Y-81095238D01*
X43023809Y-81142857D01*
X42880952Y-81142857D01*
X42690476Y-81095238D01*
X42595238Y-81047619D01*
X42500000Y-80952380D01*
X42452380Y-80809523D01*
X42452380Y-80714285D01*
X42500000Y-80571428D01*
X42547619Y-80523809D01*
X42976190Y-79904761D02*
X43452380Y-79904761D01*
X42452380Y-80238095D02*
X42976190Y-79904761D01*
X42452380Y-79571428D01*
X42928571Y-78904761D02*
X42976190Y-78761904D01*
X43023809Y-78714285D01*
X43119047Y-78666666D01*
X43261904Y-78666666D01*
X43357142Y-78714285D01*
X43404761Y-78761904D01*
X43452380Y-78857142D01*
X43452380Y-79238095D01*
X42452380Y-79238095D01*
X42452380Y-78904761D01*
X42500000Y-78809523D01*
X42547619Y-78761904D01*
X42642857Y-78714285D01*
X42738095Y-78714285D01*
X42833333Y-78761904D01*
X42880952Y-78809523D01*
X42928571Y-78904761D01*
X42928571Y-79238095D01*
X42928571Y-78238095D02*
X42928571Y-77904761D01*
X43452380Y-77761904D02*
X43452380Y-78238095D01*
X42452380Y-78238095D01*
X42452380Y-77761904D01*
X43452380Y-76761904D02*
X42976190Y-77095238D01*
X43452380Y-77333333D02*
X42452380Y-77333333D01*
X42452380Y-76952380D01*
X42500000Y-76857142D01*
X42547619Y-76809523D01*
X42642857Y-76761904D01*
X42785714Y-76761904D01*
X42880952Y-76809523D01*
X42928571Y-76857142D01*
X42976190Y-76952380D01*
X42976190Y-77333333D01*
X43452380Y-76333333D02*
X42452380Y-76333333D01*
X42452380Y-76095238D01*
X42500000Y-75952380D01*
X42595238Y-75857142D01*
X42690476Y-75809523D01*
X42880952Y-75761904D01*
X43023809Y-75761904D01*
X43214285Y-75809523D01*
X43309523Y-75857142D01*
X43404761Y-75952380D01*
X43452380Y-76095238D01*
X43452380Y-76333333D01*
X42928571Y-75333333D02*
X42928571Y-75000000D01*
X43452380Y-74857142D02*
X43452380Y-75333333D01*
X42452380Y-75333333D01*
X42452380Y-74857142D01*
X43357142Y-73857142D02*
X43404761Y-73904761D01*
X43452380Y-74047619D01*
X43452380Y-74142857D01*
X43404761Y-74285714D01*
X43309523Y-74380952D01*
X43214285Y-74428571D01*
X43023809Y-74476190D01*
X42880952Y-74476190D01*
X42690476Y-74428571D01*
X42595238Y-74380952D01*
X42500000Y-74285714D01*
X42452380Y-74142857D01*
X42452380Y-74047619D01*
X42500000Y-73904761D01*
X42547619Y-73857142D01*
X43452380Y-73428571D02*
X42452380Y-73428571D01*
X43452380Y-72857142D02*
X42880952Y-73285714D01*
X42452380Y-72857142D02*
X43023809Y-73428571D01*
X43071428Y-72428571D02*
X43071428Y-71666666D01*
X43404761Y-71238095D02*
X43452380Y-71095238D01*
X43452380Y-70857142D01*
X43404761Y-70761904D01*
X43357142Y-70714285D01*
X43261904Y-70666666D01*
X43166666Y-70666666D01*
X43071428Y-70714285D01*
X43023809Y-70761904D01*
X42976190Y-70857142D01*
X42928571Y-71047619D01*
X42880952Y-71142857D01*
X42833333Y-71190476D01*
X42738095Y-71238095D01*
X42642857Y-71238095D01*
X42547619Y-71190476D01*
X42500000Y-71142857D01*
X42452380Y-71047619D01*
X42452380Y-70809523D01*
X42500000Y-70666666D01*
X43452380Y-70238095D02*
X42452380Y-70238095D01*
X42452380Y-70000000D01*
X42500000Y-69857142D01*
X42595238Y-69761904D01*
X42690476Y-69714285D01*
X42880952Y-69666666D01*
X43023809Y-69666666D01*
X43214285Y-69714285D01*
X43309523Y-69761904D01*
X43404761Y-69857142D01*
X43452380Y-70000000D01*
X43452380Y-70238095D01*
X43452380Y-68666666D02*
X42976190Y-69000000D01*
X43452380Y-69238095D02*
X42452380Y-69238095D01*
X42452380Y-68857142D01*
X42500000Y-68761904D01*
X42547619Y-68714285D01*
X42642857Y-68666666D01*
X42785714Y-68666666D01*
X42880952Y-68714285D01*
X42928571Y-68761904D01*
X42976190Y-68857142D01*
X42976190Y-69238095D01*
X43071428Y-68238095D02*
X43071428Y-67476190D01*
X43357142Y-66428571D02*
X43404761Y-66476190D01*
X43452380Y-66619047D01*
X43452380Y-66714285D01*
X43404761Y-66857142D01*
X43309523Y-66952380D01*
X43214285Y-67000000D01*
X43023809Y-67047619D01*
X42880952Y-67047619D01*
X42690476Y-67000000D01*
X42595238Y-66952380D01*
X42500000Y-66857142D01*
X42452380Y-66714285D01*
X42452380Y-66619047D01*
X42500000Y-66476190D01*
X42547619Y-66428571D01*
X42452380Y-66142857D02*
X42452380Y-65571428D01*
X43452380Y-65857142D02*
X42452380Y-65857142D01*
X43452380Y-64666666D02*
X42976190Y-65000000D01*
X43452380Y-65238095D02*
X42452380Y-65238095D01*
X42452380Y-64857142D01*
X42500000Y-64761904D01*
X42547619Y-64714285D01*
X42642857Y-64666666D01*
X42785714Y-64666666D01*
X42880952Y-64714285D01*
X42928571Y-64761904D01*
X42976190Y-64857142D01*
X42976190Y-65238095D01*
X43452380Y-63761904D02*
X43452380Y-64238095D01*
X42452380Y-64238095D01*
D11*
X40464285Y-107071428D02*
X41226190Y-107071428D01*
X40845238Y-107452380D02*
X40845238Y-106690476D01*
X42178571Y-106452380D02*
X41702380Y-106452380D01*
X41654761Y-106928571D01*
X41702380Y-106880952D01*
X41797619Y-106833333D01*
X42035714Y-106833333D01*
X42130952Y-106880952D01*
X42178571Y-106928571D01*
X42226190Y-107023809D01*
X42226190Y-107261904D01*
X42178571Y-107357142D01*
X42130952Y-107404761D01*
X42035714Y-107452380D01*
X41797619Y-107452380D01*
X41702380Y-107404761D01*
X41654761Y-107357142D01*
X42511904Y-106452380D02*
X42845238Y-107452380D01*
X43178571Y-106452380D01*
X40988095Y-109250000D02*
X40892857Y-109202380D01*
X40750000Y-109202380D01*
X40607142Y-109250000D01*
X40511904Y-109345238D01*
X40464285Y-109440476D01*
X40416666Y-109630952D01*
X40416666Y-109773809D01*
X40464285Y-109964285D01*
X40511904Y-110059523D01*
X40607142Y-110154761D01*
X40750000Y-110202380D01*
X40845238Y-110202380D01*
X40988095Y-110154761D01*
X41035714Y-110107142D01*
X41035714Y-109773809D01*
X40845238Y-109773809D01*
X41464285Y-110202380D02*
X41464285Y-109202380D01*
X42035714Y-110202380D01*
X42035714Y-109202380D01*
X42511904Y-110202380D02*
X42511904Y-109202380D01*
X42750000Y-109202380D01*
X42892857Y-109250000D01*
X42988095Y-109345238D01*
X43035714Y-109440476D01*
X43083333Y-109630952D01*
X43083333Y-109773809D01*
X43035714Y-109964285D01*
X42988095Y-110059523D01*
X42892857Y-110154761D01*
X42750000Y-110202380D01*
X42511904Y-110202380D01*
X87666666Y-113488095D02*
X87666666Y-113011904D01*
X87952380Y-113583333D02*
X86952380Y-113250000D01*
X87952380Y-112916666D01*
X97928571Y-113464285D02*
X97928571Y-113130952D01*
X98452380Y-112988095D02*
X98452380Y-113464285D01*
X97452380Y-113464285D01*
X97452380Y-112988095D01*
X93107142Y-112940476D02*
X93154761Y-112988095D01*
X93202380Y-113130952D01*
X93202380Y-113226190D01*
X93154761Y-113369047D01*
X93059523Y-113464285D01*
X92964285Y-113511904D01*
X92773809Y-113559523D01*
X92630952Y-113559523D01*
X92440476Y-113511904D01*
X92345238Y-113464285D01*
X92250000Y-113369047D01*
X92202380Y-113226190D01*
X92202380Y-113130952D01*
X92250000Y-112988095D01*
X92297619Y-112940476D01*
X95952380Y-113511904D02*
X94952380Y-113511904D01*
X94952380Y-113273809D01*
X95000000Y-113130952D01*
X95095238Y-113035714D01*
X95190476Y-112988095D01*
X95380952Y-112940476D01*
X95523809Y-112940476D01*
X95714285Y-112988095D01*
X95809523Y-113035714D01*
X95904761Y-113130952D01*
X95952380Y-113273809D01*
X95952380Y-113511904D01*
X90178571Y-113178571D02*
X90226190Y-113035714D01*
X90273809Y-112988095D01*
X90369047Y-112940476D01*
X90511904Y-112940476D01*
X90607142Y-112988095D01*
X90654761Y-113035714D01*
X90702380Y-113130952D01*
X90702380Y-113511904D01*
X89702380Y-113511904D01*
X89702380Y-113178571D01*
X89750000Y-113083333D01*
X89797619Y-113035714D01*
X89892857Y-112988095D01*
X89988095Y-112988095D01*
X90083333Y-113035714D01*
X90130952Y-113083333D01*
X90178571Y-113178571D01*
X90178571Y-113511904D01*
X63416666Y-113488095D02*
X63416666Y-113011904D01*
X63702380Y-113583333D02*
X62702380Y-113250000D01*
X63702380Y-112916666D01*
X73678571Y-113464285D02*
X73678571Y-113130952D01*
X74202380Y-112988095D02*
X74202380Y-113464285D01*
X73202380Y-113464285D01*
X73202380Y-112988095D01*
X68857142Y-112940476D02*
X68904761Y-112988095D01*
X68952380Y-113130952D01*
X68952380Y-113226190D01*
X68904761Y-113369047D01*
X68809523Y-113464285D01*
X68714285Y-113511904D01*
X68523809Y-113559523D01*
X68380952Y-113559523D01*
X68190476Y-113511904D01*
X68095238Y-113464285D01*
X68000000Y-113369047D01*
X67952380Y-113226190D01*
X67952380Y-113130952D01*
X68000000Y-112988095D01*
X68047619Y-112940476D01*
X65928571Y-113178571D02*
X65976190Y-113035714D01*
X66023809Y-112988095D01*
X66119047Y-112940476D01*
X66261904Y-112940476D01*
X66357142Y-112988095D01*
X66404761Y-113035714D01*
X66452380Y-113130952D01*
X66452380Y-113511904D01*
X65452380Y-113511904D01*
X65452380Y-113178571D01*
X65500000Y-113083333D01*
X65547619Y-113035714D01*
X65642857Y-112988095D01*
X65738095Y-112988095D01*
X65833333Y-113035714D01*
X65880952Y-113083333D01*
X65928571Y-113178571D01*
X65928571Y-113511904D01*
X71702380Y-113511904D02*
X70702380Y-113511904D01*
X70702380Y-113273809D01*
X70750000Y-113130952D01*
X70845238Y-113035714D01*
X70940476Y-112988095D01*
X71130952Y-112940476D01*
X71273809Y-112940476D01*
X71464285Y-112988095D01*
X71559523Y-113035714D01*
X71654761Y-113130952D01*
X71702380Y-113273809D01*
X71702380Y-113511904D01*
X90928571Y-96880952D02*
X90928571Y-96547619D01*
X91452380Y-96404761D02*
X91452380Y-96880952D01*
X90452380Y-96880952D01*
X90452380Y-96404761D01*
X90452380Y-96071428D02*
X91452380Y-95404761D01*
X90452380Y-95404761D02*
X91452380Y-96071428D01*
X90452380Y-95166666D02*
X90452380Y-94595238D01*
X91452380Y-94880952D02*
X90452380Y-94880952D01*
X90928571Y-94261904D02*
X90928571Y-93928571D01*
X91452380Y-93785714D02*
X91452380Y-94261904D01*
X90452380Y-94261904D01*
X90452380Y-93785714D01*
X91452380Y-92785714D02*
X90976190Y-93119047D01*
X91452380Y-93357142D02*
X90452380Y-93357142D01*
X90452380Y-92976190D01*
X90500000Y-92880952D01*
X90547619Y-92833333D01*
X90642857Y-92785714D01*
X90785714Y-92785714D01*
X90880952Y-92833333D01*
X90928571Y-92880952D01*
X90976190Y-92976190D01*
X90976190Y-93357142D01*
X91452380Y-92357142D02*
X90452380Y-92357142D01*
X91452380Y-91785714D01*
X90452380Y-91785714D01*
X91166666Y-91357142D02*
X91166666Y-90880952D01*
X91452380Y-91452380D02*
X90452380Y-91119047D01*
X91452380Y-90785714D01*
X91452380Y-89976190D02*
X91452380Y-90452380D01*
X90452380Y-90452380D01*
X91071428Y-89642857D02*
X91071428Y-88880952D01*
X90452380Y-88214285D02*
X90452380Y-88023809D01*
X90500000Y-87928571D01*
X90595238Y-87833333D01*
X90785714Y-87785714D01*
X91119047Y-87785714D01*
X91309523Y-87833333D01*
X91404761Y-87928571D01*
X91452380Y-88023809D01*
X91452380Y-88214285D01*
X91404761Y-88309523D01*
X91309523Y-88404761D01*
X91119047Y-88452380D01*
X90785714Y-88452380D01*
X90595238Y-88404761D01*
X90500000Y-88309523D01*
X90452380Y-88214285D01*
X91452380Y-86880952D02*
X91452380Y-87357142D01*
X90452380Y-87357142D01*
X90928571Y-86547619D02*
X90928571Y-86214285D01*
X91452380Y-86071428D02*
X91452380Y-86547619D01*
X90452380Y-86547619D01*
X90452380Y-86071428D01*
X91452380Y-85642857D02*
X90452380Y-85642857D01*
X90452380Y-85404761D01*
X90500000Y-85261904D01*
X90595238Y-85166666D01*
X90690476Y-85119047D01*
X90880952Y-85071428D01*
X91023809Y-85071428D01*
X91214285Y-85119047D01*
X91309523Y-85166666D01*
X91404761Y-85261904D01*
X91452380Y-85404761D01*
X91452380Y-85642857D01*
X99916666Y-93547619D02*
X100250000Y-94023809D01*
X100488095Y-93547619D02*
X100488095Y-94547619D01*
X100107142Y-94547619D01*
X100011904Y-94500000D01*
X99964285Y-94452380D01*
X99916666Y-94357142D01*
X99916666Y-94214285D01*
X99964285Y-94119047D01*
X100011904Y-94071428D01*
X100107142Y-94023809D01*
X100488095Y-94023809D01*
X99535714Y-93595238D02*
X99392857Y-93547619D01*
X99154761Y-93547619D01*
X99059523Y-93595238D01*
X99011904Y-93642857D01*
X98964285Y-93738095D01*
X98964285Y-93833333D01*
X99011904Y-93928571D01*
X99059523Y-93976190D01*
X99154761Y-94023809D01*
X99345238Y-94071428D01*
X99440476Y-94119047D01*
X99488095Y-94166666D01*
X99535714Y-94261904D01*
X99535714Y-94357142D01*
X99488095Y-94452380D01*
X99440476Y-94500000D01*
X99345238Y-94547619D01*
X99107142Y-94547619D01*
X98964285Y-94500000D01*
X101583333Y-86797619D02*
X101250000Y-85797619D01*
X100916666Y-86797619D01*
X100011904Y-85892857D02*
X100059523Y-85845238D01*
X100202380Y-85797619D01*
X100297619Y-85797619D01*
X100440476Y-85845238D01*
X100535714Y-85940476D01*
X100583333Y-86035714D01*
X100630952Y-86226190D01*
X100630952Y-86369047D01*
X100583333Y-86559523D01*
X100535714Y-86654761D01*
X100440476Y-86750000D01*
X100297619Y-86797619D01*
X100202380Y-86797619D01*
X100059523Y-86750000D01*
X100011904Y-86702380D01*
X99011904Y-85892857D02*
X99059523Y-85845238D01*
X99202380Y-85797619D01*
X99297619Y-85797619D01*
X99440476Y-85845238D01*
X99535714Y-85940476D01*
X99583333Y-86035714D01*
X99630952Y-86226190D01*
X99630952Y-86369047D01*
X99583333Y-86559523D01*
X99535714Y-86654761D01*
X99440476Y-86750000D01*
X99297619Y-86797619D01*
X99202380Y-86797619D01*
X99059523Y-86750000D01*
X99011904Y-86702380D01*
X100511904Y-96047619D02*
X100511904Y-97047619D01*
X100273809Y-97047619D01*
X100130952Y-97000000D01*
X100035714Y-96904761D01*
X99988095Y-96809523D01*
X99940476Y-96619047D01*
X99940476Y-96476190D01*
X99988095Y-96285714D01*
X100035714Y-96190476D01*
X100130952Y-96095238D01*
X100273809Y-96047619D01*
X100511904Y-96047619D01*
X98940476Y-96142857D02*
X98988095Y-96095238D01*
X99130952Y-96047619D01*
X99226190Y-96047619D01*
X99369047Y-96095238D01*
X99464285Y-96190476D01*
X99511904Y-96285714D01*
X99559523Y-96476190D01*
X99559523Y-96619047D01*
X99511904Y-96809523D01*
X99464285Y-96904761D01*
X99369047Y-97000000D01*
X99226190Y-97047619D01*
X99130952Y-97047619D01*
X98988095Y-97000000D01*
X98940476Y-96952380D01*
X101464285Y-90845238D02*
X101321428Y-90797619D01*
X101083333Y-90797619D01*
X100988095Y-90845238D01*
X100940476Y-90892857D01*
X100892857Y-90988095D01*
X100892857Y-91083333D01*
X100940476Y-91178571D01*
X100988095Y-91226190D01*
X101083333Y-91273809D01*
X101273809Y-91321428D01*
X101369047Y-91369047D01*
X101416666Y-91416666D01*
X101464285Y-91511904D01*
X101464285Y-91607142D01*
X101416666Y-91702380D01*
X101369047Y-91750000D01*
X101273809Y-91797619D01*
X101035714Y-91797619D01*
X100892857Y-91750000D01*
X100464285Y-90797619D02*
X100464285Y-91797619D01*
X100226190Y-91797619D01*
X100083333Y-91750000D01*
X99988095Y-91654761D01*
X99940476Y-91559523D01*
X99892857Y-91369047D01*
X99892857Y-91226190D01*
X99940476Y-91035714D01*
X99988095Y-90940476D01*
X100083333Y-90845238D01*
X100226190Y-90797619D01*
X100464285Y-90797619D01*
X99511904Y-91083333D02*
X99035714Y-91083333D01*
X99607142Y-90797619D02*
X99273809Y-91797619D01*
X98940476Y-90797619D01*
X101440476Y-88345238D02*
X101297619Y-88297619D01*
X101059523Y-88297619D01*
X100964285Y-88345238D01*
X100916666Y-88392857D01*
X100869047Y-88488095D01*
X100869047Y-88583333D01*
X100916666Y-88678571D01*
X100964285Y-88726190D01*
X101059523Y-88773809D01*
X101250000Y-88821428D01*
X101345238Y-88869047D01*
X101392857Y-88916666D01*
X101440476Y-89011904D01*
X101440476Y-89107142D01*
X101392857Y-89202380D01*
X101345238Y-89250000D01*
X101250000Y-89297619D01*
X101011904Y-89297619D01*
X100869047Y-89250000D01*
X99869047Y-88392857D02*
X99916666Y-88345238D01*
X100059523Y-88297619D01*
X100154761Y-88297619D01*
X100297619Y-88345238D01*
X100392857Y-88440476D01*
X100440476Y-88535714D01*
X100488095Y-88726190D01*
X100488095Y-88869047D01*
X100440476Y-89059523D01*
X100392857Y-89154761D01*
X100297619Y-89250000D01*
X100154761Y-89297619D01*
X100059523Y-89297619D01*
X99916666Y-89250000D01*
X99869047Y-89202380D01*
X98964285Y-88297619D02*
X99440476Y-88297619D01*
X99440476Y-89297619D01*
X99916666Y-98642857D02*
X99964285Y-98595238D01*
X100107142Y-98547619D01*
X100202380Y-98547619D01*
X100345238Y-98595238D01*
X100440476Y-98690476D01*
X100488095Y-98785714D01*
X100535714Y-98976190D01*
X100535714Y-99119047D01*
X100488095Y-99309523D01*
X100440476Y-99404761D01*
X100345238Y-99500000D01*
X100202380Y-99547619D01*
X100107142Y-99547619D01*
X99964285Y-99500000D01*
X99916666Y-99452380D01*
X99535714Y-98595238D02*
X99392857Y-98547619D01*
X99154761Y-98547619D01*
X99059523Y-98595238D01*
X99011904Y-98642857D01*
X98964285Y-98738095D01*
X98964285Y-98833333D01*
X99011904Y-98928571D01*
X99059523Y-98976190D01*
X99154761Y-99023809D01*
X99345238Y-99071428D01*
X99440476Y-99119047D01*
X99488095Y-99166666D01*
X99535714Y-99261904D01*
X99535714Y-99357142D01*
X99488095Y-99452380D01*
X99440476Y-99500000D01*
X99345238Y-99547619D01*
X99107142Y-99547619D01*
X98964285Y-99500000D01*
X101011904Y-84250000D02*
X101107142Y-84297619D01*
X101250000Y-84297619D01*
X101392857Y-84250000D01*
X101488095Y-84154761D01*
X101535714Y-84059523D01*
X101583333Y-83869047D01*
X101583333Y-83726190D01*
X101535714Y-83535714D01*
X101488095Y-83440476D01*
X101392857Y-83345238D01*
X101250000Y-83297619D01*
X101154761Y-83297619D01*
X101011904Y-83345238D01*
X100964285Y-83392857D01*
X100964285Y-83726190D01*
X101154761Y-83726190D01*
X100535714Y-83297619D02*
X100535714Y-84297619D01*
X99964285Y-83297619D01*
X99964285Y-84297619D01*
X99488095Y-83297619D02*
X99488095Y-84297619D01*
X99250000Y-84297619D01*
X99107142Y-84250000D01*
X99011904Y-84154761D01*
X98964285Y-84059523D01*
X98916666Y-83869047D01*
X98916666Y-83726190D01*
X98964285Y-83535714D01*
X99011904Y-83440476D01*
X99107142Y-83345238D01*
X99250000Y-83297619D01*
X99488095Y-83297619D01*
X95000000Y-48011904D02*
X94952380Y-48107142D01*
X94952380Y-48250000D01*
X95000000Y-48392857D01*
X95095238Y-48488095D01*
X95190476Y-48535714D01*
X95380952Y-48583333D01*
X95523809Y-48583333D01*
X95714285Y-48535714D01*
X95809523Y-48488095D01*
X95904761Y-48392857D01*
X95952380Y-48250000D01*
X95952380Y-48154761D01*
X95904761Y-48011904D01*
X95857142Y-47964285D01*
X95523809Y-47964285D01*
X95523809Y-48154761D01*
X95952380Y-47535714D02*
X94952380Y-47535714D01*
X95952380Y-46964285D01*
X94952380Y-46964285D01*
X95952380Y-46488095D02*
X94952380Y-46488095D01*
X94952380Y-46250000D01*
X95000000Y-46107142D01*
X95095238Y-46011904D01*
X95190476Y-45964285D01*
X95380952Y-45916666D01*
X95523809Y-45916666D01*
X95714285Y-45964285D01*
X95809523Y-46011904D01*
X95904761Y-46107142D01*
X95952380Y-46250000D01*
X95952380Y-46488095D01*
X92452380Y-48583333D02*
X93452380Y-48250000D01*
X92452380Y-47916666D01*
X93357142Y-47011904D02*
X93404761Y-47059523D01*
X93452380Y-47202380D01*
X93452380Y-47297619D01*
X93404761Y-47440476D01*
X93309523Y-47535714D01*
X93214285Y-47583333D01*
X93023809Y-47630952D01*
X92880952Y-47630952D01*
X92690476Y-47583333D01*
X92595238Y-47535714D01*
X92500000Y-47440476D01*
X92452380Y-47297619D01*
X92452380Y-47202380D01*
X92500000Y-47059523D01*
X92547619Y-47011904D01*
X93357142Y-46011904D02*
X93404761Y-46059523D01*
X93452380Y-46202380D01*
X93452380Y-46297619D01*
X93404761Y-46440476D01*
X93309523Y-46535714D01*
X93214285Y-46583333D01*
X93023809Y-46630952D01*
X92880952Y-46630952D01*
X92690476Y-46583333D01*
X92595238Y-46535714D01*
X92500000Y-46440476D01*
X92452380Y-46297619D01*
X92452380Y-46202380D01*
X92500000Y-46059523D01*
X92547619Y-46011904D01*
X90904761Y-48440476D02*
X90952380Y-48297619D01*
X90952380Y-48059523D01*
X90904761Y-47964285D01*
X90857142Y-47916666D01*
X90761904Y-47869047D01*
X90666666Y-47869047D01*
X90571428Y-47916666D01*
X90523809Y-47964285D01*
X90476190Y-48059523D01*
X90428571Y-48250000D01*
X90380952Y-48345238D01*
X90333333Y-48392857D01*
X90238095Y-48440476D01*
X90142857Y-48440476D01*
X90047619Y-48392857D01*
X90000000Y-48345238D01*
X89952380Y-48250000D01*
X89952380Y-48011904D01*
X90000000Y-47869047D01*
X90857142Y-46869047D02*
X90904761Y-46916666D01*
X90952380Y-47059523D01*
X90952380Y-47154761D01*
X90904761Y-47297619D01*
X90809523Y-47392857D01*
X90714285Y-47440476D01*
X90523809Y-47488095D01*
X90380952Y-47488095D01*
X90190476Y-47440476D01*
X90095238Y-47392857D01*
X90000000Y-47297619D01*
X89952380Y-47154761D01*
X89952380Y-47059523D01*
X90000000Y-46916666D01*
X90047619Y-46869047D01*
X90952380Y-45964285D02*
X90952380Y-46440476D01*
X89952380Y-46440476D01*
X88404761Y-48464285D02*
X88452380Y-48321428D01*
X88452380Y-48083333D01*
X88404761Y-47988095D01*
X88357142Y-47940476D01*
X88261904Y-47892857D01*
X88166666Y-47892857D01*
X88071428Y-47940476D01*
X88023809Y-47988095D01*
X87976190Y-48083333D01*
X87928571Y-48273809D01*
X87880952Y-48369047D01*
X87833333Y-48416666D01*
X87738095Y-48464285D01*
X87642857Y-48464285D01*
X87547619Y-48416666D01*
X87500000Y-48369047D01*
X87452380Y-48273809D01*
X87452380Y-48035714D01*
X87500000Y-47892857D01*
X88452380Y-47464285D02*
X87452380Y-47464285D01*
X87452380Y-47226190D01*
X87500000Y-47083333D01*
X87595238Y-46988095D01*
X87690476Y-46940476D01*
X87880952Y-46892857D01*
X88023809Y-46892857D01*
X88214285Y-46940476D01*
X88309523Y-46988095D01*
X88404761Y-47083333D01*
X88452380Y-47226190D01*
X88452380Y-47464285D01*
X88166666Y-46511904D02*
X88166666Y-46035714D01*
X88452380Y-46607142D02*
X87452380Y-46273809D01*
X88452380Y-45940476D01*
X85702380Y-46916666D02*
X85226190Y-47250000D01*
X85702380Y-47488095D02*
X84702380Y-47488095D01*
X84702380Y-47107142D01*
X84750000Y-47011904D01*
X84797619Y-46964285D01*
X84892857Y-46916666D01*
X85035714Y-46916666D01*
X85130952Y-46964285D01*
X85178571Y-47011904D01*
X85226190Y-47107142D01*
X85226190Y-47488095D01*
X85654761Y-46535714D02*
X85702380Y-46392857D01*
X85702380Y-46154761D01*
X85654761Y-46059523D01*
X85607142Y-46011904D01*
X85511904Y-45964285D01*
X85416666Y-45964285D01*
X85321428Y-46011904D01*
X85273809Y-46059523D01*
X85226190Y-46154761D01*
X85178571Y-46345238D01*
X85130952Y-46440476D01*
X85083333Y-46488095D01*
X84988095Y-46535714D01*
X84892857Y-46535714D01*
X84797619Y-46488095D01*
X84750000Y-46440476D01*
X84702380Y-46345238D01*
X84702380Y-46107142D01*
X84750000Y-45964285D01*
X83202380Y-47511904D02*
X82202380Y-47511904D01*
X82202380Y-47273809D01*
X82250000Y-47130952D01*
X82345238Y-47035714D01*
X82440476Y-46988095D01*
X82630952Y-46940476D01*
X82773809Y-46940476D01*
X82964285Y-46988095D01*
X83059523Y-47035714D01*
X83154761Y-47130952D01*
X83202380Y-47273809D01*
X83202380Y-47511904D01*
X83107142Y-45940476D02*
X83154761Y-45988095D01*
X83202380Y-46130952D01*
X83202380Y-46226190D01*
X83154761Y-46369047D01*
X83059523Y-46464285D01*
X82964285Y-46511904D01*
X82773809Y-46559523D01*
X82630952Y-46559523D01*
X82440476Y-46511904D01*
X82345238Y-46464285D01*
X82250000Y-46369047D01*
X82202380Y-46226190D01*
X82202380Y-46130952D01*
X82250000Y-45988095D01*
X82297619Y-45940476D01*
X80607142Y-46916666D02*
X80654761Y-46964285D01*
X80702380Y-47107142D01*
X80702380Y-47202380D01*
X80654761Y-47345238D01*
X80559523Y-47440476D01*
X80464285Y-47488095D01*
X80273809Y-47535714D01*
X80130952Y-47535714D01*
X79940476Y-47488095D01*
X79845238Y-47440476D01*
X79750000Y-47345238D01*
X79702380Y-47202380D01*
X79702380Y-47107142D01*
X79750000Y-46964285D01*
X79797619Y-46916666D01*
X80654761Y-46535714D02*
X80702380Y-46392857D01*
X80702380Y-46154761D01*
X80654761Y-46059523D01*
X80607142Y-46011904D01*
X80511904Y-45964285D01*
X80416666Y-45964285D01*
X80321428Y-46011904D01*
X80273809Y-46059523D01*
X80226190Y-46154761D01*
X80178571Y-46345238D01*
X80130952Y-46440476D01*
X80083333Y-46488095D01*
X79988095Y-46535714D01*
X79892857Y-46535714D01*
X79797619Y-46488095D01*
X79750000Y-46440476D01*
X79702380Y-46345238D01*
X79702380Y-46107142D01*
X79750000Y-45964285D01*
X82035714Y-38452380D02*
X82035714Y-37452380D01*
X82511904Y-38452380D02*
X82511904Y-37452380D01*
X83083333Y-38452380D01*
X83083333Y-37452380D01*
X83416666Y-37452380D02*
X83988095Y-37452380D01*
X83702380Y-38452380D02*
X83702380Y-37452380D01*
X84321428Y-37928571D02*
X84654761Y-37928571D01*
X84797619Y-38452380D02*
X84321428Y-38452380D01*
X84321428Y-37452380D01*
X84797619Y-37452380D01*
X85797619Y-38452380D02*
X85464285Y-37976190D01*
X85226190Y-38452380D02*
X85226190Y-37452380D01*
X85607142Y-37452380D01*
X85702380Y-37500000D01*
X85750000Y-37547619D01*
X85797619Y-37642857D01*
X85797619Y-37785714D01*
X85750000Y-37880952D01*
X85702380Y-37928571D01*
X85607142Y-37976190D01*
X85226190Y-37976190D01*
X86226190Y-38452380D02*
X86226190Y-37452380D01*
X86797619Y-38452380D01*
X86797619Y-37452380D01*
X87226190Y-38166666D02*
X87702380Y-38166666D01*
X87130952Y-38452380D02*
X87464285Y-37452380D01*
X87797619Y-38452380D01*
X88607142Y-38452380D02*
X88130952Y-38452380D01*
X88130952Y-37452380D01*
X88940476Y-38071428D02*
X89702380Y-38071428D01*
X90369047Y-37452380D02*
X90559523Y-37452380D01*
X90654761Y-37500000D01*
X90750000Y-37595238D01*
X90797619Y-37785714D01*
X90797619Y-38119047D01*
X90750000Y-38309523D01*
X90654761Y-38404761D01*
X90559523Y-38452380D01*
X90369047Y-38452380D01*
X90273809Y-38404761D01*
X90178571Y-38309523D01*
X90130952Y-38119047D01*
X90130952Y-37785714D01*
X90178571Y-37595238D01*
X90273809Y-37500000D01*
X90369047Y-37452380D01*
X91702380Y-38452380D02*
X91226190Y-38452380D01*
X91226190Y-37452380D01*
X92035714Y-37928571D02*
X92369047Y-37928571D01*
X92511904Y-38452380D02*
X92035714Y-38452380D01*
X92035714Y-37452380D01*
X92511904Y-37452380D01*
X92940476Y-38452380D02*
X92940476Y-37452380D01*
X93178571Y-37452380D01*
X93321428Y-37500000D01*
X93416666Y-37595238D01*
X93464285Y-37690476D01*
X93511904Y-37880952D01*
X93511904Y-38023809D01*
X93464285Y-38214285D01*
X93416666Y-38309523D01*
X93321428Y-38404761D01*
X93178571Y-38452380D01*
X92940476Y-38452380D01*
D12*
X86870000Y-111650000D02*
X86870000Y-112270000D01*
X88470000Y-111650000D02*
X86870000Y-111650000D01*
X88470000Y-112270000D02*
X88470000Y-111650000D01*
X89410000Y-111650000D02*
X89410000Y-112270000D01*
X91010000Y-111650000D02*
X89410000Y-111650000D01*
X91010000Y-112270000D02*
X91010000Y-111650000D01*
X91950000Y-111650000D02*
X91950000Y-112270000D01*
X93550000Y-111650000D02*
X91950000Y-111650000D01*
X93550000Y-112270000D02*
X93550000Y-111650000D01*
X94490000Y-111650000D02*
X94490000Y-112270000D01*
X96090000Y-111650000D02*
X94490000Y-111650000D01*
X96090000Y-112270000D02*
X96090000Y-111650000D01*
X97030000Y-111650000D02*
X97030000Y-112270000D01*
X98630000Y-111650000D02*
X97030000Y-111650000D01*
X98630000Y-112270000D02*
X98630000Y-111650000D01*
X87920000Y-106270000D02*
X87920000Y-107270000D01*
X97580000Y-106270000D02*
X97580000Y-107270000D01*
X87920000Y-107700000D02*
X87670000Y-107270000D01*
X97580000Y-107700000D02*
X87920000Y-107700000D01*
X97830000Y-107270000D02*
X97580000Y-107700000D01*
X87670000Y-107270000D02*
X87670000Y-106270000D01*
X97830000Y-107270000D02*
X87670000Y-107270000D01*
X97830000Y-106270000D02*
X97830000Y-107270000D01*
X86300000Y-112270000D02*
X99200000Y-112270000D01*
X86300000Y-106270000D02*
X86300000Y-112270000D01*
X99200000Y-106270000D02*
X86300000Y-106270000D01*
X99200000Y-112270000D02*
X99200000Y-106270000D01*
X62540000Y-111650000D02*
X62540000Y-112270000D01*
X64140000Y-111650000D02*
X62540000Y-111650000D01*
X64140000Y-112270000D02*
X64140000Y-111650000D01*
X65080000Y-111650000D02*
X65080000Y-112270000D01*
X66680000Y-111650000D02*
X65080000Y-111650000D01*
X66680000Y-112270000D02*
X66680000Y-111650000D01*
X67620000Y-111650000D02*
X67620000Y-112270000D01*
X69220000Y-111650000D02*
X67620000Y-111650000D01*
X69220000Y-112270000D02*
X69220000Y-111650000D01*
X70160000Y-111650000D02*
X70160000Y-112270000D01*
X71760000Y-111650000D02*
X70160000Y-111650000D01*
X71760000Y-112270000D02*
X71760000Y-111650000D01*
X72700000Y-111650000D02*
X72700000Y-112270000D01*
X74300000Y-111650000D02*
X72700000Y-111650000D01*
X74300000Y-112270000D02*
X74300000Y-111650000D01*
X63590000Y-106270000D02*
X63590000Y-107270000D01*
X73250000Y-106270000D02*
X73250000Y-107270000D01*
X63590000Y-107700000D02*
X63340000Y-107270000D01*
X73250000Y-107700000D02*
X63590000Y-107700000D01*
X73500000Y-107270000D02*
X73250000Y-107700000D01*
X63340000Y-107270000D02*
X63340000Y-106270000D01*
X73500000Y-107270000D02*
X63340000Y-107270000D01*
X73500000Y-106270000D02*
X73500000Y-107270000D01*
X61970000Y-112270000D02*
X74870000Y-112270000D01*
X61970000Y-106270000D02*
X61970000Y-112270000D01*
X74870000Y-106270000D02*
X61970000Y-106270000D01*
X74870000Y-112270000D02*
X74870000Y-106270000D01*
X44600000Y-106410000D02*
X43980000Y-106410000D01*
X44600000Y-108010000D02*
X44600000Y-106410000D01*
X43980000Y-108010000D02*
X44600000Y-108010000D01*
X44600000Y-108950000D02*
X43980000Y-108950000D01*
X44600000Y-110550000D02*
X44600000Y-108950000D01*
X43980000Y-110550000D02*
X44600000Y-110550000D01*
X49980000Y-107460000D02*
X48980000Y-107460000D01*
X49980000Y-109500000D02*
X48980000Y-109500000D01*
X48550000Y-107460000D02*
X48980000Y-107210000D01*
X48550000Y-109500000D02*
X48550000Y-107460000D01*
X48980000Y-109750000D02*
X48550000Y-109500000D01*
X48980000Y-107210000D02*
X49980000Y-107210000D01*
X48980000Y-109750000D02*
X48980000Y-107210000D01*
X49980000Y-109750000D02*
X48980000Y-109750000D01*
X43980000Y-105840000D02*
X43980000Y-111120000D01*
X49980000Y-105840000D02*
X43980000Y-105840000D01*
X49980000Y-111120000D02*
X49980000Y-105840000D01*
X43980000Y-111120000D02*
X49980000Y-111120000D01*
X79460000Y-44900000D02*
X79460000Y-45520000D01*
X81060000Y-44900000D02*
X79460000Y-44900000D01*
X81060000Y-45520000D02*
X81060000Y-44900000D01*
X82000000Y-44900000D02*
X82000000Y-45520000D01*
X83600000Y-44900000D02*
X82000000Y-44900000D01*
X83600000Y-45520000D02*
X83600000Y-44900000D01*
X84540000Y-44900000D02*
X84540000Y-45520000D01*
X86140000Y-44900000D02*
X84540000Y-44900000D01*
X86140000Y-45520000D02*
X86140000Y-44900000D01*
X87080000Y-44900000D02*
X87080000Y-45520000D01*
X88680000Y-44900000D02*
X87080000Y-44900000D01*
X88680000Y-45520000D02*
X88680000Y-44900000D01*
X89620000Y-44900000D02*
X89620000Y-45520000D01*
X91220000Y-44900000D02*
X89620000Y-44900000D01*
X91220000Y-45520000D02*
X91220000Y-44900000D01*
X92160000Y-44900000D02*
X92160000Y-45520000D01*
X93760000Y-44900000D02*
X92160000Y-44900000D01*
X93760000Y-45520000D02*
X93760000Y-44900000D01*
X94700000Y-44900000D02*
X94700000Y-45520000D01*
X96300000Y-44900000D02*
X94700000Y-44900000D01*
X96300000Y-45520000D02*
X96300000Y-44900000D01*
X80510000Y-39520000D02*
X80510000Y-40520000D01*
X85340000Y-40950000D02*
X85340000Y-40520000D01*
X80510000Y-40950000D02*
X85340000Y-40950000D01*
X80260000Y-40520000D02*
X80510000Y-40950000D01*
X85340000Y-40520000D02*
X85340000Y-39520000D01*
X80260000Y-40520000D02*
X85340000Y-40520000D01*
X80260000Y-39520000D02*
X80260000Y-40520000D01*
X95250000Y-39520000D02*
X95250000Y-40520000D01*
X90420000Y-40950000D02*
X90420000Y-40520000D01*
X95250000Y-40950000D02*
X90420000Y-40950000D01*
X95500000Y-40520000D02*
X95250000Y-40950000D01*
X90420000Y-40520000D02*
X90420000Y-39520000D01*
X95500000Y-40520000D02*
X90420000Y-40520000D01*
X95500000Y-39520000D02*
X95500000Y-40520000D01*
X78890000Y-45520000D02*
X96870000Y-45520000D01*
X78890000Y-39520000D02*
X78890000Y-45520000D01*
X96870000Y-39520000D02*
X78890000Y-39520000D01*
X96870000Y-45520000D02*
X96870000Y-39520000D01*
X97650000Y-99790000D02*
X98270000Y-99790000D01*
X97650000Y-98190000D02*
X97650000Y-99790000D01*
X98270000Y-98190000D02*
X97650000Y-98190000D01*
X97650000Y-97250000D02*
X98270000Y-97250000D01*
X97650000Y-95650000D02*
X97650000Y-97250000D01*
X98270000Y-95650000D02*
X97650000Y-95650000D01*
X97650000Y-94710000D02*
X98270000Y-94710000D01*
X97650000Y-93110000D02*
X97650000Y-94710000D01*
X98270000Y-93110000D02*
X97650000Y-93110000D01*
X97650000Y-92170000D02*
X98270000Y-92170000D01*
X97650000Y-90570000D02*
X97650000Y-92170000D01*
X98270000Y-90570000D02*
X97650000Y-90570000D01*
X97650000Y-89630000D02*
X98270000Y-89630000D01*
X97650000Y-88030000D02*
X97650000Y-89630000D01*
X98270000Y-88030000D02*
X97650000Y-88030000D01*
X97650000Y-87090000D02*
X98270000Y-87090000D01*
X97650000Y-85490000D02*
X97650000Y-87090000D01*
X98270000Y-85490000D02*
X97650000Y-85490000D01*
X97650000Y-84550000D02*
X98270000Y-84550000D01*
X97650000Y-82950000D02*
X97650000Y-84550000D01*
X98270000Y-82950000D02*
X97650000Y-82950000D01*
X92270000Y-98740000D02*
X93270000Y-98740000D01*
X93700000Y-93910000D02*
X93270000Y-93910000D01*
X93700000Y-98740000D02*
X93700000Y-93910000D01*
X93270000Y-98990000D02*
X93700000Y-98740000D01*
X93270000Y-93910000D02*
X92270000Y-93910000D01*
X93270000Y-98990000D02*
X93270000Y-93910000D01*
X92270000Y-98990000D02*
X93270000Y-98990000D01*
X92270000Y-84000000D02*
X93270000Y-84000000D01*
X93700000Y-88830000D02*
X93270000Y-88830000D01*
X93700000Y-84000000D02*
X93700000Y-88830000D01*
X93270000Y-83750000D02*
X93700000Y-84000000D01*
X93270000Y-88830000D02*
X92270000Y-88830000D01*
X93270000Y-83750000D02*
X93270000Y-88830000D01*
X92270000Y-83750000D02*
X93270000Y-83750000D01*
X98270000Y-100360000D02*
X98270000Y-82380000D01*
X92270000Y-100360000D02*
X98270000Y-100360000D01*
X92270000Y-82380000D02*
X92270000Y-100360000D01*
X98270000Y-82380000D02*
X92270000Y-82380000D01*
X54340000Y-39600000D02*
X54340000Y-38980000D01*
X52740000Y-39600000D02*
X54340000Y-39600000D01*
X52740000Y-38980000D02*
X52740000Y-39600000D01*
X51800000Y-39600000D02*
X51800000Y-38980000D01*
X50200000Y-39600000D02*
X51800000Y-39600000D01*
X50200000Y-38980000D02*
X50200000Y-39600000D01*
X53290000Y-44980000D02*
X53290000Y-43980000D01*
X51250000Y-44980000D02*
X51250000Y-43980000D01*
X53290000Y-43550000D02*
X53540000Y-43980000D01*
X51250000Y-43550000D02*
X53290000Y-43550000D01*
X51000000Y-43980000D02*
X51250000Y-43550000D01*
X53540000Y-43980000D02*
X53540000Y-44980000D01*
X51000000Y-43980000D02*
X53540000Y-43980000D01*
X51000000Y-44980000D02*
X51000000Y-43980000D01*
X54910000Y-38980000D02*
X49630000Y-38980000D01*
X54910000Y-44980000D02*
X54910000Y-38980000D01*
X49630000Y-44980000D02*
X54910000Y-44980000D01*
X49630000Y-38980000D02*
X49630000Y-44980000D01*
X62340000Y-39600000D02*
X62340000Y-38980000D01*
X60740000Y-39600000D02*
X62340000Y-39600000D01*
X60740000Y-38980000D02*
X60740000Y-39600000D01*
X59800000Y-39600000D02*
X59800000Y-38980000D01*
X58200000Y-39600000D02*
X59800000Y-39600000D01*
X58200000Y-38980000D02*
X58200000Y-39600000D01*
X61290000Y-44980000D02*
X61290000Y-43980000D01*
X59250000Y-44980000D02*
X59250000Y-43980000D01*
X61290000Y-43550000D02*
X61540000Y-43980000D01*
X59250000Y-43550000D02*
X61290000Y-43550000D01*
X59000000Y-43980000D02*
X59250000Y-43550000D01*
X61540000Y-43980000D02*
X61540000Y-44980000D01*
X59000000Y-43980000D02*
X61540000Y-43980000D01*
X59000000Y-44980000D02*
X59000000Y-43980000D01*
X62910000Y-38980000D02*
X57630000Y-38980000D01*
X62910000Y-44980000D02*
X62910000Y-38980000D01*
X57630000Y-44980000D02*
X62910000Y-44980000D01*
X57630000Y-38980000D02*
X57630000Y-44980000D01*
X60340000Y-88600000D02*
X60340000Y-87980000D01*
X58740000Y-88600000D02*
X60340000Y-88600000D01*
X58740000Y-87980000D02*
X58740000Y-88600000D01*
X57800000Y-88600000D02*
X57800000Y-87980000D01*
X56200000Y-88600000D02*
X57800000Y-88600000D01*
X56200000Y-87980000D02*
X56200000Y-88600000D01*
X59290000Y-93980000D02*
X59290000Y-92980000D01*
X57250000Y-93980000D02*
X57250000Y-92980000D01*
X59290000Y-92550000D02*
X59540000Y-92980000D01*
X57250000Y-92550000D02*
X59290000Y-92550000D01*
X57000000Y-92980000D02*
X57250000Y-92550000D01*
X59540000Y-92980000D02*
X59540000Y-93980000D01*
X57000000Y-92980000D02*
X59540000Y-92980000D01*
X57000000Y-93980000D02*
X57000000Y-92980000D01*
X60910000Y-87980000D02*
X55630000Y-87980000D01*
X60910000Y-93980000D02*
X60910000Y-87980000D01*
X55630000Y-93980000D02*
X60910000Y-93980000D01*
X55630000Y-87980000D02*
X55630000Y-93980000D01*
X52090000Y-88600000D02*
X52090000Y-87980000D01*
X50490000Y-88600000D02*
X52090000Y-88600000D01*
X50490000Y-87980000D02*
X50490000Y-88600000D01*
X49550000Y-88600000D02*
X49550000Y-87980000D01*
X47950000Y-88600000D02*
X49550000Y-88600000D01*
X47950000Y-87980000D02*
X47950000Y-88600000D01*
X51040000Y-93980000D02*
X51040000Y-92980000D01*
X49000000Y-93980000D02*
X49000000Y-92980000D01*
X51040000Y-92550000D02*
X51290000Y-92980000D01*
X49000000Y-92550000D02*
X51040000Y-92550000D01*
X48750000Y-92980000D02*
X49000000Y-92550000D01*
X51290000Y-92980000D02*
X51290000Y-93980000D01*
X48750000Y-92980000D02*
X51290000Y-92980000D01*
X48750000Y-93980000D02*
X48750000Y-92980000D01*
X52660000Y-87980000D02*
X47380000Y-87980000D01*
X52660000Y-93980000D02*
X52660000Y-87980000D01*
X47380000Y-93980000D02*
X52660000Y-93980000D01*
X47380000Y-87980000D02*
X47380000Y-93980000D01*
X70340000Y-39600000D02*
X70340000Y-38980000D01*
X68740000Y-39600000D02*
X70340000Y-39600000D01*
X68740000Y-38980000D02*
X68740000Y-39600000D01*
X67800000Y-39600000D02*
X67800000Y-38980000D01*
X66200000Y-39600000D02*
X67800000Y-39600000D01*
X66200000Y-38980000D02*
X66200000Y-39600000D01*
X69290000Y-44980000D02*
X69290000Y-43980000D01*
X67250000Y-44980000D02*
X67250000Y-43980000D01*
X69290000Y-43550000D02*
X69540000Y-43980000D01*
X67250000Y-43550000D02*
X69290000Y-43550000D01*
X67000000Y-43980000D02*
X67250000Y-43550000D01*
X69540000Y-43980000D02*
X69540000Y-44980000D01*
X67000000Y-43980000D02*
X69540000Y-43980000D01*
X67000000Y-44980000D02*
X67000000Y-43980000D01*
X70910000Y-38980000D02*
X65630000Y-38980000D01*
X70910000Y-44980000D02*
X70910000Y-38980000D01*
X65630000Y-44980000D02*
X70910000Y-44980000D01*
X65630000Y-38980000D02*
X65630000Y-44980000D01*
D13*
X52450000Y-48600000D02*
X52950000Y-48600000D01*
X52450000Y-48600000D02*
X51950000Y-48600000D01*
X52450000Y-50400000D02*
X52950000Y-50400000D01*
X52450000Y-50400000D02*
X51950000Y-50400000D01*
X49850000Y-49200000D02*
X49850000Y-49800000D01*
X55050000Y-49200000D02*
X55050000Y-49800000D01*
X60700000Y-48600000D02*
X61200000Y-48600000D01*
X60700000Y-48600000D02*
X60200000Y-48600000D01*
X60700000Y-50400000D02*
X61200000Y-50400000D01*
X60700000Y-50400000D02*
X60200000Y-50400000D01*
X58100000Y-49200000D02*
X58100000Y-49800000D01*
X63300000Y-49200000D02*
X63300000Y-49800000D01*
X57700000Y-83100000D02*
X58200000Y-83100000D01*
X57700000Y-83100000D02*
X57200000Y-83100000D01*
X57700000Y-84900000D02*
X58200000Y-84900000D01*
X57700000Y-84900000D02*
X57200000Y-84900000D01*
X55100000Y-83700000D02*
X55100000Y-84300000D01*
X60300000Y-83700000D02*
X60300000Y-84300000D01*
X49750000Y-83100000D02*
X50250000Y-83100000D01*
X49750000Y-83100000D02*
X49250000Y-83100000D01*
X49750000Y-84900000D02*
X50250000Y-84900000D01*
X49750000Y-84900000D02*
X49250000Y-84900000D01*
X47150000Y-83700000D02*
X47150000Y-84300000D01*
X52350000Y-83700000D02*
X52350000Y-84300000D01*
X68500000Y-48600000D02*
X69000000Y-48600000D01*
X68500000Y-48600000D02*
X68000000Y-48600000D01*
X68500000Y-50400000D02*
X69000000Y-50400000D01*
X68500000Y-50400000D02*
X68000000Y-50400000D01*
X65900000Y-49200000D02*
X65900000Y-49800000D01*
X71100000Y-49200000D02*
X71100000Y-49800000D01*
D11*
X101440000Y-53300000D02*
X48100000Y-53300000D01*
X101440000Y-78700000D02*
X48100000Y-78700000D01*
X46830000Y-54570000D02*
X46830000Y-77430000D01*
X102710000Y-54570000D02*
X102710000Y-77430000D01*
X102075000Y-75525000D02*
X102075000Y-56475000D01*
X79850000Y-75525000D02*
X102075000Y-75525000D01*
X79850000Y-56475000D02*
X79850000Y-75525000D01*
X102075000Y-56475000D02*
X79850000Y-56475000D01*
X97630000Y-74890000D02*
X97630000Y-57110000D01*
X80485000Y-74890000D02*
X97630000Y-74890000D01*
X80485000Y-57110000D02*
X80485000Y-74890000D01*
X97630000Y-57110000D02*
X80485000Y-57110000D01*
X48100000Y-57745000D02*
X48100000Y-53300000D01*
X48735000Y-57745000D02*
X48100000Y-57745000D01*
X48735000Y-57110000D02*
X48735000Y-57745000D01*
X56355000Y-57110000D02*
X48735000Y-57110000D01*
X56355000Y-57745000D02*
X56355000Y-57110000D01*
X56990000Y-57745000D02*
X56355000Y-57745000D01*
X56990000Y-53300000D02*
X56990000Y-57745000D01*
X49370000Y-71715000D02*
X46830000Y-71715000D01*
X49370000Y-66635000D02*
X49370000Y-71715000D01*
X46830000Y-66635000D02*
X49370000Y-66635000D01*
X46830000Y-77430000D02*
G75*
G03*
X48100000Y-78700000I1270000J0D01*
G01*
X48100000Y-53300000D02*
G75*
G03*
X46830000Y-54570000I0J-1270000D01*
G01*
X101440000Y-78700000D02*
G75*
G03*
X102710000Y-77430000I0J1270000D01*
G01*
X102710000Y-54570000D02*
G75*
G03*
X101440000Y-53300000I-1270000J0D01*
G01*
D13*
X85950000Y-94200000D02*
X86150000Y-94200000D01*
X86150000Y-94200000D02*
X86150000Y-93900000D01*
X86150000Y-87600000D02*
X86150000Y-87300000D01*
X86150000Y-87300000D02*
X85950000Y-87300000D01*
X66050000Y-94580000D02*
X66050000Y-94830000D01*
X66050000Y-94200000D02*
X66050000Y-94570000D01*
X65050000Y-92900000D02*
X65050000Y-93200000D01*
X65050000Y-93200000D02*
X66050000Y-94200000D01*
X65640000Y-87220000D02*
X65240000Y-87220000D01*
X65240000Y-87220000D02*
X65240000Y-87620000D01*
X59300000Y-110700000D02*
X59300000Y-111300000D01*
X54100000Y-110700000D02*
X54100000Y-111300000D01*
X56700000Y-111900000D02*
X56200000Y-111900000D01*
X56700000Y-111900000D02*
X57200000Y-111900000D01*
X56700000Y-110100000D02*
X56200000Y-110100000D01*
X56700000Y-110100000D02*
X57200000Y-110100000D01*
X84350000Y-110950000D02*
X84350000Y-111550000D01*
X79150000Y-110950000D02*
X79150000Y-111550000D01*
X81750000Y-112150000D02*
X81250000Y-112150000D01*
X81750000Y-112150000D02*
X82250000Y-112150000D01*
X81750000Y-110350000D02*
X81250000Y-110350000D01*
X81750000Y-110350000D02*
X82250000Y-110350000D01*
X59300000Y-106700000D02*
X59300000Y-107300000D01*
X54100000Y-106700000D02*
X54100000Y-107300000D01*
X56700000Y-107900000D02*
X56200000Y-107900000D01*
X56700000Y-107900000D02*
X57200000Y-107900000D01*
X56700000Y-106100000D02*
X56200000Y-106100000D01*
X56700000Y-106100000D02*
X57200000Y-106100000D01*
X84350000Y-106700000D02*
X84350000Y-107300000D01*
X79150000Y-106700000D02*
X79150000Y-107300000D01*
X81750000Y-107900000D02*
X81250000Y-107900000D01*
X81750000Y-107900000D02*
X82250000Y-107900000D01*
X81750000Y-106100000D02*
X81250000Y-106100000D01*
X81750000Y-106100000D02*
X82250000Y-106100000D01*
D12*
X62170000Y-102580000D02*
X62170000Y-101250000D01*
X63500000Y-102580000D02*
X62170000Y-102580000D01*
X64770000Y-102580000D02*
X64770000Y-99920000D01*
X64770000Y-99920000D02*
X87690000Y-99920000D01*
X64770000Y-102580000D02*
X87690000Y-102580000D01*
X87690000Y-102580000D02*
X87690000Y-99920000D01*
D11*
X100520476Y-108702380D02*
X100520476Y-109416666D01*
X100472857Y-109559523D01*
X100377619Y-109654761D01*
X100234761Y-109702380D01*
X100139523Y-109702380D01*
X101520476Y-109702380D02*
X100949047Y-109702380D01*
X101234761Y-109702380D02*
X101234761Y-108702380D01*
X101139523Y-108845238D01*
X101044285Y-108940476D01*
X100949047Y-108988095D01*
X102472857Y-109702380D02*
X101901428Y-109702380D01*
X102187142Y-109702380D02*
X102187142Y-108702380D01*
X102091904Y-108845238D01*
X101996666Y-108940476D01*
X101901428Y-108988095D01*
X75940476Y-108952380D02*
X75940476Y-109666666D01*
X75892857Y-109809523D01*
X75797619Y-109904761D01*
X75654761Y-109952380D01*
X75559523Y-109952380D01*
X76940476Y-109952380D02*
X76369047Y-109952380D01*
X76654761Y-109952380D02*
X76654761Y-108952380D01*
X76559523Y-109095238D01*
X76464285Y-109190476D01*
X76369047Y-109238095D01*
X77559523Y-108952380D02*
X77654761Y-108952380D01*
X77750000Y-109000000D01*
X77797619Y-109047619D01*
X77845238Y-109142857D01*
X77892857Y-109333333D01*
X77892857Y-109571428D01*
X77845238Y-109761904D01*
X77797619Y-109857142D01*
X77750000Y-109904761D01*
X77654761Y-109952380D01*
X77559523Y-109952380D01*
X77464285Y-109904761D01*
X77416666Y-109857142D01*
X77369047Y-109761904D01*
X77321428Y-109571428D01*
X77321428Y-109333333D01*
X77369047Y-109142857D01*
X77416666Y-109047619D01*
X77464285Y-109000000D01*
X77559523Y-108952380D01*
X46702380Y-113083333D02*
X47416666Y-113083333D01*
X47559523Y-113130952D01*
X47654761Y-113226190D01*
X47702380Y-113369047D01*
X47702380Y-113464285D01*
X47702380Y-112559523D02*
X47702380Y-112369047D01*
X47654761Y-112273809D01*
X47607142Y-112226190D01*
X47464285Y-112130952D01*
X47273809Y-112083333D01*
X46892857Y-112083333D01*
X46797619Y-112130952D01*
X46750000Y-112178571D01*
X46702380Y-112273809D01*
X46702380Y-112464285D01*
X46750000Y-112559523D01*
X46797619Y-112607142D01*
X46892857Y-112654761D01*
X47130952Y-112654761D01*
X47226190Y-112607142D01*
X47273809Y-112559523D01*
X47321428Y-112464285D01*
X47321428Y-112273809D01*
X47273809Y-112178571D01*
X47226190Y-112130952D01*
X47130952Y-112083333D01*
X98166666Y-42202380D02*
X98166666Y-42916666D01*
X98119047Y-43059523D01*
X98023809Y-43154761D01*
X97880952Y-43202380D01*
X97785714Y-43202380D01*
X98785714Y-42630952D02*
X98690476Y-42583333D01*
X98642857Y-42535714D01*
X98595238Y-42440476D01*
X98595238Y-42392857D01*
X98642857Y-42297619D01*
X98690476Y-42250000D01*
X98785714Y-42202380D01*
X98976190Y-42202380D01*
X99071428Y-42250000D01*
X99119047Y-42297619D01*
X99166666Y-42392857D01*
X99166666Y-42440476D01*
X99119047Y-42535714D01*
X99071428Y-42583333D01*
X98976190Y-42630952D01*
X98785714Y-42630952D01*
X98690476Y-42678571D01*
X98642857Y-42726190D01*
X98595238Y-42821428D01*
X98595238Y-43011904D01*
X98642857Y-43107142D01*
X98690476Y-43154761D01*
X98785714Y-43202380D01*
X98976190Y-43202380D01*
X99071428Y-43154761D01*
X99119047Y-43107142D01*
X99166666Y-43011904D01*
X99166666Y-42821428D01*
X99119047Y-42726190D01*
X99071428Y-42678571D01*
X98976190Y-42630952D01*
X95202380Y-81083333D02*
X95916666Y-81083333D01*
X96059523Y-81130952D01*
X96154761Y-81226190D01*
X96202380Y-81369047D01*
X96202380Y-81464285D01*
X95202380Y-80702380D02*
X95202380Y-80035714D01*
X96202380Y-80464285D01*
X51666666Y-36952380D02*
X51666666Y-37666666D01*
X51619047Y-37809523D01*
X51523809Y-37904761D01*
X51380952Y-37952380D01*
X51285714Y-37952380D01*
X52571428Y-36952380D02*
X52380952Y-36952380D01*
X52285714Y-37000000D01*
X52238095Y-37047619D01*
X52142857Y-37190476D01*
X52095238Y-37380952D01*
X52095238Y-37761904D01*
X52142857Y-37857142D01*
X52190476Y-37904761D01*
X52285714Y-37952380D01*
X52476190Y-37952380D01*
X52571428Y-37904761D01*
X52619047Y-37857142D01*
X52666666Y-37761904D01*
X52666666Y-37523809D01*
X52619047Y-37428571D01*
X52571428Y-37380952D01*
X52476190Y-37333333D01*
X52285714Y-37333333D01*
X52190476Y-37380952D01*
X52142857Y-37428571D01*
X52095238Y-37523809D01*
X59666666Y-36952380D02*
X59666666Y-37666666D01*
X59619047Y-37809523D01*
X59523809Y-37904761D01*
X59380952Y-37952380D01*
X59285714Y-37952380D01*
X60619047Y-36952380D02*
X60142857Y-36952380D01*
X60095238Y-37428571D01*
X60142857Y-37380952D01*
X60238095Y-37333333D01*
X60476190Y-37333333D01*
X60571428Y-37380952D01*
X60619047Y-37428571D01*
X60666666Y-37523809D01*
X60666666Y-37761904D01*
X60619047Y-37857142D01*
X60571428Y-37904761D01*
X60476190Y-37952380D01*
X60238095Y-37952380D01*
X60142857Y-37904761D01*
X60095238Y-37857142D01*
X57666666Y-85952380D02*
X57666666Y-86666666D01*
X57619047Y-86809523D01*
X57523809Y-86904761D01*
X57380952Y-86952380D01*
X57285714Y-86952380D01*
X58571428Y-86285714D02*
X58571428Y-86952380D01*
X58333333Y-85904761D02*
X58095238Y-86619047D01*
X58714285Y-86619047D01*
X49416666Y-85952380D02*
X49416666Y-86666666D01*
X49369047Y-86809523D01*
X49273809Y-86904761D01*
X49130952Y-86952380D01*
X49035714Y-86952380D01*
X49797619Y-85952380D02*
X50416666Y-85952380D01*
X50083333Y-86333333D01*
X50226190Y-86333333D01*
X50321428Y-86380952D01*
X50369047Y-86428571D01*
X50416666Y-86523809D01*
X50416666Y-86761904D01*
X50369047Y-86857142D01*
X50321428Y-86904761D01*
X50226190Y-86952380D01*
X49940476Y-86952380D01*
X49845238Y-86904761D01*
X49797619Y-86857142D01*
X67666666Y-36952380D02*
X67666666Y-37666666D01*
X67619047Y-37809523D01*
X67523809Y-37904761D01*
X67380952Y-37952380D01*
X67285714Y-37952380D01*
X68095238Y-37047619D02*
X68142857Y-37000000D01*
X68238095Y-36952380D01*
X68476190Y-36952380D01*
X68571428Y-37000000D01*
X68619047Y-37047619D01*
X68666666Y-37142857D01*
X68666666Y-37238095D01*
X68619047Y-37380952D01*
X68047619Y-37952380D01*
X68666666Y-37952380D01*
X52383333Y-47452380D02*
X52050000Y-46976190D01*
X51811904Y-47452380D02*
X51811904Y-46452380D01*
X52192857Y-46452380D01*
X52288095Y-46500000D01*
X52335714Y-46547619D01*
X52383333Y-46642857D01*
X52383333Y-46785714D01*
X52335714Y-46880952D01*
X52288095Y-46928571D01*
X52192857Y-46976190D01*
X51811904Y-46976190D01*
X52859523Y-47452380D02*
X53050000Y-47452380D01*
X53145238Y-47404761D01*
X53192857Y-47357142D01*
X53288095Y-47214285D01*
X53335714Y-47023809D01*
X53335714Y-46642857D01*
X53288095Y-46547619D01*
X53240476Y-46500000D01*
X53145238Y-46452380D01*
X52954761Y-46452380D01*
X52859523Y-46500000D01*
X52811904Y-46547619D01*
X52764285Y-46642857D01*
X52764285Y-46880952D01*
X52811904Y-46976190D01*
X52859523Y-47023809D01*
X52954761Y-47071428D01*
X53145238Y-47071428D01*
X53240476Y-47023809D01*
X53288095Y-46976190D01*
X53335714Y-46880952D01*
X60633333Y-47452380D02*
X60300000Y-46976190D01*
X60061904Y-47452380D02*
X60061904Y-46452380D01*
X60442857Y-46452380D01*
X60538095Y-46500000D01*
X60585714Y-46547619D01*
X60633333Y-46642857D01*
X60633333Y-46785714D01*
X60585714Y-46880952D01*
X60538095Y-46928571D01*
X60442857Y-46976190D01*
X60061904Y-46976190D01*
X61204761Y-46880952D02*
X61109523Y-46833333D01*
X61061904Y-46785714D01*
X61014285Y-46690476D01*
X61014285Y-46642857D01*
X61061904Y-46547619D01*
X61109523Y-46500000D01*
X61204761Y-46452380D01*
X61395238Y-46452380D01*
X61490476Y-46500000D01*
X61538095Y-46547619D01*
X61585714Y-46642857D01*
X61585714Y-46690476D01*
X61538095Y-46785714D01*
X61490476Y-46833333D01*
X61395238Y-46880952D01*
X61204761Y-46880952D01*
X61109523Y-46928571D01*
X61061904Y-46976190D01*
X61014285Y-47071428D01*
X61014285Y-47261904D01*
X61061904Y-47357142D01*
X61109523Y-47404761D01*
X61204761Y-47452380D01*
X61395238Y-47452380D01*
X61490476Y-47404761D01*
X61538095Y-47357142D01*
X61585714Y-47261904D01*
X61585714Y-47071428D01*
X61538095Y-46976190D01*
X61490476Y-46928571D01*
X61395238Y-46880952D01*
X57633333Y-81952380D02*
X57300000Y-81476190D01*
X57061904Y-81952380D02*
X57061904Y-80952380D01*
X57442857Y-80952380D01*
X57538095Y-81000000D01*
X57585714Y-81047619D01*
X57633333Y-81142857D01*
X57633333Y-81285714D01*
X57585714Y-81380952D01*
X57538095Y-81428571D01*
X57442857Y-81476190D01*
X57061904Y-81476190D01*
X57966666Y-80952380D02*
X58633333Y-80952380D01*
X58204761Y-81952380D01*
X49683333Y-81952380D02*
X49350000Y-81476190D01*
X49111904Y-81952380D02*
X49111904Y-80952380D01*
X49492857Y-80952380D01*
X49588095Y-81000000D01*
X49635714Y-81047619D01*
X49683333Y-81142857D01*
X49683333Y-81285714D01*
X49635714Y-81380952D01*
X49588095Y-81428571D01*
X49492857Y-81476190D01*
X49111904Y-81476190D01*
X50540476Y-80952380D02*
X50350000Y-80952380D01*
X50254761Y-81000000D01*
X50207142Y-81047619D01*
X50111904Y-81190476D01*
X50064285Y-81380952D01*
X50064285Y-81761904D01*
X50111904Y-81857142D01*
X50159523Y-81904761D01*
X50254761Y-81952380D01*
X50445238Y-81952380D01*
X50540476Y-81904761D01*
X50588095Y-81857142D01*
X50635714Y-81761904D01*
X50635714Y-81523809D01*
X50588095Y-81428571D01*
X50540476Y-81380952D01*
X50445238Y-81333333D01*
X50254761Y-81333333D01*
X50159523Y-81380952D01*
X50111904Y-81428571D01*
X50064285Y-81523809D01*
X68433333Y-47452380D02*
X68100000Y-46976190D01*
X67861904Y-47452380D02*
X67861904Y-46452380D01*
X68242857Y-46452380D01*
X68338095Y-46500000D01*
X68385714Y-46547619D01*
X68433333Y-46642857D01*
X68433333Y-46785714D01*
X68385714Y-46880952D01*
X68338095Y-46928571D01*
X68242857Y-46976190D01*
X67861904Y-46976190D01*
X69338095Y-46452380D02*
X68861904Y-46452380D01*
X68814285Y-46928571D01*
X68861904Y-46880952D01*
X68957142Y-46833333D01*
X69195238Y-46833333D01*
X69290476Y-46880952D01*
X69338095Y-46928571D01*
X69385714Y-47023809D01*
X69385714Y-47261904D01*
X69338095Y-47357142D01*
X69290476Y-47404761D01*
X69195238Y-47452380D01*
X68957142Y-47452380D01*
X68861904Y-47404761D01*
X68814285Y-47357142D01*
X45012380Y-66761904D02*
X45821904Y-66761904D01*
X45917142Y-66714285D01*
X45964761Y-66666666D01*
X46012380Y-66571428D01*
X46012380Y-66380952D01*
X45964761Y-66285714D01*
X45917142Y-66238095D01*
X45821904Y-66190476D01*
X45012380Y-66190476D01*
X45107619Y-65761904D02*
X45060000Y-65714285D01*
X45012380Y-65619047D01*
X45012380Y-65380952D01*
X45060000Y-65285714D01*
X45107619Y-65238095D01*
X45202857Y-65190476D01*
X45298095Y-65190476D01*
X45440952Y-65238095D01*
X46012380Y-65809523D01*
X46012380Y-65190476D01*
X97892142Y-73142857D02*
X100892142Y-72428571D01*
X98749285Y-71857142D01*
X100892142Y-71285714D01*
X97892142Y-70571428D01*
X100749285Y-68285714D02*
X100892142Y-68571428D01*
X100892142Y-69142857D01*
X100749285Y-69428571D01*
X100463571Y-69571428D01*
X99320714Y-69571428D01*
X99035000Y-69428571D01*
X98892142Y-69142857D01*
X98892142Y-68571428D01*
X99035000Y-68285714D01*
X99320714Y-68142857D01*
X99606428Y-68142857D01*
X99892142Y-69571428D01*
X100892142Y-66857142D02*
X98892142Y-66857142D01*
X99177857Y-66857142D02*
X99035000Y-66714285D01*
X98892142Y-66428571D01*
X98892142Y-66000000D01*
X99035000Y-65714285D01*
X99320714Y-65571428D01*
X100892142Y-65571428D01*
X99320714Y-65571428D02*
X99035000Y-65428571D01*
X98892142Y-65142857D01*
X98892142Y-64714285D01*
X99035000Y-64428571D01*
X99320714Y-64285714D01*
X100892142Y-64285714D01*
X100892142Y-62428571D02*
X100749285Y-62714285D01*
X100606428Y-62857142D01*
X100320714Y-63000000D01*
X99463571Y-63000000D01*
X99177857Y-62857142D01*
X99035000Y-62714285D01*
X98892142Y-62428571D01*
X98892142Y-62000000D01*
X99035000Y-61714285D01*
X99177857Y-61571428D01*
X99463571Y-61428571D01*
X100320714Y-61428571D01*
X100606428Y-61571428D01*
X100749285Y-61714285D01*
X100892142Y-62000000D01*
X100892142Y-62428571D01*
X100749285Y-60285714D02*
X100892142Y-60000000D01*
X100892142Y-59428571D01*
X100749285Y-59142857D01*
X100463571Y-59000000D01*
X100320714Y-59000000D01*
X100035000Y-59142857D01*
X99892142Y-59428571D01*
X99892142Y-59857142D01*
X99749285Y-60142857D01*
X99463571Y-60285714D01*
X99320714Y-60285714D01*
X99035000Y-60142857D01*
X98892142Y-59857142D01*
X98892142Y-59428571D01*
X99035000Y-59142857D01*
X63502380Y-91321904D02*
X64311904Y-91321904D01*
X64407142Y-91274285D01*
X64454761Y-91226666D01*
X64502380Y-91131428D01*
X64502380Y-90940952D01*
X64454761Y-90845714D01*
X64407142Y-90798095D01*
X64311904Y-90750476D01*
X63502380Y-90750476D01*
X64502380Y-89750476D02*
X64502380Y-90321904D01*
X64502380Y-90036190D02*
X63502380Y-90036190D01*
X63645238Y-90131428D01*
X63740476Y-90226666D01*
X63788095Y-90321904D01*
X56633333Y-108952380D02*
X56300000Y-108476190D01*
X56061904Y-108952380D02*
X56061904Y-107952380D01*
X56442857Y-107952380D01*
X56538095Y-108000000D01*
X56585714Y-108047619D01*
X56633333Y-108142857D01*
X56633333Y-108285714D01*
X56585714Y-108380952D01*
X56538095Y-108428571D01*
X56442857Y-108476190D01*
X56061904Y-108476190D01*
X57490476Y-108285714D02*
X57490476Y-108952380D01*
X57252380Y-107904761D02*
X57014285Y-108619047D01*
X57633333Y-108619047D01*
X81683333Y-109202380D02*
X81350000Y-108726190D01*
X81111904Y-109202380D02*
X81111904Y-108202380D01*
X81492857Y-108202380D01*
X81588095Y-108250000D01*
X81635714Y-108297619D01*
X81683333Y-108392857D01*
X81683333Y-108535714D01*
X81635714Y-108630952D01*
X81588095Y-108678571D01*
X81492857Y-108726190D01*
X81111904Y-108726190D01*
X82016666Y-108202380D02*
X82635714Y-108202380D01*
X82302380Y-108583333D01*
X82445238Y-108583333D01*
X82540476Y-108630952D01*
X82588095Y-108678571D01*
X82635714Y-108773809D01*
X82635714Y-109011904D01*
X82588095Y-109107142D01*
X82540476Y-109154761D01*
X82445238Y-109202380D01*
X82159523Y-109202380D01*
X82064285Y-109154761D01*
X82016666Y-109107142D01*
X56633333Y-104952380D02*
X56300000Y-104476190D01*
X56061904Y-104952380D02*
X56061904Y-103952380D01*
X56442857Y-103952380D01*
X56538095Y-104000000D01*
X56585714Y-104047619D01*
X56633333Y-104142857D01*
X56633333Y-104285714D01*
X56585714Y-104380952D01*
X56538095Y-104428571D01*
X56442857Y-104476190D01*
X56061904Y-104476190D01*
X57014285Y-104047619D02*
X57061904Y-104000000D01*
X57157142Y-103952380D01*
X57395238Y-103952380D01*
X57490476Y-104000000D01*
X57538095Y-104047619D01*
X57585714Y-104142857D01*
X57585714Y-104238095D01*
X57538095Y-104380952D01*
X56966666Y-104952380D01*
X57585714Y-104952380D01*
X81683333Y-104952380D02*
X81350000Y-104476190D01*
X81111904Y-104952380D02*
X81111904Y-103952380D01*
X81492857Y-103952380D01*
X81588095Y-104000000D01*
X81635714Y-104047619D01*
X81683333Y-104142857D01*
X81683333Y-104285714D01*
X81635714Y-104380952D01*
X81588095Y-104428571D01*
X81492857Y-104476190D01*
X81111904Y-104476190D01*
X82635714Y-104952380D02*
X82064285Y-104952380D01*
X82350000Y-104952380D02*
X82350000Y-103952380D01*
X82254761Y-104095238D01*
X82159523Y-104190476D01*
X82064285Y-104238095D01*
X60622380Y-101583333D02*
X61336666Y-101583333D01*
X61479523Y-101630952D01*
X61574761Y-101726190D01*
X61622380Y-101869047D01*
X61622380Y-101964285D01*
X61622380Y-100583333D02*
X61622380Y-101154761D01*
X61622380Y-100869047D02*
X60622380Y-100869047D01*
X60765238Y-100964285D01*
X60860476Y-101059523D01*
X60908095Y-101154761D01*
%LPC*%
D14*
X97830000Y-109250000D03*
D15*
X95290000Y-109250000D03*
X92750000Y-109250000D03*
X90210000Y-109250000D03*
X87670000Y-109250000D03*
D14*
X73500000Y-109250000D03*
D15*
X70960000Y-109250000D03*
X68420000Y-109250000D03*
X65880000Y-109250000D03*
X63340000Y-109250000D03*
D16*
X47000000Y-109750000D03*
D17*
X47000000Y-107210000D03*
D14*
X95500000Y-42500000D03*
D15*
X92960000Y-42500000D03*
X90420000Y-42500000D03*
X87880000Y-42500000D03*
X85340000Y-42500000D03*
X82800000Y-42500000D03*
X80260000Y-42500000D03*
D16*
X95250000Y-83750000D03*
D17*
X95250000Y-86290000D03*
X95250000Y-88830000D03*
X95250000Y-91370000D03*
X95250000Y-93910000D03*
X95250000Y-96450000D03*
X95250000Y-98990000D03*
D14*
X51000000Y-42000000D03*
D15*
X53540000Y-42000000D03*
D14*
X59000000Y-42000000D03*
D15*
X61540000Y-42000000D03*
D14*
X57000000Y-91000000D03*
D15*
X59540000Y-91000000D03*
D14*
X48750000Y-91000000D03*
D15*
X51290000Y-91000000D03*
D14*
X67000000Y-42000000D03*
D15*
X69540000Y-42000000D03*
D18*
X54250000Y-49500000D03*
X50650000Y-49500000D03*
X62500000Y-49500000D03*
X58900000Y-49500000D03*
X59500000Y-84000000D03*
X55900000Y-84000000D03*
X51550000Y-84000000D03*
X47950000Y-84000000D03*
X70300000Y-49500000D03*
X66700000Y-49500000D03*
D19*
X49370000Y-77430000D03*
X51910000Y-77430000D03*
X54450000Y-77430000D03*
X56990000Y-77430000D03*
X59530000Y-77430000D03*
X62070000Y-77430000D03*
X64610000Y-77430000D03*
X67150000Y-77430000D03*
X69690000Y-77430000D03*
X72230000Y-77430000D03*
X74770000Y-77430000D03*
X77310000Y-77430000D03*
X59530000Y-54570000D03*
X62070000Y-54570000D03*
X64610000Y-54570000D03*
X67150000Y-54570000D03*
X69690000Y-54570000D03*
X72230000Y-54570000D03*
X74770000Y-54570000D03*
X77310000Y-54570000D03*
X79850000Y-54570000D03*
X82390000Y-54570000D03*
X84930000Y-54570000D03*
X87470000Y-54570000D03*
X90010000Y-54570000D03*
X92550000Y-54570000D03*
X95090000Y-54570000D03*
X97630000Y-54570000D03*
X79850000Y-77430000D03*
X82390000Y-77430000D03*
X84930000Y-77430000D03*
X87470000Y-77430000D03*
X90010000Y-77430000D03*
X92550000Y-77430000D03*
X95090000Y-77430000D03*
X97630000Y-77430000D03*
D20*
X85030000Y-86880000D03*
X85030000Y-94500000D03*
X67250000Y-86880000D03*
X69790000Y-86880000D03*
X72330000Y-86880000D03*
X74870000Y-86880000D03*
X77410000Y-86880000D03*
X79950000Y-86880000D03*
X82490000Y-86880000D03*
X82490000Y-94500000D03*
X79950000Y-94500000D03*
X77410000Y-94500000D03*
X74870000Y-94500000D03*
X72330000Y-94500000D03*
X69790000Y-94500000D03*
D21*
X67250000Y-94500000D03*
D18*
X58500000Y-111000000D03*
X54900000Y-111000000D03*
X83550000Y-111250000D03*
X79950000Y-111250000D03*
X58500000Y-107000000D03*
X54900000Y-107000000D03*
X83550000Y-107000000D03*
X79950000Y-107000000D03*
D22*
X63500000Y-101250000D03*
D23*
X66040000Y-101250000D03*
X68580000Y-101250000D03*
X71120000Y-101250000D03*
X73660000Y-101250000D03*
X76200000Y-101250000D03*
X78740000Y-101250000D03*
X81280000Y-101250000D03*
X83820000Y-101250000D03*
X86360000Y-101250000D03*
M02*
