G04 #@! TF.GenerationSoftware,KiCad,Pcbnew,(5.1.8)-1*
G04 #@! TF.CreationDate,2021-09-19T21:20:28+02:00*
G04 #@! TF.ProjectId,sdr-controller,7364722d-636f-46e7-9472-6f6c6c65722e,rev?*
G04 #@! TF.SameCoordinates,Original*
G04 #@! TF.FileFunction,Soldermask,Top*
G04 #@! TF.FilePolarity,Negative*
%FSLAX46Y46*%
G04 Gerber Fmt 4.6, Leading zero omitted, Abs format (unit mm)*
G04 Created by KiCad (PCBNEW (5.1.8)-1) date 2021-09-19 21:20:28*
%MOMM*%
%LPD*%
G01*
G04 APERTURE LIST*
%ADD10R,2.000000X2.600000*%
%ADD11O,2.000000X2.600000*%
%ADD12R,2.600000X2.000000*%
%ADD13O,2.600000X2.000000*%
%ADD14R,1.500000X1.800000*%
%ADD15C,1.800000*%
%ADD16C,1.600000*%
%ADD17R,1.600000X1.600000*%
%ADD18R,1.700000X1.700000*%
%ADD19O,1.700000X1.700000*%
G04 APERTURE END LIST*
D10*
X97830000Y-109250000D03*
D11*
X95290000Y-109250000D03*
X92750000Y-109250000D03*
X90210000Y-109250000D03*
X87670000Y-109250000D03*
D10*
X73500000Y-109250000D03*
D11*
X70960000Y-109250000D03*
X68420000Y-109250000D03*
X65880000Y-109250000D03*
X63340000Y-109250000D03*
D12*
X47000000Y-109750000D03*
D13*
X47000000Y-107210000D03*
D10*
X95500000Y-42500000D03*
D11*
X92960000Y-42500000D03*
X90420000Y-42500000D03*
X87880000Y-42500000D03*
X85340000Y-42500000D03*
X82800000Y-42500000D03*
X80260000Y-42500000D03*
D12*
X95250000Y-83750000D03*
D13*
X95250000Y-86290000D03*
X95250000Y-88830000D03*
X95250000Y-91370000D03*
X95250000Y-93910000D03*
X95250000Y-96450000D03*
X95250000Y-98990000D03*
D10*
X51000000Y-42000000D03*
D11*
X53540000Y-42000000D03*
D10*
X59000000Y-42000000D03*
D11*
X61540000Y-42000000D03*
D10*
X57000000Y-91000000D03*
D11*
X59540000Y-91000000D03*
D10*
X48750000Y-91000000D03*
D11*
X51290000Y-91000000D03*
D10*
X67000000Y-42000000D03*
D11*
X69540000Y-42000000D03*
D14*
X54250000Y-49500000D03*
X50650000Y-49500000D03*
X62500000Y-49500000D03*
X58900000Y-49500000D03*
X59500000Y-84000000D03*
X55900000Y-84000000D03*
X51550000Y-84000000D03*
X47950000Y-84000000D03*
X70300000Y-49500000D03*
X66700000Y-49500000D03*
D15*
X49370000Y-77430000D03*
X51910000Y-77430000D03*
X54450000Y-77430000D03*
X56990000Y-77430000D03*
X59530000Y-77430000D03*
X62070000Y-77430000D03*
X64610000Y-77430000D03*
X67150000Y-77430000D03*
X69690000Y-77430000D03*
X72230000Y-77430000D03*
X74770000Y-77430000D03*
X77310000Y-77430000D03*
X59530000Y-54570000D03*
X62070000Y-54570000D03*
X64610000Y-54570000D03*
X67150000Y-54570000D03*
X69690000Y-54570000D03*
X72230000Y-54570000D03*
X74770000Y-54570000D03*
X77310000Y-54570000D03*
X79850000Y-54570000D03*
X82390000Y-54570000D03*
X84930000Y-54570000D03*
X87470000Y-54570000D03*
X90010000Y-54570000D03*
X92550000Y-54570000D03*
X95090000Y-54570000D03*
X97630000Y-54570000D03*
X79850000Y-77430000D03*
X82390000Y-77430000D03*
X84930000Y-77430000D03*
X87470000Y-77430000D03*
X90010000Y-77430000D03*
X92550000Y-77430000D03*
X95090000Y-77430000D03*
X97630000Y-77430000D03*
D16*
X85030000Y-86880000D03*
X85030000Y-94500000D03*
X67250000Y-86880000D03*
X69790000Y-86880000D03*
X72330000Y-86880000D03*
X74870000Y-86880000D03*
X77410000Y-86880000D03*
X79950000Y-86880000D03*
X82490000Y-86880000D03*
X82490000Y-94500000D03*
X79950000Y-94500000D03*
X77410000Y-94500000D03*
X74870000Y-94500000D03*
X72330000Y-94500000D03*
X69790000Y-94500000D03*
D17*
X67250000Y-94500000D03*
D14*
X58500000Y-111000000D03*
X54900000Y-111000000D03*
X83550000Y-111250000D03*
X79950000Y-111250000D03*
X58500000Y-107000000D03*
X54900000Y-107000000D03*
X83550000Y-107000000D03*
X79950000Y-107000000D03*
D18*
X63420000Y-101250000D03*
D19*
X65960000Y-101250000D03*
X68500000Y-101250000D03*
X71040000Y-101250000D03*
X73580000Y-101250000D03*
X76120000Y-101250000D03*
X78660000Y-101250000D03*
X81200000Y-101250000D03*
X83740000Y-101250000D03*
X86280000Y-101250000D03*
M02*
