G04 #@! TF.GenerationSoftware,KiCad,Pcbnew,(5.1.8)-1*
G04 #@! TF.CreationDate,2021-09-19T21:20:28+02:00*
G04 #@! TF.ProjectId,sdr-controller,7364722d-636f-46e7-9472-6f6c6c65722e,rev?*
G04 #@! TF.SameCoordinates,Original*
G04 #@! TF.FileFunction,Copper,L2,Bot*
G04 #@! TF.FilePolarity,Positive*
%FSLAX46Y46*%
G04 Gerber Fmt 4.6, Leading zero omitted, Abs format (unit mm)*
G04 Created by KiCad (PCBNEW (5.1.8)-1) date 2021-09-19 21:20:28*
%MOMM*%
%LPD*%
G01*
G04 APERTURE LIST*
G04 #@! TA.AperFunction,ComponentPad*
%ADD10R,2.000000X2.600000*%
G04 #@! TD*
G04 #@! TA.AperFunction,ComponentPad*
%ADD11O,2.000000X2.600000*%
G04 #@! TD*
G04 #@! TA.AperFunction,ComponentPad*
%ADD12R,2.600000X2.000000*%
G04 #@! TD*
G04 #@! TA.AperFunction,ComponentPad*
%ADD13O,2.600000X2.000000*%
G04 #@! TD*
G04 #@! TA.AperFunction,ComponentPad*
%ADD14C,1.800000*%
G04 #@! TD*
G04 #@! TA.AperFunction,ComponentPad*
%ADD15C,1.600000*%
G04 #@! TD*
G04 #@! TA.AperFunction,ComponentPad*
%ADD16R,1.600000X1.600000*%
G04 #@! TD*
G04 #@! TA.AperFunction,ComponentPad*
%ADD17R,1.700000X1.700000*%
G04 #@! TD*
G04 #@! TA.AperFunction,ComponentPad*
%ADD18O,1.700000X1.700000*%
G04 #@! TD*
G04 #@! TA.AperFunction,ViaPad*
%ADD19C,0.600000*%
G04 #@! TD*
G04 #@! TA.AperFunction,Conductor*
%ADD20C,0.500000*%
G04 #@! TD*
G04 #@! TA.AperFunction,Conductor*
%ADD21C,0.254000*%
G04 #@! TD*
G04 #@! TA.AperFunction,Conductor*
%ADD22C,0.100000*%
G04 #@! TD*
G04 APERTURE END LIST*
D10*
X97830000Y-109250000D03*
D11*
X95290000Y-109250000D03*
X92750000Y-109250000D03*
X90210000Y-109250000D03*
X87670000Y-109250000D03*
D10*
X73500000Y-109250000D03*
D11*
X70960000Y-109250000D03*
X68420000Y-109250000D03*
X65880000Y-109250000D03*
X63340000Y-109250000D03*
D12*
X47000000Y-109750000D03*
D13*
X47000000Y-107210000D03*
D10*
X95500000Y-42500000D03*
D11*
X92960000Y-42500000D03*
X90420000Y-42500000D03*
X87880000Y-42500000D03*
X85340000Y-42500000D03*
X82800000Y-42500000D03*
X80260000Y-42500000D03*
D12*
X95250000Y-83750000D03*
D13*
X95250000Y-86290000D03*
X95250000Y-88830000D03*
X95250000Y-91370000D03*
X95250000Y-93910000D03*
X95250000Y-96450000D03*
X95250000Y-98990000D03*
D10*
X51000000Y-42000000D03*
D11*
X53540000Y-42000000D03*
D10*
X59000000Y-42000000D03*
D11*
X61540000Y-42000000D03*
D10*
X57000000Y-91000000D03*
D11*
X59540000Y-91000000D03*
D10*
X48750000Y-91000000D03*
D11*
X51290000Y-91000000D03*
D10*
X67000000Y-42000000D03*
D11*
X69540000Y-42000000D03*
D14*
X49370000Y-77430000D03*
X51910000Y-77430000D03*
X54450000Y-77430000D03*
X56990000Y-77430000D03*
X59530000Y-77430000D03*
X62070000Y-77430000D03*
X64610000Y-77430000D03*
X67150000Y-77430000D03*
X69690000Y-77430000D03*
X72230000Y-77430000D03*
X74770000Y-77430000D03*
X77310000Y-77430000D03*
X59530000Y-54570000D03*
X62070000Y-54570000D03*
X64610000Y-54570000D03*
X67150000Y-54570000D03*
X69690000Y-54570000D03*
X72230000Y-54570000D03*
X74770000Y-54570000D03*
X77310000Y-54570000D03*
X79850000Y-54570000D03*
X82390000Y-54570000D03*
X84930000Y-54570000D03*
X87470000Y-54570000D03*
X90010000Y-54570000D03*
X92550000Y-54570000D03*
X95090000Y-54570000D03*
X97630000Y-54570000D03*
X79850000Y-77430000D03*
X82390000Y-77430000D03*
X84930000Y-77430000D03*
X87470000Y-77430000D03*
X90010000Y-77430000D03*
X92550000Y-77430000D03*
X95090000Y-77430000D03*
X97630000Y-77430000D03*
D15*
X85030000Y-86880000D03*
X85030000Y-94500000D03*
X67250000Y-86880000D03*
X69790000Y-86880000D03*
X72330000Y-86880000D03*
X74870000Y-86880000D03*
X77410000Y-86880000D03*
X79950000Y-86880000D03*
X82490000Y-86880000D03*
X82490000Y-94500000D03*
X79950000Y-94500000D03*
X77410000Y-94500000D03*
X74870000Y-94500000D03*
X72330000Y-94500000D03*
X69790000Y-94500000D03*
D16*
X67250000Y-94500000D03*
D17*
X63420000Y-101250000D03*
D18*
X65960000Y-101250000D03*
X68500000Y-101250000D03*
X71040000Y-101250000D03*
X73580000Y-101250000D03*
X76120000Y-101250000D03*
X78660000Y-101250000D03*
X81200000Y-101250000D03*
X83740000Y-101250000D03*
X86280000Y-101250000D03*
D19*
X52539000Y-82671500D03*
X75137700Y-50833800D03*
X72926500Y-51240600D03*
X98373300Y-88574200D03*
X86760000Y-86971200D03*
X78244600Y-79857300D03*
X92700000Y-66601600D03*
D20*
X59530000Y-54570000D02*
X59530000Y-72350000D01*
X59530000Y-72350000D02*
X54450000Y-77430000D01*
X63420000Y-101250000D02*
X63420000Y-99900000D01*
X63420000Y-99900000D02*
X57000000Y-93480000D01*
X57000000Y-93480000D02*
X57000000Y-91000000D01*
X67000000Y-42000000D02*
X65500000Y-42000000D01*
X65500000Y-42000000D02*
X63813800Y-40313800D01*
X63813800Y-40313800D02*
X60686200Y-40313800D01*
X60686200Y-40313800D02*
X59000000Y-42000000D01*
X67000000Y-42000000D02*
X68701800Y-40298200D01*
X68701800Y-40298200D02*
X93298200Y-40298200D01*
X93298200Y-40298200D02*
X95500000Y-42500000D01*
X82390000Y-77430000D02*
X79850000Y-77430000D01*
X97630000Y-77430000D02*
X96339900Y-78720100D01*
X96339900Y-78720100D02*
X83680100Y-78720100D01*
X83680100Y-78720100D02*
X82390000Y-77430000D01*
X59000000Y-42000000D02*
X57500000Y-42000000D01*
X57500000Y-42000000D02*
X55822000Y-40322000D01*
X55822000Y-40322000D02*
X52678000Y-40322000D01*
X52678000Y-40322000D02*
X51000000Y-42000000D01*
X92750000Y-107450000D02*
X96030000Y-107450000D01*
X96030000Y-107450000D02*
X97830000Y-109250000D01*
X86280000Y-104430000D02*
X89730000Y-104430000D01*
X89730000Y-104430000D02*
X92750000Y-107450000D01*
X73500000Y-109250000D02*
X75000000Y-109250000D01*
X75000000Y-109250000D02*
X79820000Y-104430000D01*
X79820000Y-104430000D02*
X86280000Y-104430000D01*
X86280000Y-102600000D02*
X86280000Y-104430000D01*
X68420000Y-109250000D02*
X70097300Y-110927300D01*
X70097300Y-110927300D02*
X71822700Y-110927300D01*
X71822700Y-110927300D02*
X73500000Y-109250000D01*
X92750000Y-109250000D02*
X92750000Y-107450000D01*
X86280000Y-101250000D02*
X86280000Y-102600000D01*
X69790000Y-94500000D02*
X72330000Y-94500000D01*
X67250000Y-94500000D02*
X69790000Y-94500000D01*
X68500000Y-101250000D02*
X68500000Y-99900000D01*
X68500000Y-99900000D02*
X68668700Y-99900000D01*
X68668700Y-99900000D02*
X73600000Y-94968700D01*
X73600000Y-94968700D02*
X73600000Y-94028400D01*
X73600000Y-94028400D02*
X74333100Y-93295300D01*
X74333100Y-93295300D02*
X76205300Y-93295300D01*
X76205300Y-93295300D02*
X77410000Y-94500000D01*
X71040000Y-101250000D02*
X76054500Y-96235500D01*
X76054500Y-96235500D02*
X78214500Y-96235500D01*
X78214500Y-96235500D02*
X79950000Y-94500000D01*
X76120000Y-101250000D02*
X77360800Y-102490800D01*
X77360800Y-102490800D02*
X81714500Y-102490800D01*
X81714500Y-102490800D02*
X82427400Y-101777900D01*
X82427400Y-101777900D02*
X82427400Y-98838100D01*
X82427400Y-98838100D02*
X83667400Y-97598100D01*
X83667400Y-97598100D02*
X83667400Y-88242600D01*
X83667400Y-88242600D02*
X85030000Y-86880000D01*
X81200000Y-101250000D02*
X81200000Y-88130000D01*
X81200000Y-88130000D02*
X79950000Y-86880000D01*
X62070000Y-77430000D02*
X62070000Y-95532800D01*
X62070000Y-95532800D02*
X67187400Y-100650200D01*
X67187400Y-100650200D02*
X67187400Y-105477400D01*
X67187400Y-105477400D02*
X70960000Y-109250000D01*
X49370000Y-77430000D02*
X53248900Y-81308900D01*
X53248900Y-81308900D02*
X53248900Y-103190300D01*
X53248900Y-103190300D02*
X62881700Y-112823100D01*
X62881700Y-112823100D02*
X91716900Y-112823100D01*
X91716900Y-112823100D02*
X95290000Y-109250000D01*
X51910000Y-77430000D02*
X54185100Y-79705100D01*
X54185100Y-79705100D02*
X54185200Y-79705100D01*
X54185200Y-79705100D02*
X54185200Y-103238500D01*
X54185200Y-103238500D02*
X63131900Y-112185200D01*
X63131900Y-112185200D02*
X87274800Y-112185200D01*
X87274800Y-112185200D02*
X90210000Y-109250000D01*
X87670000Y-109250000D02*
X86170000Y-109250000D01*
X86170000Y-109250000D02*
X83862200Y-111557800D01*
X83862200Y-111557800D02*
X63391800Y-111557800D01*
X63391800Y-111557800D02*
X55622600Y-103788600D01*
X55622600Y-103788600D02*
X55622600Y-81337400D01*
X55622600Y-81337400D02*
X59530000Y-77430000D01*
X69540000Y-42000000D02*
X71040000Y-42000000D01*
X92550000Y-54570000D02*
X86476600Y-48496600D01*
X86476600Y-48496600D02*
X77536600Y-48496600D01*
X77536600Y-48496600D02*
X71040000Y-42000000D01*
X90010000Y-54570000D02*
X87464100Y-52024100D01*
X87464100Y-52024100D02*
X59374200Y-52024100D01*
X59374200Y-52024100D02*
X47413100Y-63985200D01*
X47413100Y-63985200D02*
X47413100Y-80634600D01*
X47413100Y-80634600D02*
X51290000Y-84511500D01*
X51290000Y-84511500D02*
X51290000Y-91000000D01*
X52539000Y-82671500D02*
X48045500Y-78178000D01*
X48045500Y-78178000D02*
X48045500Y-64248100D01*
X48045500Y-64248100D02*
X59642100Y-52651500D01*
X59642100Y-52651500D02*
X77931500Y-52651500D01*
X77931500Y-52651500D02*
X79850000Y-54570000D01*
X61540000Y-42000000D02*
X63040000Y-42000000D01*
X75137700Y-50833800D02*
X70293200Y-45989300D01*
X70293200Y-45989300D02*
X67029300Y-45989300D01*
X67029300Y-45989300D02*
X63040000Y-42000000D01*
X55040000Y-42000000D02*
X64280500Y-51240500D01*
X64280500Y-51240500D02*
X72926500Y-51240500D01*
X72926500Y-51240500D02*
X72926500Y-51240600D01*
X53540000Y-42000000D02*
X55040000Y-42000000D01*
X95250000Y-86290000D02*
X97050000Y-86290000D01*
X97050000Y-86290000D02*
X100851000Y-82489000D01*
X100851000Y-82489000D02*
X100851000Y-57791000D01*
X100851000Y-57791000D02*
X97630000Y-54570000D01*
X98373300Y-88574200D02*
X102133900Y-84813600D01*
X102133900Y-84813600D02*
X102133900Y-54213900D01*
X102133900Y-54213900D02*
X90420000Y-42500000D01*
X72230000Y-77430000D02*
X68612300Y-81047700D01*
X68612300Y-81047700D02*
X68612300Y-87383100D01*
X68612300Y-87383100D02*
X69967400Y-88738200D01*
X69967400Y-88738200D02*
X77297700Y-88738200D01*
X77297700Y-88738200D02*
X78680000Y-87355900D01*
X78680000Y-87355900D02*
X78680000Y-86425900D01*
X78680000Y-86425900D02*
X79437500Y-85668400D01*
X79437500Y-85668400D02*
X92088400Y-85668400D01*
X92088400Y-85668400D02*
X95250000Y-88830000D01*
X87880000Y-42500000D02*
X101485000Y-56105000D01*
X101485000Y-56105000D02*
X101485000Y-84504700D01*
X101485000Y-84504700D02*
X97696000Y-88293700D01*
X97696000Y-88293700D02*
X97696000Y-88708600D01*
X97696000Y-88708600D02*
X95180800Y-91223800D01*
X86760000Y-86971200D02*
X90928200Y-86971200D01*
X90928200Y-86971200D02*
X95180800Y-91223800D01*
X74770000Y-77430000D02*
X77197300Y-79857300D01*
X77197300Y-79857300D02*
X78244600Y-79857300D01*
X95180800Y-91223800D02*
X95180800Y-91300800D01*
X95180800Y-91300800D02*
X95250000Y-91370000D01*
X87470000Y-77430000D02*
X87470000Y-74890000D01*
X87470000Y-74890000D02*
X67150000Y-54570000D01*
X74770000Y-54570000D02*
X73481400Y-53281400D01*
X73481400Y-53281400D02*
X65898600Y-53281400D01*
X65898600Y-53281400D02*
X64610000Y-54570000D01*
X69790000Y-86880000D02*
X70969300Y-88059300D01*
X70969300Y-88059300D02*
X75355800Y-88059300D01*
X75355800Y-88059300D02*
X76047400Y-87367700D01*
X76047400Y-87367700D02*
X76047400Y-86498000D01*
X76047400Y-86498000D02*
X80757200Y-81788200D01*
X80757200Y-81788200D02*
X96916900Y-81788200D01*
X96916900Y-81788200D02*
X100223600Y-78481500D01*
X100223600Y-78481500D02*
X100223600Y-67323600D01*
X100223600Y-67323600D02*
X87470000Y-54570000D01*
X72330000Y-86880000D02*
X79704700Y-79505300D01*
X79704700Y-79505300D02*
X97410200Y-79505300D01*
X97410200Y-79505300D02*
X98927100Y-77988400D01*
X98927100Y-77988400D02*
X98927100Y-72828700D01*
X98927100Y-72828700D02*
X92700000Y-66601600D01*
X74870000Y-86880000D02*
X74870000Y-86788100D01*
X74870000Y-86788100D02*
X81525400Y-80132700D01*
X81525400Y-80132700D02*
X97670100Y-80132700D01*
X97670100Y-80132700D02*
X99554500Y-78248300D01*
X99554500Y-78248300D02*
X99554500Y-71734500D01*
X99554500Y-71734500D02*
X82390000Y-54570000D01*
D21*
X105162540Y-35679102D02*
X105318894Y-35726308D01*
X105463096Y-35802982D01*
X105589663Y-35906207D01*
X105693769Y-36032051D01*
X105771447Y-36175711D01*
X105819742Y-36331729D01*
X105840000Y-36524473D01*
X105840001Y-112967712D01*
X105820898Y-113162540D01*
X105773692Y-113318895D01*
X105697018Y-113463096D01*
X105593792Y-113589664D01*
X105467951Y-113693768D01*
X105324289Y-113771447D01*
X105168271Y-113819742D01*
X104975527Y-113840000D01*
X41532277Y-113840000D01*
X41337460Y-113820898D01*
X41181105Y-113773692D01*
X41036904Y-113697018D01*
X40910336Y-113593792D01*
X40806232Y-113467951D01*
X40728553Y-113324289D01*
X40680258Y-113168271D01*
X40660000Y-112975527D01*
X40660000Y-110750000D01*
X45061928Y-110750000D01*
X45074188Y-110874482D01*
X45110498Y-110994180D01*
X45169463Y-111104494D01*
X45248815Y-111201185D01*
X45345506Y-111280537D01*
X45455820Y-111339502D01*
X45575518Y-111375812D01*
X45700000Y-111388072D01*
X46714250Y-111385000D01*
X46873000Y-111226250D01*
X46873000Y-109877000D01*
X47127000Y-109877000D01*
X47127000Y-111226250D01*
X47285750Y-111385000D01*
X48300000Y-111388072D01*
X48424482Y-111375812D01*
X48544180Y-111339502D01*
X48654494Y-111280537D01*
X48751185Y-111201185D01*
X48830537Y-111104494D01*
X48889502Y-110994180D01*
X48925812Y-110874482D01*
X48938072Y-110750000D01*
X48935000Y-110035750D01*
X48776250Y-109877000D01*
X47127000Y-109877000D01*
X46873000Y-109877000D01*
X45223750Y-109877000D01*
X45065000Y-110035750D01*
X45061928Y-110750000D01*
X40660000Y-110750000D01*
X40660000Y-107210000D01*
X45057089Y-107210000D01*
X45088657Y-107530516D01*
X45182148Y-107838715D01*
X45333969Y-108122752D01*
X45392655Y-108194261D01*
X45345506Y-108219463D01*
X45248815Y-108298815D01*
X45169463Y-108395506D01*
X45110498Y-108505820D01*
X45074188Y-108625518D01*
X45061928Y-108750000D01*
X45065000Y-109464250D01*
X45223750Y-109623000D01*
X46873000Y-109623000D01*
X46873000Y-109603000D01*
X47127000Y-109603000D01*
X47127000Y-109623000D01*
X48776250Y-109623000D01*
X48935000Y-109464250D01*
X48938072Y-108750000D01*
X48925812Y-108625518D01*
X48889502Y-108505820D01*
X48830537Y-108395506D01*
X48751185Y-108298815D01*
X48654494Y-108219463D01*
X48607345Y-108194261D01*
X48666031Y-108122752D01*
X48817852Y-107838715D01*
X48911343Y-107530516D01*
X48942911Y-107210000D01*
X48911343Y-106889484D01*
X48817852Y-106581285D01*
X48666031Y-106297248D01*
X48461714Y-106048286D01*
X48212752Y-105843969D01*
X47928715Y-105692148D01*
X47620516Y-105598657D01*
X47380322Y-105575000D01*
X46619678Y-105575000D01*
X46379484Y-105598657D01*
X46071285Y-105692148D01*
X45787248Y-105843969D01*
X45538286Y-106048286D01*
X45333969Y-106297248D01*
X45182148Y-106581285D01*
X45088657Y-106889484D01*
X45057089Y-107210000D01*
X40660000Y-107210000D01*
X40660000Y-98009683D01*
X40811269Y-98374879D01*
X41056862Y-98742436D01*
X41369444Y-99055018D01*
X41737001Y-99300611D01*
X42145409Y-99469779D01*
X42578972Y-99556021D01*
X43021030Y-99556021D01*
X43454593Y-99469779D01*
X43863001Y-99300611D01*
X44230558Y-99055018D01*
X44543140Y-98742436D01*
X44788733Y-98374879D01*
X44957901Y-97966471D01*
X45044143Y-97532908D01*
X45044143Y-97090850D01*
X44957901Y-96657287D01*
X44788733Y-96248879D01*
X44543140Y-95881322D01*
X44230558Y-95568740D01*
X43863001Y-95323147D01*
X43454593Y-95153979D01*
X43021030Y-95067737D01*
X42578972Y-95067737D01*
X42145409Y-95153979D01*
X41737001Y-95323147D01*
X41369444Y-95568740D01*
X41056862Y-95881322D01*
X40811269Y-96248879D01*
X40660000Y-96614075D01*
X40660000Y-92300000D01*
X47111928Y-92300000D01*
X47124188Y-92424482D01*
X47160498Y-92544180D01*
X47219463Y-92654494D01*
X47298815Y-92751185D01*
X47395506Y-92830537D01*
X47505820Y-92889502D01*
X47625518Y-92925812D01*
X47750000Y-92938072D01*
X48464250Y-92935000D01*
X48623000Y-92776250D01*
X48623000Y-91127000D01*
X47273750Y-91127000D01*
X47115000Y-91285750D01*
X47111928Y-92300000D01*
X40660000Y-92300000D01*
X40660000Y-89700000D01*
X47111928Y-89700000D01*
X47115000Y-90714250D01*
X47273750Y-90873000D01*
X48623000Y-90873000D01*
X48623000Y-89223750D01*
X48464250Y-89065000D01*
X47750000Y-89061928D01*
X47625518Y-89074188D01*
X47505820Y-89110498D01*
X47395506Y-89169463D01*
X47298815Y-89248815D01*
X47219463Y-89345506D01*
X47160498Y-89455820D01*
X47124188Y-89575518D01*
X47111928Y-89700000D01*
X40660000Y-89700000D01*
X40660000Y-63985200D01*
X46523819Y-63985200D01*
X46528100Y-64028669D01*
X46528101Y-80591121D01*
X46523819Y-80634600D01*
X46540905Y-80808090D01*
X46591512Y-80974913D01*
X46673690Y-81128659D01*
X46756568Y-81229646D01*
X46756571Y-81229649D01*
X46784284Y-81263417D01*
X46818051Y-81291130D01*
X50405000Y-84878079D01*
X50405001Y-89319135D01*
X50377248Y-89333969D01*
X50305739Y-89392655D01*
X50280537Y-89345506D01*
X50201185Y-89248815D01*
X50104494Y-89169463D01*
X49994180Y-89110498D01*
X49874482Y-89074188D01*
X49750000Y-89061928D01*
X49035750Y-89065000D01*
X48877000Y-89223750D01*
X48877000Y-90873000D01*
X48897000Y-90873000D01*
X48897000Y-91127000D01*
X48877000Y-91127000D01*
X48877000Y-92776250D01*
X49035750Y-92935000D01*
X49750000Y-92938072D01*
X49874482Y-92925812D01*
X49994180Y-92889502D01*
X50104494Y-92830537D01*
X50201185Y-92751185D01*
X50280537Y-92654494D01*
X50305739Y-92607345D01*
X50377249Y-92666031D01*
X50661286Y-92817852D01*
X50969485Y-92911343D01*
X51290000Y-92942911D01*
X51610516Y-92911343D01*
X51918715Y-92817852D01*
X52202752Y-92666031D01*
X52363901Y-92533780D01*
X52363901Y-103146821D01*
X52359619Y-103190300D01*
X52376705Y-103363790D01*
X52427312Y-103530613D01*
X52509490Y-103684359D01*
X52592368Y-103785346D01*
X52592371Y-103785349D01*
X52620084Y-103819117D01*
X52653852Y-103846830D01*
X62225170Y-113418149D01*
X62252883Y-113451917D01*
X62286651Y-113479630D01*
X62286653Y-113479632D01*
X62320246Y-113507201D01*
X62387641Y-113562511D01*
X62541387Y-113644689D01*
X62708210Y-113695295D01*
X62838223Y-113708100D01*
X62838233Y-113708100D01*
X62881699Y-113712381D01*
X62925165Y-113708100D01*
X91673431Y-113708100D01*
X91716900Y-113712381D01*
X91760369Y-113708100D01*
X91760377Y-113708100D01*
X91890390Y-113695295D01*
X92057213Y-113644689D01*
X92210959Y-113562511D01*
X92345717Y-113451917D01*
X92373434Y-113418144D01*
X94709194Y-111082385D01*
X94969484Y-111161343D01*
X95290000Y-111192911D01*
X95610515Y-111161343D01*
X95918714Y-111067852D01*
X96202751Y-110916031D01*
X96274261Y-110857345D01*
X96299463Y-110904494D01*
X96378815Y-111001185D01*
X96475506Y-111080537D01*
X96585820Y-111139502D01*
X96705518Y-111175812D01*
X96830000Y-111188072D01*
X97544250Y-111185000D01*
X97703000Y-111026250D01*
X97703000Y-109377000D01*
X97957000Y-109377000D01*
X97957000Y-111026250D01*
X98115750Y-111185000D01*
X98830000Y-111188072D01*
X98954482Y-111175812D01*
X99074180Y-111139502D01*
X99184494Y-111080537D01*
X99281185Y-111001185D01*
X99360537Y-110904494D01*
X99419502Y-110794180D01*
X99455812Y-110674482D01*
X99468072Y-110550000D01*
X99465000Y-109535750D01*
X99306250Y-109377000D01*
X97957000Y-109377000D01*
X97703000Y-109377000D01*
X97683000Y-109377000D01*
X97683000Y-109123000D01*
X97703000Y-109123000D01*
X97703000Y-107473750D01*
X97957000Y-107473750D01*
X97957000Y-109123000D01*
X99306250Y-109123000D01*
X99465000Y-108964250D01*
X99468072Y-107950000D01*
X99455812Y-107825518D01*
X99419502Y-107705820D01*
X99360537Y-107595506D01*
X99281185Y-107498815D01*
X99184494Y-107419463D01*
X99074180Y-107360498D01*
X98954482Y-107324188D01*
X98830000Y-107311928D01*
X98115750Y-107315000D01*
X97957000Y-107473750D01*
X97703000Y-107473750D01*
X97544250Y-107315000D01*
X96830000Y-107311928D01*
X96705518Y-107324188D01*
X96585820Y-107360498D01*
X96475506Y-107419463D01*
X96378815Y-107498815D01*
X96299463Y-107595506D01*
X96274261Y-107642655D01*
X96202752Y-107583969D01*
X95918715Y-107432148D01*
X95610516Y-107338657D01*
X95290000Y-107307089D01*
X94969485Y-107338657D01*
X94661286Y-107432148D01*
X94377249Y-107583969D01*
X94128286Y-107788286D01*
X94021716Y-107918142D01*
X93816317Y-107704078D01*
X93552761Y-107519990D01*
X93258355Y-107390856D01*
X93130434Y-107359876D01*
X92877000Y-107479223D01*
X92877000Y-109123000D01*
X92897000Y-109123000D01*
X92897000Y-109377000D01*
X92877000Y-109377000D01*
X92877000Y-109397000D01*
X92623000Y-109397000D01*
X92623000Y-109377000D01*
X92603000Y-109377000D01*
X92603000Y-109123000D01*
X92623000Y-109123000D01*
X92623000Y-107479223D01*
X92369566Y-107359876D01*
X92241645Y-107390856D01*
X91947239Y-107519990D01*
X91683683Y-107704078D01*
X91478284Y-107918142D01*
X91371714Y-107788286D01*
X91122752Y-107583969D01*
X90838715Y-107432148D01*
X90530516Y-107338657D01*
X90210000Y-107307089D01*
X89889485Y-107338657D01*
X89581286Y-107432148D01*
X89297249Y-107583969D01*
X89048286Y-107788286D01*
X88940000Y-107920233D01*
X88831714Y-107788286D01*
X88582752Y-107583969D01*
X88298715Y-107432148D01*
X87990516Y-107338657D01*
X87670000Y-107307089D01*
X87349485Y-107338657D01*
X87041286Y-107432148D01*
X86757249Y-107583969D01*
X86508286Y-107788286D01*
X86303969Y-108037248D01*
X86152148Y-108321285D01*
X86139268Y-108363746D01*
X86126533Y-108365000D01*
X86126523Y-108365000D01*
X85996510Y-108377805D01*
X85829687Y-108428411D01*
X85675941Y-108510589D01*
X85675939Y-108510590D01*
X85675940Y-108510590D01*
X85574953Y-108593468D01*
X85574951Y-108593470D01*
X85541183Y-108621183D01*
X85513470Y-108654951D01*
X83495622Y-110672800D01*
X75125978Y-110672800D01*
X75138072Y-110550000D01*
X75135000Y-109535750D01*
X74976250Y-109377000D01*
X73627000Y-109377000D01*
X73627000Y-109397000D01*
X73373000Y-109397000D01*
X73373000Y-109377000D01*
X73353000Y-109377000D01*
X73353000Y-109123000D01*
X73373000Y-109123000D01*
X73373000Y-107473750D01*
X73627000Y-107473750D01*
X73627000Y-109123000D01*
X74976250Y-109123000D01*
X75135000Y-108964250D01*
X75138072Y-107950000D01*
X75125812Y-107825518D01*
X75089502Y-107705820D01*
X75030537Y-107595506D01*
X74951185Y-107498815D01*
X74854494Y-107419463D01*
X74744180Y-107360498D01*
X74624482Y-107324188D01*
X74500000Y-107311928D01*
X73785750Y-107315000D01*
X73627000Y-107473750D01*
X73373000Y-107473750D01*
X73214250Y-107315000D01*
X72500000Y-107311928D01*
X72375518Y-107324188D01*
X72255820Y-107360498D01*
X72145506Y-107419463D01*
X72048815Y-107498815D01*
X71969463Y-107595506D01*
X71944261Y-107642655D01*
X71872752Y-107583969D01*
X71588715Y-107432148D01*
X71280516Y-107338657D01*
X70960000Y-107307089D01*
X70639485Y-107338657D01*
X70379194Y-107417615D01*
X68072400Y-105110822D01*
X68072400Y-102679038D01*
X68353740Y-102735000D01*
X68646260Y-102735000D01*
X68933158Y-102677932D01*
X69203411Y-102565990D01*
X69446632Y-102403475D01*
X69653475Y-102196632D01*
X69770000Y-102022240D01*
X69886525Y-102196632D01*
X70093368Y-102403475D01*
X70336589Y-102565990D01*
X70606842Y-102677932D01*
X70893740Y-102735000D01*
X71186260Y-102735000D01*
X71473158Y-102677932D01*
X71743411Y-102565990D01*
X71986632Y-102403475D01*
X72193475Y-102196632D01*
X72310000Y-102022240D01*
X72426525Y-102196632D01*
X72633368Y-102403475D01*
X72876589Y-102565990D01*
X73146842Y-102677932D01*
X73433740Y-102735000D01*
X73726260Y-102735000D01*
X74013158Y-102677932D01*
X74283411Y-102565990D01*
X74526632Y-102403475D01*
X74733475Y-102196632D01*
X74850000Y-102022240D01*
X74966525Y-102196632D01*
X75173368Y-102403475D01*
X75416589Y-102565990D01*
X75686842Y-102677932D01*
X75973740Y-102735000D01*
X76266260Y-102735000D01*
X76338960Y-102720539D01*
X76704270Y-103085849D01*
X76731983Y-103119617D01*
X76765751Y-103147330D01*
X76765753Y-103147332D01*
X76780925Y-103159783D01*
X76866741Y-103230211D01*
X77020487Y-103312389D01*
X77187310Y-103362995D01*
X77317323Y-103375800D01*
X77317333Y-103375800D01*
X77360799Y-103380081D01*
X77404265Y-103375800D01*
X81671031Y-103375800D01*
X81714500Y-103380081D01*
X81757969Y-103375800D01*
X81757977Y-103375800D01*
X81887990Y-103362995D01*
X82054813Y-103312389D01*
X82208559Y-103230211D01*
X82343317Y-103119617D01*
X82371034Y-103085844D01*
X82949248Y-102507631D01*
X83036589Y-102565990D01*
X83306842Y-102677932D01*
X83593740Y-102735000D01*
X83886260Y-102735000D01*
X84173158Y-102677932D01*
X84443411Y-102565990D01*
X84686632Y-102403475D01*
X84893475Y-102196632D01*
X85015195Y-102014466D01*
X85084822Y-102131355D01*
X85279731Y-102347588D01*
X85513080Y-102521641D01*
X85775901Y-102646825D01*
X85923110Y-102691476D01*
X86153000Y-102570155D01*
X86153000Y-101377000D01*
X86407000Y-101377000D01*
X86407000Y-102570155D01*
X86636890Y-102691476D01*
X86784099Y-102646825D01*
X87046920Y-102521641D01*
X87280269Y-102347588D01*
X87475178Y-102131355D01*
X87624157Y-101881252D01*
X87721481Y-101606891D01*
X87600814Y-101377000D01*
X86407000Y-101377000D01*
X86153000Y-101377000D01*
X86133000Y-101377000D01*
X86133000Y-101123000D01*
X86153000Y-101123000D01*
X86153000Y-99929845D01*
X86407000Y-99929845D01*
X86407000Y-101123000D01*
X87600814Y-101123000D01*
X87721481Y-100893109D01*
X87624157Y-100618748D01*
X87475178Y-100368645D01*
X87280269Y-100152412D01*
X87046920Y-99978359D01*
X86784099Y-99853175D01*
X86636890Y-99808524D01*
X86407000Y-99929845D01*
X86153000Y-99929845D01*
X85923110Y-99808524D01*
X85775901Y-99853175D01*
X85513080Y-99978359D01*
X85279731Y-100152412D01*
X85084822Y-100368645D01*
X85015195Y-100485534D01*
X84893475Y-100303368D01*
X84686632Y-100096525D01*
X84443411Y-99934010D01*
X84173158Y-99822068D01*
X83886260Y-99765000D01*
X83593740Y-99765000D01*
X83312400Y-99820962D01*
X83312400Y-99204678D01*
X84262450Y-98254629D01*
X84296217Y-98226917D01*
X84406811Y-98092159D01*
X84488989Y-97938413D01*
X84539595Y-97771590D01*
X84552400Y-97641577D01*
X84552400Y-97641569D01*
X84556681Y-97598100D01*
X84552400Y-97554631D01*
X84552400Y-95859678D01*
X84818184Y-95926300D01*
X85100512Y-95940217D01*
X85380130Y-95898787D01*
X85646292Y-95803603D01*
X85771514Y-95736671D01*
X85843097Y-95492702D01*
X85030000Y-94679605D01*
X85015858Y-94693748D01*
X84836253Y-94514143D01*
X84850395Y-94500000D01*
X85209605Y-94500000D01*
X86022702Y-95313097D01*
X86266671Y-95241514D01*
X86387571Y-94986004D01*
X86456300Y-94711816D01*
X86470217Y-94429488D01*
X86428787Y-94149870D01*
X86333603Y-93883708D01*
X86266671Y-93758486D01*
X86022702Y-93686903D01*
X85209605Y-94500000D01*
X84850395Y-94500000D01*
X84836253Y-94485858D01*
X85015858Y-94306253D01*
X85030000Y-94320395D01*
X85843097Y-93507298D01*
X85771514Y-93263329D01*
X85516004Y-93142429D01*
X85241816Y-93073700D01*
X84959488Y-93059783D01*
X84679870Y-93101213D01*
X84552400Y-93146798D01*
X84552400Y-88609178D01*
X84853561Y-88308017D01*
X84888665Y-88315000D01*
X85171335Y-88315000D01*
X85448574Y-88259853D01*
X85709727Y-88151680D01*
X85944759Y-87994637D01*
X86144637Y-87794759D01*
X86195550Y-87718562D01*
X86317111Y-87799786D01*
X86487271Y-87870268D01*
X86667911Y-87906200D01*
X86852089Y-87906200D01*
X87032729Y-87870268D01*
X87066692Y-87856200D01*
X90561622Y-87856200D01*
X93437219Y-90731798D01*
X93432148Y-90741285D01*
X93338657Y-91049484D01*
X93307089Y-91370000D01*
X93338657Y-91690516D01*
X93432148Y-91998715D01*
X93583969Y-92282752D01*
X93788286Y-92531714D01*
X93920233Y-92640000D01*
X93788286Y-92748286D01*
X93583969Y-92997248D01*
X93432148Y-93281285D01*
X93338657Y-93589484D01*
X93307089Y-93910000D01*
X93338657Y-94230516D01*
X93432148Y-94538715D01*
X93583969Y-94822752D01*
X93788286Y-95071714D01*
X93920233Y-95180000D01*
X93788286Y-95288286D01*
X93583969Y-95537248D01*
X93432148Y-95821285D01*
X93338657Y-96129484D01*
X93307089Y-96450000D01*
X93338657Y-96770516D01*
X93432148Y-97078715D01*
X93583969Y-97362752D01*
X93788286Y-97611714D01*
X93920233Y-97720000D01*
X93788286Y-97828286D01*
X93583969Y-98077248D01*
X93432148Y-98361285D01*
X93338657Y-98669484D01*
X93307089Y-98990000D01*
X93338657Y-99310516D01*
X93432148Y-99618715D01*
X93583969Y-99902752D01*
X93788286Y-100151714D01*
X94037248Y-100356031D01*
X94321285Y-100507852D01*
X94629484Y-100601343D01*
X94869678Y-100625000D01*
X95630322Y-100625000D01*
X95870516Y-100601343D01*
X96178715Y-100507852D01*
X96462752Y-100356031D01*
X96711714Y-100151714D01*
X96916031Y-99902752D01*
X97067852Y-99618715D01*
X97161343Y-99310516D01*
X97192911Y-98990000D01*
X97161343Y-98669484D01*
X97067852Y-98361285D01*
X96916031Y-98077248D01*
X96711714Y-97828286D01*
X96579767Y-97720000D01*
X96711714Y-97611714D01*
X96916031Y-97362752D01*
X97061365Y-97090850D01*
X100555859Y-97090850D01*
X100555859Y-97532908D01*
X100642101Y-97966471D01*
X100811269Y-98374879D01*
X101056862Y-98742436D01*
X101369444Y-99055018D01*
X101737001Y-99300611D01*
X102145409Y-99469779D01*
X102578972Y-99556021D01*
X103021030Y-99556021D01*
X103454593Y-99469779D01*
X103863001Y-99300611D01*
X104230558Y-99055018D01*
X104543140Y-98742436D01*
X104788733Y-98374879D01*
X104957901Y-97966471D01*
X105044143Y-97532908D01*
X105044143Y-97090850D01*
X104957901Y-96657287D01*
X104788733Y-96248879D01*
X104543140Y-95881322D01*
X104230558Y-95568740D01*
X103863001Y-95323147D01*
X103454593Y-95153979D01*
X103021030Y-95067737D01*
X102578972Y-95067737D01*
X102145409Y-95153979D01*
X101737001Y-95323147D01*
X101369444Y-95568740D01*
X101056862Y-95881322D01*
X100811269Y-96248879D01*
X100642101Y-96657287D01*
X100555859Y-97090850D01*
X97061365Y-97090850D01*
X97067852Y-97078715D01*
X97161343Y-96770516D01*
X97192911Y-96450000D01*
X97161343Y-96129484D01*
X97067852Y-95821285D01*
X96916031Y-95537248D01*
X96711714Y-95288286D01*
X96579767Y-95180000D01*
X96711714Y-95071714D01*
X96916031Y-94822752D01*
X97067852Y-94538715D01*
X97161343Y-94230516D01*
X97192911Y-93910000D01*
X97161343Y-93589484D01*
X97067852Y-93281285D01*
X96916031Y-92997248D01*
X96711714Y-92748286D01*
X96579767Y-92640000D01*
X96711714Y-92531714D01*
X96916031Y-92282752D01*
X97067852Y-91998715D01*
X97161343Y-91690516D01*
X97192911Y-91370000D01*
X97161343Y-91049484D01*
X97067852Y-90741285D01*
X97014572Y-90641606D01*
X98169250Y-89486929D01*
X98281211Y-89509200D01*
X98465389Y-89509200D01*
X98646029Y-89473268D01*
X98816189Y-89402786D01*
X98969328Y-89300462D01*
X99099562Y-89170228D01*
X99201886Y-89017089D01*
X99215955Y-88983123D01*
X102728950Y-85470129D01*
X102762717Y-85442417D01*
X102807318Y-85388072D01*
X102873311Y-85307659D01*
X102955489Y-85153914D01*
X103006095Y-84987090D01*
X103011817Y-84928989D01*
X103018900Y-84857077D01*
X103018900Y-84857069D01*
X103023181Y-84813600D01*
X103018900Y-84770131D01*
X103018900Y-54257365D01*
X103023181Y-54213899D01*
X103018900Y-54170433D01*
X103018900Y-54170423D01*
X103006095Y-54040410D01*
X102955489Y-53873587D01*
X102873311Y-53719841D01*
X102762717Y-53585083D01*
X102728949Y-53557370D01*
X93512538Y-44340960D01*
X93588714Y-44317852D01*
X93872751Y-44166031D01*
X93944261Y-44107345D01*
X93969463Y-44154494D01*
X94048815Y-44251185D01*
X94145506Y-44330537D01*
X94255820Y-44389502D01*
X94375518Y-44425812D01*
X94500000Y-44438072D01*
X95214250Y-44435000D01*
X95373000Y-44276250D01*
X95373000Y-42627000D01*
X95627000Y-42627000D01*
X95627000Y-44276250D01*
X95785750Y-44435000D01*
X96500000Y-44438072D01*
X96624482Y-44425812D01*
X96744180Y-44389502D01*
X96854494Y-44330537D01*
X96951185Y-44251185D01*
X97030537Y-44154494D01*
X97089502Y-44044180D01*
X97125812Y-43924482D01*
X97138072Y-43800000D01*
X97135000Y-42785750D01*
X96976250Y-42627000D01*
X95627000Y-42627000D01*
X95373000Y-42627000D01*
X95353000Y-42627000D01*
X95353000Y-42373000D01*
X95373000Y-42373000D01*
X95373000Y-40723750D01*
X95627000Y-40723750D01*
X95627000Y-42373000D01*
X96976250Y-42373000D01*
X97135000Y-42214250D01*
X97138072Y-41200000D01*
X97125812Y-41075518D01*
X97089502Y-40955820D01*
X97030537Y-40845506D01*
X96951185Y-40748815D01*
X96854494Y-40669463D01*
X96744180Y-40610498D01*
X96624482Y-40574188D01*
X96500000Y-40561928D01*
X95785750Y-40565000D01*
X95627000Y-40723750D01*
X95373000Y-40723750D01*
X95214250Y-40565000D01*
X94500000Y-40561928D01*
X94375518Y-40574188D01*
X94255820Y-40610498D01*
X94145506Y-40669463D01*
X94048815Y-40748815D01*
X93969463Y-40845506D01*
X93944261Y-40892655D01*
X93872752Y-40833969D01*
X93588715Y-40682148D01*
X93280516Y-40588657D01*
X92960000Y-40557089D01*
X92639485Y-40588657D01*
X92331286Y-40682148D01*
X92047249Y-40833969D01*
X91798286Y-41038286D01*
X91690000Y-41170233D01*
X91581714Y-41038286D01*
X91332752Y-40833969D01*
X91048715Y-40682148D01*
X90740516Y-40588657D01*
X90420000Y-40557089D01*
X90099485Y-40588657D01*
X89791286Y-40682148D01*
X89507249Y-40833969D01*
X89258286Y-41038286D01*
X89150000Y-41170233D01*
X89041714Y-41038286D01*
X88792752Y-40833969D01*
X88508715Y-40682148D01*
X88200516Y-40588657D01*
X87880000Y-40557089D01*
X87559485Y-40588657D01*
X87251286Y-40682148D01*
X86967249Y-40833969D01*
X86718286Y-41038286D01*
X86610000Y-41170233D01*
X86501714Y-41038286D01*
X86252752Y-40833969D01*
X85968715Y-40682148D01*
X85660516Y-40588657D01*
X85340000Y-40557089D01*
X85019485Y-40588657D01*
X84711286Y-40682148D01*
X84427249Y-40833969D01*
X84178286Y-41038286D01*
X84070000Y-41170233D01*
X83961714Y-41038286D01*
X83712752Y-40833969D01*
X83428715Y-40682148D01*
X83120516Y-40588657D01*
X82800000Y-40557089D01*
X82479485Y-40588657D01*
X82171286Y-40682148D01*
X81887249Y-40833969D01*
X81638286Y-41038286D01*
X81530000Y-41170233D01*
X81421714Y-41038286D01*
X81172752Y-40833969D01*
X80888715Y-40682148D01*
X80580516Y-40588657D01*
X80260000Y-40557089D01*
X79939485Y-40588657D01*
X79631286Y-40682148D01*
X79347249Y-40833969D01*
X79098286Y-41038286D01*
X78893969Y-41287248D01*
X78742148Y-41571285D01*
X78648657Y-41879484D01*
X78625000Y-42119678D01*
X78625000Y-42880321D01*
X78648657Y-43120515D01*
X78742148Y-43428714D01*
X78893969Y-43712751D01*
X79098286Y-43961714D01*
X79347248Y-44166031D01*
X79631285Y-44317852D01*
X79939484Y-44411343D01*
X80260000Y-44442911D01*
X80580515Y-44411343D01*
X80888714Y-44317852D01*
X81172751Y-44166031D01*
X81421714Y-43961714D01*
X81530000Y-43829766D01*
X81638286Y-43961714D01*
X81887248Y-44166031D01*
X82171285Y-44317852D01*
X82479484Y-44411343D01*
X82800000Y-44442911D01*
X83120515Y-44411343D01*
X83428714Y-44317852D01*
X83712751Y-44166031D01*
X83961714Y-43961714D01*
X84070000Y-43829766D01*
X84178286Y-43961714D01*
X84427248Y-44166031D01*
X84711285Y-44317852D01*
X85019484Y-44411343D01*
X85340000Y-44442911D01*
X85660515Y-44411343D01*
X85968714Y-44317852D01*
X86252751Y-44166031D01*
X86501714Y-43961714D01*
X86610000Y-43829766D01*
X86718286Y-43961714D01*
X86967248Y-44166031D01*
X87251285Y-44317852D01*
X87559484Y-44411343D01*
X87880000Y-44442911D01*
X88200515Y-44411343D01*
X88460806Y-44332385D01*
X97215748Y-53087327D01*
X97182257Y-53093989D01*
X96902905Y-53209701D01*
X96651495Y-53377688D01*
X96437688Y-53591495D01*
X96360000Y-53707763D01*
X96282312Y-53591495D01*
X96068505Y-53377688D01*
X95817095Y-53209701D01*
X95537743Y-53093989D01*
X95241184Y-53035000D01*
X94938816Y-53035000D01*
X94642257Y-53093989D01*
X94362905Y-53209701D01*
X94111495Y-53377688D01*
X93897688Y-53591495D01*
X93820000Y-53707763D01*
X93742312Y-53591495D01*
X93528505Y-53377688D01*
X93277095Y-53209701D01*
X92997743Y-53093989D01*
X92701184Y-53035000D01*
X92398816Y-53035000D01*
X92288518Y-53056939D01*
X87133134Y-47901556D01*
X87105417Y-47867783D01*
X86970659Y-47757189D01*
X86816913Y-47675011D01*
X86650090Y-47624405D01*
X86520077Y-47611600D01*
X86520069Y-47611600D01*
X86476600Y-47607319D01*
X86433131Y-47611600D01*
X77903179Y-47611600D01*
X71696534Y-41404956D01*
X71668817Y-41371183D01*
X71534059Y-41260589D01*
X71380313Y-41178411D01*
X71213490Y-41127805D01*
X71083477Y-41115000D01*
X71083469Y-41115000D01*
X71070732Y-41113746D01*
X71057852Y-41071285D01*
X70906031Y-40787248D01*
X70701714Y-40538286D01*
X70452751Y-40333969D01*
X70168714Y-40182148D01*
X69860515Y-40088657D01*
X69540000Y-40057089D01*
X69219484Y-40088657D01*
X68911285Y-40182148D01*
X68627248Y-40333969D01*
X68555739Y-40392655D01*
X68530537Y-40345506D01*
X68451185Y-40248815D01*
X68354494Y-40169463D01*
X68244180Y-40110498D01*
X68124482Y-40074188D01*
X68000000Y-40061928D01*
X67285750Y-40065000D01*
X67127000Y-40223750D01*
X67127000Y-41873000D01*
X67147000Y-41873000D01*
X67147000Y-42127000D01*
X67127000Y-42127000D01*
X67127000Y-43776250D01*
X67285750Y-43935000D01*
X68000000Y-43938072D01*
X68124482Y-43925812D01*
X68244180Y-43889502D01*
X68354494Y-43830537D01*
X68451185Y-43751185D01*
X68530537Y-43654494D01*
X68555739Y-43607345D01*
X68627249Y-43666031D01*
X68911286Y-43817852D01*
X69219485Y-43911343D01*
X69540000Y-43942911D01*
X69860516Y-43911343D01*
X70168715Y-43817852D01*
X70452752Y-43666031D01*
X70701714Y-43461714D01*
X70906031Y-43212752D01*
X70939172Y-43150750D01*
X76880070Y-49091649D01*
X76907783Y-49125417D01*
X76941551Y-49153130D01*
X76941553Y-49153132D01*
X77042541Y-49236011D01*
X77196287Y-49318189D01*
X77363110Y-49368795D01*
X77493123Y-49381600D01*
X77493131Y-49381600D01*
X77536600Y-49385881D01*
X77580069Y-49381600D01*
X86110022Y-49381600D01*
X89779248Y-53050827D01*
X89748518Y-53056940D01*
X88120634Y-51429056D01*
X88092917Y-51395283D01*
X87958159Y-51284689D01*
X87804413Y-51202511D01*
X87637590Y-51151905D01*
X87507577Y-51139100D01*
X87507569Y-51139100D01*
X87464100Y-51134819D01*
X87420631Y-51139100D01*
X76023277Y-51139100D01*
X76036768Y-51106529D01*
X76072700Y-50925889D01*
X76072700Y-50741711D01*
X76036768Y-50561071D01*
X75966286Y-50390911D01*
X75863962Y-50237772D01*
X75733728Y-50107538D01*
X75580589Y-50005214D01*
X75546625Y-49991146D01*
X70949734Y-45394256D01*
X70922017Y-45360483D01*
X70787259Y-45249889D01*
X70633513Y-45167711D01*
X70466690Y-45117105D01*
X70336677Y-45104300D01*
X70336669Y-45104300D01*
X70293200Y-45100019D01*
X70249731Y-45104300D01*
X67395879Y-45104300D01*
X66228667Y-43937088D01*
X66714250Y-43935000D01*
X66873000Y-43776250D01*
X66873000Y-42127000D01*
X65523750Y-42127000D01*
X65365000Y-42285750D01*
X65362621Y-43071043D01*
X63696534Y-41404956D01*
X63668817Y-41371183D01*
X63534059Y-41260589D01*
X63380313Y-41178411D01*
X63213490Y-41127805D01*
X63083477Y-41115000D01*
X63083469Y-41115000D01*
X63070732Y-41113746D01*
X63057852Y-41071285D01*
X62906031Y-40787248D01*
X62834429Y-40700000D01*
X65361928Y-40700000D01*
X65365000Y-41714250D01*
X65523750Y-41873000D01*
X66873000Y-41873000D01*
X66873000Y-40223750D01*
X66714250Y-40065000D01*
X66000000Y-40061928D01*
X65875518Y-40074188D01*
X65755820Y-40110498D01*
X65645506Y-40169463D01*
X65548815Y-40248815D01*
X65469463Y-40345506D01*
X65410498Y-40455820D01*
X65374188Y-40575518D01*
X65361928Y-40700000D01*
X62834429Y-40700000D01*
X62701714Y-40538286D01*
X62452751Y-40333969D01*
X62168714Y-40182148D01*
X61860515Y-40088657D01*
X61540000Y-40057089D01*
X61219484Y-40088657D01*
X60911285Y-40182148D01*
X60627248Y-40333969D01*
X60555739Y-40392655D01*
X60530537Y-40345506D01*
X60451185Y-40248815D01*
X60354494Y-40169463D01*
X60244180Y-40110498D01*
X60124482Y-40074188D01*
X60000000Y-40061928D01*
X59285750Y-40065000D01*
X59127000Y-40223750D01*
X59127000Y-41873000D01*
X59147000Y-41873000D01*
X59147000Y-42127000D01*
X59127000Y-42127000D01*
X59127000Y-43776250D01*
X59285750Y-43935000D01*
X60000000Y-43938072D01*
X60124482Y-43925812D01*
X60244180Y-43889502D01*
X60354494Y-43830537D01*
X60451185Y-43751185D01*
X60530537Y-43654494D01*
X60555739Y-43607345D01*
X60627249Y-43666031D01*
X60911286Y-43817852D01*
X61219485Y-43911343D01*
X61540000Y-43942911D01*
X61860516Y-43911343D01*
X62168715Y-43817852D01*
X62452752Y-43666031D01*
X62701714Y-43461714D01*
X62906031Y-43212752D01*
X62939172Y-43150750D01*
X66372770Y-46584349D01*
X66400483Y-46618117D01*
X66434251Y-46645830D01*
X66434253Y-46645832D01*
X66505752Y-46704510D01*
X66535241Y-46728711D01*
X66688987Y-46810889D01*
X66855810Y-46861495D01*
X66985823Y-46874300D01*
X66985833Y-46874300D01*
X67029299Y-46878581D01*
X67072765Y-46874300D01*
X69926622Y-46874300D01*
X74191421Y-51139100D01*
X73859628Y-51139100D01*
X73825568Y-50967871D01*
X73755086Y-50797711D01*
X73652762Y-50644572D01*
X73522528Y-50514338D01*
X73369389Y-50412014D01*
X73199229Y-50341532D01*
X73018589Y-50305600D01*
X72834411Y-50305600D01*
X72653771Y-50341532D01*
X72620049Y-50355500D01*
X64647079Y-50355500D01*
X58228667Y-43937089D01*
X58714250Y-43935000D01*
X58873000Y-43776250D01*
X58873000Y-42127000D01*
X57523750Y-42127000D01*
X57365000Y-42285750D01*
X57362621Y-43071043D01*
X55696534Y-41404956D01*
X55668817Y-41371183D01*
X55534059Y-41260589D01*
X55380313Y-41178411D01*
X55213490Y-41127805D01*
X55083477Y-41115000D01*
X55083469Y-41115000D01*
X55070732Y-41113746D01*
X55057852Y-41071285D01*
X54906031Y-40787248D01*
X54834429Y-40700000D01*
X57361928Y-40700000D01*
X57365000Y-41714250D01*
X57523750Y-41873000D01*
X58873000Y-41873000D01*
X58873000Y-40223750D01*
X58714250Y-40065000D01*
X58000000Y-40061928D01*
X57875518Y-40074188D01*
X57755820Y-40110498D01*
X57645506Y-40169463D01*
X57548815Y-40248815D01*
X57469463Y-40345506D01*
X57410498Y-40455820D01*
X57374188Y-40575518D01*
X57361928Y-40700000D01*
X54834429Y-40700000D01*
X54701714Y-40538286D01*
X54452751Y-40333969D01*
X54168714Y-40182148D01*
X53860515Y-40088657D01*
X53540000Y-40057089D01*
X53219484Y-40088657D01*
X52911285Y-40182148D01*
X52627248Y-40333969D01*
X52555739Y-40392655D01*
X52530537Y-40345506D01*
X52451185Y-40248815D01*
X52354494Y-40169463D01*
X52244180Y-40110498D01*
X52124482Y-40074188D01*
X52000000Y-40061928D01*
X51285750Y-40065000D01*
X51127000Y-40223750D01*
X51127000Y-41873000D01*
X51147000Y-41873000D01*
X51147000Y-42127000D01*
X51127000Y-42127000D01*
X51127000Y-43776250D01*
X51285750Y-43935000D01*
X52000000Y-43938072D01*
X52124482Y-43925812D01*
X52244180Y-43889502D01*
X52354494Y-43830537D01*
X52451185Y-43751185D01*
X52530537Y-43654494D01*
X52555739Y-43607345D01*
X52627249Y-43666031D01*
X52911286Y-43817852D01*
X53219485Y-43911343D01*
X53540000Y-43942911D01*
X53860516Y-43911343D01*
X54168715Y-43817852D01*
X54452752Y-43666031D01*
X54701714Y-43461714D01*
X54906031Y-43212752D01*
X54939172Y-43150750D01*
X62927521Y-51139100D01*
X59417669Y-51139100D01*
X59374200Y-51134819D01*
X59330731Y-51139100D01*
X59330723Y-51139100D01*
X59200710Y-51151905D01*
X59033887Y-51202511D01*
X58962816Y-51240499D01*
X58880141Y-51284689D01*
X58779153Y-51367568D01*
X58779151Y-51367570D01*
X58745383Y-51395283D01*
X58717670Y-51429051D01*
X46818056Y-63328666D01*
X46784283Y-63356383D01*
X46673689Y-63491142D01*
X46591511Y-63644888D01*
X46540905Y-63811711D01*
X46528100Y-63941724D01*
X46528100Y-63941731D01*
X46523819Y-63985200D01*
X40660000Y-63985200D01*
X40660000Y-43300000D01*
X49361928Y-43300000D01*
X49374188Y-43424482D01*
X49410498Y-43544180D01*
X49469463Y-43654494D01*
X49548815Y-43751185D01*
X49645506Y-43830537D01*
X49755820Y-43889502D01*
X49875518Y-43925812D01*
X50000000Y-43938072D01*
X50714250Y-43935000D01*
X50873000Y-43776250D01*
X50873000Y-42127000D01*
X49523750Y-42127000D01*
X49365000Y-42285750D01*
X49361928Y-43300000D01*
X40660000Y-43300000D01*
X40660000Y-40700000D01*
X49361928Y-40700000D01*
X49365000Y-41714250D01*
X49523750Y-41873000D01*
X50873000Y-41873000D01*
X50873000Y-40223750D01*
X50714250Y-40065000D01*
X50000000Y-40061928D01*
X49875518Y-40074188D01*
X49755820Y-40110498D01*
X49645506Y-40169463D01*
X49548815Y-40248815D01*
X49469463Y-40345506D01*
X49410498Y-40455820D01*
X49374188Y-40575518D01*
X49361928Y-40700000D01*
X40660000Y-40700000D01*
X40660000Y-39009683D01*
X40811269Y-39374879D01*
X41056862Y-39742436D01*
X41369444Y-40055018D01*
X41737001Y-40300611D01*
X42145409Y-40469779D01*
X42578972Y-40556021D01*
X43021030Y-40556021D01*
X43454593Y-40469779D01*
X43863001Y-40300611D01*
X44230558Y-40055018D01*
X44543140Y-39742436D01*
X44788733Y-39374879D01*
X44957901Y-38966471D01*
X45044143Y-38532908D01*
X45044143Y-38090850D01*
X100555859Y-38090850D01*
X100555859Y-38532908D01*
X100642101Y-38966471D01*
X100811269Y-39374879D01*
X101056862Y-39742436D01*
X101369444Y-40055018D01*
X101737001Y-40300611D01*
X102145409Y-40469779D01*
X102578972Y-40556021D01*
X103021030Y-40556021D01*
X103454593Y-40469779D01*
X103863001Y-40300611D01*
X104230558Y-40055018D01*
X104543140Y-39742436D01*
X104788733Y-39374879D01*
X104957901Y-38966471D01*
X105044143Y-38532908D01*
X105044143Y-38090850D01*
X104957901Y-37657287D01*
X104788733Y-37248879D01*
X104543140Y-36881322D01*
X104230558Y-36568740D01*
X103863001Y-36323147D01*
X103454593Y-36153979D01*
X103021030Y-36067737D01*
X102578972Y-36067737D01*
X102145409Y-36153979D01*
X101737001Y-36323147D01*
X101369444Y-36568740D01*
X101056862Y-36881322D01*
X100811269Y-37248879D01*
X100642101Y-37657287D01*
X100555859Y-38090850D01*
X45044143Y-38090850D01*
X44957901Y-37657287D01*
X44788733Y-37248879D01*
X44543140Y-36881322D01*
X44230558Y-36568740D01*
X43863001Y-36323147D01*
X43454593Y-36153979D01*
X43021030Y-36067737D01*
X42578972Y-36067737D01*
X42145409Y-36153979D01*
X41737001Y-36323147D01*
X41369444Y-36568740D01*
X41056862Y-36881322D01*
X40811269Y-37248879D01*
X40660000Y-37614075D01*
X40660000Y-36532277D01*
X40679102Y-36337460D01*
X40726308Y-36181106D01*
X40802982Y-36036904D01*
X40906207Y-35910337D01*
X41032051Y-35806231D01*
X41175711Y-35728553D01*
X41331729Y-35680258D01*
X41524473Y-35660000D01*
X104967723Y-35660000D01*
X105162540Y-35679102D01*
G04 #@! TA.AperFunction,Conductor*
D22*
G36*
X105162540Y-35679102D02*
G01*
X105318894Y-35726308D01*
X105463096Y-35802982D01*
X105589663Y-35906207D01*
X105693769Y-36032051D01*
X105771447Y-36175711D01*
X105819742Y-36331729D01*
X105840000Y-36524473D01*
X105840001Y-112967712D01*
X105820898Y-113162540D01*
X105773692Y-113318895D01*
X105697018Y-113463096D01*
X105593792Y-113589664D01*
X105467951Y-113693768D01*
X105324289Y-113771447D01*
X105168271Y-113819742D01*
X104975527Y-113840000D01*
X41532277Y-113840000D01*
X41337460Y-113820898D01*
X41181105Y-113773692D01*
X41036904Y-113697018D01*
X40910336Y-113593792D01*
X40806232Y-113467951D01*
X40728553Y-113324289D01*
X40680258Y-113168271D01*
X40660000Y-112975527D01*
X40660000Y-110750000D01*
X45061928Y-110750000D01*
X45074188Y-110874482D01*
X45110498Y-110994180D01*
X45169463Y-111104494D01*
X45248815Y-111201185D01*
X45345506Y-111280537D01*
X45455820Y-111339502D01*
X45575518Y-111375812D01*
X45700000Y-111388072D01*
X46714250Y-111385000D01*
X46873000Y-111226250D01*
X46873000Y-109877000D01*
X47127000Y-109877000D01*
X47127000Y-111226250D01*
X47285750Y-111385000D01*
X48300000Y-111388072D01*
X48424482Y-111375812D01*
X48544180Y-111339502D01*
X48654494Y-111280537D01*
X48751185Y-111201185D01*
X48830537Y-111104494D01*
X48889502Y-110994180D01*
X48925812Y-110874482D01*
X48938072Y-110750000D01*
X48935000Y-110035750D01*
X48776250Y-109877000D01*
X47127000Y-109877000D01*
X46873000Y-109877000D01*
X45223750Y-109877000D01*
X45065000Y-110035750D01*
X45061928Y-110750000D01*
X40660000Y-110750000D01*
X40660000Y-107210000D01*
X45057089Y-107210000D01*
X45088657Y-107530516D01*
X45182148Y-107838715D01*
X45333969Y-108122752D01*
X45392655Y-108194261D01*
X45345506Y-108219463D01*
X45248815Y-108298815D01*
X45169463Y-108395506D01*
X45110498Y-108505820D01*
X45074188Y-108625518D01*
X45061928Y-108750000D01*
X45065000Y-109464250D01*
X45223750Y-109623000D01*
X46873000Y-109623000D01*
X46873000Y-109603000D01*
X47127000Y-109603000D01*
X47127000Y-109623000D01*
X48776250Y-109623000D01*
X48935000Y-109464250D01*
X48938072Y-108750000D01*
X48925812Y-108625518D01*
X48889502Y-108505820D01*
X48830537Y-108395506D01*
X48751185Y-108298815D01*
X48654494Y-108219463D01*
X48607345Y-108194261D01*
X48666031Y-108122752D01*
X48817852Y-107838715D01*
X48911343Y-107530516D01*
X48942911Y-107210000D01*
X48911343Y-106889484D01*
X48817852Y-106581285D01*
X48666031Y-106297248D01*
X48461714Y-106048286D01*
X48212752Y-105843969D01*
X47928715Y-105692148D01*
X47620516Y-105598657D01*
X47380322Y-105575000D01*
X46619678Y-105575000D01*
X46379484Y-105598657D01*
X46071285Y-105692148D01*
X45787248Y-105843969D01*
X45538286Y-106048286D01*
X45333969Y-106297248D01*
X45182148Y-106581285D01*
X45088657Y-106889484D01*
X45057089Y-107210000D01*
X40660000Y-107210000D01*
X40660000Y-98009683D01*
X40811269Y-98374879D01*
X41056862Y-98742436D01*
X41369444Y-99055018D01*
X41737001Y-99300611D01*
X42145409Y-99469779D01*
X42578972Y-99556021D01*
X43021030Y-99556021D01*
X43454593Y-99469779D01*
X43863001Y-99300611D01*
X44230558Y-99055018D01*
X44543140Y-98742436D01*
X44788733Y-98374879D01*
X44957901Y-97966471D01*
X45044143Y-97532908D01*
X45044143Y-97090850D01*
X44957901Y-96657287D01*
X44788733Y-96248879D01*
X44543140Y-95881322D01*
X44230558Y-95568740D01*
X43863001Y-95323147D01*
X43454593Y-95153979D01*
X43021030Y-95067737D01*
X42578972Y-95067737D01*
X42145409Y-95153979D01*
X41737001Y-95323147D01*
X41369444Y-95568740D01*
X41056862Y-95881322D01*
X40811269Y-96248879D01*
X40660000Y-96614075D01*
X40660000Y-92300000D01*
X47111928Y-92300000D01*
X47124188Y-92424482D01*
X47160498Y-92544180D01*
X47219463Y-92654494D01*
X47298815Y-92751185D01*
X47395506Y-92830537D01*
X47505820Y-92889502D01*
X47625518Y-92925812D01*
X47750000Y-92938072D01*
X48464250Y-92935000D01*
X48623000Y-92776250D01*
X48623000Y-91127000D01*
X47273750Y-91127000D01*
X47115000Y-91285750D01*
X47111928Y-92300000D01*
X40660000Y-92300000D01*
X40660000Y-89700000D01*
X47111928Y-89700000D01*
X47115000Y-90714250D01*
X47273750Y-90873000D01*
X48623000Y-90873000D01*
X48623000Y-89223750D01*
X48464250Y-89065000D01*
X47750000Y-89061928D01*
X47625518Y-89074188D01*
X47505820Y-89110498D01*
X47395506Y-89169463D01*
X47298815Y-89248815D01*
X47219463Y-89345506D01*
X47160498Y-89455820D01*
X47124188Y-89575518D01*
X47111928Y-89700000D01*
X40660000Y-89700000D01*
X40660000Y-63985200D01*
X46523819Y-63985200D01*
X46528100Y-64028669D01*
X46528101Y-80591121D01*
X46523819Y-80634600D01*
X46540905Y-80808090D01*
X46591512Y-80974913D01*
X46673690Y-81128659D01*
X46756568Y-81229646D01*
X46756571Y-81229649D01*
X46784284Y-81263417D01*
X46818051Y-81291130D01*
X50405000Y-84878079D01*
X50405001Y-89319135D01*
X50377248Y-89333969D01*
X50305739Y-89392655D01*
X50280537Y-89345506D01*
X50201185Y-89248815D01*
X50104494Y-89169463D01*
X49994180Y-89110498D01*
X49874482Y-89074188D01*
X49750000Y-89061928D01*
X49035750Y-89065000D01*
X48877000Y-89223750D01*
X48877000Y-90873000D01*
X48897000Y-90873000D01*
X48897000Y-91127000D01*
X48877000Y-91127000D01*
X48877000Y-92776250D01*
X49035750Y-92935000D01*
X49750000Y-92938072D01*
X49874482Y-92925812D01*
X49994180Y-92889502D01*
X50104494Y-92830537D01*
X50201185Y-92751185D01*
X50280537Y-92654494D01*
X50305739Y-92607345D01*
X50377249Y-92666031D01*
X50661286Y-92817852D01*
X50969485Y-92911343D01*
X51290000Y-92942911D01*
X51610516Y-92911343D01*
X51918715Y-92817852D01*
X52202752Y-92666031D01*
X52363901Y-92533780D01*
X52363901Y-103146821D01*
X52359619Y-103190300D01*
X52376705Y-103363790D01*
X52427312Y-103530613D01*
X52509490Y-103684359D01*
X52592368Y-103785346D01*
X52592371Y-103785349D01*
X52620084Y-103819117D01*
X52653852Y-103846830D01*
X62225170Y-113418149D01*
X62252883Y-113451917D01*
X62286651Y-113479630D01*
X62286653Y-113479632D01*
X62320246Y-113507201D01*
X62387641Y-113562511D01*
X62541387Y-113644689D01*
X62708210Y-113695295D01*
X62838223Y-113708100D01*
X62838233Y-113708100D01*
X62881699Y-113712381D01*
X62925165Y-113708100D01*
X91673431Y-113708100D01*
X91716900Y-113712381D01*
X91760369Y-113708100D01*
X91760377Y-113708100D01*
X91890390Y-113695295D01*
X92057213Y-113644689D01*
X92210959Y-113562511D01*
X92345717Y-113451917D01*
X92373434Y-113418144D01*
X94709194Y-111082385D01*
X94969484Y-111161343D01*
X95290000Y-111192911D01*
X95610515Y-111161343D01*
X95918714Y-111067852D01*
X96202751Y-110916031D01*
X96274261Y-110857345D01*
X96299463Y-110904494D01*
X96378815Y-111001185D01*
X96475506Y-111080537D01*
X96585820Y-111139502D01*
X96705518Y-111175812D01*
X96830000Y-111188072D01*
X97544250Y-111185000D01*
X97703000Y-111026250D01*
X97703000Y-109377000D01*
X97957000Y-109377000D01*
X97957000Y-111026250D01*
X98115750Y-111185000D01*
X98830000Y-111188072D01*
X98954482Y-111175812D01*
X99074180Y-111139502D01*
X99184494Y-111080537D01*
X99281185Y-111001185D01*
X99360537Y-110904494D01*
X99419502Y-110794180D01*
X99455812Y-110674482D01*
X99468072Y-110550000D01*
X99465000Y-109535750D01*
X99306250Y-109377000D01*
X97957000Y-109377000D01*
X97703000Y-109377000D01*
X97683000Y-109377000D01*
X97683000Y-109123000D01*
X97703000Y-109123000D01*
X97703000Y-107473750D01*
X97957000Y-107473750D01*
X97957000Y-109123000D01*
X99306250Y-109123000D01*
X99465000Y-108964250D01*
X99468072Y-107950000D01*
X99455812Y-107825518D01*
X99419502Y-107705820D01*
X99360537Y-107595506D01*
X99281185Y-107498815D01*
X99184494Y-107419463D01*
X99074180Y-107360498D01*
X98954482Y-107324188D01*
X98830000Y-107311928D01*
X98115750Y-107315000D01*
X97957000Y-107473750D01*
X97703000Y-107473750D01*
X97544250Y-107315000D01*
X96830000Y-107311928D01*
X96705518Y-107324188D01*
X96585820Y-107360498D01*
X96475506Y-107419463D01*
X96378815Y-107498815D01*
X96299463Y-107595506D01*
X96274261Y-107642655D01*
X96202752Y-107583969D01*
X95918715Y-107432148D01*
X95610516Y-107338657D01*
X95290000Y-107307089D01*
X94969485Y-107338657D01*
X94661286Y-107432148D01*
X94377249Y-107583969D01*
X94128286Y-107788286D01*
X94021716Y-107918142D01*
X93816317Y-107704078D01*
X93552761Y-107519990D01*
X93258355Y-107390856D01*
X93130434Y-107359876D01*
X92877000Y-107479223D01*
X92877000Y-109123000D01*
X92897000Y-109123000D01*
X92897000Y-109377000D01*
X92877000Y-109377000D01*
X92877000Y-109397000D01*
X92623000Y-109397000D01*
X92623000Y-109377000D01*
X92603000Y-109377000D01*
X92603000Y-109123000D01*
X92623000Y-109123000D01*
X92623000Y-107479223D01*
X92369566Y-107359876D01*
X92241645Y-107390856D01*
X91947239Y-107519990D01*
X91683683Y-107704078D01*
X91478284Y-107918142D01*
X91371714Y-107788286D01*
X91122752Y-107583969D01*
X90838715Y-107432148D01*
X90530516Y-107338657D01*
X90210000Y-107307089D01*
X89889485Y-107338657D01*
X89581286Y-107432148D01*
X89297249Y-107583969D01*
X89048286Y-107788286D01*
X88940000Y-107920233D01*
X88831714Y-107788286D01*
X88582752Y-107583969D01*
X88298715Y-107432148D01*
X87990516Y-107338657D01*
X87670000Y-107307089D01*
X87349485Y-107338657D01*
X87041286Y-107432148D01*
X86757249Y-107583969D01*
X86508286Y-107788286D01*
X86303969Y-108037248D01*
X86152148Y-108321285D01*
X86139268Y-108363746D01*
X86126533Y-108365000D01*
X86126523Y-108365000D01*
X85996510Y-108377805D01*
X85829687Y-108428411D01*
X85675941Y-108510589D01*
X85675939Y-108510590D01*
X85675940Y-108510590D01*
X85574953Y-108593468D01*
X85574951Y-108593470D01*
X85541183Y-108621183D01*
X85513470Y-108654951D01*
X83495622Y-110672800D01*
X75125978Y-110672800D01*
X75138072Y-110550000D01*
X75135000Y-109535750D01*
X74976250Y-109377000D01*
X73627000Y-109377000D01*
X73627000Y-109397000D01*
X73373000Y-109397000D01*
X73373000Y-109377000D01*
X73353000Y-109377000D01*
X73353000Y-109123000D01*
X73373000Y-109123000D01*
X73373000Y-107473750D01*
X73627000Y-107473750D01*
X73627000Y-109123000D01*
X74976250Y-109123000D01*
X75135000Y-108964250D01*
X75138072Y-107950000D01*
X75125812Y-107825518D01*
X75089502Y-107705820D01*
X75030537Y-107595506D01*
X74951185Y-107498815D01*
X74854494Y-107419463D01*
X74744180Y-107360498D01*
X74624482Y-107324188D01*
X74500000Y-107311928D01*
X73785750Y-107315000D01*
X73627000Y-107473750D01*
X73373000Y-107473750D01*
X73214250Y-107315000D01*
X72500000Y-107311928D01*
X72375518Y-107324188D01*
X72255820Y-107360498D01*
X72145506Y-107419463D01*
X72048815Y-107498815D01*
X71969463Y-107595506D01*
X71944261Y-107642655D01*
X71872752Y-107583969D01*
X71588715Y-107432148D01*
X71280516Y-107338657D01*
X70960000Y-107307089D01*
X70639485Y-107338657D01*
X70379194Y-107417615D01*
X68072400Y-105110822D01*
X68072400Y-102679038D01*
X68353740Y-102735000D01*
X68646260Y-102735000D01*
X68933158Y-102677932D01*
X69203411Y-102565990D01*
X69446632Y-102403475D01*
X69653475Y-102196632D01*
X69770000Y-102022240D01*
X69886525Y-102196632D01*
X70093368Y-102403475D01*
X70336589Y-102565990D01*
X70606842Y-102677932D01*
X70893740Y-102735000D01*
X71186260Y-102735000D01*
X71473158Y-102677932D01*
X71743411Y-102565990D01*
X71986632Y-102403475D01*
X72193475Y-102196632D01*
X72310000Y-102022240D01*
X72426525Y-102196632D01*
X72633368Y-102403475D01*
X72876589Y-102565990D01*
X73146842Y-102677932D01*
X73433740Y-102735000D01*
X73726260Y-102735000D01*
X74013158Y-102677932D01*
X74283411Y-102565990D01*
X74526632Y-102403475D01*
X74733475Y-102196632D01*
X74850000Y-102022240D01*
X74966525Y-102196632D01*
X75173368Y-102403475D01*
X75416589Y-102565990D01*
X75686842Y-102677932D01*
X75973740Y-102735000D01*
X76266260Y-102735000D01*
X76338960Y-102720539D01*
X76704270Y-103085849D01*
X76731983Y-103119617D01*
X76765751Y-103147330D01*
X76765753Y-103147332D01*
X76780925Y-103159783D01*
X76866741Y-103230211D01*
X77020487Y-103312389D01*
X77187310Y-103362995D01*
X77317323Y-103375800D01*
X77317333Y-103375800D01*
X77360799Y-103380081D01*
X77404265Y-103375800D01*
X81671031Y-103375800D01*
X81714500Y-103380081D01*
X81757969Y-103375800D01*
X81757977Y-103375800D01*
X81887990Y-103362995D01*
X82054813Y-103312389D01*
X82208559Y-103230211D01*
X82343317Y-103119617D01*
X82371034Y-103085844D01*
X82949248Y-102507631D01*
X83036589Y-102565990D01*
X83306842Y-102677932D01*
X83593740Y-102735000D01*
X83886260Y-102735000D01*
X84173158Y-102677932D01*
X84443411Y-102565990D01*
X84686632Y-102403475D01*
X84893475Y-102196632D01*
X85015195Y-102014466D01*
X85084822Y-102131355D01*
X85279731Y-102347588D01*
X85513080Y-102521641D01*
X85775901Y-102646825D01*
X85923110Y-102691476D01*
X86153000Y-102570155D01*
X86153000Y-101377000D01*
X86407000Y-101377000D01*
X86407000Y-102570155D01*
X86636890Y-102691476D01*
X86784099Y-102646825D01*
X87046920Y-102521641D01*
X87280269Y-102347588D01*
X87475178Y-102131355D01*
X87624157Y-101881252D01*
X87721481Y-101606891D01*
X87600814Y-101377000D01*
X86407000Y-101377000D01*
X86153000Y-101377000D01*
X86133000Y-101377000D01*
X86133000Y-101123000D01*
X86153000Y-101123000D01*
X86153000Y-99929845D01*
X86407000Y-99929845D01*
X86407000Y-101123000D01*
X87600814Y-101123000D01*
X87721481Y-100893109D01*
X87624157Y-100618748D01*
X87475178Y-100368645D01*
X87280269Y-100152412D01*
X87046920Y-99978359D01*
X86784099Y-99853175D01*
X86636890Y-99808524D01*
X86407000Y-99929845D01*
X86153000Y-99929845D01*
X85923110Y-99808524D01*
X85775901Y-99853175D01*
X85513080Y-99978359D01*
X85279731Y-100152412D01*
X85084822Y-100368645D01*
X85015195Y-100485534D01*
X84893475Y-100303368D01*
X84686632Y-100096525D01*
X84443411Y-99934010D01*
X84173158Y-99822068D01*
X83886260Y-99765000D01*
X83593740Y-99765000D01*
X83312400Y-99820962D01*
X83312400Y-99204678D01*
X84262450Y-98254629D01*
X84296217Y-98226917D01*
X84406811Y-98092159D01*
X84488989Y-97938413D01*
X84539595Y-97771590D01*
X84552400Y-97641577D01*
X84552400Y-97641569D01*
X84556681Y-97598100D01*
X84552400Y-97554631D01*
X84552400Y-95859678D01*
X84818184Y-95926300D01*
X85100512Y-95940217D01*
X85380130Y-95898787D01*
X85646292Y-95803603D01*
X85771514Y-95736671D01*
X85843097Y-95492702D01*
X85030000Y-94679605D01*
X85015858Y-94693748D01*
X84836253Y-94514143D01*
X84850395Y-94500000D01*
X85209605Y-94500000D01*
X86022702Y-95313097D01*
X86266671Y-95241514D01*
X86387571Y-94986004D01*
X86456300Y-94711816D01*
X86470217Y-94429488D01*
X86428787Y-94149870D01*
X86333603Y-93883708D01*
X86266671Y-93758486D01*
X86022702Y-93686903D01*
X85209605Y-94500000D01*
X84850395Y-94500000D01*
X84836253Y-94485858D01*
X85015858Y-94306253D01*
X85030000Y-94320395D01*
X85843097Y-93507298D01*
X85771514Y-93263329D01*
X85516004Y-93142429D01*
X85241816Y-93073700D01*
X84959488Y-93059783D01*
X84679870Y-93101213D01*
X84552400Y-93146798D01*
X84552400Y-88609178D01*
X84853561Y-88308017D01*
X84888665Y-88315000D01*
X85171335Y-88315000D01*
X85448574Y-88259853D01*
X85709727Y-88151680D01*
X85944759Y-87994637D01*
X86144637Y-87794759D01*
X86195550Y-87718562D01*
X86317111Y-87799786D01*
X86487271Y-87870268D01*
X86667911Y-87906200D01*
X86852089Y-87906200D01*
X87032729Y-87870268D01*
X87066692Y-87856200D01*
X90561622Y-87856200D01*
X93437219Y-90731798D01*
X93432148Y-90741285D01*
X93338657Y-91049484D01*
X93307089Y-91370000D01*
X93338657Y-91690516D01*
X93432148Y-91998715D01*
X93583969Y-92282752D01*
X93788286Y-92531714D01*
X93920233Y-92640000D01*
X93788286Y-92748286D01*
X93583969Y-92997248D01*
X93432148Y-93281285D01*
X93338657Y-93589484D01*
X93307089Y-93910000D01*
X93338657Y-94230516D01*
X93432148Y-94538715D01*
X93583969Y-94822752D01*
X93788286Y-95071714D01*
X93920233Y-95180000D01*
X93788286Y-95288286D01*
X93583969Y-95537248D01*
X93432148Y-95821285D01*
X93338657Y-96129484D01*
X93307089Y-96450000D01*
X93338657Y-96770516D01*
X93432148Y-97078715D01*
X93583969Y-97362752D01*
X93788286Y-97611714D01*
X93920233Y-97720000D01*
X93788286Y-97828286D01*
X93583969Y-98077248D01*
X93432148Y-98361285D01*
X93338657Y-98669484D01*
X93307089Y-98990000D01*
X93338657Y-99310516D01*
X93432148Y-99618715D01*
X93583969Y-99902752D01*
X93788286Y-100151714D01*
X94037248Y-100356031D01*
X94321285Y-100507852D01*
X94629484Y-100601343D01*
X94869678Y-100625000D01*
X95630322Y-100625000D01*
X95870516Y-100601343D01*
X96178715Y-100507852D01*
X96462752Y-100356031D01*
X96711714Y-100151714D01*
X96916031Y-99902752D01*
X97067852Y-99618715D01*
X97161343Y-99310516D01*
X97192911Y-98990000D01*
X97161343Y-98669484D01*
X97067852Y-98361285D01*
X96916031Y-98077248D01*
X96711714Y-97828286D01*
X96579767Y-97720000D01*
X96711714Y-97611714D01*
X96916031Y-97362752D01*
X97061365Y-97090850D01*
X100555859Y-97090850D01*
X100555859Y-97532908D01*
X100642101Y-97966471D01*
X100811269Y-98374879D01*
X101056862Y-98742436D01*
X101369444Y-99055018D01*
X101737001Y-99300611D01*
X102145409Y-99469779D01*
X102578972Y-99556021D01*
X103021030Y-99556021D01*
X103454593Y-99469779D01*
X103863001Y-99300611D01*
X104230558Y-99055018D01*
X104543140Y-98742436D01*
X104788733Y-98374879D01*
X104957901Y-97966471D01*
X105044143Y-97532908D01*
X105044143Y-97090850D01*
X104957901Y-96657287D01*
X104788733Y-96248879D01*
X104543140Y-95881322D01*
X104230558Y-95568740D01*
X103863001Y-95323147D01*
X103454593Y-95153979D01*
X103021030Y-95067737D01*
X102578972Y-95067737D01*
X102145409Y-95153979D01*
X101737001Y-95323147D01*
X101369444Y-95568740D01*
X101056862Y-95881322D01*
X100811269Y-96248879D01*
X100642101Y-96657287D01*
X100555859Y-97090850D01*
X97061365Y-97090850D01*
X97067852Y-97078715D01*
X97161343Y-96770516D01*
X97192911Y-96450000D01*
X97161343Y-96129484D01*
X97067852Y-95821285D01*
X96916031Y-95537248D01*
X96711714Y-95288286D01*
X96579767Y-95180000D01*
X96711714Y-95071714D01*
X96916031Y-94822752D01*
X97067852Y-94538715D01*
X97161343Y-94230516D01*
X97192911Y-93910000D01*
X97161343Y-93589484D01*
X97067852Y-93281285D01*
X96916031Y-92997248D01*
X96711714Y-92748286D01*
X96579767Y-92640000D01*
X96711714Y-92531714D01*
X96916031Y-92282752D01*
X97067852Y-91998715D01*
X97161343Y-91690516D01*
X97192911Y-91370000D01*
X97161343Y-91049484D01*
X97067852Y-90741285D01*
X97014572Y-90641606D01*
X98169250Y-89486929D01*
X98281211Y-89509200D01*
X98465389Y-89509200D01*
X98646029Y-89473268D01*
X98816189Y-89402786D01*
X98969328Y-89300462D01*
X99099562Y-89170228D01*
X99201886Y-89017089D01*
X99215955Y-88983123D01*
X102728950Y-85470129D01*
X102762717Y-85442417D01*
X102807318Y-85388072D01*
X102873311Y-85307659D01*
X102955489Y-85153914D01*
X103006095Y-84987090D01*
X103011817Y-84928989D01*
X103018900Y-84857077D01*
X103018900Y-84857069D01*
X103023181Y-84813600D01*
X103018900Y-84770131D01*
X103018900Y-54257365D01*
X103023181Y-54213899D01*
X103018900Y-54170433D01*
X103018900Y-54170423D01*
X103006095Y-54040410D01*
X102955489Y-53873587D01*
X102873311Y-53719841D01*
X102762717Y-53585083D01*
X102728949Y-53557370D01*
X93512538Y-44340960D01*
X93588714Y-44317852D01*
X93872751Y-44166031D01*
X93944261Y-44107345D01*
X93969463Y-44154494D01*
X94048815Y-44251185D01*
X94145506Y-44330537D01*
X94255820Y-44389502D01*
X94375518Y-44425812D01*
X94500000Y-44438072D01*
X95214250Y-44435000D01*
X95373000Y-44276250D01*
X95373000Y-42627000D01*
X95627000Y-42627000D01*
X95627000Y-44276250D01*
X95785750Y-44435000D01*
X96500000Y-44438072D01*
X96624482Y-44425812D01*
X96744180Y-44389502D01*
X96854494Y-44330537D01*
X96951185Y-44251185D01*
X97030537Y-44154494D01*
X97089502Y-44044180D01*
X97125812Y-43924482D01*
X97138072Y-43800000D01*
X97135000Y-42785750D01*
X96976250Y-42627000D01*
X95627000Y-42627000D01*
X95373000Y-42627000D01*
X95353000Y-42627000D01*
X95353000Y-42373000D01*
X95373000Y-42373000D01*
X95373000Y-40723750D01*
X95627000Y-40723750D01*
X95627000Y-42373000D01*
X96976250Y-42373000D01*
X97135000Y-42214250D01*
X97138072Y-41200000D01*
X97125812Y-41075518D01*
X97089502Y-40955820D01*
X97030537Y-40845506D01*
X96951185Y-40748815D01*
X96854494Y-40669463D01*
X96744180Y-40610498D01*
X96624482Y-40574188D01*
X96500000Y-40561928D01*
X95785750Y-40565000D01*
X95627000Y-40723750D01*
X95373000Y-40723750D01*
X95214250Y-40565000D01*
X94500000Y-40561928D01*
X94375518Y-40574188D01*
X94255820Y-40610498D01*
X94145506Y-40669463D01*
X94048815Y-40748815D01*
X93969463Y-40845506D01*
X93944261Y-40892655D01*
X93872752Y-40833969D01*
X93588715Y-40682148D01*
X93280516Y-40588657D01*
X92960000Y-40557089D01*
X92639485Y-40588657D01*
X92331286Y-40682148D01*
X92047249Y-40833969D01*
X91798286Y-41038286D01*
X91690000Y-41170233D01*
X91581714Y-41038286D01*
X91332752Y-40833969D01*
X91048715Y-40682148D01*
X90740516Y-40588657D01*
X90420000Y-40557089D01*
X90099485Y-40588657D01*
X89791286Y-40682148D01*
X89507249Y-40833969D01*
X89258286Y-41038286D01*
X89150000Y-41170233D01*
X89041714Y-41038286D01*
X88792752Y-40833969D01*
X88508715Y-40682148D01*
X88200516Y-40588657D01*
X87880000Y-40557089D01*
X87559485Y-40588657D01*
X87251286Y-40682148D01*
X86967249Y-40833969D01*
X86718286Y-41038286D01*
X86610000Y-41170233D01*
X86501714Y-41038286D01*
X86252752Y-40833969D01*
X85968715Y-40682148D01*
X85660516Y-40588657D01*
X85340000Y-40557089D01*
X85019485Y-40588657D01*
X84711286Y-40682148D01*
X84427249Y-40833969D01*
X84178286Y-41038286D01*
X84070000Y-41170233D01*
X83961714Y-41038286D01*
X83712752Y-40833969D01*
X83428715Y-40682148D01*
X83120516Y-40588657D01*
X82800000Y-40557089D01*
X82479485Y-40588657D01*
X82171286Y-40682148D01*
X81887249Y-40833969D01*
X81638286Y-41038286D01*
X81530000Y-41170233D01*
X81421714Y-41038286D01*
X81172752Y-40833969D01*
X80888715Y-40682148D01*
X80580516Y-40588657D01*
X80260000Y-40557089D01*
X79939485Y-40588657D01*
X79631286Y-40682148D01*
X79347249Y-40833969D01*
X79098286Y-41038286D01*
X78893969Y-41287248D01*
X78742148Y-41571285D01*
X78648657Y-41879484D01*
X78625000Y-42119678D01*
X78625000Y-42880321D01*
X78648657Y-43120515D01*
X78742148Y-43428714D01*
X78893969Y-43712751D01*
X79098286Y-43961714D01*
X79347248Y-44166031D01*
X79631285Y-44317852D01*
X79939484Y-44411343D01*
X80260000Y-44442911D01*
X80580515Y-44411343D01*
X80888714Y-44317852D01*
X81172751Y-44166031D01*
X81421714Y-43961714D01*
X81530000Y-43829766D01*
X81638286Y-43961714D01*
X81887248Y-44166031D01*
X82171285Y-44317852D01*
X82479484Y-44411343D01*
X82800000Y-44442911D01*
X83120515Y-44411343D01*
X83428714Y-44317852D01*
X83712751Y-44166031D01*
X83961714Y-43961714D01*
X84070000Y-43829766D01*
X84178286Y-43961714D01*
X84427248Y-44166031D01*
X84711285Y-44317852D01*
X85019484Y-44411343D01*
X85340000Y-44442911D01*
X85660515Y-44411343D01*
X85968714Y-44317852D01*
X86252751Y-44166031D01*
X86501714Y-43961714D01*
X86610000Y-43829766D01*
X86718286Y-43961714D01*
X86967248Y-44166031D01*
X87251285Y-44317852D01*
X87559484Y-44411343D01*
X87880000Y-44442911D01*
X88200515Y-44411343D01*
X88460806Y-44332385D01*
X97215748Y-53087327D01*
X97182257Y-53093989D01*
X96902905Y-53209701D01*
X96651495Y-53377688D01*
X96437688Y-53591495D01*
X96360000Y-53707763D01*
X96282312Y-53591495D01*
X96068505Y-53377688D01*
X95817095Y-53209701D01*
X95537743Y-53093989D01*
X95241184Y-53035000D01*
X94938816Y-53035000D01*
X94642257Y-53093989D01*
X94362905Y-53209701D01*
X94111495Y-53377688D01*
X93897688Y-53591495D01*
X93820000Y-53707763D01*
X93742312Y-53591495D01*
X93528505Y-53377688D01*
X93277095Y-53209701D01*
X92997743Y-53093989D01*
X92701184Y-53035000D01*
X92398816Y-53035000D01*
X92288518Y-53056939D01*
X87133134Y-47901556D01*
X87105417Y-47867783D01*
X86970659Y-47757189D01*
X86816913Y-47675011D01*
X86650090Y-47624405D01*
X86520077Y-47611600D01*
X86520069Y-47611600D01*
X86476600Y-47607319D01*
X86433131Y-47611600D01*
X77903179Y-47611600D01*
X71696534Y-41404956D01*
X71668817Y-41371183D01*
X71534059Y-41260589D01*
X71380313Y-41178411D01*
X71213490Y-41127805D01*
X71083477Y-41115000D01*
X71083469Y-41115000D01*
X71070732Y-41113746D01*
X71057852Y-41071285D01*
X70906031Y-40787248D01*
X70701714Y-40538286D01*
X70452751Y-40333969D01*
X70168714Y-40182148D01*
X69860515Y-40088657D01*
X69540000Y-40057089D01*
X69219484Y-40088657D01*
X68911285Y-40182148D01*
X68627248Y-40333969D01*
X68555739Y-40392655D01*
X68530537Y-40345506D01*
X68451185Y-40248815D01*
X68354494Y-40169463D01*
X68244180Y-40110498D01*
X68124482Y-40074188D01*
X68000000Y-40061928D01*
X67285750Y-40065000D01*
X67127000Y-40223750D01*
X67127000Y-41873000D01*
X67147000Y-41873000D01*
X67147000Y-42127000D01*
X67127000Y-42127000D01*
X67127000Y-43776250D01*
X67285750Y-43935000D01*
X68000000Y-43938072D01*
X68124482Y-43925812D01*
X68244180Y-43889502D01*
X68354494Y-43830537D01*
X68451185Y-43751185D01*
X68530537Y-43654494D01*
X68555739Y-43607345D01*
X68627249Y-43666031D01*
X68911286Y-43817852D01*
X69219485Y-43911343D01*
X69540000Y-43942911D01*
X69860516Y-43911343D01*
X70168715Y-43817852D01*
X70452752Y-43666031D01*
X70701714Y-43461714D01*
X70906031Y-43212752D01*
X70939172Y-43150750D01*
X76880070Y-49091649D01*
X76907783Y-49125417D01*
X76941551Y-49153130D01*
X76941553Y-49153132D01*
X77042541Y-49236011D01*
X77196287Y-49318189D01*
X77363110Y-49368795D01*
X77493123Y-49381600D01*
X77493131Y-49381600D01*
X77536600Y-49385881D01*
X77580069Y-49381600D01*
X86110022Y-49381600D01*
X89779248Y-53050827D01*
X89748518Y-53056940D01*
X88120634Y-51429056D01*
X88092917Y-51395283D01*
X87958159Y-51284689D01*
X87804413Y-51202511D01*
X87637590Y-51151905D01*
X87507577Y-51139100D01*
X87507569Y-51139100D01*
X87464100Y-51134819D01*
X87420631Y-51139100D01*
X76023277Y-51139100D01*
X76036768Y-51106529D01*
X76072700Y-50925889D01*
X76072700Y-50741711D01*
X76036768Y-50561071D01*
X75966286Y-50390911D01*
X75863962Y-50237772D01*
X75733728Y-50107538D01*
X75580589Y-50005214D01*
X75546625Y-49991146D01*
X70949734Y-45394256D01*
X70922017Y-45360483D01*
X70787259Y-45249889D01*
X70633513Y-45167711D01*
X70466690Y-45117105D01*
X70336677Y-45104300D01*
X70336669Y-45104300D01*
X70293200Y-45100019D01*
X70249731Y-45104300D01*
X67395879Y-45104300D01*
X66228667Y-43937088D01*
X66714250Y-43935000D01*
X66873000Y-43776250D01*
X66873000Y-42127000D01*
X65523750Y-42127000D01*
X65365000Y-42285750D01*
X65362621Y-43071043D01*
X63696534Y-41404956D01*
X63668817Y-41371183D01*
X63534059Y-41260589D01*
X63380313Y-41178411D01*
X63213490Y-41127805D01*
X63083477Y-41115000D01*
X63083469Y-41115000D01*
X63070732Y-41113746D01*
X63057852Y-41071285D01*
X62906031Y-40787248D01*
X62834429Y-40700000D01*
X65361928Y-40700000D01*
X65365000Y-41714250D01*
X65523750Y-41873000D01*
X66873000Y-41873000D01*
X66873000Y-40223750D01*
X66714250Y-40065000D01*
X66000000Y-40061928D01*
X65875518Y-40074188D01*
X65755820Y-40110498D01*
X65645506Y-40169463D01*
X65548815Y-40248815D01*
X65469463Y-40345506D01*
X65410498Y-40455820D01*
X65374188Y-40575518D01*
X65361928Y-40700000D01*
X62834429Y-40700000D01*
X62701714Y-40538286D01*
X62452751Y-40333969D01*
X62168714Y-40182148D01*
X61860515Y-40088657D01*
X61540000Y-40057089D01*
X61219484Y-40088657D01*
X60911285Y-40182148D01*
X60627248Y-40333969D01*
X60555739Y-40392655D01*
X60530537Y-40345506D01*
X60451185Y-40248815D01*
X60354494Y-40169463D01*
X60244180Y-40110498D01*
X60124482Y-40074188D01*
X60000000Y-40061928D01*
X59285750Y-40065000D01*
X59127000Y-40223750D01*
X59127000Y-41873000D01*
X59147000Y-41873000D01*
X59147000Y-42127000D01*
X59127000Y-42127000D01*
X59127000Y-43776250D01*
X59285750Y-43935000D01*
X60000000Y-43938072D01*
X60124482Y-43925812D01*
X60244180Y-43889502D01*
X60354494Y-43830537D01*
X60451185Y-43751185D01*
X60530537Y-43654494D01*
X60555739Y-43607345D01*
X60627249Y-43666031D01*
X60911286Y-43817852D01*
X61219485Y-43911343D01*
X61540000Y-43942911D01*
X61860516Y-43911343D01*
X62168715Y-43817852D01*
X62452752Y-43666031D01*
X62701714Y-43461714D01*
X62906031Y-43212752D01*
X62939172Y-43150750D01*
X66372770Y-46584349D01*
X66400483Y-46618117D01*
X66434251Y-46645830D01*
X66434253Y-46645832D01*
X66505752Y-46704510D01*
X66535241Y-46728711D01*
X66688987Y-46810889D01*
X66855810Y-46861495D01*
X66985823Y-46874300D01*
X66985833Y-46874300D01*
X67029299Y-46878581D01*
X67072765Y-46874300D01*
X69926622Y-46874300D01*
X74191421Y-51139100D01*
X73859628Y-51139100D01*
X73825568Y-50967871D01*
X73755086Y-50797711D01*
X73652762Y-50644572D01*
X73522528Y-50514338D01*
X73369389Y-50412014D01*
X73199229Y-50341532D01*
X73018589Y-50305600D01*
X72834411Y-50305600D01*
X72653771Y-50341532D01*
X72620049Y-50355500D01*
X64647079Y-50355500D01*
X58228667Y-43937089D01*
X58714250Y-43935000D01*
X58873000Y-43776250D01*
X58873000Y-42127000D01*
X57523750Y-42127000D01*
X57365000Y-42285750D01*
X57362621Y-43071043D01*
X55696534Y-41404956D01*
X55668817Y-41371183D01*
X55534059Y-41260589D01*
X55380313Y-41178411D01*
X55213490Y-41127805D01*
X55083477Y-41115000D01*
X55083469Y-41115000D01*
X55070732Y-41113746D01*
X55057852Y-41071285D01*
X54906031Y-40787248D01*
X54834429Y-40700000D01*
X57361928Y-40700000D01*
X57365000Y-41714250D01*
X57523750Y-41873000D01*
X58873000Y-41873000D01*
X58873000Y-40223750D01*
X58714250Y-40065000D01*
X58000000Y-40061928D01*
X57875518Y-40074188D01*
X57755820Y-40110498D01*
X57645506Y-40169463D01*
X57548815Y-40248815D01*
X57469463Y-40345506D01*
X57410498Y-40455820D01*
X57374188Y-40575518D01*
X57361928Y-40700000D01*
X54834429Y-40700000D01*
X54701714Y-40538286D01*
X54452751Y-40333969D01*
X54168714Y-40182148D01*
X53860515Y-40088657D01*
X53540000Y-40057089D01*
X53219484Y-40088657D01*
X52911285Y-40182148D01*
X52627248Y-40333969D01*
X52555739Y-40392655D01*
X52530537Y-40345506D01*
X52451185Y-40248815D01*
X52354494Y-40169463D01*
X52244180Y-40110498D01*
X52124482Y-40074188D01*
X52000000Y-40061928D01*
X51285750Y-40065000D01*
X51127000Y-40223750D01*
X51127000Y-41873000D01*
X51147000Y-41873000D01*
X51147000Y-42127000D01*
X51127000Y-42127000D01*
X51127000Y-43776250D01*
X51285750Y-43935000D01*
X52000000Y-43938072D01*
X52124482Y-43925812D01*
X52244180Y-43889502D01*
X52354494Y-43830537D01*
X52451185Y-43751185D01*
X52530537Y-43654494D01*
X52555739Y-43607345D01*
X52627249Y-43666031D01*
X52911286Y-43817852D01*
X53219485Y-43911343D01*
X53540000Y-43942911D01*
X53860516Y-43911343D01*
X54168715Y-43817852D01*
X54452752Y-43666031D01*
X54701714Y-43461714D01*
X54906031Y-43212752D01*
X54939172Y-43150750D01*
X62927521Y-51139100D01*
X59417669Y-51139100D01*
X59374200Y-51134819D01*
X59330731Y-51139100D01*
X59330723Y-51139100D01*
X59200710Y-51151905D01*
X59033887Y-51202511D01*
X58962816Y-51240499D01*
X58880141Y-51284689D01*
X58779153Y-51367568D01*
X58779151Y-51367570D01*
X58745383Y-51395283D01*
X58717670Y-51429051D01*
X46818056Y-63328666D01*
X46784283Y-63356383D01*
X46673689Y-63491142D01*
X46591511Y-63644888D01*
X46540905Y-63811711D01*
X46528100Y-63941724D01*
X46528100Y-63941731D01*
X46523819Y-63985200D01*
X40660000Y-63985200D01*
X40660000Y-43300000D01*
X49361928Y-43300000D01*
X49374188Y-43424482D01*
X49410498Y-43544180D01*
X49469463Y-43654494D01*
X49548815Y-43751185D01*
X49645506Y-43830537D01*
X49755820Y-43889502D01*
X49875518Y-43925812D01*
X50000000Y-43938072D01*
X50714250Y-43935000D01*
X50873000Y-43776250D01*
X50873000Y-42127000D01*
X49523750Y-42127000D01*
X49365000Y-42285750D01*
X49361928Y-43300000D01*
X40660000Y-43300000D01*
X40660000Y-40700000D01*
X49361928Y-40700000D01*
X49365000Y-41714250D01*
X49523750Y-41873000D01*
X50873000Y-41873000D01*
X50873000Y-40223750D01*
X50714250Y-40065000D01*
X50000000Y-40061928D01*
X49875518Y-40074188D01*
X49755820Y-40110498D01*
X49645506Y-40169463D01*
X49548815Y-40248815D01*
X49469463Y-40345506D01*
X49410498Y-40455820D01*
X49374188Y-40575518D01*
X49361928Y-40700000D01*
X40660000Y-40700000D01*
X40660000Y-39009683D01*
X40811269Y-39374879D01*
X41056862Y-39742436D01*
X41369444Y-40055018D01*
X41737001Y-40300611D01*
X42145409Y-40469779D01*
X42578972Y-40556021D01*
X43021030Y-40556021D01*
X43454593Y-40469779D01*
X43863001Y-40300611D01*
X44230558Y-40055018D01*
X44543140Y-39742436D01*
X44788733Y-39374879D01*
X44957901Y-38966471D01*
X45044143Y-38532908D01*
X45044143Y-38090850D01*
X100555859Y-38090850D01*
X100555859Y-38532908D01*
X100642101Y-38966471D01*
X100811269Y-39374879D01*
X101056862Y-39742436D01*
X101369444Y-40055018D01*
X101737001Y-40300611D01*
X102145409Y-40469779D01*
X102578972Y-40556021D01*
X103021030Y-40556021D01*
X103454593Y-40469779D01*
X103863001Y-40300611D01*
X104230558Y-40055018D01*
X104543140Y-39742436D01*
X104788733Y-39374879D01*
X104957901Y-38966471D01*
X105044143Y-38532908D01*
X105044143Y-38090850D01*
X104957901Y-37657287D01*
X104788733Y-37248879D01*
X104543140Y-36881322D01*
X104230558Y-36568740D01*
X103863001Y-36323147D01*
X103454593Y-36153979D01*
X103021030Y-36067737D01*
X102578972Y-36067737D01*
X102145409Y-36153979D01*
X101737001Y-36323147D01*
X101369444Y-36568740D01*
X101056862Y-36881322D01*
X100811269Y-37248879D01*
X100642101Y-37657287D01*
X100555859Y-38090850D01*
X45044143Y-38090850D01*
X44957901Y-37657287D01*
X44788733Y-37248879D01*
X44543140Y-36881322D01*
X44230558Y-36568740D01*
X43863001Y-36323147D01*
X43454593Y-36153979D01*
X43021030Y-36067737D01*
X42578972Y-36067737D01*
X42145409Y-36153979D01*
X41737001Y-36323147D01*
X41369444Y-36568740D01*
X41056862Y-36881322D01*
X40811269Y-37248879D01*
X40660000Y-37614075D01*
X40660000Y-36532277D01*
X40679102Y-36337460D01*
X40726308Y-36181106D01*
X40802982Y-36036904D01*
X40906207Y-35910337D01*
X41032051Y-35806231D01*
X41175711Y-35728553D01*
X41331729Y-35680258D01*
X41524473Y-35660000D01*
X104967723Y-35660000D01*
X105162540Y-35679102D01*
G37*
G04 #@! TD.AperFunction*
D21*
X68547000Y-109123000D02*
X68567000Y-109123000D01*
X68567000Y-109377000D01*
X68547000Y-109377000D01*
X68547000Y-109397000D01*
X68293000Y-109397000D01*
X68293000Y-109377000D01*
X68273000Y-109377000D01*
X68273000Y-109123000D01*
X68293000Y-109123000D01*
X68293000Y-109103000D01*
X68547000Y-109103000D01*
X68547000Y-109123000D01*
G04 #@! TA.AperFunction,Conductor*
D22*
G36*
X68547000Y-109123000D02*
G01*
X68567000Y-109123000D01*
X68567000Y-109377000D01*
X68547000Y-109377000D01*
X68547000Y-109397000D01*
X68293000Y-109397000D01*
X68293000Y-109377000D01*
X68273000Y-109377000D01*
X68273000Y-109123000D01*
X68293000Y-109123000D01*
X68293000Y-109103000D01*
X68547000Y-109103000D01*
X68547000Y-109123000D01*
G37*
G04 #@! TD.AperFunction*
D21*
X60877688Y-78408505D02*
X61091495Y-78622312D01*
X61185000Y-78684790D01*
X61185001Y-95489321D01*
X61180719Y-95532800D01*
X61197805Y-95706290D01*
X61248412Y-95873113D01*
X61330590Y-96026859D01*
X61413468Y-96127846D01*
X61413471Y-96127849D01*
X61441184Y-96161617D01*
X61474952Y-96189330D01*
X65234434Y-99948813D01*
X65013368Y-100096525D01*
X64881513Y-100228380D01*
X64859502Y-100155820D01*
X64800537Y-100045506D01*
X64721185Y-99948815D01*
X64624494Y-99869463D01*
X64514180Y-99810498D01*
X64394482Y-99774188D01*
X64270000Y-99761928D01*
X63705750Y-99765000D01*
X63547000Y-99923750D01*
X63547000Y-101123000D01*
X63567000Y-101123000D01*
X63567000Y-101377000D01*
X63547000Y-101377000D01*
X63547000Y-102576250D01*
X63705750Y-102735000D01*
X64270000Y-102738072D01*
X64394482Y-102725812D01*
X64514180Y-102689502D01*
X64624494Y-102630537D01*
X64721185Y-102551185D01*
X64800537Y-102454494D01*
X64859502Y-102344180D01*
X64881513Y-102271620D01*
X65013368Y-102403475D01*
X65256589Y-102565990D01*
X65526842Y-102677932D01*
X65813740Y-102735000D01*
X66106260Y-102735000D01*
X66302400Y-102695985D01*
X66302401Y-105433921D01*
X66298119Y-105477400D01*
X66315205Y-105650890D01*
X66365812Y-105817713D01*
X66447990Y-105971459D01*
X66530868Y-106072446D01*
X66530871Y-106072449D01*
X66558584Y-106106217D01*
X66592351Y-106133930D01*
X67868293Y-107409871D01*
X67617239Y-107519990D01*
X67353683Y-107704078D01*
X67148284Y-107918142D01*
X67041714Y-107788286D01*
X66792752Y-107583969D01*
X66508715Y-107432148D01*
X66200516Y-107338657D01*
X65880000Y-107307089D01*
X65559485Y-107338657D01*
X65251286Y-107432148D01*
X64967249Y-107583969D01*
X64718286Y-107788286D01*
X64610000Y-107920233D01*
X64501714Y-107788286D01*
X64252752Y-107583969D01*
X63968715Y-107432148D01*
X63660516Y-107338657D01*
X63340000Y-107307089D01*
X63019485Y-107338657D01*
X62711286Y-107432148D01*
X62427249Y-107583969D01*
X62178286Y-107788286D01*
X61973969Y-108037248D01*
X61822148Y-108321285D01*
X61728657Y-108629484D01*
X61727438Y-108641859D01*
X56507600Y-103422022D01*
X56507600Y-102100000D01*
X61931928Y-102100000D01*
X61944188Y-102224482D01*
X61980498Y-102344180D01*
X62039463Y-102454494D01*
X62118815Y-102551185D01*
X62215506Y-102630537D01*
X62325820Y-102689502D01*
X62445518Y-102725812D01*
X62570000Y-102738072D01*
X63134250Y-102735000D01*
X63293000Y-102576250D01*
X63293000Y-101377000D01*
X62093750Y-101377000D01*
X61935000Y-101535750D01*
X61931928Y-102100000D01*
X56507600Y-102100000D01*
X56507600Y-100400000D01*
X61931928Y-100400000D01*
X61935000Y-100964250D01*
X62093750Y-101123000D01*
X63293000Y-101123000D01*
X63293000Y-99923750D01*
X63134250Y-99765000D01*
X62570000Y-99761928D01*
X62445518Y-99774188D01*
X62325820Y-99810498D01*
X62215506Y-99869463D01*
X62118815Y-99948815D01*
X62039463Y-100045506D01*
X61980498Y-100155820D01*
X61944188Y-100275518D01*
X61931928Y-100400000D01*
X56507600Y-100400000D01*
X56507600Y-92935889D01*
X56714250Y-92935000D01*
X56873000Y-92776250D01*
X56873000Y-91127000D01*
X56853000Y-91127000D01*
X56853000Y-90873000D01*
X56873000Y-90873000D01*
X56873000Y-89223750D01*
X57127000Y-89223750D01*
X57127000Y-90873000D01*
X57147000Y-90873000D01*
X57147000Y-91127000D01*
X57127000Y-91127000D01*
X57127000Y-92776250D01*
X57285750Y-92935000D01*
X58000000Y-92938072D01*
X58124482Y-92925812D01*
X58244180Y-92889502D01*
X58354494Y-92830537D01*
X58451185Y-92751185D01*
X58530537Y-92654494D01*
X58555739Y-92607345D01*
X58627249Y-92666031D01*
X58911286Y-92817852D01*
X59219485Y-92911343D01*
X59540000Y-92942911D01*
X59860516Y-92911343D01*
X60168715Y-92817852D01*
X60452752Y-92666031D01*
X60701714Y-92461714D01*
X60906031Y-92212752D01*
X61057852Y-91928715D01*
X61151343Y-91620515D01*
X61175000Y-91380321D01*
X61175000Y-90619678D01*
X61151343Y-90379484D01*
X61057852Y-90071285D01*
X60906031Y-89787248D01*
X60701714Y-89538286D01*
X60452751Y-89333969D01*
X60168714Y-89182148D01*
X59860515Y-89088657D01*
X59540000Y-89057089D01*
X59219484Y-89088657D01*
X58911285Y-89182148D01*
X58627248Y-89333969D01*
X58555739Y-89392655D01*
X58530537Y-89345506D01*
X58451185Y-89248815D01*
X58354494Y-89169463D01*
X58244180Y-89110498D01*
X58124482Y-89074188D01*
X58000000Y-89061928D01*
X57285750Y-89065000D01*
X57127000Y-89223750D01*
X56873000Y-89223750D01*
X56714250Y-89065000D01*
X56507600Y-89064111D01*
X56507600Y-81703978D01*
X59268518Y-78943061D01*
X59378816Y-78965000D01*
X59681184Y-78965000D01*
X59977743Y-78906011D01*
X60257095Y-78790299D01*
X60508505Y-78622312D01*
X60722312Y-78408505D01*
X60800000Y-78292237D01*
X60877688Y-78408505D01*
G04 #@! TA.AperFunction,Conductor*
D22*
G36*
X60877688Y-78408505D02*
G01*
X61091495Y-78622312D01*
X61185000Y-78684790D01*
X61185001Y-95489321D01*
X61180719Y-95532800D01*
X61197805Y-95706290D01*
X61248412Y-95873113D01*
X61330590Y-96026859D01*
X61413468Y-96127846D01*
X61413471Y-96127849D01*
X61441184Y-96161617D01*
X61474952Y-96189330D01*
X65234434Y-99948813D01*
X65013368Y-100096525D01*
X64881513Y-100228380D01*
X64859502Y-100155820D01*
X64800537Y-100045506D01*
X64721185Y-99948815D01*
X64624494Y-99869463D01*
X64514180Y-99810498D01*
X64394482Y-99774188D01*
X64270000Y-99761928D01*
X63705750Y-99765000D01*
X63547000Y-99923750D01*
X63547000Y-101123000D01*
X63567000Y-101123000D01*
X63567000Y-101377000D01*
X63547000Y-101377000D01*
X63547000Y-102576250D01*
X63705750Y-102735000D01*
X64270000Y-102738072D01*
X64394482Y-102725812D01*
X64514180Y-102689502D01*
X64624494Y-102630537D01*
X64721185Y-102551185D01*
X64800537Y-102454494D01*
X64859502Y-102344180D01*
X64881513Y-102271620D01*
X65013368Y-102403475D01*
X65256589Y-102565990D01*
X65526842Y-102677932D01*
X65813740Y-102735000D01*
X66106260Y-102735000D01*
X66302400Y-102695985D01*
X66302401Y-105433921D01*
X66298119Y-105477400D01*
X66315205Y-105650890D01*
X66365812Y-105817713D01*
X66447990Y-105971459D01*
X66530868Y-106072446D01*
X66530871Y-106072449D01*
X66558584Y-106106217D01*
X66592351Y-106133930D01*
X67868293Y-107409871D01*
X67617239Y-107519990D01*
X67353683Y-107704078D01*
X67148284Y-107918142D01*
X67041714Y-107788286D01*
X66792752Y-107583969D01*
X66508715Y-107432148D01*
X66200516Y-107338657D01*
X65880000Y-107307089D01*
X65559485Y-107338657D01*
X65251286Y-107432148D01*
X64967249Y-107583969D01*
X64718286Y-107788286D01*
X64610000Y-107920233D01*
X64501714Y-107788286D01*
X64252752Y-107583969D01*
X63968715Y-107432148D01*
X63660516Y-107338657D01*
X63340000Y-107307089D01*
X63019485Y-107338657D01*
X62711286Y-107432148D01*
X62427249Y-107583969D01*
X62178286Y-107788286D01*
X61973969Y-108037248D01*
X61822148Y-108321285D01*
X61728657Y-108629484D01*
X61727438Y-108641859D01*
X56507600Y-103422022D01*
X56507600Y-102100000D01*
X61931928Y-102100000D01*
X61944188Y-102224482D01*
X61980498Y-102344180D01*
X62039463Y-102454494D01*
X62118815Y-102551185D01*
X62215506Y-102630537D01*
X62325820Y-102689502D01*
X62445518Y-102725812D01*
X62570000Y-102738072D01*
X63134250Y-102735000D01*
X63293000Y-102576250D01*
X63293000Y-101377000D01*
X62093750Y-101377000D01*
X61935000Y-101535750D01*
X61931928Y-102100000D01*
X56507600Y-102100000D01*
X56507600Y-100400000D01*
X61931928Y-100400000D01*
X61935000Y-100964250D01*
X62093750Y-101123000D01*
X63293000Y-101123000D01*
X63293000Y-99923750D01*
X63134250Y-99765000D01*
X62570000Y-99761928D01*
X62445518Y-99774188D01*
X62325820Y-99810498D01*
X62215506Y-99869463D01*
X62118815Y-99948815D01*
X62039463Y-100045506D01*
X61980498Y-100155820D01*
X61944188Y-100275518D01*
X61931928Y-100400000D01*
X56507600Y-100400000D01*
X56507600Y-92935889D01*
X56714250Y-92935000D01*
X56873000Y-92776250D01*
X56873000Y-91127000D01*
X56853000Y-91127000D01*
X56853000Y-90873000D01*
X56873000Y-90873000D01*
X56873000Y-89223750D01*
X57127000Y-89223750D01*
X57127000Y-90873000D01*
X57147000Y-90873000D01*
X57147000Y-91127000D01*
X57127000Y-91127000D01*
X57127000Y-92776250D01*
X57285750Y-92935000D01*
X58000000Y-92938072D01*
X58124482Y-92925812D01*
X58244180Y-92889502D01*
X58354494Y-92830537D01*
X58451185Y-92751185D01*
X58530537Y-92654494D01*
X58555739Y-92607345D01*
X58627249Y-92666031D01*
X58911286Y-92817852D01*
X59219485Y-92911343D01*
X59540000Y-92942911D01*
X59860516Y-92911343D01*
X60168715Y-92817852D01*
X60452752Y-92666031D01*
X60701714Y-92461714D01*
X60906031Y-92212752D01*
X61057852Y-91928715D01*
X61151343Y-91620515D01*
X61175000Y-91380321D01*
X61175000Y-90619678D01*
X61151343Y-90379484D01*
X61057852Y-90071285D01*
X60906031Y-89787248D01*
X60701714Y-89538286D01*
X60452751Y-89333969D01*
X60168714Y-89182148D01*
X59860515Y-89088657D01*
X59540000Y-89057089D01*
X59219484Y-89088657D01*
X58911285Y-89182148D01*
X58627248Y-89333969D01*
X58555739Y-89392655D01*
X58530537Y-89345506D01*
X58451185Y-89248815D01*
X58354494Y-89169463D01*
X58244180Y-89110498D01*
X58124482Y-89074188D01*
X58000000Y-89061928D01*
X57285750Y-89065000D01*
X57127000Y-89223750D01*
X56873000Y-89223750D01*
X56714250Y-89065000D01*
X56507600Y-89064111D01*
X56507600Y-81703978D01*
X59268518Y-78943061D01*
X59378816Y-78965000D01*
X59681184Y-78965000D01*
X59977743Y-78906011D01*
X60257095Y-78790299D01*
X60508505Y-78622312D01*
X60722312Y-78408505D01*
X60800000Y-78292237D01*
X60877688Y-78408505D01*
G37*
G04 #@! TD.AperFunction*
D21*
X68497688Y-78408505D02*
X68711495Y-78622312D01*
X68962905Y-78790299D01*
X69242257Y-78906011D01*
X69459248Y-78949173D01*
X68017256Y-80391166D01*
X67983483Y-80418883D01*
X67872889Y-80553642D01*
X67790711Y-80707388D01*
X67740105Y-80874211D01*
X67727300Y-81004224D01*
X67727300Y-81004231D01*
X67723019Y-81047700D01*
X67727300Y-81091169D01*
X67727301Y-85524472D01*
X67668574Y-85500147D01*
X67391335Y-85445000D01*
X67108665Y-85445000D01*
X66831426Y-85500147D01*
X66570273Y-85608320D01*
X66335241Y-85765363D01*
X66135363Y-85965241D01*
X65978320Y-86200273D01*
X65870147Y-86461426D01*
X65815000Y-86738665D01*
X65815000Y-87021335D01*
X65870147Y-87298574D01*
X65978320Y-87559727D01*
X66135363Y-87794759D01*
X66335241Y-87994637D01*
X66570273Y-88151680D01*
X66831426Y-88259853D01*
X67108665Y-88315000D01*
X67391335Y-88315000D01*
X67668574Y-88259853D01*
X67929727Y-88151680D01*
X68049364Y-88071742D01*
X69310870Y-89333249D01*
X69338583Y-89367017D01*
X69372351Y-89394730D01*
X69372353Y-89394732D01*
X69446789Y-89455820D01*
X69473341Y-89477611D01*
X69627087Y-89559789D01*
X69793910Y-89610395D01*
X69923923Y-89623200D01*
X69923931Y-89623200D01*
X69967400Y-89627481D01*
X70010869Y-89623200D01*
X77254231Y-89623200D01*
X77297700Y-89627481D01*
X77341169Y-89623200D01*
X77341177Y-89623200D01*
X77471190Y-89610395D01*
X77638013Y-89559789D01*
X77791759Y-89477611D01*
X77926517Y-89367017D01*
X77954234Y-89333244D01*
X79189662Y-88097817D01*
X79270273Y-88151680D01*
X79531426Y-88259853D01*
X79808665Y-88315000D01*
X80091335Y-88315000D01*
X80126439Y-88308017D01*
X80315001Y-88496580D01*
X80315001Y-93109490D01*
X80091335Y-93065000D01*
X79808665Y-93065000D01*
X79531426Y-93120147D01*
X79270273Y-93228320D01*
X79035241Y-93385363D01*
X78835363Y-93585241D01*
X78680000Y-93817759D01*
X78524637Y-93585241D01*
X78324759Y-93385363D01*
X78089727Y-93228320D01*
X77828574Y-93120147D01*
X77551335Y-93065000D01*
X77268665Y-93065000D01*
X77233561Y-93071983D01*
X76861834Y-92700256D01*
X76834117Y-92666483D01*
X76699359Y-92555889D01*
X76545613Y-92473711D01*
X76378790Y-92423105D01*
X76248777Y-92410300D01*
X76248769Y-92410300D01*
X76205300Y-92406019D01*
X76161831Y-92410300D01*
X74376569Y-92410300D01*
X74333100Y-92406019D01*
X74289631Y-92410300D01*
X74289623Y-92410300D01*
X74174406Y-92421648D01*
X74159609Y-92423105D01*
X74109003Y-92438457D01*
X73992787Y-92473711D01*
X73839041Y-92555889D01*
X73839039Y-92555890D01*
X73839040Y-92555890D01*
X73738053Y-92638768D01*
X73738051Y-92638770D01*
X73704283Y-92666483D01*
X73676570Y-92700251D01*
X73081037Y-93295785D01*
X73071514Y-93263329D01*
X72816004Y-93142429D01*
X72541816Y-93073700D01*
X72259488Y-93059783D01*
X71979870Y-93101213D01*
X71713708Y-93196397D01*
X71588486Y-93263329D01*
X71516903Y-93507298D01*
X72330000Y-94320395D01*
X72344143Y-94306253D01*
X72523748Y-94485858D01*
X72509605Y-94500000D01*
X72523748Y-94514143D01*
X72344143Y-94693748D01*
X72330000Y-94679605D01*
X71516903Y-95492702D01*
X71586663Y-95730458D01*
X68273121Y-99044000D01*
X68159687Y-99078411D01*
X68005941Y-99160589D01*
X67871183Y-99271183D01*
X67760589Y-99405941D01*
X67678411Y-99559687D01*
X67627805Y-99726510D01*
X67617717Y-99828938D01*
X63088779Y-95300000D01*
X65811928Y-95300000D01*
X65824188Y-95424482D01*
X65860498Y-95544180D01*
X65919463Y-95654494D01*
X65998815Y-95751185D01*
X66095506Y-95830537D01*
X66205820Y-95889502D01*
X66325518Y-95925812D01*
X66450000Y-95938072D01*
X66964250Y-95935000D01*
X67123000Y-95776250D01*
X67123000Y-94627000D01*
X65973750Y-94627000D01*
X65815000Y-94785750D01*
X65811928Y-95300000D01*
X63088779Y-95300000D01*
X62955000Y-95166222D01*
X62955000Y-93700000D01*
X65811928Y-93700000D01*
X65815000Y-94214250D01*
X65973750Y-94373000D01*
X67123000Y-94373000D01*
X67123000Y-93223750D01*
X67377000Y-93223750D01*
X67377000Y-94373000D01*
X67397000Y-94373000D01*
X67397000Y-94627000D01*
X67377000Y-94627000D01*
X67377000Y-95776250D01*
X67535750Y-95935000D01*
X68050000Y-95938072D01*
X68174482Y-95925812D01*
X68294180Y-95889502D01*
X68404494Y-95830537D01*
X68501185Y-95751185D01*
X68580537Y-95654494D01*
X68639502Y-95544180D01*
X68655117Y-95492702D01*
X68976903Y-95492702D01*
X69048486Y-95736671D01*
X69303996Y-95857571D01*
X69578184Y-95926300D01*
X69860512Y-95940217D01*
X70140130Y-95898787D01*
X70406292Y-95803603D01*
X70531514Y-95736671D01*
X70603097Y-95492702D01*
X69790000Y-94679605D01*
X68976903Y-95492702D01*
X68655117Y-95492702D01*
X68675812Y-95424482D01*
X68688072Y-95300000D01*
X68687959Y-95281016D01*
X68797298Y-95313097D01*
X69610395Y-94500000D01*
X69969605Y-94500000D01*
X70782702Y-95313097D01*
X71026671Y-95241514D01*
X71057971Y-95175364D01*
X71093329Y-95241514D01*
X71337298Y-95313097D01*
X72150395Y-94500000D01*
X71337298Y-93686903D01*
X71093329Y-93758486D01*
X71062029Y-93824636D01*
X71026671Y-93758486D01*
X70782702Y-93686903D01*
X69969605Y-94500000D01*
X69610395Y-94500000D01*
X68797298Y-93686903D01*
X68687959Y-93718984D01*
X68688072Y-93700000D01*
X68675812Y-93575518D01*
X68655118Y-93507298D01*
X68976903Y-93507298D01*
X69790000Y-94320395D01*
X70603097Y-93507298D01*
X70531514Y-93263329D01*
X70276004Y-93142429D01*
X70001816Y-93073700D01*
X69719488Y-93059783D01*
X69439870Y-93101213D01*
X69173708Y-93196397D01*
X69048486Y-93263329D01*
X68976903Y-93507298D01*
X68655118Y-93507298D01*
X68639502Y-93455820D01*
X68580537Y-93345506D01*
X68501185Y-93248815D01*
X68404494Y-93169463D01*
X68294180Y-93110498D01*
X68174482Y-93074188D01*
X68050000Y-93061928D01*
X67535750Y-93065000D01*
X67377000Y-93223750D01*
X67123000Y-93223750D01*
X66964250Y-93065000D01*
X66450000Y-93061928D01*
X66325518Y-93074188D01*
X66205820Y-93110498D01*
X66095506Y-93169463D01*
X65998815Y-93248815D01*
X65919463Y-93345506D01*
X65860498Y-93455820D01*
X65824188Y-93575518D01*
X65811928Y-93700000D01*
X62955000Y-93700000D01*
X62955000Y-78684790D01*
X63048505Y-78622312D01*
X63262312Y-78408505D01*
X63340000Y-78292237D01*
X63417688Y-78408505D01*
X63631495Y-78622312D01*
X63882905Y-78790299D01*
X64162257Y-78906011D01*
X64458816Y-78965000D01*
X64761184Y-78965000D01*
X65057743Y-78906011D01*
X65337095Y-78790299D01*
X65588505Y-78622312D01*
X65802312Y-78408505D01*
X65880000Y-78292237D01*
X65957688Y-78408505D01*
X66171495Y-78622312D01*
X66422905Y-78790299D01*
X66702257Y-78906011D01*
X66998816Y-78965000D01*
X67301184Y-78965000D01*
X67597743Y-78906011D01*
X67877095Y-78790299D01*
X68128505Y-78622312D01*
X68342312Y-78408505D01*
X68420000Y-78292237D01*
X68497688Y-78408505D01*
G04 #@! TA.AperFunction,Conductor*
D22*
G36*
X68497688Y-78408505D02*
G01*
X68711495Y-78622312D01*
X68962905Y-78790299D01*
X69242257Y-78906011D01*
X69459248Y-78949173D01*
X68017256Y-80391166D01*
X67983483Y-80418883D01*
X67872889Y-80553642D01*
X67790711Y-80707388D01*
X67740105Y-80874211D01*
X67727300Y-81004224D01*
X67727300Y-81004231D01*
X67723019Y-81047700D01*
X67727300Y-81091169D01*
X67727301Y-85524472D01*
X67668574Y-85500147D01*
X67391335Y-85445000D01*
X67108665Y-85445000D01*
X66831426Y-85500147D01*
X66570273Y-85608320D01*
X66335241Y-85765363D01*
X66135363Y-85965241D01*
X65978320Y-86200273D01*
X65870147Y-86461426D01*
X65815000Y-86738665D01*
X65815000Y-87021335D01*
X65870147Y-87298574D01*
X65978320Y-87559727D01*
X66135363Y-87794759D01*
X66335241Y-87994637D01*
X66570273Y-88151680D01*
X66831426Y-88259853D01*
X67108665Y-88315000D01*
X67391335Y-88315000D01*
X67668574Y-88259853D01*
X67929727Y-88151680D01*
X68049364Y-88071742D01*
X69310870Y-89333249D01*
X69338583Y-89367017D01*
X69372351Y-89394730D01*
X69372353Y-89394732D01*
X69446789Y-89455820D01*
X69473341Y-89477611D01*
X69627087Y-89559789D01*
X69793910Y-89610395D01*
X69923923Y-89623200D01*
X69923931Y-89623200D01*
X69967400Y-89627481D01*
X70010869Y-89623200D01*
X77254231Y-89623200D01*
X77297700Y-89627481D01*
X77341169Y-89623200D01*
X77341177Y-89623200D01*
X77471190Y-89610395D01*
X77638013Y-89559789D01*
X77791759Y-89477611D01*
X77926517Y-89367017D01*
X77954234Y-89333244D01*
X79189662Y-88097817D01*
X79270273Y-88151680D01*
X79531426Y-88259853D01*
X79808665Y-88315000D01*
X80091335Y-88315000D01*
X80126439Y-88308017D01*
X80315001Y-88496580D01*
X80315001Y-93109490D01*
X80091335Y-93065000D01*
X79808665Y-93065000D01*
X79531426Y-93120147D01*
X79270273Y-93228320D01*
X79035241Y-93385363D01*
X78835363Y-93585241D01*
X78680000Y-93817759D01*
X78524637Y-93585241D01*
X78324759Y-93385363D01*
X78089727Y-93228320D01*
X77828574Y-93120147D01*
X77551335Y-93065000D01*
X77268665Y-93065000D01*
X77233561Y-93071983D01*
X76861834Y-92700256D01*
X76834117Y-92666483D01*
X76699359Y-92555889D01*
X76545613Y-92473711D01*
X76378790Y-92423105D01*
X76248777Y-92410300D01*
X76248769Y-92410300D01*
X76205300Y-92406019D01*
X76161831Y-92410300D01*
X74376569Y-92410300D01*
X74333100Y-92406019D01*
X74289631Y-92410300D01*
X74289623Y-92410300D01*
X74174406Y-92421648D01*
X74159609Y-92423105D01*
X74109003Y-92438457D01*
X73992787Y-92473711D01*
X73839041Y-92555889D01*
X73839039Y-92555890D01*
X73839040Y-92555890D01*
X73738053Y-92638768D01*
X73738051Y-92638770D01*
X73704283Y-92666483D01*
X73676570Y-92700251D01*
X73081037Y-93295785D01*
X73071514Y-93263329D01*
X72816004Y-93142429D01*
X72541816Y-93073700D01*
X72259488Y-93059783D01*
X71979870Y-93101213D01*
X71713708Y-93196397D01*
X71588486Y-93263329D01*
X71516903Y-93507298D01*
X72330000Y-94320395D01*
X72344143Y-94306253D01*
X72523748Y-94485858D01*
X72509605Y-94500000D01*
X72523748Y-94514143D01*
X72344143Y-94693748D01*
X72330000Y-94679605D01*
X71516903Y-95492702D01*
X71586663Y-95730458D01*
X68273121Y-99044000D01*
X68159687Y-99078411D01*
X68005941Y-99160589D01*
X67871183Y-99271183D01*
X67760589Y-99405941D01*
X67678411Y-99559687D01*
X67627805Y-99726510D01*
X67617717Y-99828938D01*
X63088779Y-95300000D01*
X65811928Y-95300000D01*
X65824188Y-95424482D01*
X65860498Y-95544180D01*
X65919463Y-95654494D01*
X65998815Y-95751185D01*
X66095506Y-95830537D01*
X66205820Y-95889502D01*
X66325518Y-95925812D01*
X66450000Y-95938072D01*
X66964250Y-95935000D01*
X67123000Y-95776250D01*
X67123000Y-94627000D01*
X65973750Y-94627000D01*
X65815000Y-94785750D01*
X65811928Y-95300000D01*
X63088779Y-95300000D01*
X62955000Y-95166222D01*
X62955000Y-93700000D01*
X65811928Y-93700000D01*
X65815000Y-94214250D01*
X65973750Y-94373000D01*
X67123000Y-94373000D01*
X67123000Y-93223750D01*
X67377000Y-93223750D01*
X67377000Y-94373000D01*
X67397000Y-94373000D01*
X67397000Y-94627000D01*
X67377000Y-94627000D01*
X67377000Y-95776250D01*
X67535750Y-95935000D01*
X68050000Y-95938072D01*
X68174482Y-95925812D01*
X68294180Y-95889502D01*
X68404494Y-95830537D01*
X68501185Y-95751185D01*
X68580537Y-95654494D01*
X68639502Y-95544180D01*
X68655117Y-95492702D01*
X68976903Y-95492702D01*
X69048486Y-95736671D01*
X69303996Y-95857571D01*
X69578184Y-95926300D01*
X69860512Y-95940217D01*
X70140130Y-95898787D01*
X70406292Y-95803603D01*
X70531514Y-95736671D01*
X70603097Y-95492702D01*
X69790000Y-94679605D01*
X68976903Y-95492702D01*
X68655117Y-95492702D01*
X68675812Y-95424482D01*
X68688072Y-95300000D01*
X68687959Y-95281016D01*
X68797298Y-95313097D01*
X69610395Y-94500000D01*
X69969605Y-94500000D01*
X70782702Y-95313097D01*
X71026671Y-95241514D01*
X71057971Y-95175364D01*
X71093329Y-95241514D01*
X71337298Y-95313097D01*
X72150395Y-94500000D01*
X71337298Y-93686903D01*
X71093329Y-93758486D01*
X71062029Y-93824636D01*
X71026671Y-93758486D01*
X70782702Y-93686903D01*
X69969605Y-94500000D01*
X69610395Y-94500000D01*
X68797298Y-93686903D01*
X68687959Y-93718984D01*
X68688072Y-93700000D01*
X68675812Y-93575518D01*
X68655118Y-93507298D01*
X68976903Y-93507298D01*
X69790000Y-94320395D01*
X70603097Y-93507298D01*
X70531514Y-93263329D01*
X70276004Y-93142429D01*
X70001816Y-93073700D01*
X69719488Y-93059783D01*
X69439870Y-93101213D01*
X69173708Y-93196397D01*
X69048486Y-93263329D01*
X68976903Y-93507298D01*
X68655118Y-93507298D01*
X68639502Y-93455820D01*
X68580537Y-93345506D01*
X68501185Y-93248815D01*
X68404494Y-93169463D01*
X68294180Y-93110498D01*
X68174482Y-93074188D01*
X68050000Y-93061928D01*
X67535750Y-93065000D01*
X67377000Y-93223750D01*
X67123000Y-93223750D01*
X66964250Y-93065000D01*
X66450000Y-93061928D01*
X66325518Y-93074188D01*
X66205820Y-93110498D01*
X66095506Y-93169463D01*
X65998815Y-93248815D01*
X65919463Y-93345506D01*
X65860498Y-93455820D01*
X65824188Y-93575518D01*
X65811928Y-93700000D01*
X62955000Y-93700000D01*
X62955000Y-78684790D01*
X63048505Y-78622312D01*
X63262312Y-78408505D01*
X63340000Y-78292237D01*
X63417688Y-78408505D01*
X63631495Y-78622312D01*
X63882905Y-78790299D01*
X64162257Y-78906011D01*
X64458816Y-78965000D01*
X64761184Y-78965000D01*
X65057743Y-78906011D01*
X65337095Y-78790299D01*
X65588505Y-78622312D01*
X65802312Y-78408505D01*
X65880000Y-78292237D01*
X65957688Y-78408505D01*
X66171495Y-78622312D01*
X66422905Y-78790299D01*
X66702257Y-78906011D01*
X66998816Y-78965000D01*
X67301184Y-78965000D01*
X67597743Y-78906011D01*
X67877095Y-78790299D01*
X68128505Y-78622312D01*
X68342312Y-78408505D01*
X68420000Y-78292237D01*
X68497688Y-78408505D01*
G37*
G04 #@! TD.AperFunction*
D21*
X99966000Y-82122421D02*
X97159210Y-84929212D01*
X97175812Y-84874482D01*
X97188072Y-84750000D01*
X97185000Y-84035750D01*
X97026250Y-83877000D01*
X95377000Y-83877000D01*
X95377000Y-83897000D01*
X95123000Y-83897000D01*
X95123000Y-83877000D01*
X93473750Y-83877000D01*
X93315000Y-84035750D01*
X93311928Y-84750000D01*
X93324188Y-84874482D01*
X93360498Y-84994180D01*
X93419463Y-85104494D01*
X93498815Y-85201185D01*
X93595506Y-85280537D01*
X93642655Y-85305739D01*
X93583969Y-85377248D01*
X93432148Y-85661285D01*
X93409040Y-85737462D01*
X92744934Y-85073356D01*
X92717217Y-85039583D01*
X92582459Y-84928989D01*
X92428713Y-84846811D01*
X92261890Y-84796205D01*
X92131877Y-84783400D01*
X92131869Y-84783400D01*
X92088400Y-84779119D01*
X92044931Y-84783400D01*
X79480969Y-84783400D01*
X79437500Y-84779119D01*
X79394031Y-84783400D01*
X79394023Y-84783400D01*
X79264010Y-84796205D01*
X79097187Y-84846811D01*
X79045418Y-84874482D01*
X78943441Y-84928989D01*
X78842453Y-85011868D01*
X78842451Y-85011870D01*
X78808683Y-85039583D01*
X78780970Y-85073351D01*
X78183407Y-85670915D01*
X78149032Y-85647946D01*
X81123779Y-82673200D01*
X93319492Y-82673200D01*
X93311928Y-82750000D01*
X93315000Y-83464250D01*
X93473750Y-83623000D01*
X95123000Y-83623000D01*
X95123000Y-83603000D01*
X95377000Y-83603000D01*
X95377000Y-83623000D01*
X97026250Y-83623000D01*
X97185000Y-83464250D01*
X97188072Y-82750000D01*
X97176669Y-82634222D01*
X97257213Y-82609789D01*
X97410959Y-82527611D01*
X97545717Y-82417017D01*
X97573434Y-82383244D01*
X99966000Y-79990679D01*
X99966000Y-82122421D01*
G04 #@! TA.AperFunction,Conductor*
D22*
G36*
X99966000Y-82122421D02*
G01*
X97159210Y-84929212D01*
X97175812Y-84874482D01*
X97188072Y-84750000D01*
X97185000Y-84035750D01*
X97026250Y-83877000D01*
X95377000Y-83877000D01*
X95377000Y-83897000D01*
X95123000Y-83897000D01*
X95123000Y-83877000D01*
X93473750Y-83877000D01*
X93315000Y-84035750D01*
X93311928Y-84750000D01*
X93324188Y-84874482D01*
X93360498Y-84994180D01*
X93419463Y-85104494D01*
X93498815Y-85201185D01*
X93595506Y-85280537D01*
X93642655Y-85305739D01*
X93583969Y-85377248D01*
X93432148Y-85661285D01*
X93409040Y-85737462D01*
X92744934Y-85073356D01*
X92717217Y-85039583D01*
X92582459Y-84928989D01*
X92428713Y-84846811D01*
X92261890Y-84796205D01*
X92131877Y-84783400D01*
X92131869Y-84783400D01*
X92088400Y-84779119D01*
X92044931Y-84783400D01*
X79480969Y-84783400D01*
X79437500Y-84779119D01*
X79394031Y-84783400D01*
X79394023Y-84783400D01*
X79264010Y-84796205D01*
X79097187Y-84846811D01*
X79045418Y-84874482D01*
X78943441Y-84928989D01*
X78842453Y-85011868D01*
X78842451Y-85011870D01*
X78808683Y-85039583D01*
X78780970Y-85073351D01*
X78183407Y-85670915D01*
X78149032Y-85647946D01*
X81123779Y-82673200D01*
X93319492Y-82673200D01*
X93311928Y-82750000D01*
X93315000Y-83464250D01*
X93473750Y-83623000D01*
X95123000Y-83623000D01*
X95123000Y-83603000D01*
X95377000Y-83603000D01*
X95377000Y-83623000D01*
X97026250Y-83623000D01*
X97185000Y-83464250D01*
X97188072Y-82750000D01*
X97176669Y-82634222D01*
X97257213Y-82609789D01*
X97410959Y-82527611D01*
X97545717Y-82417017D01*
X97573434Y-82383244D01*
X99966000Y-79990679D01*
X99966000Y-82122421D01*
G37*
G04 #@! TD.AperFunction*
D21*
X59723748Y-54555858D02*
X59709605Y-54570000D01*
X60594080Y-55454475D01*
X60775049Y-55394895D01*
X60877688Y-55548505D01*
X61091495Y-55762312D01*
X61342905Y-55930299D01*
X61622257Y-56046011D01*
X61918816Y-56105000D01*
X62221184Y-56105000D01*
X62517743Y-56046011D01*
X62797095Y-55930299D01*
X63048505Y-55762312D01*
X63262312Y-55548505D01*
X63340000Y-55432237D01*
X63417688Y-55548505D01*
X63631495Y-55762312D01*
X63882905Y-55930299D01*
X64162257Y-56046011D01*
X64458816Y-56105000D01*
X64761184Y-56105000D01*
X65057743Y-56046011D01*
X65337095Y-55930299D01*
X65588505Y-55762312D01*
X65802312Y-55548505D01*
X65880000Y-55432237D01*
X65957688Y-55548505D01*
X66171495Y-55762312D01*
X66422905Y-55930299D01*
X66702257Y-56046011D01*
X66998816Y-56105000D01*
X67301184Y-56105000D01*
X67411482Y-56083060D01*
X86585001Y-75256580D01*
X86585000Y-76175210D01*
X86491495Y-76237688D01*
X86277688Y-76451495D01*
X86200000Y-76567763D01*
X86122312Y-76451495D01*
X85908505Y-76237688D01*
X85657095Y-76069701D01*
X85377743Y-75953989D01*
X85081184Y-75895000D01*
X84778816Y-75895000D01*
X84482257Y-75953989D01*
X84202905Y-76069701D01*
X83951495Y-76237688D01*
X83737688Y-76451495D01*
X83635049Y-76605105D01*
X83454080Y-76545525D01*
X82569605Y-77430000D01*
X83454080Y-78314475D01*
X83635049Y-78254895D01*
X83737688Y-78408505D01*
X83949483Y-78620300D01*
X83232920Y-78620300D01*
X83274475Y-78494080D01*
X82390000Y-77609605D01*
X81505525Y-78494080D01*
X81547080Y-78620300D01*
X80692920Y-78620300D01*
X80734475Y-78494080D01*
X79850000Y-77609605D01*
X78965525Y-78494080D01*
X79049208Y-78748261D01*
X79164598Y-78803676D01*
X79109653Y-78848768D01*
X79109651Y-78848770D01*
X79075883Y-78876483D01*
X79048170Y-78910251D01*
X78832688Y-79125733D01*
X78687489Y-79028714D01*
X78517329Y-78958232D01*
X78336689Y-78922300D01*
X78152511Y-78922300D01*
X77971871Y-78958232D01*
X77937908Y-78972300D01*
X77563879Y-78972300D01*
X77540752Y-78949173D01*
X77757743Y-78906011D01*
X78037095Y-78790299D01*
X78288505Y-78622312D01*
X78502312Y-78408505D01*
X78604951Y-78254895D01*
X78785920Y-78314475D01*
X79670395Y-77430000D01*
X80029605Y-77430000D01*
X80914080Y-78314475D01*
X81120000Y-78246681D01*
X81325920Y-78314475D01*
X82210395Y-77430000D01*
X81325920Y-76545525D01*
X81120000Y-76613319D01*
X80914080Y-76545525D01*
X80029605Y-77430000D01*
X79670395Y-77430000D01*
X78785920Y-76545525D01*
X78604951Y-76605105D01*
X78502312Y-76451495D01*
X78416737Y-76365920D01*
X78965525Y-76365920D01*
X79850000Y-77250395D01*
X80734475Y-76365920D01*
X81505525Y-76365920D01*
X82390000Y-77250395D01*
X83274475Y-76365920D01*
X83190792Y-76111739D01*
X82918225Y-75980842D01*
X82625358Y-75905635D01*
X82323447Y-75889009D01*
X82024093Y-75931603D01*
X81738801Y-76031778D01*
X81589208Y-76111739D01*
X81505525Y-76365920D01*
X80734475Y-76365920D01*
X80650792Y-76111739D01*
X80378225Y-75980842D01*
X80085358Y-75905635D01*
X79783447Y-75889009D01*
X79484093Y-75931603D01*
X79198801Y-76031778D01*
X79049208Y-76111739D01*
X78965525Y-76365920D01*
X78416737Y-76365920D01*
X78288505Y-76237688D01*
X78037095Y-76069701D01*
X77757743Y-75953989D01*
X77461184Y-75895000D01*
X77158816Y-75895000D01*
X76862257Y-75953989D01*
X76582905Y-76069701D01*
X76331495Y-76237688D01*
X76117688Y-76451495D01*
X76040000Y-76567763D01*
X75962312Y-76451495D01*
X75748505Y-76237688D01*
X75497095Y-76069701D01*
X75217743Y-75953989D01*
X74921184Y-75895000D01*
X74618816Y-75895000D01*
X74322257Y-75953989D01*
X74042905Y-76069701D01*
X73791495Y-76237688D01*
X73577688Y-76451495D01*
X73500000Y-76567763D01*
X73422312Y-76451495D01*
X73208505Y-76237688D01*
X72957095Y-76069701D01*
X72677743Y-75953989D01*
X72381184Y-75895000D01*
X72078816Y-75895000D01*
X71782257Y-75953989D01*
X71502905Y-76069701D01*
X71251495Y-76237688D01*
X71037688Y-76451495D01*
X70960000Y-76567763D01*
X70882312Y-76451495D01*
X70668505Y-76237688D01*
X70417095Y-76069701D01*
X70137743Y-75953989D01*
X69841184Y-75895000D01*
X69538816Y-75895000D01*
X69242257Y-75953989D01*
X68962905Y-76069701D01*
X68711495Y-76237688D01*
X68497688Y-76451495D01*
X68420000Y-76567763D01*
X68342312Y-76451495D01*
X68128505Y-76237688D01*
X67877095Y-76069701D01*
X67597743Y-75953989D01*
X67301184Y-75895000D01*
X66998816Y-75895000D01*
X66702257Y-75953989D01*
X66422905Y-76069701D01*
X66171495Y-76237688D01*
X65957688Y-76451495D01*
X65880000Y-76567763D01*
X65802312Y-76451495D01*
X65588505Y-76237688D01*
X65337095Y-76069701D01*
X65057743Y-75953989D01*
X64761184Y-75895000D01*
X64458816Y-75895000D01*
X64162257Y-75953989D01*
X63882905Y-76069701D01*
X63631495Y-76237688D01*
X63417688Y-76451495D01*
X63340000Y-76567763D01*
X63262312Y-76451495D01*
X63048505Y-76237688D01*
X62797095Y-76069701D01*
X62517743Y-75953989D01*
X62221184Y-75895000D01*
X61918816Y-75895000D01*
X61622257Y-75953989D01*
X61342905Y-76069701D01*
X61091495Y-76237688D01*
X60877688Y-76451495D01*
X60800000Y-76567763D01*
X60722312Y-76451495D01*
X60508505Y-76237688D01*
X60257095Y-76069701D01*
X59977743Y-75953989D01*
X59681184Y-75895000D01*
X59378816Y-75895000D01*
X59082257Y-75953989D01*
X58802905Y-76069701D01*
X58551495Y-76237688D01*
X58337688Y-76451495D01*
X58260000Y-76567763D01*
X58182312Y-76451495D01*
X57968505Y-76237688D01*
X57717095Y-76069701D01*
X57437743Y-75953989D01*
X57141184Y-75895000D01*
X56838816Y-75895000D01*
X56542257Y-75953989D01*
X56262905Y-76069701D01*
X56011495Y-76237688D01*
X55797688Y-76451495D01*
X55695049Y-76605105D01*
X55514080Y-76545525D01*
X54629605Y-77430000D01*
X55514080Y-78314475D01*
X55695049Y-78254895D01*
X55797688Y-78408505D01*
X56011495Y-78622312D01*
X56262905Y-78790299D01*
X56542257Y-78906011D01*
X56759248Y-78949173D01*
X55070200Y-80638222D01*
X55070200Y-79748577D01*
X55074482Y-79705100D01*
X55057395Y-79531610D01*
X55006789Y-79364787D01*
X54924611Y-79211041D01*
X54814017Y-79076283D01*
X54779692Y-79048113D01*
X54679399Y-78947820D01*
X54815907Y-78928397D01*
X55101199Y-78828222D01*
X55250792Y-78748261D01*
X55334475Y-78494080D01*
X54450000Y-77609605D01*
X54435858Y-77623748D01*
X54256253Y-77444143D01*
X54270395Y-77430000D01*
X53385920Y-76545525D01*
X53204951Y-76605105D01*
X53102312Y-76451495D01*
X53016737Y-76365920D01*
X53565525Y-76365920D01*
X54450000Y-77250395D01*
X55334475Y-76365920D01*
X55250792Y-76111739D01*
X54978225Y-75980842D01*
X54685358Y-75905635D01*
X54383447Y-75889009D01*
X54084093Y-75931603D01*
X53798801Y-76031778D01*
X53649208Y-76111739D01*
X53565525Y-76365920D01*
X53016737Y-76365920D01*
X52888505Y-76237688D01*
X52637095Y-76069701D01*
X52357743Y-75953989D01*
X52061184Y-75895000D01*
X51758816Y-75895000D01*
X51462257Y-75953989D01*
X51182905Y-76069701D01*
X50931495Y-76237688D01*
X50717688Y-76451495D01*
X50640000Y-76567763D01*
X50562312Y-76451495D01*
X50348505Y-76237688D01*
X50097095Y-76069701D01*
X49817743Y-75953989D01*
X49521184Y-75895000D01*
X49218816Y-75895000D01*
X48930500Y-75952349D01*
X48930500Y-64614678D01*
X57911098Y-55634080D01*
X58645525Y-55634080D01*
X58729208Y-55888261D01*
X59001775Y-56019158D01*
X59294642Y-56094365D01*
X59596553Y-56110991D01*
X59895907Y-56068397D01*
X60181199Y-55968222D01*
X60330792Y-55888261D01*
X60414475Y-55634080D01*
X59530000Y-54749605D01*
X58645525Y-55634080D01*
X57911098Y-55634080D01*
X58198728Y-55346451D01*
X58211739Y-55370792D01*
X58465920Y-55454475D01*
X59350395Y-54570000D01*
X59336253Y-54555858D01*
X59515858Y-54376253D01*
X59530000Y-54390395D01*
X59544143Y-54376253D01*
X59723748Y-54555858D01*
G04 #@! TA.AperFunction,Conductor*
D22*
G36*
X59723748Y-54555858D02*
G01*
X59709605Y-54570000D01*
X60594080Y-55454475D01*
X60775049Y-55394895D01*
X60877688Y-55548505D01*
X61091495Y-55762312D01*
X61342905Y-55930299D01*
X61622257Y-56046011D01*
X61918816Y-56105000D01*
X62221184Y-56105000D01*
X62517743Y-56046011D01*
X62797095Y-55930299D01*
X63048505Y-55762312D01*
X63262312Y-55548505D01*
X63340000Y-55432237D01*
X63417688Y-55548505D01*
X63631495Y-55762312D01*
X63882905Y-55930299D01*
X64162257Y-56046011D01*
X64458816Y-56105000D01*
X64761184Y-56105000D01*
X65057743Y-56046011D01*
X65337095Y-55930299D01*
X65588505Y-55762312D01*
X65802312Y-55548505D01*
X65880000Y-55432237D01*
X65957688Y-55548505D01*
X66171495Y-55762312D01*
X66422905Y-55930299D01*
X66702257Y-56046011D01*
X66998816Y-56105000D01*
X67301184Y-56105000D01*
X67411482Y-56083060D01*
X86585001Y-75256580D01*
X86585000Y-76175210D01*
X86491495Y-76237688D01*
X86277688Y-76451495D01*
X86200000Y-76567763D01*
X86122312Y-76451495D01*
X85908505Y-76237688D01*
X85657095Y-76069701D01*
X85377743Y-75953989D01*
X85081184Y-75895000D01*
X84778816Y-75895000D01*
X84482257Y-75953989D01*
X84202905Y-76069701D01*
X83951495Y-76237688D01*
X83737688Y-76451495D01*
X83635049Y-76605105D01*
X83454080Y-76545525D01*
X82569605Y-77430000D01*
X83454080Y-78314475D01*
X83635049Y-78254895D01*
X83737688Y-78408505D01*
X83949483Y-78620300D01*
X83232920Y-78620300D01*
X83274475Y-78494080D01*
X82390000Y-77609605D01*
X81505525Y-78494080D01*
X81547080Y-78620300D01*
X80692920Y-78620300D01*
X80734475Y-78494080D01*
X79850000Y-77609605D01*
X78965525Y-78494080D01*
X79049208Y-78748261D01*
X79164598Y-78803676D01*
X79109653Y-78848768D01*
X79109651Y-78848770D01*
X79075883Y-78876483D01*
X79048170Y-78910251D01*
X78832688Y-79125733D01*
X78687489Y-79028714D01*
X78517329Y-78958232D01*
X78336689Y-78922300D01*
X78152511Y-78922300D01*
X77971871Y-78958232D01*
X77937908Y-78972300D01*
X77563879Y-78972300D01*
X77540752Y-78949173D01*
X77757743Y-78906011D01*
X78037095Y-78790299D01*
X78288505Y-78622312D01*
X78502312Y-78408505D01*
X78604951Y-78254895D01*
X78785920Y-78314475D01*
X79670395Y-77430000D01*
X80029605Y-77430000D01*
X80914080Y-78314475D01*
X81120000Y-78246681D01*
X81325920Y-78314475D01*
X82210395Y-77430000D01*
X81325920Y-76545525D01*
X81120000Y-76613319D01*
X80914080Y-76545525D01*
X80029605Y-77430000D01*
X79670395Y-77430000D01*
X78785920Y-76545525D01*
X78604951Y-76605105D01*
X78502312Y-76451495D01*
X78416737Y-76365920D01*
X78965525Y-76365920D01*
X79850000Y-77250395D01*
X80734475Y-76365920D01*
X81505525Y-76365920D01*
X82390000Y-77250395D01*
X83274475Y-76365920D01*
X83190792Y-76111739D01*
X82918225Y-75980842D01*
X82625358Y-75905635D01*
X82323447Y-75889009D01*
X82024093Y-75931603D01*
X81738801Y-76031778D01*
X81589208Y-76111739D01*
X81505525Y-76365920D01*
X80734475Y-76365920D01*
X80650792Y-76111739D01*
X80378225Y-75980842D01*
X80085358Y-75905635D01*
X79783447Y-75889009D01*
X79484093Y-75931603D01*
X79198801Y-76031778D01*
X79049208Y-76111739D01*
X78965525Y-76365920D01*
X78416737Y-76365920D01*
X78288505Y-76237688D01*
X78037095Y-76069701D01*
X77757743Y-75953989D01*
X77461184Y-75895000D01*
X77158816Y-75895000D01*
X76862257Y-75953989D01*
X76582905Y-76069701D01*
X76331495Y-76237688D01*
X76117688Y-76451495D01*
X76040000Y-76567763D01*
X75962312Y-76451495D01*
X75748505Y-76237688D01*
X75497095Y-76069701D01*
X75217743Y-75953989D01*
X74921184Y-75895000D01*
X74618816Y-75895000D01*
X74322257Y-75953989D01*
X74042905Y-76069701D01*
X73791495Y-76237688D01*
X73577688Y-76451495D01*
X73500000Y-76567763D01*
X73422312Y-76451495D01*
X73208505Y-76237688D01*
X72957095Y-76069701D01*
X72677743Y-75953989D01*
X72381184Y-75895000D01*
X72078816Y-75895000D01*
X71782257Y-75953989D01*
X71502905Y-76069701D01*
X71251495Y-76237688D01*
X71037688Y-76451495D01*
X70960000Y-76567763D01*
X70882312Y-76451495D01*
X70668505Y-76237688D01*
X70417095Y-76069701D01*
X70137743Y-75953989D01*
X69841184Y-75895000D01*
X69538816Y-75895000D01*
X69242257Y-75953989D01*
X68962905Y-76069701D01*
X68711495Y-76237688D01*
X68497688Y-76451495D01*
X68420000Y-76567763D01*
X68342312Y-76451495D01*
X68128505Y-76237688D01*
X67877095Y-76069701D01*
X67597743Y-75953989D01*
X67301184Y-75895000D01*
X66998816Y-75895000D01*
X66702257Y-75953989D01*
X66422905Y-76069701D01*
X66171495Y-76237688D01*
X65957688Y-76451495D01*
X65880000Y-76567763D01*
X65802312Y-76451495D01*
X65588505Y-76237688D01*
X65337095Y-76069701D01*
X65057743Y-75953989D01*
X64761184Y-75895000D01*
X64458816Y-75895000D01*
X64162257Y-75953989D01*
X63882905Y-76069701D01*
X63631495Y-76237688D01*
X63417688Y-76451495D01*
X63340000Y-76567763D01*
X63262312Y-76451495D01*
X63048505Y-76237688D01*
X62797095Y-76069701D01*
X62517743Y-75953989D01*
X62221184Y-75895000D01*
X61918816Y-75895000D01*
X61622257Y-75953989D01*
X61342905Y-76069701D01*
X61091495Y-76237688D01*
X60877688Y-76451495D01*
X60800000Y-76567763D01*
X60722312Y-76451495D01*
X60508505Y-76237688D01*
X60257095Y-76069701D01*
X59977743Y-75953989D01*
X59681184Y-75895000D01*
X59378816Y-75895000D01*
X59082257Y-75953989D01*
X58802905Y-76069701D01*
X58551495Y-76237688D01*
X58337688Y-76451495D01*
X58260000Y-76567763D01*
X58182312Y-76451495D01*
X57968505Y-76237688D01*
X57717095Y-76069701D01*
X57437743Y-75953989D01*
X57141184Y-75895000D01*
X56838816Y-75895000D01*
X56542257Y-75953989D01*
X56262905Y-76069701D01*
X56011495Y-76237688D01*
X55797688Y-76451495D01*
X55695049Y-76605105D01*
X55514080Y-76545525D01*
X54629605Y-77430000D01*
X55514080Y-78314475D01*
X55695049Y-78254895D01*
X55797688Y-78408505D01*
X56011495Y-78622312D01*
X56262905Y-78790299D01*
X56542257Y-78906011D01*
X56759248Y-78949173D01*
X55070200Y-80638222D01*
X55070200Y-79748577D01*
X55074482Y-79705100D01*
X55057395Y-79531610D01*
X55006789Y-79364787D01*
X54924611Y-79211041D01*
X54814017Y-79076283D01*
X54779692Y-79048113D01*
X54679399Y-78947820D01*
X54815907Y-78928397D01*
X55101199Y-78828222D01*
X55250792Y-78748261D01*
X55334475Y-78494080D01*
X54450000Y-77609605D01*
X54435858Y-77623748D01*
X54256253Y-77444143D01*
X54270395Y-77430000D01*
X53385920Y-76545525D01*
X53204951Y-76605105D01*
X53102312Y-76451495D01*
X53016737Y-76365920D01*
X53565525Y-76365920D01*
X54450000Y-77250395D01*
X55334475Y-76365920D01*
X55250792Y-76111739D01*
X54978225Y-75980842D01*
X54685358Y-75905635D01*
X54383447Y-75889009D01*
X54084093Y-75931603D01*
X53798801Y-76031778D01*
X53649208Y-76111739D01*
X53565525Y-76365920D01*
X53016737Y-76365920D01*
X52888505Y-76237688D01*
X52637095Y-76069701D01*
X52357743Y-75953989D01*
X52061184Y-75895000D01*
X51758816Y-75895000D01*
X51462257Y-75953989D01*
X51182905Y-76069701D01*
X50931495Y-76237688D01*
X50717688Y-76451495D01*
X50640000Y-76567763D01*
X50562312Y-76451495D01*
X50348505Y-76237688D01*
X50097095Y-76069701D01*
X49817743Y-75953989D01*
X49521184Y-75895000D01*
X49218816Y-75895000D01*
X48930500Y-75952349D01*
X48930500Y-64614678D01*
X57911098Y-55634080D01*
X58645525Y-55634080D01*
X58729208Y-55888261D01*
X59001775Y-56019158D01*
X59294642Y-56094365D01*
X59596553Y-56110991D01*
X59895907Y-56068397D01*
X60181199Y-55968222D01*
X60330792Y-55888261D01*
X60414475Y-55634080D01*
X59530000Y-54749605D01*
X58645525Y-55634080D01*
X57911098Y-55634080D01*
X58198728Y-55346451D01*
X58211739Y-55370792D01*
X58465920Y-55454475D01*
X59350395Y-54570000D01*
X59336253Y-54555858D01*
X59515858Y-54376253D01*
X59530000Y-54390395D01*
X59544143Y-54376253D01*
X59723748Y-54555858D01*
G37*
G04 #@! TD.AperFunction*
D21*
X81197688Y-55548505D02*
X81411495Y-55762312D01*
X81662905Y-55930299D01*
X81942257Y-56046011D01*
X82238816Y-56105000D01*
X82541184Y-56105000D01*
X82651482Y-56083060D01*
X92316737Y-65748316D01*
X92257111Y-65773014D01*
X92103972Y-65875338D01*
X91973738Y-66005572D01*
X91871414Y-66158711D01*
X91800932Y-66328871D01*
X91765000Y-66509511D01*
X91765000Y-66693689D01*
X91800932Y-66874329D01*
X91871414Y-67044489D01*
X91973738Y-67197628D01*
X92103972Y-67327862D01*
X92257111Y-67430186D01*
X92291077Y-67444255D01*
X98042101Y-73195280D01*
X98042100Y-75951022D01*
X97865358Y-75905635D01*
X97563447Y-75889009D01*
X97264093Y-75931603D01*
X96978801Y-76031778D01*
X96829208Y-76111739D01*
X96745525Y-76365920D01*
X97630000Y-77250395D01*
X97644143Y-77236253D01*
X97823748Y-77415858D01*
X97809605Y-77430000D01*
X97823748Y-77444143D01*
X97644143Y-77623748D01*
X97630000Y-77609605D01*
X96745525Y-78494080D01*
X96787080Y-78620300D01*
X96070517Y-78620300D01*
X96282312Y-78408505D01*
X96384951Y-78254895D01*
X96565920Y-78314475D01*
X97450395Y-77430000D01*
X96565920Y-76545525D01*
X96384951Y-76605105D01*
X96282312Y-76451495D01*
X96068505Y-76237688D01*
X95817095Y-76069701D01*
X95537743Y-75953989D01*
X95241184Y-75895000D01*
X94938816Y-75895000D01*
X94642257Y-75953989D01*
X94362905Y-76069701D01*
X94111495Y-76237688D01*
X93897688Y-76451495D01*
X93820000Y-76567763D01*
X93742312Y-76451495D01*
X93528505Y-76237688D01*
X93277095Y-76069701D01*
X92997743Y-75953989D01*
X92701184Y-75895000D01*
X92398816Y-75895000D01*
X92102257Y-75953989D01*
X91822905Y-76069701D01*
X91571495Y-76237688D01*
X91357688Y-76451495D01*
X91280000Y-76567763D01*
X91202312Y-76451495D01*
X90988505Y-76237688D01*
X90737095Y-76069701D01*
X90457743Y-75953989D01*
X90161184Y-75895000D01*
X89858816Y-75895000D01*
X89562257Y-75953989D01*
X89282905Y-76069701D01*
X89031495Y-76237688D01*
X88817688Y-76451495D01*
X88740000Y-76567763D01*
X88662312Y-76451495D01*
X88448505Y-76237688D01*
X88355000Y-76175210D01*
X88355000Y-74933469D01*
X88359281Y-74890000D01*
X88355000Y-74846531D01*
X88355000Y-74846523D01*
X88342195Y-74716510D01*
X88291589Y-74549687D01*
X88291589Y-74549686D01*
X88209411Y-74395941D01*
X88126532Y-74294953D01*
X88126530Y-74294951D01*
X88098817Y-74261183D01*
X88065049Y-74233470D01*
X69920751Y-56089173D01*
X70137743Y-56046011D01*
X70417095Y-55930299D01*
X70668505Y-55762312D01*
X70882312Y-55548505D01*
X70960000Y-55432237D01*
X71037688Y-55548505D01*
X71251495Y-55762312D01*
X71502905Y-55930299D01*
X71782257Y-56046011D01*
X72078816Y-56105000D01*
X72381184Y-56105000D01*
X72677743Y-56046011D01*
X72957095Y-55930299D01*
X73208505Y-55762312D01*
X73422312Y-55548505D01*
X73500000Y-55432237D01*
X73577688Y-55548505D01*
X73791495Y-55762312D01*
X74042905Y-55930299D01*
X74322257Y-56046011D01*
X74618816Y-56105000D01*
X74921184Y-56105000D01*
X75217743Y-56046011D01*
X75497095Y-55930299D01*
X75748505Y-55762312D01*
X75962312Y-55548505D01*
X76040000Y-55432237D01*
X76117688Y-55548505D01*
X76331495Y-55762312D01*
X76582905Y-55930299D01*
X76862257Y-56046011D01*
X77158816Y-56105000D01*
X77461184Y-56105000D01*
X77757743Y-56046011D01*
X78037095Y-55930299D01*
X78288505Y-55762312D01*
X78502312Y-55548505D01*
X78580000Y-55432237D01*
X78657688Y-55548505D01*
X78871495Y-55762312D01*
X79122905Y-55930299D01*
X79402257Y-56046011D01*
X79698816Y-56105000D01*
X80001184Y-56105000D01*
X80297743Y-56046011D01*
X80577095Y-55930299D01*
X80828505Y-55762312D01*
X81042312Y-55548505D01*
X81120000Y-55432237D01*
X81197688Y-55548505D01*
G04 #@! TA.AperFunction,Conductor*
D22*
G36*
X81197688Y-55548505D02*
G01*
X81411495Y-55762312D01*
X81662905Y-55930299D01*
X81942257Y-56046011D01*
X82238816Y-56105000D01*
X82541184Y-56105000D01*
X82651482Y-56083060D01*
X92316737Y-65748316D01*
X92257111Y-65773014D01*
X92103972Y-65875338D01*
X91973738Y-66005572D01*
X91871414Y-66158711D01*
X91800932Y-66328871D01*
X91765000Y-66509511D01*
X91765000Y-66693689D01*
X91800932Y-66874329D01*
X91871414Y-67044489D01*
X91973738Y-67197628D01*
X92103972Y-67327862D01*
X92257111Y-67430186D01*
X92291077Y-67444255D01*
X98042101Y-73195280D01*
X98042100Y-75951022D01*
X97865358Y-75905635D01*
X97563447Y-75889009D01*
X97264093Y-75931603D01*
X96978801Y-76031778D01*
X96829208Y-76111739D01*
X96745525Y-76365920D01*
X97630000Y-77250395D01*
X97644143Y-77236253D01*
X97823748Y-77415858D01*
X97809605Y-77430000D01*
X97823748Y-77444143D01*
X97644143Y-77623748D01*
X97630000Y-77609605D01*
X96745525Y-78494080D01*
X96787080Y-78620300D01*
X96070517Y-78620300D01*
X96282312Y-78408505D01*
X96384951Y-78254895D01*
X96565920Y-78314475D01*
X97450395Y-77430000D01*
X96565920Y-76545525D01*
X96384951Y-76605105D01*
X96282312Y-76451495D01*
X96068505Y-76237688D01*
X95817095Y-76069701D01*
X95537743Y-75953989D01*
X95241184Y-75895000D01*
X94938816Y-75895000D01*
X94642257Y-75953989D01*
X94362905Y-76069701D01*
X94111495Y-76237688D01*
X93897688Y-76451495D01*
X93820000Y-76567763D01*
X93742312Y-76451495D01*
X93528505Y-76237688D01*
X93277095Y-76069701D01*
X92997743Y-75953989D01*
X92701184Y-75895000D01*
X92398816Y-75895000D01*
X92102257Y-75953989D01*
X91822905Y-76069701D01*
X91571495Y-76237688D01*
X91357688Y-76451495D01*
X91280000Y-76567763D01*
X91202312Y-76451495D01*
X90988505Y-76237688D01*
X90737095Y-76069701D01*
X90457743Y-75953989D01*
X90161184Y-75895000D01*
X89858816Y-75895000D01*
X89562257Y-75953989D01*
X89282905Y-76069701D01*
X89031495Y-76237688D01*
X88817688Y-76451495D01*
X88740000Y-76567763D01*
X88662312Y-76451495D01*
X88448505Y-76237688D01*
X88355000Y-76175210D01*
X88355000Y-74933469D01*
X88359281Y-74890000D01*
X88355000Y-74846531D01*
X88355000Y-74846523D01*
X88342195Y-74716510D01*
X88291589Y-74549687D01*
X88291589Y-74549686D01*
X88209411Y-74395941D01*
X88126532Y-74294953D01*
X88126530Y-74294951D01*
X88098817Y-74261183D01*
X88065049Y-74233470D01*
X69920751Y-56089173D01*
X70137743Y-56046011D01*
X70417095Y-55930299D01*
X70668505Y-55762312D01*
X70882312Y-55548505D01*
X70960000Y-55432237D01*
X71037688Y-55548505D01*
X71251495Y-55762312D01*
X71502905Y-55930299D01*
X71782257Y-56046011D01*
X72078816Y-56105000D01*
X72381184Y-56105000D01*
X72677743Y-56046011D01*
X72957095Y-55930299D01*
X73208505Y-55762312D01*
X73422312Y-55548505D01*
X73500000Y-55432237D01*
X73577688Y-55548505D01*
X73791495Y-55762312D01*
X74042905Y-55930299D01*
X74322257Y-56046011D01*
X74618816Y-56105000D01*
X74921184Y-56105000D01*
X75217743Y-56046011D01*
X75497095Y-55930299D01*
X75748505Y-55762312D01*
X75962312Y-55548505D01*
X76040000Y-55432237D01*
X76117688Y-55548505D01*
X76331495Y-55762312D01*
X76582905Y-55930299D01*
X76862257Y-56046011D01*
X77158816Y-56105000D01*
X77461184Y-56105000D01*
X77757743Y-56046011D01*
X78037095Y-55930299D01*
X78288505Y-55762312D01*
X78502312Y-55548505D01*
X78580000Y-55432237D01*
X78657688Y-55548505D01*
X78871495Y-55762312D01*
X79122905Y-55930299D01*
X79402257Y-56046011D01*
X79698816Y-56105000D01*
X80001184Y-56105000D01*
X80297743Y-56046011D01*
X80577095Y-55930299D01*
X80828505Y-55762312D01*
X81042312Y-55548505D01*
X81120000Y-55432237D01*
X81197688Y-55548505D01*
G37*
G04 #@! TD.AperFunction*
M02*
