G04 #@! TF.GenerationSoftware,KiCad,Pcbnew,(5.1.8)-1*
G04 #@! TF.CreationDate,2021-09-19T21:20:28+02:00*
G04 #@! TF.ProjectId,sdr-controller,7364722d-636f-46e7-9472-6f6c6c65722e,rev?*
G04 #@! TF.SameCoordinates,Original*
G04 #@! TF.FileFunction,Copper,L1,Top*
G04 #@! TF.FilePolarity,Positive*
%FSLAX46Y46*%
G04 Gerber Fmt 4.6, Leading zero omitted, Abs format (unit mm)*
G04 Created by KiCad (PCBNEW (5.1.8)-1) date 2021-09-19 21:20:28*
%MOMM*%
%LPD*%
G01*
G04 APERTURE LIST*
G04 #@! TA.AperFunction,ComponentPad*
%ADD10R,2.000000X2.600000*%
G04 #@! TD*
G04 #@! TA.AperFunction,ComponentPad*
%ADD11O,2.000000X2.600000*%
G04 #@! TD*
G04 #@! TA.AperFunction,ComponentPad*
%ADD12R,2.600000X2.000000*%
G04 #@! TD*
G04 #@! TA.AperFunction,ComponentPad*
%ADD13O,2.600000X2.000000*%
G04 #@! TD*
G04 #@! TA.AperFunction,SMDPad,CuDef*
%ADD14R,1.500000X1.800000*%
G04 #@! TD*
G04 #@! TA.AperFunction,ComponentPad*
%ADD15C,1.800000*%
G04 #@! TD*
G04 #@! TA.AperFunction,ComponentPad*
%ADD16C,1.600000*%
G04 #@! TD*
G04 #@! TA.AperFunction,ComponentPad*
%ADD17R,1.600000X1.600000*%
G04 #@! TD*
G04 #@! TA.AperFunction,ComponentPad*
%ADD18R,1.700000X1.700000*%
G04 #@! TD*
G04 #@! TA.AperFunction,ComponentPad*
%ADD19O,1.700000X1.700000*%
G04 #@! TD*
G04 #@! TA.AperFunction,ViaPad*
%ADD20C,0.600000*%
G04 #@! TD*
G04 #@! TA.AperFunction,Conductor*
%ADD21C,0.500000*%
G04 #@! TD*
G04 APERTURE END LIST*
D10*
X97830000Y-109250000D03*
D11*
X95290000Y-109250000D03*
X92750000Y-109250000D03*
X90210000Y-109250000D03*
X87670000Y-109250000D03*
D10*
X73500000Y-109250000D03*
D11*
X70960000Y-109250000D03*
X68420000Y-109250000D03*
X65880000Y-109250000D03*
X63340000Y-109250000D03*
D12*
X47000000Y-109750000D03*
D13*
X47000000Y-107210000D03*
D10*
X95500000Y-42500000D03*
D11*
X92960000Y-42500000D03*
X90420000Y-42500000D03*
X87880000Y-42500000D03*
X85340000Y-42500000D03*
X82800000Y-42500000D03*
X80260000Y-42500000D03*
D12*
X95250000Y-83750000D03*
D13*
X95250000Y-86290000D03*
X95250000Y-88830000D03*
X95250000Y-91370000D03*
X95250000Y-93910000D03*
X95250000Y-96450000D03*
X95250000Y-98990000D03*
D10*
X51000000Y-42000000D03*
D11*
X53540000Y-42000000D03*
D10*
X59000000Y-42000000D03*
D11*
X61540000Y-42000000D03*
D10*
X57000000Y-91000000D03*
D11*
X59540000Y-91000000D03*
D10*
X48750000Y-91000000D03*
D11*
X51290000Y-91000000D03*
D10*
X67000000Y-42000000D03*
D11*
X69540000Y-42000000D03*
D14*
X54250000Y-49500000D03*
X50650000Y-49500000D03*
X62500000Y-49500000D03*
X58900000Y-49500000D03*
X59500000Y-84000000D03*
X55900000Y-84000000D03*
X51550000Y-84000000D03*
X47950000Y-84000000D03*
X70300000Y-49500000D03*
X66700000Y-49500000D03*
D15*
X49370000Y-77430000D03*
X51910000Y-77430000D03*
X54450000Y-77430000D03*
X56990000Y-77430000D03*
X59530000Y-77430000D03*
X62070000Y-77430000D03*
X64610000Y-77430000D03*
X67150000Y-77430000D03*
X69690000Y-77430000D03*
X72230000Y-77430000D03*
X74770000Y-77430000D03*
X77310000Y-77430000D03*
X59530000Y-54570000D03*
X62070000Y-54570000D03*
X64610000Y-54570000D03*
X67150000Y-54570000D03*
X69690000Y-54570000D03*
X72230000Y-54570000D03*
X74770000Y-54570000D03*
X77310000Y-54570000D03*
X79850000Y-54570000D03*
X82390000Y-54570000D03*
X84930000Y-54570000D03*
X87470000Y-54570000D03*
X90010000Y-54570000D03*
X92550000Y-54570000D03*
X95090000Y-54570000D03*
X97630000Y-54570000D03*
X79850000Y-77430000D03*
X82390000Y-77430000D03*
X84930000Y-77430000D03*
X87470000Y-77430000D03*
X90010000Y-77430000D03*
X92550000Y-77430000D03*
X95090000Y-77430000D03*
X97630000Y-77430000D03*
D16*
X85030000Y-86880000D03*
X85030000Y-94500000D03*
X67250000Y-86880000D03*
X69790000Y-86880000D03*
X72330000Y-86880000D03*
X74870000Y-86880000D03*
X77410000Y-86880000D03*
X79950000Y-86880000D03*
X82490000Y-86880000D03*
X82490000Y-94500000D03*
X79950000Y-94500000D03*
X77410000Y-94500000D03*
X74870000Y-94500000D03*
X72330000Y-94500000D03*
X69790000Y-94500000D03*
D17*
X67250000Y-94500000D03*
D14*
X58500000Y-111000000D03*
X54900000Y-111000000D03*
X83550000Y-111250000D03*
X79950000Y-111250000D03*
X58500000Y-107000000D03*
X54900000Y-107000000D03*
X83550000Y-107000000D03*
X79950000Y-107000000D03*
D18*
X63420000Y-101250000D03*
D19*
X65960000Y-101250000D03*
X68500000Y-101250000D03*
X71040000Y-101250000D03*
X73580000Y-101250000D03*
X76120000Y-101250000D03*
X78660000Y-101250000D03*
X81200000Y-101250000D03*
X83740000Y-101250000D03*
X86280000Y-101250000D03*
D20*
X52539000Y-82671500D03*
X75137700Y-50833800D03*
X72926500Y-51240600D03*
X98373300Y-88574200D03*
X86760000Y-86971200D03*
X78244600Y-79857300D03*
X92700000Y-66601600D03*
D21*
X50468500Y-92718500D02*
X48750000Y-91000000D01*
X52870000Y-91000000D02*
X52870000Y-91713500D01*
X52870000Y-91713500D02*
X51865000Y-92718500D01*
X51865000Y-92718500D02*
X50468500Y-92718500D01*
X50468500Y-92718500D02*
X50468500Y-106281500D01*
X50468500Y-106281500D02*
X47000000Y-109750000D01*
X52870000Y-91000000D02*
X55500000Y-91000000D01*
X54450000Y-77430000D02*
X50399000Y-81481000D01*
X50399000Y-81481000D02*
X50399000Y-85899000D01*
X50399000Y-85899000D02*
X52870000Y-88370000D01*
X52870000Y-88370000D02*
X52870000Y-91000000D01*
X85030000Y-94500000D02*
X87447400Y-92082600D01*
X87447400Y-92082600D02*
X87447400Y-82487400D01*
X87447400Y-82487400D02*
X82390000Y-77430000D01*
X86280000Y-101250000D02*
X86280000Y-95750000D01*
X86280000Y-95750000D02*
X85030000Y-94500000D01*
X57000000Y-91000000D02*
X55500000Y-91000000D01*
X95250000Y-83750000D02*
X95250000Y-82250000D01*
X97630000Y-77430000D02*
X97630000Y-79870000D01*
X97630000Y-79870000D02*
X95250000Y-82250000D01*
X67000000Y-42000000D02*
X67000000Y-43800000D01*
X59530000Y-54570000D02*
X62065000Y-52035000D01*
X62065000Y-52035000D02*
X66397800Y-52035000D01*
X66397800Y-52035000D02*
X67827400Y-50605400D01*
X67827400Y-50605400D02*
X67827400Y-44627400D01*
X67827400Y-44627400D02*
X67000000Y-43800000D01*
X63420000Y-101250000D02*
X63420000Y-99630000D01*
X63420000Y-99630000D02*
X67250000Y-95800000D01*
X68420000Y-109250000D02*
X68420000Y-107450000D01*
X63420000Y-101250000D02*
X63420000Y-102600000D01*
X63420000Y-102600000D02*
X68270000Y-107450000D01*
X68270000Y-107450000D02*
X68420000Y-107450000D01*
X67250000Y-94500000D02*
X67250000Y-95800000D01*
X65960000Y-101250000D02*
X70974500Y-96235500D01*
X70974500Y-96235500D02*
X73134500Y-96235500D01*
X73134500Y-96235500D02*
X74870000Y-94500000D01*
X73580000Y-101250000D02*
X74869000Y-102539000D01*
X74869000Y-102539000D02*
X79179500Y-102539000D01*
X79179500Y-102539000D02*
X79887400Y-101831100D01*
X79887400Y-101831100D02*
X79887400Y-97102600D01*
X79887400Y-97102600D02*
X82490000Y-94500000D01*
X78660000Y-101250000D02*
X78660000Y-99900000D01*
X78660000Y-99900000D02*
X76230500Y-97470500D01*
X76230500Y-97470500D02*
X76230500Y-86393100D01*
X76230500Y-86393100D02*
X76923400Y-85700200D01*
X76923400Y-85700200D02*
X81310200Y-85700200D01*
X81310200Y-85700200D02*
X82490000Y-86880000D01*
X83740000Y-101250000D02*
X83740000Y-93210000D01*
X83740000Y-93210000D02*
X77410000Y-86880000D01*
X47000000Y-107210000D02*
X47000000Y-105710000D01*
X62070000Y-54570000D02*
X46822600Y-69817400D01*
X46822600Y-69817400D02*
X46822600Y-105532600D01*
X46822600Y-105532600D02*
X47000000Y-105710000D01*
X58500000Y-111000000D02*
X58500000Y-109600000D01*
X58500000Y-109600000D02*
X57372600Y-108472600D01*
X57372600Y-108472600D02*
X57372600Y-99587700D01*
X57372600Y-99587700D02*
X68429400Y-88530900D01*
X68429400Y-88530900D02*
X68429400Y-81249400D01*
X68429400Y-81249400D02*
X64610000Y-77430000D01*
X58500000Y-111000000D02*
X64130000Y-111000000D01*
X64130000Y-111000000D02*
X65880000Y-109250000D01*
X77310000Y-77430000D02*
X71060000Y-83680000D01*
X71060000Y-83680000D02*
X71060000Y-87339500D01*
X71060000Y-87339500D02*
X59750000Y-98649500D01*
X59750000Y-98649500D02*
X59750000Y-107000000D01*
X58500000Y-107000000D02*
X59750000Y-107000000D01*
X63340000Y-109250000D02*
X61840000Y-109250000D01*
X59750000Y-107000000D02*
X59750000Y-107160000D01*
X59750000Y-107160000D02*
X61840000Y-109250000D01*
X83550000Y-111250000D02*
X88210000Y-111250000D01*
X88210000Y-111250000D02*
X90210000Y-109250000D01*
X83550000Y-107000000D02*
X84800000Y-107000000D01*
X87670000Y-109250000D02*
X86170000Y-109250000D01*
X84800000Y-107000000D02*
X84800000Y-107880000D01*
X84800000Y-107880000D02*
X86170000Y-109250000D01*
X69540000Y-42000000D02*
X69540000Y-43800000D01*
X70300000Y-49500000D02*
X70300000Y-44560000D01*
X70300000Y-44560000D02*
X69540000Y-43800000D01*
X51290000Y-91000000D02*
X51290000Y-89200000D01*
X47950000Y-84000000D02*
X47950000Y-85860000D01*
X47950000Y-85860000D02*
X51290000Y-89200000D01*
X52539000Y-82671500D02*
X53321500Y-82671500D01*
X53321500Y-82671500D02*
X54650000Y-84000000D01*
X55900000Y-84000000D02*
X54650000Y-84000000D01*
X55900000Y-84000000D02*
X57150000Y-84000000D01*
X57150000Y-84000000D02*
X59540000Y-86390000D01*
X59540000Y-86390000D02*
X59540000Y-91000000D01*
X77310000Y-54570000D02*
X77310000Y-53006100D01*
X77310000Y-53006100D02*
X75137700Y-50833800D01*
X58900000Y-49500000D02*
X60150000Y-49500000D01*
X60150000Y-49500000D02*
X61540000Y-48110000D01*
X61540000Y-48110000D02*
X61540000Y-42000000D01*
X72230000Y-54570000D02*
X72230000Y-51937100D01*
X72230000Y-51937100D02*
X72926500Y-51240600D01*
X50650000Y-49500000D02*
X51900000Y-49500000D01*
X51900000Y-49500000D02*
X53540000Y-47860000D01*
X53540000Y-47860000D02*
X53540000Y-42000000D01*
X79950000Y-111250000D02*
X78700000Y-111250000D01*
X78700000Y-111250000D02*
X77672600Y-112277400D01*
X77672600Y-112277400D02*
X57427400Y-112277400D01*
X57427400Y-112277400D02*
X56150000Y-111000000D01*
X79950000Y-107000000D02*
X79950000Y-111250000D01*
X54900000Y-111000000D02*
X56150000Y-111000000D01*
X92960000Y-42500000D02*
X90023800Y-39563800D01*
X90023800Y-39563800D02*
X66523900Y-39563800D01*
X66523900Y-39563800D02*
X65622600Y-40465100D01*
X65622600Y-40465100D02*
X65622600Y-49500000D01*
X62500000Y-49500000D02*
X61250000Y-49500000D01*
X61250000Y-49500000D02*
X59972600Y-50777400D01*
X59972600Y-50777400D02*
X56777400Y-50777400D01*
X56777400Y-50777400D02*
X55500000Y-49500000D01*
X65622600Y-49500000D02*
X62500000Y-49500000D01*
X54250000Y-49500000D02*
X55500000Y-49500000D01*
X66700000Y-49500000D02*
X65622600Y-49500000D01*
X97630000Y-54570000D02*
X92960000Y-49900000D01*
X92960000Y-49900000D02*
X92960000Y-42500000D01*
X58250000Y-84000000D02*
X56179800Y-81929800D01*
X56179800Y-81929800D02*
X52220200Y-81929800D01*
X52220200Y-81929800D02*
X51550000Y-82600000D01*
X54900000Y-107000000D02*
X54900000Y-101173000D01*
X54900000Y-101173000D02*
X63630000Y-92443000D01*
X63630000Y-92443000D02*
X63630000Y-86880000D01*
X54900000Y-111000000D02*
X54900000Y-107000000D01*
X63630000Y-86880000D02*
X60750000Y-84000000D01*
X67250000Y-86880000D02*
X63630000Y-86880000D01*
X95079600Y-86460400D02*
X95250000Y-86290000D01*
X81200000Y-107000000D02*
X83438100Y-104761900D01*
X83438100Y-104761900D02*
X84545800Y-104761900D01*
X84545800Y-104761900D02*
X91900200Y-97407500D01*
X91900200Y-97407500D02*
X91900200Y-89639800D01*
X91900200Y-89639800D02*
X95079600Y-86460400D01*
X90010000Y-77430000D02*
X90010000Y-81390900D01*
X90010000Y-81390900D02*
X95079600Y-86460400D01*
X79950000Y-107000000D02*
X81200000Y-107000000D01*
X59500000Y-84000000D02*
X60750000Y-84000000D01*
X59500000Y-84000000D02*
X58250000Y-84000000D01*
X51550000Y-84000000D02*
X51550000Y-82600000D01*
X95250000Y-88830000D02*
X98117500Y-88830000D01*
X98117500Y-88830000D02*
X98373300Y-88574200D01*
X78244600Y-79857300D02*
X79766500Y-79857300D01*
X79766500Y-79857300D02*
X86760000Y-86850800D01*
X86760000Y-86850800D02*
X86760000Y-86971200D01*
X85340000Y-42500000D02*
X83031100Y-40191100D01*
X83031100Y-40191100D02*
X79401900Y-40191100D01*
X79401900Y-40191100D02*
X78132300Y-41460700D01*
X78132300Y-41460700D02*
X78132300Y-43852000D01*
X78132300Y-43852000D02*
X67414300Y-54570000D01*
X67414300Y-54570000D02*
X67150000Y-54570000D01*
X95250000Y-93910000D02*
X99050600Y-90109400D01*
X99050600Y-90109400D02*
X99050600Y-77000400D01*
X99050600Y-77000400D02*
X98202900Y-76152700D01*
X98202900Y-76152700D02*
X88747300Y-76152700D01*
X88747300Y-76152700D02*
X87470000Y-77430000D01*
X82800000Y-42500000D02*
X81118400Y-40818400D01*
X81118400Y-40818400D02*
X79661800Y-40818400D01*
X79661800Y-40818400D02*
X78882600Y-41597600D01*
X78882600Y-41597600D02*
X78882600Y-43989000D01*
X78882600Y-43989000D02*
X69690000Y-53181600D01*
X69690000Y-53181600D02*
X69690000Y-54570000D01*
X86834700Y-75525300D02*
X86834700Y-71714700D01*
X86834700Y-71714700D02*
X69690000Y-54570000D01*
X95250000Y-96450000D02*
X99677900Y-92022100D01*
X99677900Y-92022100D02*
X99677900Y-76722400D01*
X99677900Y-76722400D02*
X98480800Y-75525300D01*
X98480800Y-75525300D02*
X86834700Y-75525300D01*
X86834700Y-75525300D02*
X84930000Y-77430000D01*
X80260000Y-44300000D02*
X74460400Y-50099600D01*
X74460400Y-50099600D02*
X74460400Y-54260400D01*
X74460400Y-54260400D02*
X74770000Y-54570000D01*
X95250000Y-98990000D02*
X100337600Y-93902400D01*
X100337600Y-93902400D02*
X100337600Y-76490700D01*
X100337600Y-76490700D02*
X80050700Y-56203800D01*
X80050700Y-56203800D02*
X76403800Y-56203800D01*
X76403800Y-56203800D02*
X74770000Y-54570000D01*
X80260000Y-42500000D02*
X80260000Y-44300000D01*
X92700000Y-66601600D02*
X92700000Y-62340000D01*
X92700000Y-62340000D02*
X84930000Y-54570000D01*
M02*
